  0
SECTION
  2
HEADER
  9
$ANGBASE
  50
0.0
  9
$ANGDIR
  70
1
  9
$MEASUREMENT
  70
1
  0
ENDSEC
  0
SECTION
  2
TABLES
  0
TABLE
  2
LTYPE
  70
4
  0
LTYPE
  5
40F
  2
CONTINUOUS
  70
0
  3
Solid line
  72
65
  73
0
  40
0.0
  0
LTYPE
  5
410
  2
DASHDOT
 70
0
  3
Dash Dot ____ _ ____ _
 72
65
 73
4
 40
2.0
 49
1.25
 49
-0.25
 49
0.25
 49
-0.25
  0
LTYPE
  5
411
  2
DASHED
 70
0
  3
Dashed __ __ __ __ __
 72
65
 73
2
 40
0.75
 49
0.5
 49
-0.25
  0
LTYPE
  5
43B
  2
DOTTED
 70
0
  3
Dotted .  .  .  .
 72
65
 73
2
 40
0.2
 49
0.0
 49
-0.2
  0
ENDTAB
  0
TABLE
  2
STYLE
  70
4
  0
STYLE
  2
KICAD
  70
0
  40
0
  41
1
  42
1
  50
0
  71
0
  3
isocp.shx
  0
STYLE
  2
KICADB
  70
0
  40
0
  41
1
  42
1
  50
0
  71
0
  3
isocp.shx
  0
STYLE
  2
KICADI
  70
0
  40
0
  41
1
  42
1
  50
15
  71
0
  3
isocp.shx
  0
STYLE
  2
KICADBI
  70
0
  40
0
  41
1
  42
1
  50
15
  71
0
  3
isocp.shx
  0
ENDTAB
  0
TABLE
  2
LAYER
  70
1
  0
LAYER
  2
BLACK
  70
0
  62
7
  6
CONTINUOUS
  0
ENDTAB
  0
ENDSEC
  0
SECTION
  2
ENTITIES
0
ARC
8
BLACK
10
374.65
20
-199.231
40
3.175
50
-90
51
-0
0
ARC
8
BLACK
10
22.225
20
-199.231
40
3.175
50
180
51
270
0
ARC
8
BLACK
10
374.65
20
-54.7878
40
3.175
50
-0
51
90
0
ARC
8
BLACK
10
22.225
20
-54.7687
40
3.175
50
90
51
180
0
LINE
8
BLACK
6
CONTINUOUS
10
377.825
20
-76.2
11
377.825
21
-54.7878
0
LINE
8
BLACK
6
CONTINUOUS
10
19.05
20
-54.7687
11
19.05
21
-76.2
0
LINE
8
BLACK
6
CONTINUOUS
10
374.65
20
-51.6128
11
22.225
21
-51.5938
0
LINE
8
BLACK
6
CONTINUOUS
10
19.05
20
-199.231
11
19.05
21
-76.2
0
LINE
8
BLACK
6
CONTINUOUS
10
374.65
20
-202.406
11
22.225
21
-202.406
0
LINE
8
BLACK
6
CONTINUOUS
10
377.825
20
-76.2
11
377.825
21
-199.231
0
LINE
8
BLACK
6
CONTINUOUS
10
357.582
20
-89.6125
11
359.332
21
-91.3625
0
LINE
8
BLACK
6
CONTINUOUS
10
359.332
20
-89.6125
11
357.582
21
-91.3625
0
LINE
8
BLACK
6
CONTINUOUS
10
367.743
20
-89.6125
11
369.493
21
-91.3625
0
LINE
8
BLACK
6
CONTINUOUS
10
369.493
20
-89.6125
11
367.743
21
-91.3625
0
LINE
8
BLACK
6
CONTINUOUS
10
236.932
20
-111.044
11
238.682
21
-112.794
0
LINE
8
BLACK
6
CONTINUOUS
10
238.682
20
-111.044
11
236.932
21
-112.794
0
LINE
8
BLACK
6
CONTINUOUS
10
247.093
20
-111.044
11
248.843
21
-112.794
0
LINE
8
BLACK
6
CONTINUOUS
10
248.843
20
-111.044
11
247.093
21
-112.794
0
LINE
8
BLACK
6
CONTINUOUS
10
232.17
20
-149.144
11
233.92
21
-150.894
0
LINE
8
BLACK
6
CONTINUOUS
10
233.92
20
-149.144
11
232.17
21
-150.894
0
LINE
8
BLACK
6
CONTINUOUS
10
242.33
20
-149.144
11
244.08
21
-150.894
0
LINE
8
BLACK
6
CONTINUOUS
10
244.08
20
-149.144
11
242.33
21
-150.894
0
LINE
8
BLACK
6
CONTINUOUS
10
255.982
20
-89.6125
11
257.733
21
-91.3625
0
LINE
8
BLACK
6
CONTINUOUS
10
257.733
20
-89.6125
11
255.982
21
-91.3625
0
LINE
8
BLACK
6
CONTINUOUS
10
266.142
20
-89.6125
11
267.892
21
-91.3625
0
LINE
8
BLACK
6
CONTINUOUS
10
267.892
20
-89.6125
11
266.142
21
-91.3625
0
LINE
8
BLACK
6
CONTINUOUS
10
220.264
20
-187.244
11
222.014
21
-188.994
0
LINE
8
BLACK
6
CONTINUOUS
10
222.014
20
-187.244
11
220.264
21
-188.994
0
LINE
8
BLACK
6
CONTINUOUS
10
230.424
20
-187.244
11
232.174
21
-188.994
0
LINE
8
BLACK
6
CONTINUOUS
10
232.174
20
-187.244
11
230.424
21
-188.994
0
LINE
8
BLACK
6
CONTINUOUS
10
148.826
20
-187.244
11
150.576
21
-188.994
0
LINE
8
BLACK
6
CONTINUOUS
10
150.576
20
-187.244
11
148.826
21
-188.994
0
LINE
8
BLACK
6
CONTINUOUS
10
158.986
20
-187.244
11
160.736
21
-188.994
0
LINE
8
BLACK
6
CONTINUOUS
10
160.736
20
-187.244
11
158.986
21
-188.994
0
LINE
8
BLACK
6
CONTINUOUS
10
184.545
20
-89.6125
11
186.295
21
-91.3625
0
LINE
8
BLACK
6
CONTINUOUS
10
186.295
20
-89.6125
11
184.545
21
-91.3625
0
LINE
8
BLACK
6
CONTINUOUS
10
194.705
20
-89.6125
11
196.455
21
-91.3625
0
LINE
8
BLACK
6
CONTINUOUS
10
196.455
20
-89.6125
11
194.705
21
-91.3625
0
LINE
8
BLACK
6
CONTINUOUS
10
132.157
20
-130.094
11
133.907
21
-131.844
0
LINE
8
BLACK
6
CONTINUOUS
10
133.907
20
-130.094
11
132.157
21
-131.844
0
LINE
8
BLACK
6
CONTINUOUS
10
142.317
20
-130.094
11
144.067
21
-131.844
0
LINE
8
BLACK
6
CONTINUOUS
10
144.067
20
-130.094
11
142.317
21
-131.844
0
LINE
8
BLACK
6
CONTINUOUS
10
203.595
20
-89.6125
11
205.345
21
-91.3625
0
LINE
8
BLACK
6
CONTINUOUS
10
205.345
20
-89.6125
11
203.595
21
-91.3625
0
LINE
8
BLACK
6
CONTINUOUS
10
213.755
20
-89.6125
11
215.505
21
-91.3625
0
LINE
8
BLACK
6
CONTINUOUS
10
215.505
20
-89.6125
11
213.755
21
-91.3625
0
LINE
8
BLACK
6
CONTINUOUS
10
108.345
20
-168.194
11
110.095
21
-169.944
0
LINE
8
BLACK
6
CONTINUOUS
10
110.095
20
-168.194
11
108.345
21
-169.944
0
LINE
8
BLACK
6
CONTINUOUS
10
118.505
20
-168.194
11
120.255
21
-169.944
0
LINE
8
BLACK
6
CONTINUOUS
10
120.255
20
-168.194
11
118.505
21
-169.944
0
LINE
8
BLACK
6
CONTINUOUS
10
103.582
20
-111.044
11
105.332
21
-112.794
0
LINE
8
BLACK
6
CONTINUOUS
10
105.332
20
-111.044
11
103.582
21
-112.794
0
LINE
8
BLACK
6
CONTINUOUS
10
113.742
20
-111.044
11
115.492
21
-112.794
0
LINE
8
BLACK
6
CONTINUOUS
10
115.492
20
-111.044
11
113.742
21
-112.794
0
LINE
8
BLACK
6
CONTINUOUS
10
77.3888
20
-187.244
11
79.1388
21
-188.994
0
LINE
8
BLACK
6
CONTINUOUS
10
79.1388
20
-187.244
11
77.3888
21
-188.994
0
LINE
8
BLACK
6
CONTINUOUS
10
87.5487
20
-187.244
11
89.2987
21
-188.994
0
LINE
8
BLACK
6
CONTINUOUS
10
89.2987
20
-187.244
11
87.5487
21
-188.994
0
LINE
8
BLACK
6
CONTINUOUS
10
27.3825
20
-89.6125
11
29.1325
21
-91.3625
0
LINE
8
BLACK
6
CONTINUOUS
10
29.1325
20
-89.6125
11
27.3825
21
-91.3625
0
LINE
8
BLACK
6
CONTINUOUS
10
37.5425
20
-89.6125
11
39.2925
21
-91.3625
0
LINE
8
BLACK
6
CONTINUOUS
10
39.2925
20
-89.6125
11
37.5425
21
-91.3625
0
LINE
8
BLACK
6
CONTINUOUS
10
32.145
20
-130.094
11
33.895
21
-131.844
0
LINE
8
BLACK
6
CONTINUOUS
10
33.895
20
-130.094
11
32.145
21
-131.844
0
LINE
8
BLACK
6
CONTINUOUS
10
42.305
20
-130.094
11
44.055
21
-131.844
0
LINE
8
BLACK
6
CONTINUOUS
10
44.055
20
-130.094
11
42.305
21
-131.844
0
LINE
8
BLACK
6
CONTINUOUS
10
357.582
20
-187.244
11
359.332
21
-188.994
0
LINE
8
BLACK
6
CONTINUOUS
10
359.332
20
-187.244
11
357.582
21
-188.994
0
LINE
8
BLACK
6
CONTINUOUS
10
367.743
20
-187.244
11
369.493
21
-188.994
0
LINE
8
BLACK
6
CONTINUOUS
10
369.493
20
-187.244
11
367.743
21
-188.994
0
LINE
8
BLACK
6
CONTINUOUS
10
338.532
20
-187.244
11
340.282
21
-188.994
0
LINE
8
BLACK
6
CONTINUOUS
10
340.282
20
-187.244
11
338.532
21
-188.994
0
LINE
8
BLACK
6
CONTINUOUS
10
348.692
20
-187.244
11
350.442
21
-188.994
0
LINE
8
BLACK
6
CONTINUOUS
10
350.442
20
-187.244
11
348.692
21
-188.994
0
LINE
8
BLACK
6
CONTINUOUS
10
186.926
20
-187.244
11
188.676
21
-188.994
0
LINE
8
BLACK
6
CONTINUOUS
10
188.676
20
-187.244
11
186.926
21
-188.994
0
LINE
8
BLACK
6
CONTINUOUS
10
197.086
20
-187.244
11
198.836
21
-188.994
0
LINE
8
BLACK
6
CONTINUOUS
10
198.836
20
-187.244
11
197.086
21
-188.994
0
LINE
8
BLACK
6
CONTINUOUS
10
222.645
20
-168.194
11
224.395
21
-169.944
0
LINE
8
BLACK
6
CONTINUOUS
10
224.395
20
-168.194
11
222.645
21
-169.944
0
LINE
8
BLACK
6
CONTINUOUS
10
232.805
20
-168.194
11
234.555
21
-169.944
0
LINE
8
BLACK
6
CONTINUOUS
10
234.555
20
-168.194
11
232.805
21
-169.944
0
LINE
8
BLACK
6
CONTINUOUS
10
244.076
20
-187.244
11
245.826
21
-188.994
0
LINE
8
BLACK
6
CONTINUOUS
10
245.826
20
-187.244
11
244.076
21
-188.994
0
LINE
8
BLACK
6
CONTINUOUS
10
254.236
20
-187.244
11
255.986
21
-188.994
0
LINE
8
BLACK
6
CONTINUOUS
10
255.986
20
-187.244
11
254.236
21
-188.994
0
LINE
8
BLACK
6
CONTINUOUS
10
265.507
20
-130.094
11
267.257
21
-131.844
0
LINE
8
BLACK
6
CONTINUOUS
10
267.257
20
-130.094
11
265.507
21
-131.844
0
LINE
8
BLACK
6
CONTINUOUS
10
275.667
20
-130.094
11
277.417
21
-131.844
0
LINE
8
BLACK
6
CONTINUOUS
10
277.417
20
-130.094
11
275.667
21
-131.844
0
LINE
8
BLACK
6
CONTINUOUS
10
155.97
20
-149.144
11
157.72
21
-150.894
0
LINE
8
BLACK
6
CONTINUOUS
10
157.72
20
-149.144
11
155.97
21
-150.894
0
LINE
8
BLACK
6
CONTINUOUS
10
166.13
20
-149.144
11
167.88
21
-150.894
0
LINE
8
BLACK
6
CONTINUOUS
10
167.88
20
-149.144
11
166.13
21
-150.894
0
LINE
8
BLACK
6
CONTINUOUS
10
184.545
20
-168.194
11
186.295
21
-169.944
0
LINE
8
BLACK
6
CONTINUOUS
10
186.295
20
-168.194
11
184.545
21
-169.944
0
LINE
8
BLACK
6
CONTINUOUS
10
194.705
20
-168.194
11
196.455
21
-169.944
0
LINE
8
BLACK
6
CONTINUOUS
10
196.455
20
-168.194
11
194.705
21
-169.944
0
LINE
8
BLACK
6
CONTINUOUS
10
141.683
20
-111.044
11
143.433
21
-112.794
0
LINE
8
BLACK
6
CONTINUOUS
10
143.433
20
-111.044
11
141.683
21
-112.794
0
LINE
8
BLACK
6
CONTINUOUS
10
151.843
20
-111.044
11
153.593
21
-112.794
0
LINE
8
BLACK
6
CONTINUOUS
10
153.593
20
-111.044
11
151.843
21
-112.794
0
LINE
8
BLACK
6
CONTINUOUS
10
113.108
20
-130.094
11
114.858
21
-131.844
0
LINE
8
BLACK
6
CONTINUOUS
10
114.858
20
-130.094
11
113.108
21
-131.844
0
LINE
8
BLACK
6
CONTINUOUS
10
123.267
20
-130.094
11
125.017
21
-131.844
0
LINE
8
BLACK
6
CONTINUOUS
10
125.017
20
-130.094
11
123.267
21
-131.844
0
LINE
8
BLACK
6
CONTINUOUS
10
113.108
20
-89.6125
11
114.858
21
-91.3625
0
LINE
8
BLACK
6
CONTINUOUS
10
114.858
20
-89.6125
11
113.108
21
-91.3625
0
LINE
8
BLACK
6
CONTINUOUS
10
123.267
20
-89.6125
11
125.017
21
-91.3625
0
LINE
8
BLACK
6
CONTINUOUS
10
125.017
20
-89.6125
11
123.267
21
-91.3625
0
LINE
8
BLACK
6
CONTINUOUS
10
70.245
20
-168.194
11
71.995
21
-169.944
0
LINE
8
BLACK
6
CONTINUOUS
10
71.995
20
-168.194
11
70.245
21
-169.944
0
LINE
8
BLACK
6
CONTINUOUS
10
80.405
20
-168.194
11
82.155
21
-169.944
0
LINE
8
BLACK
6
CONTINUOUS
10
82.155
20
-168.194
11
80.405
21
-169.944
0
LINE
8
BLACK
6
CONTINUOUS
10
289.32
20
-130.094
11
291.07
21
-131.844
0
LINE
8
BLACK
6
CONTINUOUS
10
291.07
20
-130.094
11
289.32
21
-131.844
0
LINE
8
BLACK
6
CONTINUOUS
10
299.48
20
-130.094
11
301.23
21
-131.844
0
LINE
8
BLACK
6
CONTINUOUS
10
301.23
20
-130.094
11
299.48
21
-131.844
0
LINE
8
BLACK
6
CONTINUOUS
10
282.176
20
-149.144
11
283.926
21
-150.894
0
LINE
8
BLACK
6
CONTINUOUS
10
283.926
20
-149.144
11
282.176
21
-150.894
0
LINE
8
BLACK
6
CONTINUOUS
10
292.336
20
-149.144
11
294.086
21
-150.894
0
LINE
8
BLACK
6
CONTINUOUS
10
294.086
20
-149.144
11
292.336
21
-150.894
0
LINE
8
BLACK
6
CONTINUOUS
10
284.558
20
-111.044
11
286.308
21
-112.794
0
LINE
8
BLACK
6
CONTINUOUS
10
286.308
20
-111.044
11
284.558
21
-112.794
0
LINE
8
BLACK
6
CONTINUOUS
10
294.717
20
-111.044
11
296.467
21
-112.794
0
LINE
8
BLACK
6
CONTINUOUS
10
296.467
20
-111.044
11
294.717
21
-112.794
0
LINE
8
BLACK
6
CONTINUOUS
10
217.882
20
-111.044
11
219.632
21
-112.794
0
LINE
8
BLACK
6
CONTINUOUS
10
219.632
20
-111.044
11
217.882
21
-112.794
0
LINE
8
BLACK
6
CONTINUOUS
10
228.042
20
-111.044
11
229.792
21
-112.794
0
LINE
8
BLACK
6
CONTINUOUS
10
229.792
20
-111.044
11
228.042
21
-112.794
0
LINE
8
BLACK
6
CONTINUOUS
10
294.082
20
-89.6125
11
295.832
21
-91.3625
0
LINE
8
BLACK
6
CONTINUOUS
10
295.832
20
-89.6125
11
294.082
21
-91.3625
0
LINE
8
BLACK
6
CONTINUOUS
10
304.243
20
-89.6125
11
305.993
21
-91.3625
0
LINE
8
BLACK
6
CONTINUOUS
10
305.993
20
-89.6125
11
304.243
21
-91.3625
0
LINE
8
BLACK
6
CONTINUOUS
10
338.532
20
-168.194
11
340.282
21
-169.944
0
LINE
8
BLACK
6
CONTINUOUS
10
340.282
20
-168.194
11
338.532
21
-169.944
0
LINE
8
BLACK
6
CONTINUOUS
10
348.692
20
-168.194
11
350.442
21
-169.944
0
LINE
8
BLACK
6
CONTINUOUS
10
350.442
20
-168.194
11
348.692
21
-169.944
0
LINE
8
BLACK
6
CONTINUOUS
10
127.395
20
-168.194
11
129.145
21
-169.944
0
LINE
8
BLACK
6
CONTINUOUS
10
129.145
20
-168.194
11
127.395
21
-169.944
0
LINE
8
BLACK
6
CONTINUOUS
10
137.555
20
-168.194
11
139.305
21
-169.944
0
LINE
8
BLACK
6
CONTINUOUS
10
139.305
20
-168.194
11
137.555
21
-169.944
0
LINE
8
BLACK
6
CONTINUOUS
10
251.22
20
-149.144
11
252.97
21
-150.894
0
LINE
8
BLACK
6
CONTINUOUS
10
252.97
20
-149.144
11
251.22
21
-150.894
0
LINE
8
BLACK
6
CONTINUOUS
10
261.38
20
-149.144
11
263.13
21
-150.894
0
LINE
8
BLACK
6
CONTINUOUS
10
263.13
20
-149.144
11
261.38
21
-150.894
0
LINE
8
BLACK
6
CONTINUOUS
10
75.0075
20
-130.094
11
76.7575
21
-131.844
0
LINE
8
BLACK
6
CONTINUOUS
10
76.7575
20
-130.094
11
75.0075
21
-131.844
0
LINE
8
BLACK
6
CONTINUOUS
10
85.1675
20
-130.094
11
86.9175
21
-131.844
0
LINE
8
BLACK
6
CONTINUOUS
10
86.9175
20
-130.094
11
85.1675
21
-131.844
0
LINE
8
BLACK
6
CONTINUOUS
10
84.5325
20
-111.044
11
86.2825
21
-112.794
0
LINE
8
BLACK
6
CONTINUOUS
10
86.2825
20
-111.044
11
84.5325
21
-112.794
0
LINE
8
BLACK
6
CONTINUOUS
10
94.6925
20
-111.044
11
96.4425
21
-112.794
0
LINE
8
BLACK
6
CONTINUOUS
10
96.4425
20
-111.044
11
94.6925
21
-112.794
0
LINE
8
BLACK
6
CONTINUOUS
10
89.295
20
-168.194
11
91.045
21
-169.944
0
LINE
8
BLACK
6
CONTINUOUS
10
91.045
20
-168.194
11
89.295
21
-169.944
0
LINE
8
BLACK
6
CONTINUOUS
10
99.455
20
-168.194
11
101.205
21
-169.944
0
LINE
8
BLACK
6
CONTINUOUS
10
101.205
20
-168.194
11
99.455
21
-169.944
0
LINE
8
BLACK
6
CONTINUOUS
10
65.4825
20
-111.044
11
67.2325
21
-112.794
0
LINE
8
BLACK
6
CONTINUOUS
10
67.2325
20
-111.044
11
65.4825
21
-112.794
0
LINE
8
BLACK
6
CONTINUOUS
10
75.6425
20
-111.044
11
77.3925
21
-112.794
0
LINE
8
BLACK
6
CONTINUOUS
10
77.3925
20
-111.044
11
75.6425
21
-112.794
0
LINE
8
BLACK
6
CONTINUOUS
10
277.414
20
-168.194
11
279.164
21
-169.944
0
LINE
8
BLACK
6
CONTINUOUS
10
279.164
20
-168.194
11
277.414
21
-169.944
0
LINE
8
BLACK
6
CONTINUOUS
10
287.574
20
-168.194
11
289.324
21
-169.944
0
LINE
8
BLACK
6
CONTINUOUS
10
289.324
20
-168.194
11
287.574
21
-169.944
0
LINE
8
BLACK
6
CONTINUOUS
10
319.482
20
-89.6125
11
321.232
21
-91.3625
0
LINE
8
BLACK
6
CONTINUOUS
10
321.232
20
-89.6125
11
319.482
21
-91.3625
0
LINE
8
BLACK
6
CONTINUOUS
10
329.642
20
-89.6125
11
331.392
21
-91.3625
0
LINE
8
BLACK
6
CONTINUOUS
10
331.392
20
-89.6125
11
329.642
21
-91.3625
0
LINE
8
BLACK
6
CONTINUOUS
10
227.407
20
-130.094
11
229.157
21
-131.844
0
LINE
8
BLACK
6
CONTINUOUS
10
229.157
20
-130.094
11
227.407
21
-131.844
0
LINE
8
BLACK
6
CONTINUOUS
10
237.567
20
-130.094
11
239.317
21
-131.844
0
LINE
8
BLACK
6
CONTINUOUS
10
239.317
20
-130.094
11
237.567
21
-131.844
0
LINE
8
BLACK
6
CONTINUOUS
10
255.982
20
-111.044
11
257.733
21
-112.794
0
LINE
8
BLACK
6
CONTINUOUS
10
257.733
20
-111.044
11
255.982
21
-112.794
0
LINE
8
BLACK
6
CONTINUOUS
10
266.142
20
-111.044
11
267.892
21
-112.794
0
LINE
8
BLACK
6
CONTINUOUS
10
267.892
20
-111.044
11
266.142
21
-112.794
0
LINE
8
BLACK
6
CONTINUOUS
10
170.257
20
-130.094
11
172.007
21
-131.844
0
LINE
8
BLACK
6
CONTINUOUS
10
172.007
20
-130.094
11
170.257
21
-131.844
0
LINE
8
BLACK
6
CONTINUOUS
10
180.417
20
-130.094
11
182.167
21
-131.844
0
LINE
8
BLACK
6
CONTINUOUS
10
182.167
20
-130.094
11
180.417
21
-131.844
0
LINE
8
BLACK
6
CONTINUOUS
10
246.457
20
-130.094
11
248.207
21
-131.844
0
LINE
8
BLACK
6
CONTINUOUS
10
248.207
20
-130.094
11
246.457
21
-131.844
0
LINE
8
BLACK
6
CONTINUOUS
10
256.618
20
-130.094
11
258.368
21
-131.844
0
LINE
8
BLACK
6
CONTINUOUS
10
258.368
20
-130.094
11
256.618
21
-131.844
0
LINE
8
BLACK
6
CONTINUOUS
10
194.07
20
-149.144
11
195.82
21
-150.894
0
LINE
8
BLACK
6
CONTINUOUS
10
195.82
20
-149.144
11
194.07
21
-150.894
0
LINE
8
BLACK
6
CONTINUOUS
10
204.23
20
-149.144
11
205.98
21
-150.894
0
LINE
8
BLACK
6
CONTINUOUS
10
205.98
20
-149.144
11
204.23
21
-150.894
0
LINE
8
BLACK
6
CONTINUOUS
10
165.495
20
-89.6125
11
167.245
21
-91.3625
0
LINE
8
BLACK
6
CONTINUOUS
10
167.245
20
-89.6125
11
165.495
21
-91.3625
0
LINE
8
BLACK
6
CONTINUOUS
10
175.655
20
-89.6125
11
177.405
21
-91.3625
0
LINE
8
BLACK
6
CONTINUOUS
10
177.405
20
-89.6125
11
175.655
21
-91.3625
0
LINE
8
BLACK
6
CONTINUOUS
10
241.695
20
-168.194
11
243.445
21
-169.944
0
LINE
8
BLACK
6
CONTINUOUS
10
243.445
20
-168.194
11
241.695
21
-169.944
0
LINE
8
BLACK
6
CONTINUOUS
10
251.855
20
-168.194
11
253.605
21
-169.944
0
LINE
8
BLACK
6
CONTINUOUS
10
253.605
20
-168.194
11
251.855
21
-169.944
0
LINE
8
BLACK
6
CONTINUOUS
10
110.726
20
-187.244
11
112.476
21
-188.994
0
LINE
8
BLACK
6
CONTINUOUS
10
112.476
20
-187.244
11
110.726
21
-188.994
0
LINE
8
BLACK
6
CONTINUOUS
10
120.886
20
-187.244
11
122.636
21
-188.994
0
LINE
8
BLACK
6
CONTINUOUS
10
122.636
20
-187.244
11
120.886
21
-188.994
0
LINE
8
BLACK
6
CONTINUOUS
10
79.77
20
-149.144
11
81.52
21
-150.894
0
LINE
8
BLACK
6
CONTINUOUS
10
81.52
20
-149.144
11
79.77
21
-150.894
0
LINE
8
BLACK
6
CONTINUOUS
10
89.93
20
-149.144
11
91.68
21
-150.894
0
LINE
8
BLACK
6
CONTINUOUS
10
91.68
20
-149.144
11
89.93
21
-150.894
0
LINE
8
BLACK
6
CONTINUOUS
10
98.82
20
-149.144
11
100.57
21
-150.894
0
LINE
8
BLACK
6
CONTINUOUS
10
100.57
20
-149.144
11
98.82
21
-150.894
0
LINE
8
BLACK
6
CONTINUOUS
10
108.98
20
-149.144
11
110.73
21
-150.894
0
LINE
8
BLACK
6
CONTINUOUS
10
110.73
20
-149.144
11
108.98
21
-150.894
0
LINE
8
BLACK
6
CONTINUOUS
10
60.72
20
-149.144
11
62.47
21
-150.894
0
LINE
8
BLACK
6
CONTINUOUS
10
62.47
20
-149.144
11
60.72
21
-150.894
0
LINE
8
BLACK
6
CONTINUOUS
10
70.88
20
-149.144
11
72.63
21
-150.894
0
LINE
8
BLACK
6
CONTINUOUS
10
72.63
20
-149.144
11
70.88
21
-150.894
0
LINE
8
BLACK
6
CONTINUOUS
10
338.532
20
-89.6125
11
340.282
21
-91.3625
0
LINE
8
BLACK
6
CONTINUOUS
10
340.282
20
-89.6125
11
338.532
21
-91.3625
0
LINE
8
BLACK
6
CONTINUOUS
10
348.692
20
-89.6125
11
350.442
21
-91.3625
0
LINE
8
BLACK
6
CONTINUOUS
10
350.442
20
-89.6125
11
348.692
21
-91.3625
0
LINE
8
BLACK
6
CONTINUOUS
10
319.482
20
-111.044
11
321.232
21
-112.794
0
LINE
8
BLACK
6
CONTINUOUS
10
321.232
20
-111.044
11
319.482
21
-112.794
0
LINE
8
BLACK
6
CONTINUOUS
10
329.642
20
-111.044
11
331.392
21
-112.794
0
LINE
8
BLACK
6
CONTINUOUS
10
331.392
20
-111.044
11
329.642
21
-112.794
0
LINE
8
BLACK
6
CONTINUOUS
10
208.357
20
-130.094
11
210.107
21
-131.844
0
LINE
8
BLACK
6
CONTINUOUS
10
210.107
20
-130.094
11
208.357
21
-131.844
0
LINE
8
BLACK
6
CONTINUOUS
10
218.517
20
-130.094
11
220.267
21
-131.844
0
LINE
8
BLACK
6
CONTINUOUS
10
220.267
20
-130.094
11
218.517
21
-131.844
0
LINE
8
BLACK
6
CONTINUOUS
10
291.701
20
-187.244
11
293.451
21
-188.994
0
LINE
8
BLACK
6
CONTINUOUS
10
293.451
20
-187.244
11
291.701
21
-188.994
0
LINE
8
BLACK
6
CONTINUOUS
10
301.861
20
-187.244
11
303.611
21
-188.994
0
LINE
8
BLACK
6
CONTINUOUS
10
303.611
20
-187.244
11
301.861
21
-188.994
0
LINE
8
BLACK
6
CONTINUOUS
10
267.889
20
-187.244
11
269.639
21
-188.994
0
LINE
8
BLACK
6
CONTINUOUS
10
269.639
20
-187.244
11
267.889
21
-188.994
0
LINE
8
BLACK
6
CONTINUOUS
10
278.049
20
-187.244
11
279.799
21
-188.994
0
LINE
8
BLACK
6
CONTINUOUS
10
279.799
20
-187.244
11
278.049
21
-188.994
0
LINE
8
BLACK
6
CONTINUOUS
10
203.595
20
-168.194
11
205.345
21
-169.944
0
LINE
8
BLACK
6
CONTINUOUS
10
205.345
20
-168.194
11
203.595
21
-169.944
0
LINE
8
BLACK
6
CONTINUOUS
10
213.755
20
-168.194
11
215.505
21
-169.944
0
LINE
8
BLACK
6
CONTINUOUS
10
215.505
20
-168.194
11
213.755
21
-169.944
0
LINE
8
BLACK
6
CONTINUOUS
10
146.445
20
-168.194
11
148.195
21
-169.944
0
LINE
8
BLACK
6
CONTINUOUS
10
148.195
20
-168.194
11
146.445
21
-169.944
0
LINE
8
BLACK
6
CONTINUOUS
10
156.605
20
-168.194
11
158.355
21
-169.944
0
LINE
8
BLACK
6
CONTINUOUS
10
158.355
20
-168.194
11
156.605
21
-169.944
0
LINE
8
BLACK
6
CONTINUOUS
10
179.782
20
-111.044
11
181.532
21
-112.794
0
LINE
8
BLACK
6
CONTINUOUS
10
181.532
20
-111.044
11
179.782
21
-112.794
0
LINE
8
BLACK
6
CONTINUOUS
10
189.942
20
-111.044
11
191.692
21
-112.794
0
LINE
8
BLACK
6
CONTINUOUS
10
191.692
20
-111.044
11
189.942
21
-112.794
0
LINE
8
BLACK
6
CONTINUOUS
10
94.0575
20
-130.094
11
95.8075
21
-131.844
0
LINE
8
BLACK
6
CONTINUOUS
10
95.8075
20
-130.094
11
94.0575
21
-131.844
0
LINE
8
BLACK
6
CONTINUOUS
10
104.218
20
-130.094
11
105.968
21
-131.844
0
LINE
8
BLACK
6
CONTINUOUS
10
105.968
20
-130.094
11
104.218
21
-131.844
0
LINE
8
BLACK
6
CONTINUOUS
10
34.5262
20
-149.144
11
36.2762
21
-150.894
0
LINE
8
BLACK
6
CONTINUOUS
10
36.2762
20
-149.144
11
34.5262
21
-150.894
0
LINE
8
BLACK
6
CONTINUOUS
10
44.6863
20
-149.144
11
46.4363
21
-150.894
0
LINE
8
BLACK
6
CONTINUOUS
10
46.4363
20
-149.144
11
44.6863
21
-150.894
0
LINE
8
BLACK
6
CONTINUOUS
10
53.5762
20
-187.244
11
55.3262
21
-188.994
0
LINE
8
BLACK
6
CONTINUOUS
10
55.3262
20
-187.244
11
53.5762
21
-188.994
0
LINE
8
BLACK
6
CONTINUOUS
10
63.7362
20
-187.244
11
65.4862
21
-188.994
0
LINE
8
BLACK
6
CONTINUOUS
10
65.4862
20
-187.244
11
63.7362
21
-188.994
0
LINE
8
BLACK
6
CONTINUOUS
10
46.4325
20
-111.044
11
48.1825
21
-112.794
0
LINE
8
BLACK
6
CONTINUOUS
10
48.1825
20
-111.044
11
46.4325
21
-112.794
0
LINE
8
BLACK
6
CONTINUOUS
10
56.5925
20
-111.044
11
58.3425
21
-112.794
0
LINE
8
BLACK
6
CONTINUOUS
10
58.3425
20
-111.044
11
56.5925
21
-112.794
0
LINE
8
BLACK
6
CONTINUOUS
10
55.9575
20
-130.094
11
57.7075
21
-131.844
0
LINE
8
BLACK
6
CONTINUOUS
10
57.7075
20
-130.094
11
55.9575
21
-131.844
0
LINE
8
BLACK
6
CONTINUOUS
10
66.1175
20
-130.094
11
67.8675
21
-131.844
0
LINE
8
BLACK
6
CONTINUOUS
10
67.8675
20
-130.094
11
66.1175
21
-131.844
0
LINE
8
BLACK
6
CONTINUOUS
10
357.582
20
-130.094
11
359.332
21
-131.844
0
LINE
8
BLACK
6
CONTINUOUS
10
359.332
20
-130.094
11
357.582
21
-131.844
0
LINE
8
BLACK
6
CONTINUOUS
10
367.743
20
-130.094
11
369.493
21
-131.844
0
LINE
8
BLACK
6
CONTINUOUS
10
369.493
20
-130.094
11
367.743
21
-131.844
0
LINE
8
BLACK
6
CONTINUOUS
10
338.532
20
-111.044
11
340.282
21
-112.794
0
LINE
8
BLACK
6
CONTINUOUS
10
340.282
20
-111.044
11
338.532
21
-112.794
0
LINE
8
BLACK
6
CONTINUOUS
10
348.692
20
-111.044
11
350.442
21
-112.794
0
LINE
8
BLACK
6
CONTINUOUS
10
350.442
20
-111.044
11
348.692
21
-112.794
0
LINE
8
BLACK
6
CONTINUOUS
10
338.532
20
-130.094
11
340.282
21
-131.844
0
LINE
8
BLACK
6
CONTINUOUS
10
340.282
20
-130.094
11
338.532
21
-131.844
0
LINE
8
BLACK
6
CONTINUOUS
10
348.692
20
-130.094
11
350.442
21
-131.844
0
LINE
8
BLACK
6
CONTINUOUS
10
350.442
20
-130.094
11
348.692
21
-131.844
0
LINE
8
BLACK
6
CONTINUOUS
10
236.932
20
-89.6125
11
238.682
21
-91.3625
0
LINE
8
BLACK
6
CONTINUOUS
10
238.682
20
-89.6125
11
236.932
21
-91.3625
0
LINE
8
BLACK
6
CONTINUOUS
10
247.093
20
-89.6125
11
248.843
21
-91.3625
0
LINE
8
BLACK
6
CONTINUOUS
10
248.843
20
-89.6125
11
247.093
21
-91.3625
0
LINE
8
BLACK
6
CONTINUOUS
10
189.308
20
-130.094
11
191.058
21
-131.844
0
LINE
8
BLACK
6
CONTINUOUS
10
191.058
20
-130.094
11
189.308
21
-131.844
0
LINE
8
BLACK
6
CONTINUOUS
10
199.468
20
-130.094
11
201.218
21
-131.844
0
LINE
8
BLACK
6
CONTINUOUS
10
201.218
20
-130.094
11
199.468
21
-131.844
0
LINE
8
BLACK
6
CONTINUOUS
10
151.207
20
-130.094
11
152.957
21
-131.844
0
LINE
8
BLACK
6
CONTINUOUS
10
152.957
20
-130.094
11
151.207
21
-131.844
0
LINE
8
BLACK
6
CONTINUOUS
10
161.368
20
-130.094
11
163.118
21
-131.844
0
LINE
8
BLACK
6
CONTINUOUS
10
163.118
20
-130.094
11
161.368
21
-131.844
0
LINE
8
BLACK
6
CONTINUOUS
10
160.732
20
-111.044
11
162.482
21
-112.794
0
LINE
8
BLACK
6
CONTINUOUS
10
162.482
20
-111.044
11
160.732
21
-112.794
0
LINE
8
BLACK
6
CONTINUOUS
10
170.892
20
-111.044
11
172.642
21
-112.794
0
LINE
8
BLACK
6
CONTINUOUS
10
172.642
20
-111.044
11
170.892
21
-112.794
0
LINE
8
BLACK
6
CONTINUOUS
10
122.632
20
-111.044
11
124.382
21
-112.794
0
LINE
8
BLACK
6
CONTINUOUS
10
124.382
20
-111.044
11
122.632
21
-112.794
0
LINE
8
BLACK
6
CONTINUOUS
10
132.792
20
-111.044
11
134.542
21
-112.794
0
LINE
8
BLACK
6
CONTINUOUS
10
134.542
20
-111.044
11
132.792
21
-112.794
0
LINE
8
BLACK
6
CONTINUOUS
10
117.87
20
-149.144
11
119.62
21
-150.894
0
LINE
8
BLACK
6
CONTINUOUS
10
119.62
20
-149.144
11
117.87
21
-150.894
0
LINE
8
BLACK
6
CONTINUOUS
10
128.03
20
-149.144
11
129.78
21
-150.894
0
LINE
8
BLACK
6
CONTINUOUS
10
129.78
20
-149.144
11
128.03
21
-150.894
0
LINE
8
BLACK
6
CONTINUOUS
10
55.9575
20
-89.6125
11
57.7075
21
-91.3625
0
LINE
8
BLACK
6
CONTINUOUS
10
57.7075
20
-89.6125
11
55.9575
21
-91.3625
0
LINE
8
BLACK
6
CONTINUOUS
10
66.1175
20
-89.6125
11
67.8675
21
-91.3625
0
LINE
8
BLACK
6
CONTINUOUS
10
67.8675
20
-89.6125
11
66.1175
21
-91.3625
0
LINE
8
BLACK
6
CONTINUOUS
10
29.7637
20
-187.244
11
31.5137
21
-188.994
0
LINE
8
BLACK
6
CONTINUOUS
10
31.5137
20
-187.244
11
29.7637
21
-188.994
0
LINE
8
BLACK
6
CONTINUOUS
10
39.9237
20
-187.244
11
41.6737
21
-188.994
0
LINE
8
BLACK
6
CONTINUOUS
10
41.6737
20
-187.244
11
39.9237
21
-188.994
0
LINE
8
BLACK
6
CONTINUOUS
10
27.3825
20
-111.044
11
29.1325
21
-112.794
0
LINE
8
BLACK
6
CONTINUOUS
10
29.1325
20
-111.044
11
27.3825
21
-112.794
0
LINE
8
BLACK
6
CONTINUOUS
10
37.5425
20
-111.044
11
39.2925
21
-112.794
0
LINE
8
BLACK
6
CONTINUOUS
10
39.2925
20
-111.044
11
37.5425
21
-112.794
0
LINE
8
BLACK
6
CONTINUOUS
10
357.582
20
-111.044
11
359.332
21
-112.794
0
LINE
8
BLACK
6
CONTINUOUS
10
359.332
20
-111.044
11
357.582
21
-112.794
0
LINE
8
BLACK
6
CONTINUOUS
10
367.743
20
-111.044
11
369.493
21
-112.794
0
LINE
8
BLACK
6
CONTINUOUS
10
369.493
20
-111.044
11
367.743
21
-112.794
0
LINE
8
BLACK
6
CONTINUOUS
10
198.832
20
-111.044
11
200.582
21
-112.794
0
LINE
8
BLACK
6
CONTINUOUS
10
200.582
20
-111.044
11
198.832
21
-112.794
0
LINE
8
BLACK
6
CONTINUOUS
10
208.992
20
-111.044
11
210.742
21
-112.794
0
LINE
8
BLACK
6
CONTINUOUS
10
210.742
20
-111.044
11
208.992
21
-112.794
0
LINE
8
BLACK
6
CONTINUOUS
10
319.482
20
-187.244
11
321.232
21
-188.994
0
LINE
8
BLACK
6
CONTINUOUS
10
321.232
20
-187.244
11
319.482
21
-188.994
0
LINE
8
BLACK
6
CONTINUOUS
10
329.642
20
-187.244
11
331.392
21
-188.994
0
LINE
8
BLACK
6
CONTINUOUS
10
331.392
20
-187.244
11
329.642
21
-188.994
0
LINE
8
BLACK
6
CONTINUOUS
10
275.032
20
-89.6125
11
276.782
21
-91.3625
0
LINE
8
BLACK
6
CONTINUOUS
10
276.782
20
-89.6125
11
275.032
21
-91.3625
0
LINE
8
BLACK
6
CONTINUOUS
10
285.192
20
-89.6125
11
286.942
21
-91.3625
0
LINE
8
BLACK
6
CONTINUOUS
10
286.942
20
-89.6125
11
285.192
21
-91.3625
0
LINE
8
BLACK
6
CONTINUOUS
10
175.02
20
-149.144
11
176.77
21
-150.894
0
LINE
8
BLACK
6
CONTINUOUS
10
176.77
20
-149.144
11
175.02
21
-150.894
0
LINE
8
BLACK
6
CONTINUOUS
10
185.18
20
-149.144
11
186.93
21
-150.894
0
LINE
8
BLACK
6
CONTINUOUS
10
186.93
20
-149.144
11
185.18
21
-150.894
0
LINE
8
BLACK
6
CONTINUOUS
10
213.12
20
-149.144
11
214.87
21
-150.894
0
LINE
8
BLACK
6
CONTINUOUS
10
214.87
20
-149.144
11
213.12
21
-150.894
0
LINE
8
BLACK
6
CONTINUOUS
10
223.28
20
-149.144
11
225.03
21
-150.894
0
LINE
8
BLACK
6
CONTINUOUS
10
225.03
20
-149.144
11
223.28
21
-150.894
0
LINE
8
BLACK
6
CONTINUOUS
10
136.92
20
-149.144
11
138.67
21
-150.894
0
LINE
8
BLACK
6
CONTINUOUS
10
138.67
20
-149.144
11
136.92
21
-150.894
0
LINE
8
BLACK
6
CONTINUOUS
10
147.08
20
-149.144
11
148.83
21
-150.894
0
LINE
8
BLACK
6
CONTINUOUS
10
148.83
20
-149.144
11
147.08
21
-150.894
0
LINE
8
BLACK
6
CONTINUOUS
10
165.495
20
-168.194
11
167.245
21
-169.944
0
LINE
8
BLACK
6
CONTINUOUS
10
167.245
20
-168.194
11
165.495
21
-169.944
0
LINE
8
BLACK
6
CONTINUOUS
10
175.655
20
-168.194
11
177.405
21
-169.944
0
LINE
8
BLACK
6
CONTINUOUS
10
177.405
20
-168.194
11
175.655
21
-169.944
0
LINE
8
BLACK
6
CONTINUOUS
10
146.445
20
-89.6125
11
148.195
21
-91.3625
0
LINE
8
BLACK
6
CONTINUOUS
10
148.195
20
-89.6125
11
146.445
21
-91.3625
0
LINE
8
BLACK
6
CONTINUOUS
10
156.605
20
-89.6125
11
158.355
21
-91.3625
0
LINE
8
BLACK
6
CONTINUOUS
10
158.355
20
-89.6125
11
156.605
21
-91.3625
0
LINE
8
BLACK
6
CONTINUOUS
10
75.0075
20
-89.6125
11
76.7575
21
-91.3625
0
LINE
8
BLACK
6
CONTINUOUS
10
76.7575
20
-89.6125
11
75.0075
21
-91.3625
0
LINE
8
BLACK
6
CONTINUOUS
10
85.1675
20
-89.6125
11
86.9175
21
-91.3625
0
LINE
8
BLACK
6
CONTINUOUS
10
86.9175
20
-89.6125
11
85.1675
21
-91.3625
0
LINE
8
BLACK
6
CONTINUOUS
10
94.0575
20
-89.6125
11
95.8075
21
-91.3625
0
LINE
8
BLACK
6
CONTINUOUS
10
95.8075
20
-89.6125
11
94.0575
21
-91.3625
0
LINE
8
BLACK
6
CONTINUOUS
10
104.218
20
-89.6125
11
105.968
21
-91.3625
0
LINE
8
BLACK
6
CONTINUOUS
10
105.968
20
-89.6125
11
104.218
21
-91.3625
0
LINE
8
BLACK
6
CONTINUOUS
10
39.2888
20
-168.194
11
41.0388
21
-169.944
0
LINE
8
BLACK
6
CONTINUOUS
10
41.0388
20
-168.194
11
39.2888
21
-169.944
0
LINE
8
BLACK
6
CONTINUOUS
10
49.4487
20
-168.194
11
51.1987
21
-169.944
0
LINE
8
BLACK
6
CONTINUOUS
10
51.1987
20
-168.194
11
49.4487
21
-169.944
0
LINE
8
BLACK
6
CONTINUOUS
10
319.482
20
-130.094
11
321.232
21
-131.844
0
LINE
8
BLACK
6
CONTINUOUS
10
321.232
20
-130.094
11
319.482
21
-131.844
0
LINE
8
BLACK
6
CONTINUOUS
10
329.642
20
-130.094
11
331.392
21
-131.844
0
LINE
8
BLACK
6
CONTINUOUS
10
331.392
20
-130.094
11
329.642
21
-131.844
0
CIRCLE
8
BLACK
10
37.9412
20
-155.099
40
1.5
0
CIRCLE
8
BLACK
10
44.2912
20
-152.559
40
1.5
0
CIRCLE
8
BLACK
10
56.9913
20
-193.199
40
1.5
0
CIRCLE
8
BLACK
10
63.3412
20
-190.659
40
1.5
0
CIRCLE
8
BLACK
10
49.8475
20
-116.999
40
1.5
0
CIRCLE
8
BLACK
10
56.1975
20
-114.459
40
1.5
0
CIRCLE
8
BLACK
10
59.3725
20
-136.049
40
1.5
0
CIRCLE
8
BLACK
10
65.7225
20
-133.509
40
1.5
0
CIRCLE
8
BLACK
10
360.998
20
-136.049
40
1.5
0
CIRCLE
8
BLACK
10
367.347
20
-133.509
40
1.5
0
CIRCLE
8
BLACK
10
341.947
20
-116.999
40
1.5
0
CIRCLE
8
BLACK
10
348.297
20
-114.459
40
1.5
0
CIRCLE
8
BLACK
10
341.947
20
-136.049
40
1.5
0
CIRCLE
8
BLACK
10
348.297
20
-133.509
40
1.5
0
CIRCLE
8
BLACK
10
240.347
20
-95.5675
40
1.5
0
CIRCLE
8
BLACK
10
246.697
20
-93.0275
40
1.5
0
CIRCLE
8
BLACK
10
192.722
20
-136.049
40
1.5
0
CIRCLE
8
BLACK
10
199.072
20
-133.509
40
1.5
0
CIRCLE
8
BLACK
10
154.623
20
-136.049
40
1.5
0
CIRCLE
8
BLACK
10
160.972
20
-133.509
40
1.5
0
CIRCLE
8
BLACK
10
164.147
20
-116.999
40
1.5
0
CIRCLE
8
BLACK
10
170.498
20
-114.459
40
1.5
0
CIRCLE
8
BLACK
10
126.047
20
-116.999
40
1.5
0
CIRCLE
8
BLACK
10
132.398
20
-114.459
40
1.5
0
CIRCLE
8
BLACK
10
121.285
20
-155.099
40
1.5
0
CIRCLE
8
BLACK
10
127.635
20
-152.559
40
1.5
0
CIRCLE
8
BLACK
10
59.3725
20
-95.5675
40
1.5
0
CIRCLE
8
BLACK
10
65.7225
20
-93.0275
40
1.5
0
CIRCLE
8
BLACK
10
33.1788
20
-193.199
40
1.5
0
CIRCLE
8
BLACK
10
39.5287
20
-190.659
40
1.5
0
CIRCLE
8
BLACK
10
30.7975
20
-116.999
40
1.5
0
CIRCLE
8
BLACK
10
37.1475
20
-114.459
40
1.5
0
CIRCLE
8
BLACK
10
360.998
20
-116.999
40
1.5
0
CIRCLE
8
BLACK
10
367.347
20
-114.459
40
1.5
0
CIRCLE
8
BLACK
10
202.248
20
-116.999
40
1.5
0
CIRCLE
8
BLACK
10
208.597
20
-114.459
40
1.5
0
CIRCLE
8
BLACK
10
322.897
20
-193.199
40
1.5
0
CIRCLE
8
BLACK
10
329.248
20
-190.659
40
1.5
0
CIRCLE
8
BLACK
10
278.447
20
-95.5675
40
1.5
0
CIRCLE
8
BLACK
10
284.798
20
-93.0275
40
1.5
0
CIRCLE
8
BLACK
10
178.435
20
-155.099
40
1.5
0
CIRCLE
8
BLACK
10
184.785
20
-152.559
40
1.5
0
CIRCLE
8
BLACK
10
216.535
20
-155.099
40
1.5
0
CIRCLE
8
BLACK
10
222.885
20
-152.559
40
1.5
0
CIRCLE
8
BLACK
10
140.335
20
-155.099
40
1.5
0
CIRCLE
8
BLACK
10
146.685
20
-152.559
40
1.5
0
CIRCLE
8
BLACK
10
168.91
20
-174.149
40
1.5
0
CIRCLE
8
BLACK
10
175.26
20
-171.609
40
1.5
0
CIRCLE
8
BLACK
10
149.86
20
-95.5675
40
1.5
0
CIRCLE
8
BLACK
10
156.21
20
-93.0275
40
1.5
0
CIRCLE
8
BLACK
10
78.4225
20
-95.5675
40
1.5
0
CIRCLE
8
BLACK
10
84.7725
20
-93.0275
40
1.5
0
CIRCLE
8
BLACK
10
97.4725
20
-95.5675
40
1.5
0
CIRCLE
8
BLACK
10
103.822
20
-93.0275
40
1.5
0
CIRCLE
8
BLACK
10
42.7037
20
-174.149
40
1.5
0
CIRCLE
8
BLACK
10
49.0538
20
-171.609
40
1.5
0
CIRCLE
8
BLACK
10
322.897
20
-136.049
40
1.5
0
CIRCLE
8
BLACK
10
329.248
20
-133.509
40
1.5
0
CIRCLE
8
BLACK
10
360.998
20
-95.5675
40
1.5
0
CIRCLE
8
BLACK
10
367.347
20
-93.0275
40
1.5
0
CIRCLE
8
BLACK
10
240.347
20
-116.999
40
1.5
0
CIRCLE
8
BLACK
10
246.697
20
-114.459
40
1.5
0
CIRCLE
8
BLACK
10
235.585
20
-155.099
40
1.5
0
CIRCLE
8
BLACK
10
241.935
20
-152.559
40
1.5
0
CIRCLE
8
BLACK
10
259.397
20
-95.5675
40
1.5
0
CIRCLE
8
BLACK
10
265.748
20
-93.0275
40
1.5
0
CIRCLE
8
BLACK
10
223.679
20
-193.199
40
1.5
0
CIRCLE
8
BLACK
10
230.029
20
-190.659
40
1.5
0
CIRCLE
8
BLACK
10
152.241
20
-193.199
40
1.5
0
CIRCLE
8
BLACK
10
158.591
20
-190.659
40
1.5
0
CIRCLE
8
BLACK
10
187.96
20
-95.5675
40
1.5
0
CIRCLE
8
BLACK
10
194.31
20
-93.0275
40
1.5
0
CIRCLE
8
BLACK
10
135.572
20
-136.049
40
1.5
0
CIRCLE
8
BLACK
10
141.922
20
-133.509
40
1.5
0
CIRCLE
8
BLACK
10
207.01
20
-95.5675
40
1.5
0
CIRCLE
8
BLACK
10
213.36
20
-93.0275
40
1.5
0
CIRCLE
8
BLACK
10
111.76
20
-174.149
40
1.5
0
CIRCLE
8
BLACK
10
118.11
20
-171.609
40
1.5
0
CIRCLE
8
BLACK
10
106.997
20
-116.999
40
1.5
0
CIRCLE
8
BLACK
10
113.347
20
-114.459
40
1.5
0
CIRCLE
8
BLACK
10
80.8037
20
-193.199
40
1.5
0
CIRCLE
8
BLACK
10
87.1538
20
-190.659
40
1.5
0
CIRCLE
8
BLACK
10
30.7975
20
-95.5675
40
1.5
0
CIRCLE
8
BLACK
10
37.1475
20
-93.0275
40
1.5
0
CIRCLE
8
BLACK
10
35.56
20
-136.049
40
1.5
0
CIRCLE
8
BLACK
10
41.91
20
-133.509
40
1.5
0
CIRCLE
8
BLACK
10
360.998
20
-193.199
40
1.5
0
CIRCLE
8
BLACK
10
367.347
20
-190.659
40
1.5
0
CIRCLE
8
BLACK
10
341.947
20
-193.199
40
1.5
0
CIRCLE
8
BLACK
10
348.297
20
-190.659
40
1.5
0
CIRCLE
8
BLACK
10
190.341
20
-193.199
40
1.5
0
CIRCLE
8
BLACK
10
196.691
20
-190.659
40
1.5
0
CIRCLE
8
BLACK
10
226.06
20
-174.149
40
1.5
0
CIRCLE
8
BLACK
10
232.41
20
-171.609
40
1.5
0
CIRCLE
8
BLACK
10
247.491
20
-193.199
40
1.5
0
CIRCLE
8
BLACK
10
253.841
20
-190.659
40
1.5
0
CIRCLE
8
BLACK
10
268.923
20
-136.049
40
1.5
0
CIRCLE
8
BLACK
10
275.272
20
-133.509
40
1.5
0
CIRCLE
8
BLACK
10
159.385
20
-155.099
40
1.5
0
CIRCLE
8
BLACK
10
165.735
20
-152.559
40
1.5
0
CIRCLE
8
BLACK
10
187.96
20
-174.149
40
1.5
0
CIRCLE
8
BLACK
10
194.31
20
-171.609
40
1.5
0
CIRCLE
8
BLACK
10
145.097
20
-116.999
40
1.5
0
CIRCLE
8
BLACK
10
151.447
20
-114.459
40
1.5
0
CIRCLE
8
BLACK
10
116.522
20
-136.049
40
1.5
0
CIRCLE
8
BLACK
10
122.872
20
-133.509
40
1.5
0
CIRCLE
8
BLACK
10
116.522
20
-95.5675
40
1.5
0
CIRCLE
8
BLACK
10
122.872
20
-93.0275
40
1.5
0
CIRCLE
8
BLACK
10
73.66
20
-174.149
40
1.5
0
CIRCLE
8
BLACK
10
80.01
20
-171.609
40
1.5
0
CIRCLE
8
BLACK
10
292.735
20
-136.049
40
1.5
0
CIRCLE
8
BLACK
10
299.085
20
-133.509
40
1.5
0
CIRCLE
8
BLACK
10
285.591
20
-155.099
40
1.5
0
CIRCLE
8
BLACK
10
291.941
20
-152.559
40
1.5
0
CIRCLE
8
BLACK
10
287.972
20
-116.999
40
1.5
0
CIRCLE
8
BLACK
10
294.322
20
-114.459
40
1.5
0
CIRCLE
8
BLACK
10
221.297
20
-116.999
40
1.5
0
CIRCLE
8
BLACK
10
227.647
20
-114.459
40
1.5
0
CIRCLE
8
BLACK
10
297.498
20
-95.5675
40
1.5
0
CIRCLE
8
BLACK
10
303.847
20
-93.0275
40
1.5
0
CIRCLE
8
BLACK
10
341.947
20
-174.149
40
1.5
0
CIRCLE
8
BLACK
10
348.297
20
-171.609
40
1.5
0
CIRCLE
8
BLACK
10
130.81
20
-174.149
40
1.5
0
CIRCLE
8
BLACK
10
137.16
20
-171.609
40
1.5
0
CIRCLE
8
BLACK
10
254.635
20
-155.099
40
1.5
0
CIRCLE
8
BLACK
10
260.985
20
-152.559
40
1.5
0
CIRCLE
8
BLACK
10
78.4225
20
-136.049
40
1.5
0
CIRCLE
8
BLACK
10
84.7725
20
-133.509
40
1.5
0
CIRCLE
8
BLACK
10
87.9475
20
-116.999
40
1.5
0
CIRCLE
8
BLACK
10
94.2975
20
-114.459
40
1.5
0
CIRCLE
8
BLACK
10
92.71
20
-174.149
40
1.5
0
CIRCLE
8
BLACK
10
99.06
20
-171.609
40
1.5
0
CIRCLE
8
BLACK
10
68.8975
20
-116.999
40
1.5
0
CIRCLE
8
BLACK
10
75.2475
20
-114.459
40
1.5
0
CIRCLE
8
BLACK
10
280.829
20
-174.149
40
1.5
0
CIRCLE
8
BLACK
10
287.179
20
-171.609
40
1.5
0
CIRCLE
8
BLACK
10
322.897
20
-95.5675
40
1.5
0
CIRCLE
8
BLACK
10
329.248
20
-93.0275
40
1.5
0
CIRCLE
8
BLACK
10
230.822
20
-136.049
40
1.5
0
CIRCLE
8
BLACK
10
237.172
20
-133.509
40
1.5
0
CIRCLE
8
BLACK
10
259.397
20
-116.999
40
1.5
0
CIRCLE
8
BLACK
10
265.748
20
-114.459
40
1.5
0
CIRCLE
8
BLACK
10
173.672
20
-136.049
40
1.5
0
CIRCLE
8
BLACK
10
180.022
20
-133.509
40
1.5
0
CIRCLE
8
BLACK
10
249.873
20
-136.049
40
1.5
0
CIRCLE
8
BLACK
10
256.222
20
-133.509
40
1.5
0
CIRCLE
8
BLACK
10
197.485
20
-155.099
40
1.5
0
CIRCLE
8
BLACK
10
203.835
20
-152.559
40
1.5
0
CIRCLE
8
BLACK
10
168.91
20
-95.5675
40
1.5
0
CIRCLE
8
BLACK
10
175.26
20
-93.0275
40
1.5
0
CIRCLE
8
BLACK
10
245.11
20
-174.149
40
1.5
0
CIRCLE
8
BLACK
10
251.46
20
-171.609
40
1.5
0
CIRCLE
8
BLACK
10
114.141
20
-193.199
40
1.5
0
CIRCLE
8
BLACK
10
120.491
20
-190.659
40
1.5
0
CIRCLE
8
BLACK
10
83.185
20
-155.099
40
1.5
0
CIRCLE
8
BLACK
10
89.535
20
-152.559
40
1.5
0
CIRCLE
8
BLACK
10
102.235
20
-155.099
40
1.5
0
CIRCLE
8
BLACK
10
108.585
20
-152.559
40
1.5
0
CIRCLE
8
BLACK
10
64.135
20
-155.099
40
1.5
0
CIRCLE
8
BLACK
10
70.485
20
-152.559
40
1.5
0
CIRCLE
8
BLACK
10
341.947
20
-95.5675
40
1.5
0
CIRCLE
8
BLACK
10
348.297
20
-93.0275
40
1.5
0
CIRCLE
8
BLACK
10
322.897
20
-116.999
40
1.5
0
CIRCLE
8
BLACK
10
329.248
20
-114.459
40
1.5
0
CIRCLE
8
BLACK
10
211.772
20
-136.049
40
1.5
0
CIRCLE
8
BLACK
10
218.123
20
-133.509
40
1.5
0
CIRCLE
8
BLACK
10
295.116
20
-193.199
40
1.5
0
CIRCLE
8
BLACK
10
301.466
20
-190.659
40
1.5
0
CIRCLE
8
BLACK
10
271.304
20
-193.199
40
1.5
0
CIRCLE
8
BLACK
10
277.654
20
-190.659
40
1.5
0
CIRCLE
8
BLACK
10
207.01
20
-174.149
40
1.5
0
CIRCLE
8
BLACK
10
213.36
20
-171.609
40
1.5
0
CIRCLE
8
BLACK
10
149.86
20
-174.149
40
1.5
0
CIRCLE
8
BLACK
10
156.21
20
-171.609
40
1.5
0
CIRCLE
8
BLACK
10
183.197
20
-116.999
40
1.5
0
CIRCLE
8
BLACK
10
189.547
20
-114.459
40
1.5
0
CIRCLE
8
BLACK
10
97.4725
20
-136.049
40
1.5
0
CIRCLE
8
BLACK
10
103.822
20
-133.509
40
1.5
0
LINE
8
BLACK
6
CONTINUOUS
10
33.3057
20
-174.544
11
33.3057
21
-177.594
0
LINE
8
BLACK
6
CONTINUOUS
10
31.7807
20
-176.069
11
34.8308
21
-176.069
0
LINE
8
BLACK
6
CONTINUOUS
10
57.1817
20
-174.544
11
57.1817
21
-177.594
0
LINE
8
BLACK
6
CONTINUOUS
10
55.6567
20
-176.069
11
58.7067
21
-176.069
0
LINE
8
BLACK
6
CONTINUOUS
10
104.781
20
-193.594
11
104.781
21
-196.644
0
LINE
8
BLACK
6
CONTINUOUS
10
103.256
20
-195.119
11
106.306
21
-195.119
0
LINE
8
BLACK
6
CONTINUOUS
10
204.781
20
-193.594
11
204.781
21
-196.644
0
LINE
8
BLACK
6
CONTINUOUS
10
203.256
20
-195.119
11
206.306
21
-195.119
0
LINE
8
BLACK
6
CONTINUOUS
10
180.943
20
-193.594
11
180.943
21
-196.644
0
LINE
8
BLACK
6
CONTINUOUS
10
179.418
20
-195.119
11
182.468
21
-195.119
0
LINE
8
BLACK
6
CONTINUOUS
10
204.819
20
-193.594
11
204.819
21
-196.644
0
LINE
8
BLACK
6
CONTINUOUS
10
203.294
20
-195.119
11
206.344
21
-195.119
0
LINE
8
BLACK
6
CONTINUOUS
10
276.193
20
-155.494
11
276.193
21
-158.544
0
LINE
8
BLACK
6
CONTINUOUS
10
274.668
20
-157.019
11
277.718
21
-157.019
0
LINE
8
BLACK
6
CONTINUOUS
10
300.069
20
-155.494
11
300.069
21
-158.544
0
LINE
8
BLACK
6
CONTINUOUS
10
298.544
20
-157.019
11
301.594
21
-157.019
0
LINE
8
BLACK
6
CONTINUOUS
10
278.575
20
-117.394
11
278.575
21
-120.444
0
LINE
8
BLACK
6
CONTINUOUS
10
277.049
20
-118.919
11
280.099
21
-118.919
0
LINE
8
BLACK
6
CONTINUOUS
10
302.45
20
-117.394
11
302.45
21
-120.444
0
LINE
8
BLACK
6
CONTINUOUS
10
300.925
20
-118.919
11
303.976
21
-118.919
0
LINE
8
BLACK
6
CONTINUOUS
10
271.431
20
-174.544
11
271.431
21
-177.594
0
LINE
8
BLACK
6
CONTINUOUS
10
269.906
20
-176.069
11
272.956
21
-176.069
0
LINE
8
BLACK
6
CONTINUOUS
10
295.307
20
-174.544
11
295.307
21
-177.594
0
LINE
8
BLACK
6
CONTINUOUS
10
293.782
20
-176.069
11
296.832
21
-176.069
0
LINE
8
BLACK
6
CONTINUOUS
10
104.743
20
-193.594
11
104.743
21
-196.644
0
LINE
8
BLACK
6
CONTINUOUS
10
103.218
20
-195.119
11
106.268
21
-195.119
0
LINE
8
BLACK
6
CONTINUOUS
10
128.619
20
-193.594
11
128.619
21
-196.644
0
LINE
8
BLACK
6
CONTINUOUS
10
127.094
20
-195.119
11
130.144
21
-195.119
0
LINE
8
BLACK
6
CONTINUOUS
10
39.5142
20
-132.383
11
39.5142
21
-129.555
0
LINE
8
BLACK
6
CONTINUOUS
10
39.5142
20
-129.555
11
36.6858
21
-129.555
0
LINE
8
BLACK
6
CONTINUOUS
10
36.6858
20
-129.555
11
36.6858
21
-132.383
0
LINE
8
BLACK
6
CONTINUOUS
10
36.6858
20
-132.383
11
39.5142
21
-132.383
0
LINE
8
BLACK
6
CONTINUOUS
10
364.952
20
-189.533
11
364.952
21
-186.705
0
LINE
8
BLACK
6
CONTINUOUS
10
364.952
20
-186.705
11
362.123
21
-186.705
0
LINE
8
BLACK
6
CONTINUOUS
10
362.123
20
-186.705
11
362.123
21
-189.533
0
LINE
8
BLACK
6
CONTINUOUS
10
362.123
20
-189.533
11
364.952
21
-189.533
0
LINE
8
BLACK
6
CONTINUOUS
10
345.902
20
-189.533
11
345.902
21
-186.705
0
LINE
8
BLACK
6
CONTINUOUS
10
345.902
20
-186.705
11
343.073
21
-186.705
0
LINE
8
BLACK
6
CONTINUOUS
10
343.073
20
-186.705
11
343.073
21
-189.533
0
LINE
8
BLACK
6
CONTINUOUS
10
343.073
20
-189.533
11
345.902
21
-189.533
0
LINE
8
BLACK
6
CONTINUOUS
10
182.357
20
-181.293
11
182.357
21
-178.465
0
LINE
8
BLACK
6
CONTINUOUS
10
182.357
20
-178.465
11
179.529
21
-178.465
0
LINE
8
BLACK
6
CONTINUOUS
10
179.529
20
-178.465
11
179.529
21
-181.293
0
LINE
8
BLACK
6
CONTINUOUS
10
179.529
20
-181.293
11
182.357
21
-181.293
0
LINE
8
BLACK
6
CONTINUOUS
10
194.295
20
-189.533
11
194.295
21
-186.705
0
LINE
8
BLACK
6
CONTINUOUS
10
194.295
20
-186.705
11
191.467
21
-186.705
0
LINE
8
BLACK
6
CONTINUOUS
10
191.467
20
-186.705
11
191.467
21
-189.533
0
LINE
8
BLACK
6
CONTINUOUS
10
191.467
20
-189.533
11
194.295
21
-189.533
0
LINE
8
BLACK
6
CONTINUOUS
10
206.233
20
-181.293
11
206.233
21
-178.465
0
LINE
8
BLACK
6
CONTINUOUS
10
206.233
20
-178.465
11
203.405
21
-178.465
0
LINE
8
BLACK
6
CONTINUOUS
10
203.405
20
-178.465
11
203.405
21
-181.293
0
LINE
8
BLACK
6
CONTINUOUS
10
203.405
20
-181.293
11
206.233
21
-181.293
0
LINE
8
BLACK
6
CONTINUOUS
10
230.014
20
-170.483
11
230.014
21
-167.655
0
LINE
8
BLACK
6
CONTINUOUS
10
230.014
20
-167.655
11
227.186
21
-167.655
0
LINE
8
BLACK
6
CONTINUOUS
10
227.186
20
-167.655
11
227.186
21
-170.483
0
LINE
8
BLACK
6
CONTINUOUS
10
227.186
20
-170.483
11
230.014
21
-170.483
0
LINE
8
BLACK
6
CONTINUOUS
10
251.445
20
-189.533
11
251.445
21
-186.705
0
LINE
8
BLACK
6
CONTINUOUS
10
251.445
20
-186.705
11
248.617
21
-186.705
0
LINE
8
BLACK
6
CONTINUOUS
10
248.617
20
-186.705
11
248.617
21
-189.533
0
LINE
8
BLACK
6
CONTINUOUS
10
248.617
20
-189.533
11
251.445
21
-189.533
0
LINE
8
BLACK
6
CONTINUOUS
10
272.877
20
-132.383
11
272.877
21
-129.555
0
LINE
8
BLACK
6
CONTINUOUS
10
272.877
20
-129.555
11
270.048
21
-129.555
0
LINE
8
BLACK
6
CONTINUOUS
10
270.048
20
-129.555
11
270.048
21
-132.383
0
LINE
8
BLACK
6
CONTINUOUS
10
270.048
20
-132.383
11
272.877
21
-132.383
0
LINE
8
BLACK
6
CONTINUOUS
10
163.339
20
-151.433
11
163.339
21
-148.605
0
LINE
8
BLACK
6
CONTINUOUS
10
163.339
20
-148.605
11
160.511
21
-148.605
0
LINE
8
BLACK
6
CONTINUOUS
10
160.511
20
-148.605
11
160.511
21
-151.433
0
LINE
8
BLACK
6
CONTINUOUS
10
160.511
20
-151.433
11
163.339
21
-151.433
0
LINE
8
BLACK
6
CONTINUOUS
10
191.914
20
-170.483
11
191.914
21
-167.655
0
LINE
8
BLACK
6
CONTINUOUS
10
191.914
20
-167.655
11
189.086
21
-167.655
0
LINE
8
BLACK
6
CONTINUOUS
10
189.086
20
-167.655
11
189.086
21
-170.483
0
LINE
8
BLACK
6
CONTINUOUS
10
189.086
20
-170.483
11
191.914
21
-170.483
0
LINE
8
BLACK
6
CONTINUOUS
10
149.052
20
-113.333
11
149.052
21
-110.505
0
LINE
8
BLACK
6
CONTINUOUS
10
149.052
20
-110.505
11
146.223
21
-110.505
0
LINE
8
BLACK
6
CONTINUOUS
10
146.223
20
-110.505
11
146.223
21
-113.333
0
LINE
8
BLACK
6
CONTINUOUS
10
146.223
20
-113.333
11
149.052
21
-113.333
0
LINE
8
BLACK
6
CONTINUOUS
10
120.477
20
-132.383
11
120.477
21
-129.555
0
LINE
8
BLACK
6
CONTINUOUS
10
120.477
20
-129.555
11
117.648
21
-129.555
0
LINE
8
BLACK
6
CONTINUOUS
10
117.648
20
-129.555
11
117.648
21
-132.383
0
LINE
8
BLACK
6
CONTINUOUS
10
117.648
20
-132.383
11
120.477
21
-132.383
0
LINE
8
BLACK
6
CONTINUOUS
10
120.477
20
-91.9017
11
120.477
21
-89.0733
0
LINE
8
BLACK
6
CONTINUOUS
10
120.477
20
-89.0733
11
117.648
21
-89.0733
0
LINE
8
BLACK
6
CONTINUOUS
10
117.648
20
-89.0733
11
117.648
21
-91.9017
0
LINE
8
BLACK
6
CONTINUOUS
10
117.648
20
-91.9017
11
120.477
21
-91.9017
0
LINE
8
BLACK
6
CONTINUOUS
10
77.6142
20
-170.483
11
77.6142
21
-167.655
0
LINE
8
BLACK
6
CONTINUOUS
10
77.6142
20
-167.655
11
74.7858
21
-167.655
0
LINE
8
BLACK
6
CONTINUOUS
10
74.7858
20
-167.655
11
74.7858
21
-170.483
0
LINE
8
BLACK
6
CONTINUOUS
10
74.7858
20
-170.483
11
77.6142
21
-170.483
0
LINE
8
BLACK
6
CONTINUOUS
10
296.689
20
-132.383
11
296.689
21
-129.555
0
LINE
8
BLACK
6
CONTINUOUS
10
296.689
20
-129.555
11
293.861
21
-129.555
0
LINE
8
BLACK
6
CONTINUOUS
10
293.861
20
-129.555
11
293.861
21
-132.383
0
LINE
8
BLACK
6
CONTINUOUS
10
293.861
20
-132.383
11
296.689
21
-132.383
0
LINE
8
BLACK
6
CONTINUOUS
10
277.607
20
-143.193
11
277.607
21
-140.365
0
LINE
8
BLACK
6
CONTINUOUS
10
277.607
20
-140.365
11
274.779
21
-140.365
0
LINE
8
BLACK
6
CONTINUOUS
10
274.779
20
-140.365
11
274.779
21
-143.193
0
LINE
8
BLACK
6
CONTINUOUS
10
274.779
20
-143.193
11
277.607
21
-143.193
0
LINE
8
BLACK
6
CONTINUOUS
10
289.545
20
-151.433
11
289.545
21
-148.605
0
LINE
8
BLACK
6
CONTINUOUS
10
289.545
20
-148.605
11
286.717
21
-148.605
0
LINE
8
BLACK
6
CONTINUOUS
10
286.717
20
-148.605
11
286.717
21
-151.433
0
LINE
8
BLACK
6
CONTINUOUS
10
286.717
20
-151.433
11
289.545
21
-151.433
0
LINE
8
BLACK
6
CONTINUOUS
10
301.483
20
-143.193
11
301.483
21
-140.365
0
LINE
8
BLACK
6
CONTINUOUS
10
301.483
20
-140.365
11
298.655
21
-140.365
0
LINE
8
BLACK
6
CONTINUOUS
10
298.655
20
-140.365
11
298.655
21
-143.193
0
LINE
8
BLACK
6
CONTINUOUS
10
298.655
20
-143.193
11
301.483
21
-143.193
0
LINE
8
BLACK
6
CONTINUOUS
10
279.989
20
-105.093
11
279.989
21
-102.265
0
LINE
8
BLACK
6
CONTINUOUS
10
279.989
20
-102.265
11
277.16
21
-102.265
0
LINE
8
BLACK
6
CONTINUOUS
10
277.16
20
-102.265
11
277.16
21
-105.093
0
LINE
8
BLACK
6
CONTINUOUS
10
277.16
20
-105.093
11
279.989
21
-105.093
0
LINE
8
BLACK
6
CONTINUOUS
10
291.927
20
-113.333
11
291.927
21
-110.505
0
LINE
8
BLACK
6
CONTINUOUS
10
291.927
20
-110.505
11
289.098
21
-110.505
0
LINE
8
BLACK
6
CONTINUOUS
10
289.098
20
-110.505
11
289.098
21
-113.333
0
LINE
8
BLACK
6
CONTINUOUS
10
289.098
20
-113.333
11
291.927
21
-113.333
0
LINE
8
BLACK
6
CONTINUOUS
10
303.865
20
-105.093
11
303.865
21
-102.265
0
LINE
8
BLACK
6
CONTINUOUS
10
303.865
20
-102.265
11
301.036
21
-102.265
0
LINE
8
BLACK
6
CONTINUOUS
10
301.036
20
-102.265
11
301.036
21
-105.093
0
LINE
8
BLACK
6
CONTINUOUS
10
301.036
20
-105.093
11
303.865
21
-105.093
0
LINE
8
BLACK
6
CONTINUOUS
10
225.252
20
-113.333
11
225.252
21
-110.505
0
LINE
8
BLACK
6
CONTINUOUS
10
225.252
20
-110.505
11
222.423
21
-110.505
0
LINE
8
BLACK
6
CONTINUOUS
10
222.423
20
-110.505
11
222.423
21
-113.333
0
LINE
8
BLACK
6
CONTINUOUS
10
222.423
20
-113.333
11
225.252
21
-113.333
0
LINE
8
BLACK
6
CONTINUOUS
10
301.452
20
-91.9017
11
301.452
21
-89.0733
0
LINE
8
BLACK
6
CONTINUOUS
10
301.452
20
-89.0733
11
298.623
21
-89.0733
0
LINE
8
BLACK
6
CONTINUOUS
10
298.623
20
-89.0733
11
298.623
21
-91.9017
0
LINE
8
BLACK
6
CONTINUOUS
10
298.623
20
-91.9017
11
301.452
21
-91.9017
0
LINE
8
BLACK
6
CONTINUOUS
10
345.902
20
-170.483
11
345.902
21
-167.655
0
LINE
8
BLACK
6
CONTINUOUS
10
345.902
20
-167.655
11
343.073
21
-167.655
0
LINE
8
BLACK
6
CONTINUOUS
10
343.073
20
-167.655
11
343.073
21
-170.483
0
LINE
8
BLACK
6
CONTINUOUS
10
343.073
20
-170.483
11
345.902
21
-170.483
0
LINE
8
BLACK
6
CONTINUOUS
10
134.764
20
-170.483
11
134.764
21
-167.655
0
LINE
8
BLACK
6
CONTINUOUS
10
134.764
20
-167.655
11
131.936
21
-167.655
0
LINE
8
BLACK
6
CONTINUOUS
10
131.936
20
-167.655
11
131.936
21
-170.483
0
LINE
8
BLACK
6
CONTINUOUS
10
131.936
20
-170.483
11
134.764
21
-170.483
0
LINE
8
BLACK
6
CONTINUOUS
10
258.589
20
-151.433
11
258.589
21
-148.605
0
LINE
8
BLACK
6
CONTINUOUS
10
258.589
20
-148.605
11
255.761
21
-148.605
0
LINE
8
BLACK
6
CONTINUOUS
10
255.761
20
-148.605
11
255.761
21
-151.433
0
LINE
8
BLACK
6
CONTINUOUS
10
255.761
20
-151.433
11
258.589
21
-151.433
0
LINE
8
BLACK
6
CONTINUOUS
10
82.3767
20
-132.383
11
82.3767
21
-129.555
0
LINE
8
BLACK
6
CONTINUOUS
10
82.3767
20
-129.555
11
79.5483
21
-129.555
0
LINE
8
BLACK
6
CONTINUOUS
10
79.5483
20
-129.555
11
79.5483
21
-132.383
0
LINE
8
BLACK
6
CONTINUOUS
10
79.5483
20
-132.383
11
82.3767
21
-132.383
0
LINE
8
BLACK
6
CONTINUOUS
10
91.9017
20
-113.333
11
91.9017
21
-110.505
0
LINE
8
BLACK
6
CONTINUOUS
10
91.9017
20
-110.505
11
89.0733
21
-110.505
0
LINE
8
BLACK
6
CONTINUOUS
10
89.0733
20
-110.505
11
89.0733
21
-113.333
0
LINE
8
BLACK
6
CONTINUOUS
10
89.0733
20
-113.333
11
91.9017
21
-113.333
0
LINE
8
BLACK
6
CONTINUOUS
10
96.6642
20
-170.483
11
96.6642
21
-167.655
0
LINE
8
BLACK
6
CONTINUOUS
10
96.6642
20
-167.655
11
93.8358
21
-167.655
0
LINE
8
BLACK
6
CONTINUOUS
10
93.8358
20
-167.655
11
93.8358
21
-170.483
0
LINE
8
BLACK
6
CONTINUOUS
10
93.8358
20
-170.483
11
96.6642
21
-170.483
0
LINE
8
BLACK
6
CONTINUOUS
10
72.8517
20
-113.333
11
72.8517
21
-110.505
0
LINE
8
BLACK
6
CONTINUOUS
10
72.8517
20
-110.505
11
70.0233
21
-110.505
0
LINE
8
BLACK
6
CONTINUOUS
10
70.0233
20
-110.505
11
70.0233
21
-113.333
0
LINE
8
BLACK
6
CONTINUOUS
10
70.0233
20
-113.333
11
72.8517
21
-113.333
0
LINE
8
BLACK
6
CONTINUOUS
10
272.845
20
-162.243
11
272.845
21
-159.415
0
LINE
8
BLACK
6
CONTINUOUS
10
272.845
20
-159.415
11
270.017
21
-159.415
0
LINE
8
BLACK
6
CONTINUOUS
10
270.017
20
-159.415
11
270.017
21
-162.243
0
LINE
8
BLACK
6
CONTINUOUS
10
270.017
20
-162.243
11
272.845
21
-162.243
0
LINE
8
BLACK
6
CONTINUOUS
10
284.783
20
-170.483
11
284.783
21
-167.655
0
LINE
8
BLACK
6
CONTINUOUS
10
284.783
20
-167.655
11
281.955
21
-167.655
0
LINE
8
BLACK
6
CONTINUOUS
10
281.955
20
-167.655
11
281.955
21
-170.483
0
LINE
8
BLACK
6
CONTINUOUS
10
281.955
20
-170.483
11
284.783
21
-170.483
0
LINE
8
BLACK
6
CONTINUOUS
10
296.721
20
-162.243
11
296.721
21
-159.415
0
LINE
8
BLACK
6
CONTINUOUS
10
296.721
20
-159.415
11
293.893
21
-159.415
0
LINE
8
BLACK
6
CONTINUOUS
10
293.893
20
-159.415
11
293.893
21
-162.243
0
LINE
8
BLACK
6
CONTINUOUS
10
293.893
20
-162.243
11
296.721
21
-162.243
0
LINE
8
BLACK
6
CONTINUOUS
10
326.852
20
-91.9017
11
326.852
21
-89.0733
0
LINE
8
BLACK
6
CONTINUOUS
10
326.852
20
-89.0733
11
324.023
21
-89.0733
0
LINE
8
BLACK
6
CONTINUOUS
10
324.023
20
-89.0733
11
324.023
21
-91.9017
0
LINE
8
BLACK
6
CONTINUOUS
10
324.023
20
-91.9017
11
326.852
21
-91.9017
0
LINE
8
BLACK
6
CONTINUOUS
10
234.777
20
-132.383
11
234.777
21
-129.555
0
LINE
8
BLACK
6
CONTINUOUS
10
234.777
20
-129.555
11
231.948
21
-129.555
0
LINE
8
BLACK
6
CONTINUOUS
10
231.948
20
-129.555
11
231.948
21
-132.383
0
LINE
8
BLACK
6
CONTINUOUS
10
231.948
20
-132.383
11
234.777
21
-132.383
0
LINE
8
BLACK
6
CONTINUOUS
10
263.352
20
-113.333
11
263.352
21
-110.505
0
LINE
8
BLACK
6
CONTINUOUS
10
263.352
20
-110.505
11
260.523
21
-110.505
0
LINE
8
BLACK
6
CONTINUOUS
10
260.523
20
-110.505
11
260.523
21
-113.333
0
LINE
8
BLACK
6
CONTINUOUS
10
260.523
20
-113.333
11
263.352
21
-113.333
0
LINE
8
BLACK
6
CONTINUOUS
10
177.627
20
-132.383
11
177.627
21
-129.555
0
LINE
8
BLACK
6
CONTINUOUS
10
177.627
20
-129.555
11
174.798
21
-129.555
0
LINE
8
BLACK
6
CONTINUOUS
10
174.798
20
-129.555
11
174.798
21
-132.383
0
LINE
8
BLACK
6
CONTINUOUS
10
174.798
20
-132.383
11
177.627
21
-132.383
0
LINE
8
BLACK
6
CONTINUOUS
10
253.827
20
-132.383
11
253.827
21
-129.555
0
LINE
8
BLACK
6
CONTINUOUS
10
253.827
20
-129.555
11
250.998
21
-129.555
0
LINE
8
BLACK
6
CONTINUOUS
10
250.998
20
-129.555
11
250.998
21
-132.383
0
LINE
8
BLACK
6
CONTINUOUS
10
250.998
20
-132.383
11
253.827
21
-132.383
0
LINE
8
BLACK
6
CONTINUOUS
10
201.439
20
-151.433
11
201.439
21
-148.605
0
LINE
8
BLACK
6
CONTINUOUS
10
201.439
20
-148.605
11
198.611
21
-148.605
0
LINE
8
BLACK
6
CONTINUOUS
10
198.611
20
-148.605
11
198.611
21
-151.433
0
LINE
8
BLACK
6
CONTINUOUS
10
198.611
20
-151.433
11
201.439
21
-151.433
0
LINE
8
BLACK
6
CONTINUOUS
10
172.864
20
-91.9017
11
172.864
21
-89.0733
0
LINE
8
BLACK
6
CONTINUOUS
10
172.864
20
-89.0733
11
170.036
21
-89.0733
0
LINE
8
BLACK
6
CONTINUOUS
10
170.036
20
-89.0733
11
170.036
21
-91.9017
0
LINE
8
BLACK
6
CONTINUOUS
10
170.036
20
-91.9017
11
172.864
21
-91.9017
0
LINE
8
BLACK
6
CONTINUOUS
10
249.064
20
-170.483
11
249.064
21
-167.655
0
LINE
8
BLACK
6
CONTINUOUS
10
249.064
20
-167.655
11
246.236
21
-167.655
0
LINE
8
BLACK
6
CONTINUOUS
10
246.236
20
-167.655
11
246.236
21
-170.483
0
LINE
8
BLACK
6
CONTINUOUS
10
246.236
20
-170.483
11
249.064
21
-170.483
0
LINE
8
BLACK
6
CONTINUOUS
10
106.157
20
-181.293
11
106.157
21
-178.465
0
LINE
8
BLACK
6
CONTINUOUS
10
106.157
20
-178.465
11
103.329
21
-178.465
0
LINE
8
BLACK
6
CONTINUOUS
10
103.329
20
-178.465
11
103.329
21
-181.293
0
LINE
8
BLACK
6
CONTINUOUS
10
103.329
20
-181.293
11
106.157
21
-181.293
0
LINE
8
BLACK
6
CONTINUOUS
10
118.095
20
-189.533
11
118.095
21
-186.705
0
LINE
8
BLACK
6
CONTINUOUS
10
118.095
20
-186.705
11
115.267
21
-186.705
0
LINE
8
BLACK
6
CONTINUOUS
10
115.267
20
-186.705
11
115.267
21
-189.533
0
LINE
8
BLACK
6
CONTINUOUS
10
115.267
20
-189.533
11
118.095
21
-189.533
0
LINE
8
BLACK
6
CONTINUOUS
10
130.033
20
-181.293
11
130.033
21
-178.465
0
LINE
8
BLACK
6
CONTINUOUS
10
130.033
20
-178.465
11
127.205
21
-178.465
0
LINE
8
BLACK
6
CONTINUOUS
10
127.205
20
-178.465
11
127.205
21
-181.293
0
LINE
8
BLACK
6
CONTINUOUS
10
127.205
20
-181.293
11
130.033
21
-181.293
0
LINE
8
BLACK
6
CONTINUOUS
10
87.1392
20
-151.433
11
87.1392
21
-148.605
0
LINE
8
BLACK
6
CONTINUOUS
10
87.1392
20
-148.605
11
84.3108
21
-148.605
0
LINE
8
BLACK
6
CONTINUOUS
10
84.3108
20
-148.605
11
84.3108
21
-151.433
0
LINE
8
BLACK
6
CONTINUOUS
10
84.3108
20
-151.433
11
87.1392
21
-151.433
0
LINE
8
BLACK
6
CONTINUOUS
10
106.189
20
-151.433
11
106.189
21
-148.605
0
LINE
8
BLACK
6
CONTINUOUS
10
106.189
20
-148.605
11
103.361
21
-148.605
0
LINE
8
BLACK
6
CONTINUOUS
10
103.361
20
-148.605
11
103.361
21
-151.433
0
LINE
8
BLACK
6
CONTINUOUS
10
103.361
20
-151.433
11
106.189
21
-151.433
0
LINE
8
BLACK
6
CONTINUOUS
10
68.0892
20
-151.433
11
68.0892
21
-148.605
0
LINE
8
BLACK
6
CONTINUOUS
10
68.0892
20
-148.605
11
65.2608
21
-148.605
0
LINE
8
BLACK
6
CONTINUOUS
10
65.2608
20
-148.605
11
65.2608
21
-151.433
0
LINE
8
BLACK
6
CONTINUOUS
10
65.2608
20
-151.433
11
68.0892
21
-151.433
0
LINE
8
BLACK
6
CONTINUOUS
10
345.902
20
-91.9017
11
345.902
21
-89.0733
0
LINE
8
BLACK
6
CONTINUOUS
10
345.902
20
-89.0733
11
343.073
21
-89.0733
0
LINE
8
BLACK
6
CONTINUOUS
10
343.073
20
-89.0733
11
343.073
21
-91.9017
0
LINE
8
BLACK
6
CONTINUOUS
10
343.073
20
-91.9017
11
345.902
21
-91.9017
0
LINE
8
BLACK
6
CONTINUOUS
10
326.852
20
-113.333
11
326.852
21
-110.505
0
LINE
8
BLACK
6
CONTINUOUS
10
326.852
20
-110.505
11
324.023
21
-110.505
0
LINE
8
BLACK
6
CONTINUOUS
10
324.023
20
-110.505
11
324.023
21
-113.333
0
LINE
8
BLACK
6
CONTINUOUS
10
324.023
20
-113.333
11
326.852
21
-113.333
0
LINE
8
BLACK
6
CONTINUOUS
10
215.727
20
-132.383
11
215.727
21
-129.555
0
LINE
8
BLACK
6
CONTINUOUS
10
215.727
20
-129.555
11
212.898
21
-129.555
0
LINE
8
BLACK
6
CONTINUOUS
10
212.898
20
-129.555
11
212.898
21
-132.383
0
LINE
8
BLACK
6
CONTINUOUS
10
212.898
20
-132.383
11
215.727
21
-132.383
0
LINE
8
BLACK
6
CONTINUOUS
10
299.07
20
-189.533
11
299.07
21
-186.705
0
LINE
8
BLACK
6
CONTINUOUS
10
299.07
20
-186.705
11
296.242
21
-186.705
0
LINE
8
BLACK
6
CONTINUOUS
10
296.242
20
-186.705
11
296.242
21
-189.533
0
LINE
8
BLACK
6
CONTINUOUS
10
296.242
20
-189.533
11
299.07
21
-189.533
0
LINE
8
BLACK
6
CONTINUOUS
10
275.258
20
-189.533
11
275.258
21
-186.705
0
LINE
8
BLACK
6
CONTINUOUS
10
275.258
20
-186.705
11
272.43
21
-186.705
0
LINE
8
BLACK
6
CONTINUOUS
10
272.43
20
-186.705
11
272.43
21
-189.533
0
LINE
8
BLACK
6
CONTINUOUS
10
272.43
20
-189.533
11
275.258
21
-189.533
0
LINE
8
BLACK
6
CONTINUOUS
10
210.964
20
-170.483
11
210.964
21
-167.655
0
LINE
8
BLACK
6
CONTINUOUS
10
210.964
20
-167.655
11
208.136
21
-167.655
0
LINE
8
BLACK
6
CONTINUOUS
10
208.136
20
-167.655
11
208.136
21
-170.483
0
LINE
8
BLACK
6
CONTINUOUS
10
208.136
20
-170.483
11
210.964
21
-170.483
0
LINE
8
BLACK
6
CONTINUOUS
10
153.814
20
-170.483
11
153.814
21
-167.655
0
LINE
8
BLACK
6
CONTINUOUS
10
153.814
20
-167.655
11
150.986
21
-167.655
0
LINE
8
BLACK
6
CONTINUOUS
10
150.986
20
-167.655
11
150.986
21
-170.483
0
LINE
8
BLACK
6
CONTINUOUS
10
150.986
20
-170.483
11
153.814
21
-170.483
0
LINE
8
BLACK
6
CONTINUOUS
10
187.152
20
-113.333
11
187.152
21
-110.505
0
LINE
8
BLACK
6
CONTINUOUS
10
187.152
20
-110.505
11
184.323
21
-110.505
0
LINE
8
BLACK
6
CONTINUOUS
10
184.323
20
-110.505
11
184.323
21
-113.333
0
LINE
8
BLACK
6
CONTINUOUS
10
184.323
20
-113.333
11
187.152
21
-113.333
0
LINE
8
BLACK
6
CONTINUOUS
10
101.427
20
-132.383
11
101.427
21
-129.555
0
LINE
8
BLACK
6
CONTINUOUS
10
101.427
20
-129.555
11
98.5983
21
-129.555
0
LINE
8
BLACK
6
CONTINUOUS
10
98.5983
20
-129.555
11
98.5983
21
-132.383
0
LINE
8
BLACK
6
CONTINUOUS
10
98.5983
20
-132.383
11
101.427
21
-132.383
0
LINE
8
BLACK
6
CONTINUOUS
10
41.8955
20
-151.433
11
41.8955
21
-148.605
0
LINE
8
BLACK
6
CONTINUOUS
10
41.8955
20
-148.605
11
39.067
21
-148.605
0
LINE
8
BLACK
6
CONTINUOUS
10
39.067
20
-148.605
11
39.067
21
-151.433
0
LINE
8
BLACK
6
CONTINUOUS
10
39.067
20
-151.433
11
41.8955
21
-151.433
0
LINE
8
BLACK
6
CONTINUOUS
10
60.9455
20
-189.533
11
60.9455
21
-186.705
0
LINE
8
BLACK
6
CONTINUOUS
10
60.9455
20
-186.705
11
58.117
21
-186.705
0
LINE
8
BLACK
6
CONTINUOUS
10
58.117
20
-186.705
11
58.117
21
-189.533
0
LINE
8
BLACK
6
CONTINUOUS
10
58.117
20
-189.533
11
60.9455
21
-189.533
0
LINE
8
BLACK
6
CONTINUOUS
10
53.8017
20
-113.333
11
53.8017
21
-110.505
0
LINE
8
BLACK
6
CONTINUOUS
10
53.8017
20
-110.505
11
50.9733
21
-110.505
0
LINE
8
BLACK
6
CONTINUOUS
10
50.9733
20
-110.505
11
50.9733
21
-113.333
0
LINE
8
BLACK
6
CONTINUOUS
10
50.9733
20
-113.333
11
53.8017
21
-113.333
0
LINE
8
BLACK
6
CONTINUOUS
10
63.3267
20
-132.383
11
63.3267
21
-129.555
0
LINE
8
BLACK
6
CONTINUOUS
10
63.3267
20
-129.555
11
60.4983
21
-129.555
0
LINE
8
BLACK
6
CONTINUOUS
10
60.4983
20
-129.555
11
60.4983
21
-132.383
0
LINE
8
BLACK
6
CONTINUOUS
10
60.4983
20
-132.383
11
63.3267
21
-132.383
0
LINE
8
BLACK
6
CONTINUOUS
10
364.952
20
-132.383
11
364.952
21
-129.555
0
LINE
8
BLACK
6
CONTINUOUS
10
364.952
20
-129.555
11
362.123
21
-129.555
0
LINE
8
BLACK
6
CONTINUOUS
10
362.123
20
-129.555
11
362.123
21
-132.383
0
LINE
8
BLACK
6
CONTINUOUS
10
362.123
20
-132.383
11
364.952
21
-132.383
0
LINE
8
BLACK
6
CONTINUOUS
10
345.902
20
-113.333
11
345.902
21
-110.505
0
LINE
8
BLACK
6
CONTINUOUS
10
345.902
20
-110.505
11
343.073
21
-110.505
0
LINE
8
BLACK
6
CONTINUOUS
10
343.073
20
-110.505
11
343.073
21
-113.333
0
LINE
8
BLACK
6
CONTINUOUS
10
343.073
20
-113.333
11
345.902
21
-113.333
0
LINE
8
BLACK
6
CONTINUOUS
10
345.902
20
-132.383
11
345.902
21
-129.555
0
LINE
8
BLACK
6
CONTINUOUS
10
345.902
20
-129.555
11
343.073
21
-129.555
0
LINE
8
BLACK
6
CONTINUOUS
10
343.073
20
-129.555
11
343.073
21
-132.383
0
LINE
8
BLACK
6
CONTINUOUS
10
343.073
20
-132.383
11
345.902
21
-132.383
0
LINE
8
BLACK
6
CONTINUOUS
10
244.302
20
-91.9017
11
244.302
21
-89.0733
0
LINE
8
BLACK
6
CONTINUOUS
10
244.302
20
-89.0733
11
241.473
21
-89.0733
0
LINE
8
BLACK
6
CONTINUOUS
10
241.473
20
-89.0733
11
241.473
21
-91.9017
0
LINE
8
BLACK
6
CONTINUOUS
10
241.473
20
-91.9017
11
244.302
21
-91.9017
0
LINE
8
BLACK
6
CONTINUOUS
10
196.677
20
-132.383
11
196.677
21
-129.555
0
LINE
8
BLACK
6
CONTINUOUS
10
196.677
20
-129.555
11
193.848
21
-129.555
0
LINE
8
BLACK
6
CONTINUOUS
10
193.848
20
-129.555
11
193.848
21
-132.383
0
LINE
8
BLACK
6
CONTINUOUS
10
193.848
20
-132.383
11
196.677
21
-132.383
0
LINE
8
BLACK
6
CONTINUOUS
10
158.577
20
-132.383
11
158.577
21
-129.555
0
LINE
8
BLACK
6
CONTINUOUS
10
158.577
20
-129.555
11
155.748
21
-129.555
0
LINE
8
BLACK
6
CONTINUOUS
10
155.748
20
-129.555
11
155.748
21
-132.383
0
LINE
8
BLACK
6
CONTINUOUS
10
155.748
20
-132.383
11
158.577
21
-132.383
0
LINE
8
BLACK
6
CONTINUOUS
10
168.102
20
-113.333
11
168.102
21
-110.505
0
LINE
8
BLACK
6
CONTINUOUS
10
168.102
20
-110.505
11
165.273
21
-110.505
0
LINE
8
BLACK
6
CONTINUOUS
10
165.273
20
-110.505
11
165.273
21
-113.333
0
LINE
8
BLACK
6
CONTINUOUS
10
165.273
20
-113.333
11
168.102
21
-113.333
0
LINE
8
BLACK
6
CONTINUOUS
10
130.002
20
-113.333
11
130.002
21
-110.505
0
LINE
8
BLACK
6
CONTINUOUS
10
130.002
20
-110.505
11
127.173
21
-110.505
0
LINE
8
BLACK
6
CONTINUOUS
10
127.173
20
-110.505
11
127.173
21
-113.333
0
LINE
8
BLACK
6
CONTINUOUS
10
127.173
20
-113.333
11
130.002
21
-113.333
0
LINE
8
BLACK
6
CONTINUOUS
10
125.239
20
-151.433
11
125.239
21
-148.605
0
LINE
8
BLACK
6
CONTINUOUS
10
125.239
20
-148.605
11
122.411
21
-148.605
0
LINE
8
BLACK
6
CONTINUOUS
10
122.411
20
-148.605
11
122.411
21
-151.433
0
LINE
8
BLACK
6
CONTINUOUS
10
122.411
20
-151.433
11
125.239
21
-151.433
0
LINE
8
BLACK
6
CONTINUOUS
10
63.3267
20
-91.9017
11
63.3267
21
-89.0733
0
LINE
8
BLACK
6
CONTINUOUS
10
63.3267
20
-89.0733
11
60.4983
21
-89.0733
0
LINE
8
BLACK
6
CONTINUOUS
10
60.4983
20
-89.0733
11
60.4983
21
-91.9017
0
LINE
8
BLACK
6
CONTINUOUS
10
60.4983
20
-91.9017
11
63.3267
21
-91.9017
0
LINE
8
BLACK
6
CONTINUOUS
10
37.133
20
-189.533
11
37.133
21
-186.705
0
LINE
8
BLACK
6
CONTINUOUS
10
37.133
20
-186.705
11
34.3045
21
-186.705
0
LINE
8
BLACK
6
CONTINUOUS
10
34.3045
20
-186.705
11
34.3045
21
-189.533
0
LINE
8
BLACK
6
CONTINUOUS
10
34.3045
20
-189.533
11
37.133
21
-189.533
0
LINE
8
BLACK
6
CONTINUOUS
10
34.7517
20
-113.333
11
34.7517
21
-110.505
0
LINE
8
BLACK
6
CONTINUOUS
10
34.7517
20
-110.505
11
31.9233
21
-110.505
0
LINE
8
BLACK
6
CONTINUOUS
10
31.9233
20
-110.505
11
31.9233
21
-113.333
0
LINE
8
BLACK
6
CONTINUOUS
10
31.9233
20
-113.333
11
34.7517
21
-113.333
0
LINE
8
BLACK
6
CONTINUOUS
10
364.952
20
-113.333
11
364.952
21
-110.505
0
LINE
8
BLACK
6
CONTINUOUS
10
364.952
20
-110.505
11
362.123
21
-110.505
0
LINE
8
BLACK
6
CONTINUOUS
10
362.123
20
-110.505
11
362.123
21
-113.333
0
LINE
8
BLACK
6
CONTINUOUS
10
362.123
20
-113.333
11
364.952
21
-113.333
0
LINE
8
BLACK
6
CONTINUOUS
10
206.202
20
-113.333
11
206.202
21
-110.505
0
LINE
8
BLACK
6
CONTINUOUS
10
206.202
20
-110.505
11
203.373
21
-110.505
0
LINE
8
BLACK
6
CONTINUOUS
10
203.373
20
-110.505
11
203.373
21
-113.333
0
LINE
8
BLACK
6
CONTINUOUS
10
203.373
20
-113.333
11
206.202
21
-113.333
0
LINE
8
BLACK
6
CONTINUOUS
10
326.852
20
-189.533
11
326.852
21
-186.705
0
LINE
8
BLACK
6
CONTINUOUS
10
326.852
20
-186.705
11
324.023
21
-186.705
0
LINE
8
BLACK
6
CONTINUOUS
10
324.023
20
-186.705
11
324.023
21
-189.533
0
LINE
8
BLACK
6
CONTINUOUS
10
324.023
20
-189.533
11
326.852
21
-189.533
0
LINE
8
BLACK
6
CONTINUOUS
10
282.402
20
-91.9017
11
282.402
21
-89.0733
0
LINE
8
BLACK
6
CONTINUOUS
10
282.402
20
-89.0733
11
279.573
21
-89.0733
0
LINE
8
BLACK
6
CONTINUOUS
10
279.573
20
-89.0733
11
279.573
21
-91.9017
0
LINE
8
BLACK
6
CONTINUOUS
10
279.573
20
-91.9017
11
282.402
21
-91.9017
0
LINE
8
BLACK
6
CONTINUOUS
10
182.389
20
-151.433
11
182.389
21
-148.605
0
LINE
8
BLACK
6
CONTINUOUS
10
182.389
20
-148.605
11
179.561
21
-148.605
0
LINE
8
BLACK
6
CONTINUOUS
10
179.561
20
-148.605
11
179.561
21
-151.433
0
LINE
8
BLACK
6
CONTINUOUS
10
179.561
20
-151.433
11
182.389
21
-151.433
0
LINE
8
BLACK
6
CONTINUOUS
10
220.489
20
-151.433
11
220.489
21
-148.605
0
LINE
8
BLACK
6
CONTINUOUS
10
220.489
20
-148.605
11
217.661
21
-148.605
0
LINE
8
BLACK
6
CONTINUOUS
10
217.661
20
-148.605
11
217.661
21
-151.433
0
LINE
8
BLACK
6
CONTINUOUS
10
217.661
20
-151.433
11
220.489
21
-151.433
0
LINE
8
BLACK
6
CONTINUOUS
10
144.289
20
-151.433
11
144.289
21
-148.605
0
LINE
8
BLACK
6
CONTINUOUS
10
144.289
20
-148.605
11
141.461
21
-148.605
0
LINE
8
BLACK
6
CONTINUOUS
10
141.461
20
-148.605
11
141.461
21
-151.433
0
LINE
8
BLACK
6
CONTINUOUS
10
141.461
20
-151.433
11
144.289
21
-151.433
0
LINE
8
BLACK
6
CONTINUOUS
10
172.864
20
-170.483
11
172.864
21
-167.655
0
LINE
8
BLACK
6
CONTINUOUS
10
172.864
20
-167.655
11
170.036
21
-167.655
0
LINE
8
BLACK
6
CONTINUOUS
10
170.036
20
-167.655
11
170.036
21
-170.483
0
LINE
8
BLACK
6
CONTINUOUS
10
170.036
20
-170.483
11
172.864
21
-170.483
0
LINE
8
BLACK
6
CONTINUOUS
10
153.814
20
-91.9017
11
153.814
21
-89.0733
0
LINE
8
BLACK
6
CONTINUOUS
10
153.814
20
-89.0733
11
150.986
21
-89.0733
0
LINE
8
BLACK
6
CONTINUOUS
10
150.986
20
-89.0733
11
150.986
21
-91.9017
0
LINE
8
BLACK
6
CONTINUOUS
10
150.986
20
-91.9017
11
153.814
21
-91.9017
0
LINE
8
BLACK
6
CONTINUOUS
10
82.3767
20
-91.9017
11
82.3767
21
-89.0733
0
LINE
8
BLACK
6
CONTINUOUS
10
82.3767
20
-89.0733
11
79.5483
21
-89.0733
0
LINE
8
BLACK
6
CONTINUOUS
10
79.5483
20
-89.0733
11
79.5483
21
-91.9017
0
LINE
8
BLACK
6
CONTINUOUS
10
79.5483
20
-91.9017
11
82.3767
21
-91.9017
0
LINE
8
BLACK
6
CONTINUOUS
10
101.427
20
-91.9017
11
101.427
21
-89.0733
0
LINE
8
BLACK
6
CONTINUOUS
10
101.427
20
-89.0733
11
98.5983
21
-89.0733
0
LINE
8
BLACK
6
CONTINUOUS
10
98.5983
20
-89.0733
11
98.5983
21
-91.9017
0
LINE
8
BLACK
6
CONTINUOUS
10
98.5983
20
-91.9017
11
101.427
21
-91.9017
0
LINE
8
BLACK
6
CONTINUOUS
10
34.72
20
-162.243
11
34.72
21
-159.415
0
LINE
8
BLACK
6
CONTINUOUS
10
34.72
20
-159.415
11
31.8915
21
-159.415
0
LINE
8
BLACK
6
CONTINUOUS
10
31.8915
20
-159.415
11
31.8915
21
-162.243
0
LINE
8
BLACK
6
CONTINUOUS
10
31.8915
20
-162.243
11
34.72
21
-162.243
0
LINE
8
BLACK
6
CONTINUOUS
10
46.658
20
-170.483
11
46.658
21
-167.655
0
LINE
8
BLACK
6
CONTINUOUS
10
46.658
20
-167.655
11
43.8295
21
-167.655
0
LINE
8
BLACK
6
CONTINUOUS
10
43.8295
20
-167.655
11
43.8295
21
-170.483
0
LINE
8
BLACK
6
CONTINUOUS
10
43.8295
20
-170.483
11
46.658
21
-170.483
0
LINE
8
BLACK
6
CONTINUOUS
10
58.596
20
-162.243
11
58.596
21
-159.415
0
LINE
8
BLACK
6
CONTINUOUS
10
58.596
20
-159.415
11
55.7675
21
-159.415
0
LINE
8
BLACK
6
CONTINUOUS
10
55.7675
20
-159.415
11
55.7675
21
-162.243
0
LINE
8
BLACK
6
CONTINUOUS
10
55.7675
20
-162.243
11
58.596
21
-162.243
0
LINE
8
BLACK
6
CONTINUOUS
10
326.852
20
-132.383
11
326.852
21
-129.555
0
LINE
8
BLACK
6
CONTINUOUS
10
326.852
20
-129.555
11
324.023
21
-129.555
0
LINE
8
BLACK
6
CONTINUOUS
10
324.023
20
-129.555
11
324.023
21
-132.383
0
LINE
8
BLACK
6
CONTINUOUS
10
324.023
20
-132.383
11
326.852
21
-132.383
0
LINE
8
BLACK
6
CONTINUOUS
10
364.952
20
-91.9017
11
364.952
21
-89.0733
0
LINE
8
BLACK
6
CONTINUOUS
10
364.952
20
-89.0733
11
362.123
21
-89.0733
0
LINE
8
BLACK
6
CONTINUOUS
10
362.123
20
-89.0733
11
362.123
21
-91.9017
0
LINE
8
BLACK
6
CONTINUOUS
10
362.123
20
-91.9017
11
364.952
21
-91.9017
0
LINE
8
BLACK
6
CONTINUOUS
10
244.302
20
-113.333
11
244.302
21
-110.505
0
LINE
8
BLACK
6
CONTINUOUS
10
244.302
20
-110.505
11
241.473
21
-110.505
0
LINE
8
BLACK
6
CONTINUOUS
10
241.473
20
-110.505
11
241.473
21
-113.333
0
LINE
8
BLACK
6
CONTINUOUS
10
241.473
20
-113.333
11
244.302
21
-113.333
0
LINE
8
BLACK
6
CONTINUOUS
10
239.539
20
-151.433
11
239.539
21
-148.605
0
LINE
8
BLACK
6
CONTINUOUS
10
239.539
20
-148.605
11
236.711
21
-148.605
0
LINE
8
BLACK
6
CONTINUOUS
10
236.711
20
-148.605
11
236.711
21
-151.433
0
LINE
8
BLACK
6
CONTINUOUS
10
236.711
20
-151.433
11
239.539
21
-151.433
0
LINE
8
BLACK
6
CONTINUOUS
10
263.352
20
-91.9017
11
263.352
21
-89.0733
0
LINE
8
BLACK
6
CONTINUOUS
10
263.352
20
-89.0733
11
260.523
21
-89.0733
0
LINE
8
BLACK
6
CONTINUOUS
10
260.523
20
-89.0733
11
260.523
21
-91.9017
0
LINE
8
BLACK
6
CONTINUOUS
10
260.523
20
-91.9017
11
263.352
21
-91.9017
0
LINE
8
BLACK
6
CONTINUOUS
10
227.633
20
-189.533
11
227.633
21
-186.705
0
LINE
8
BLACK
6
CONTINUOUS
10
227.633
20
-186.705
11
224.805
21
-186.705
0
LINE
8
BLACK
6
CONTINUOUS
10
224.805
20
-186.705
11
224.805
21
-189.533
0
LINE
8
BLACK
6
CONTINUOUS
10
224.805
20
-189.533
11
227.633
21
-189.533
0
LINE
8
BLACK
6
CONTINUOUS
10
106.195
20
-181.293
11
106.195
21
-178.465
0
LINE
8
BLACK
6
CONTINUOUS
10
106.195
20
-178.465
11
103.367
21
-178.465
0
LINE
8
BLACK
6
CONTINUOUS
10
103.367
20
-178.465
11
103.367
21
-181.293
0
LINE
8
BLACK
6
CONTINUOUS
10
103.367
20
-181.293
11
106.195
21
-181.293
0
LINE
8
BLACK
6
CONTINUOUS
10
156.195
20
-189.533
11
156.195
21
-186.705
0
LINE
8
BLACK
6
CONTINUOUS
10
156.195
20
-186.705
11
153.367
21
-186.705
0
LINE
8
BLACK
6
CONTINUOUS
10
153.367
20
-186.705
11
153.367
21
-189.533
0
LINE
8
BLACK
6
CONTINUOUS
10
153.367
20
-189.533
11
156.195
21
-189.533
0
LINE
8
BLACK
6
CONTINUOUS
10
206.195
20
-181.293
11
206.195
21
-178.465
0
LINE
8
BLACK
6
CONTINUOUS
10
206.195
20
-178.465
11
203.367
21
-178.465
0
LINE
8
BLACK
6
CONTINUOUS
10
203.367
20
-178.465
11
203.367
21
-181.293
0
LINE
8
BLACK
6
CONTINUOUS
10
203.367
20
-181.293
11
206.195
21
-181.293
0
LINE
8
BLACK
6
CONTINUOUS
10
191.914
20
-91.9017
11
191.914
21
-89.0733
0
LINE
8
BLACK
6
CONTINUOUS
10
191.914
20
-89.0733
11
189.086
21
-89.0733
0
LINE
8
BLACK
6
CONTINUOUS
10
189.086
20
-89.0733
11
189.086
21
-91.9017
0
LINE
8
BLACK
6
CONTINUOUS
10
189.086
20
-91.9017
11
191.914
21
-91.9017
0
LINE
8
BLACK
6
CONTINUOUS
10
139.527
20
-132.383
11
139.527
21
-129.555
0
LINE
8
BLACK
6
CONTINUOUS
10
139.527
20
-129.555
11
136.698
21
-129.555
0
LINE
8
BLACK
6
CONTINUOUS
10
136.698
20
-129.555
11
136.698
21
-132.383
0
LINE
8
BLACK
6
CONTINUOUS
10
136.698
20
-132.383
11
139.527
21
-132.383
0
LINE
8
BLACK
6
CONTINUOUS
10
210.964
20
-91.9017
11
210.964
21
-89.0733
0
LINE
8
BLACK
6
CONTINUOUS
10
210.964
20
-89.0733
11
208.136
21
-89.0733
0
LINE
8
BLACK
6
CONTINUOUS
10
208.136
20
-89.0733
11
208.136
21
-91.9017
0
LINE
8
BLACK
6
CONTINUOUS
10
208.136
20
-91.9017
11
210.964
21
-91.9017
0
LINE
8
BLACK
6
CONTINUOUS
10
115.714
20
-170.483
11
115.714
21
-167.655
0
LINE
8
BLACK
6
CONTINUOUS
10
115.714
20
-167.655
11
112.886
21
-167.655
0
LINE
8
BLACK
6
CONTINUOUS
10
112.886
20
-167.655
11
112.886
21
-170.483
0
LINE
8
BLACK
6
CONTINUOUS
10
112.886
20
-170.483
11
115.714
21
-170.483
0
LINE
8
BLACK
6
CONTINUOUS
10
110.952
20
-113.333
11
110.952
21
-110.505
0
LINE
8
BLACK
6
CONTINUOUS
10
110.952
20
-110.505
11
108.123
21
-110.505
0
LINE
8
BLACK
6
CONTINUOUS
10
108.123
20
-110.505
11
108.123
21
-113.333
0
LINE
8
BLACK
6
CONTINUOUS
10
108.123
20
-113.333
11
110.952
21
-113.333
0
LINE
8
BLACK
6
CONTINUOUS
10
84.758
20
-189.533
11
84.758
21
-186.705
0
LINE
8
BLACK
6
CONTINUOUS
10
84.758
20
-186.705
11
81.9295
21
-186.705
0
LINE
8
BLACK
6
CONTINUOUS
10
81.9295
20
-186.705
11
81.9295
21
-189.533
0
LINE
8
BLACK
6
CONTINUOUS
10
81.9295
20
-189.533
11
84.758
21
-189.533
0
LINE
8
BLACK
6
CONTINUOUS
10
34.7517
20
-91.9017
11
34.7517
21
-89.0733
0
LINE
8
BLACK
6
CONTINUOUS
10
34.7517
20
-89.0733
11
31.9233
21
-89.0733
0
LINE
8
BLACK
6
CONTINUOUS
10
31.9233
20
-89.0733
11
31.9233
21
-91.9017
0
LINE
8
BLACK
6
CONTINUOUS
10
31.9233
20
-91.9017
11
34.7517
21
-91.9017
0
LINE
8
BLACK
6
CONTINUOUS
10
21.8893
20
-207.088
11
21.8893
21
-204.088
0
LINE
8
BLACK
6
CONTINUOUS
10
21.8893
20
-204.088
11
22.6036
21
-204.088
0
LINE
8
BLACK
6
CONTINUOUS
10
22.6036
20
-204.088
11
23.0321
21
-204.231
0
LINE
8
BLACK
6
CONTINUOUS
10
23.0321
20
-204.231
11
23.3179
21
-204.517
0
LINE
8
BLACK
6
CONTINUOUS
10
23.3179
20
-204.517
11
23.4607
21
-204.803
0
LINE
8
BLACK
6
CONTINUOUS
10
23.4607
20
-204.803
11
23.6036
21
-205.374
0
LINE
8
BLACK
6
CONTINUOUS
10
23.6036
20
-205.374
11
23.6036
21
-205.803
0
LINE
8
BLACK
6
CONTINUOUS
10
23.6036
20
-205.803
11
23.4607
21
-206.374
0
LINE
8
BLACK
6
CONTINUOUS
10
23.4607
20
-206.374
11
23.3179
21
-206.66
0
LINE
8
BLACK
6
CONTINUOUS
10
23.3179
20
-206.66
11
23.0321
21
-206.946
0
LINE
8
BLACK
6
CONTINUOUS
10
23.0321
20
-206.946
11
22.6036
21
-207.088
0
LINE
8
BLACK
6
CONTINUOUS
10
22.6036
20
-207.088
11
21.8893
21
-207.088
0
LINE
8
BLACK
6
CONTINUOUS
10
24.8893
20
-207.088
11
24.8893
21
-205.088
0
LINE
8
BLACK
6
CONTINUOUS
10
24.8893
20
-205.66
11
25.0321
21
-205.374
0
LINE
8
BLACK
6
CONTINUOUS
10
25.0321
20
-205.374
11
25.175
21
-205.231
0
LINE
8
BLACK
6
CONTINUOUS
10
25.175
20
-205.231
11
25.4607
21
-205.088
0
LINE
8
BLACK
6
CONTINUOUS
10
25.4607
20
-205.088
11
25.7464
21
-205.088
0
LINE
8
BLACK
6
CONTINUOUS
10
26.7464
20
-207.088
11
26.7464
21
-205.088
0
LINE
8
BLACK
6
CONTINUOUS
10
26.7464
20
-204.088
11
26.6036
21
-204.231
0
LINE
8
BLACK
6
CONTINUOUS
10
26.6036
20
-204.231
11
26.7464
21
-204.374
0
LINE
8
BLACK
6
CONTINUOUS
10
26.7464
20
-204.374
11
26.8893
21
-204.231
0
LINE
8
BLACK
6
CONTINUOUS
10
26.8893
20
-204.231
11
26.7464
21
-204.088
0
LINE
8
BLACK
6
CONTINUOUS
10
26.7464
20
-204.088
11
26.7464
21
-204.374
0
LINE
8
BLACK
6
CONTINUOUS
10
28.6036
20
-207.088
11
28.3179
21
-206.946
0
LINE
8
BLACK
6
CONTINUOUS
10
28.3179
20
-206.946
11
28.175
21
-206.66
0
LINE
8
BLACK
6
CONTINUOUS
10
28.175
20
-206.66
11
28.175
21
-204.088
0
LINE
8
BLACK
6
CONTINUOUS
10
30.175
20
-207.088
11
29.8893
21
-206.946
0
LINE
8
BLACK
6
CONTINUOUS
10
29.8893
20
-206.946
11
29.7464
21
-206.66
0
LINE
8
BLACK
6
CONTINUOUS
10
29.7464
20
-206.66
11
29.7464
21
-204.088
0
LINE
8
BLACK
6
CONTINUOUS
10
33.6036
20
-207.088
11
33.6036
21
-204.088
0
LINE
8
BLACK
6
CONTINUOUS
10
33.6036
20
-204.088
11
34.6036
21
-206.231
0
LINE
8
BLACK
6
CONTINUOUS
10
34.6036
20
-206.231
11
35.6036
21
-204.088
0
LINE
8
BLACK
6
CONTINUOUS
10
35.6036
20
-204.088
11
35.6036
21
-207.088
0
LINE
8
BLACK
6
CONTINUOUS
10
38.3179
20
-207.088
11
38.3179
21
-205.517
0
LINE
8
BLACK
6
CONTINUOUS
10
38.3179
20
-205.517
11
38.175
21
-205.231
0
LINE
8
BLACK
6
CONTINUOUS
10
38.175
20
-205.231
11
37.8893
21
-205.088
0
LINE
8
BLACK
6
CONTINUOUS
10
37.8893
20
-205.088
11
37.3179
21
-205.088
0
LINE
8
BLACK
6
CONTINUOUS
10
37.3179
20
-205.088
11
37.0321
21
-205.231
0
LINE
8
BLACK
6
CONTINUOUS
10
38.3179
20
-206.946
11
38.0321
21
-207.088
0
LINE
8
BLACK
6
CONTINUOUS
10
38.0321
20
-207.088
11
37.3179
21
-207.088
0
LINE
8
BLACK
6
CONTINUOUS
10
37.3179
20
-207.088
11
37.0321
21
-206.946
0
LINE
8
BLACK
6
CONTINUOUS
10
37.0321
20
-206.946
11
36.8893
21
-206.66
0
LINE
8
BLACK
6
CONTINUOUS
10
36.8893
20
-206.66
11
36.8893
21
-206.374
0
LINE
8
BLACK
6
CONTINUOUS
10
36.8893
20
-206.374
11
37.0321
21
-206.088
0
LINE
8
BLACK
6
CONTINUOUS
10
37.0321
20
-206.088
11
37.3179
21
-205.946
0
LINE
8
BLACK
6
CONTINUOUS
10
37.3179
20
-205.946
11
38.0321
21
-205.946
0
LINE
8
BLACK
6
CONTINUOUS
10
38.0321
20
-205.946
11
38.3179
21
-205.803
0
LINE
8
BLACK
6
CONTINUOUS
10
39.7464
20
-205.088
11
39.7464
21
-208.088
0
LINE
8
BLACK
6
CONTINUOUS
10
39.7464
20
-205.231
11
40.0321
21
-205.088
0
LINE
8
BLACK
6
CONTINUOUS
10
40.0321
20
-205.088
11
40.6036
21
-205.088
0
LINE
8
BLACK
6
CONTINUOUS
10
40.6036
20
-205.088
11
40.8893
21
-205.231
0
LINE
8
BLACK
6
CONTINUOUS
10
40.8893
20
-205.231
11
41.0321
21
-205.374
0
LINE
8
BLACK
6
CONTINUOUS
10
41.0321
20
-205.374
11
41.175
21
-205.66
0
LINE
8
BLACK
6
CONTINUOUS
10
41.175
20
-205.66
11
41.175
21
-206.517
0
LINE
8
BLACK
6
CONTINUOUS
10
41.175
20
-206.517
11
41.0321
21
-206.803
0
LINE
8
BLACK
6
CONTINUOUS
10
41.0321
20
-206.803
11
40.8893
21
-206.946
0
LINE
8
BLACK
6
CONTINUOUS
10
40.8893
20
-206.946
11
40.6036
21
-207.088
0
LINE
8
BLACK
6
CONTINUOUS
10
40.6036
20
-207.088
11
40.0321
21
-207.088
0
LINE
8
BLACK
6
CONTINUOUS
10
40.0321
20
-207.088
11
39.7464
21
-206.946
0
LINE
8
BLACK
6
CONTINUOUS
10
42.4607
20
-206.803
11
42.6036
21
-206.946
0
LINE
8
BLACK
6
CONTINUOUS
10
42.6036
20
-206.946
11
42.4607
21
-207.088
0
LINE
8
BLACK
6
CONTINUOUS
10
42.4607
20
-207.088
11
42.3179
21
-206.946
0
LINE
8
BLACK
6
CONTINUOUS
10
42.3179
20
-206.946
11
42.4607
21
-206.803
0
LINE
8
BLACK
6
CONTINUOUS
10
42.4607
20
-206.803
11
42.4607
21
-207.088
0
LINE
8
BLACK
6
CONTINUOUS
10
42.4607
20
-205.231
11
42.6036
21
-205.374
0
LINE
8
BLACK
6
CONTINUOUS
10
42.6036
20
-205.374
11
42.4607
21
-205.517
0
LINE
8
BLACK
6
CONTINUOUS
10
42.4607
20
-205.517
11
42.3179
21
-205.374
0
LINE
8
BLACK
6
CONTINUOUS
10
42.3179
20
-205.374
11
42.4607
21
-205.231
0
LINE
8
BLACK
6
CONTINUOUS
10
42.4607
20
-205.231
11
42.4607
21
-205.517
0
LINE
8
BLACK
6
CONTINUOUS
10
17.275
20
-211.156
11
19.025
21
-212.906
0
LINE
8
BLACK
6
CONTINUOUS
10
19.025
20
-211.156
11
17.275
21
-212.906
0
LINE
8
BLACK
6
CONTINUOUS
10
23.4607
20
-213.388
11
21.7464
21
-213.388
0
LINE
8
BLACK
6
CONTINUOUS
10
22.6036
20
-213.388
11
22.6036
21
-210.388
0
LINE
8
BLACK
6
CONTINUOUS
10
22.6036
20
-210.388
11
22.3179
21
-210.817
0
LINE
8
BLACK
6
CONTINUOUS
10
22.3179
20
-210.817
11
22.0321
21
-211.103
0
LINE
8
BLACK
6
CONTINUOUS
10
22.0321
20
-211.103
11
21.7464
21
-211.246
0
LINE
8
BLACK
6
CONTINUOUS
10
24.7464
20
-213.103
11
24.8893
21
-213.246
0
LINE
8
BLACK
6
CONTINUOUS
10
24.8893
20
-213.246
11
24.7464
21
-213.388
0
LINE
8
BLACK
6
CONTINUOUS
10
24.7464
20
-213.388
11
24.6036
21
-213.246
0
LINE
8
BLACK
6
CONTINUOUS
10
24.6036
20
-213.246
11
24.7464
21
-213.103
0
LINE
8
BLACK
6
CONTINUOUS
10
24.7464
20
-213.103
11
24.7464
21
-213.388
0
LINE
8
BLACK
6
CONTINUOUS
10
25.8893
20
-210.388
11
27.8893
21
-210.388
0
LINE
8
BLACK
6
CONTINUOUS
10
27.8893
20
-210.388
11
26.6036
21
-213.388
0
LINE
8
BLACK
6
CONTINUOUS
10
30.4607
20
-210.388
11
29.0321
21
-210.388
0
LINE
8
BLACK
6
CONTINUOUS
10
29.0321
20
-210.388
11
28.8893
21
-211.817
0
LINE
8
BLACK
6
CONTINUOUS
10
28.8893
20
-211.817
11
29.0321
21
-211.674
0
LINE
8
BLACK
6
CONTINUOUS
10
29.0321
20
-211.674
11
29.3179
21
-211.531
0
LINE
8
BLACK
6
CONTINUOUS
10
29.3179
20
-211.531
11
30.0321
21
-211.531
0
LINE
8
BLACK
6
CONTINUOUS
10
30.0321
20
-211.531
11
30.3179
21
-211.674
0
LINE
8
BLACK
6
CONTINUOUS
10
30.3179
20
-211.674
11
30.4607
21
-211.817
0
LINE
8
BLACK
6
CONTINUOUS
10
30.4607
20
-211.817
11
30.6036
21
-212.103
0
LINE
8
BLACK
6
CONTINUOUS
10
30.6036
20
-212.103
11
30.6036
21
-212.817
0
LINE
8
BLACK
6
CONTINUOUS
10
30.6036
20
-212.817
11
30.4607
21
-213.103
0
LINE
8
BLACK
6
CONTINUOUS
10
30.4607
20
-213.103
11
30.3179
21
-213.246
0
LINE
8
BLACK
6
CONTINUOUS
10
30.3179
20
-213.246
11
30.0321
21
-213.388
0
LINE
8
BLACK
6
CONTINUOUS
10
30.0321
20
-213.388
11
29.3179
21
-213.388
0
LINE
8
BLACK
6
CONTINUOUS
10
29.3179
20
-213.388
11
29.0321
21
-213.246
0
LINE
8
BLACK
6
CONTINUOUS
10
29.0321
20
-213.246
11
28.8893
21
-213.103
0
LINE
8
BLACK
6
CONTINUOUS
10
31.8893
20
-213.388
11
31.8893
21
-211.388
0
LINE
8
BLACK
6
CONTINUOUS
10
31.8893
20
-211.674
11
32.0321
21
-211.531
0
LINE
8
BLACK
6
CONTINUOUS
10
32.0321
20
-211.531
11
32.3179
21
-211.388
0
LINE
8
BLACK
6
CONTINUOUS
10
32.3179
20
-211.388
11
32.7464
21
-211.388
0
LINE
8
BLACK
6
CONTINUOUS
10
32.7464
20
-211.388
11
33.0321
21
-211.531
0
LINE
8
BLACK
6
CONTINUOUS
10
33.0321
20
-211.531
11
33.175
21
-211.817
0
LINE
8
BLACK
6
CONTINUOUS
10
33.175
20
-211.817
11
33.175
21
-213.388
0
LINE
8
BLACK
6
CONTINUOUS
10
33.175
20
-211.817
11
33.3179
21
-211.531
0
LINE
8
BLACK
6
CONTINUOUS
10
33.3179
20
-211.531
11
33.6036
21
-211.388
0
LINE
8
BLACK
6
CONTINUOUS
10
33.6036
20
-211.388
11
34.0321
21
-211.388
0
LINE
8
BLACK
6
CONTINUOUS
10
34.0321
20
-211.388
11
34.3179
21
-211.531
0
LINE
8
BLACK
6
CONTINUOUS
10
34.3179
20
-211.531
11
34.4607
21
-211.817
0
LINE
8
BLACK
6
CONTINUOUS
10
34.4607
20
-211.817
11
34.4607
21
-213.388
0
LINE
8
BLACK
6
CONTINUOUS
10
35.8893
20
-213.388
11
35.8893
21
-211.388
0
LINE
8
BLACK
6
CONTINUOUS
10
35.8893
20
-211.674
11
36.0321
21
-211.531
0
LINE
8
BLACK
6
CONTINUOUS
10
36.0321
20
-211.531
11
36.3179
21
-211.388
0
LINE
8
BLACK
6
CONTINUOUS
10
36.3179
20
-211.388
11
36.7464
21
-211.388
0
LINE
8
BLACK
6
CONTINUOUS
10
36.7464
20
-211.388
11
37.0321
21
-211.531
0
LINE
8
BLACK
6
CONTINUOUS
10
37.0321
20
-211.531
11
37.175
21
-211.817
0
LINE
8
BLACK
6
CONTINUOUS
10
37.175
20
-211.817
11
37.175
21
-213.388
0
LINE
8
BLACK
6
CONTINUOUS
10
37.175
20
-211.817
11
37.3179
21
-211.531
0
LINE
8
BLACK
6
CONTINUOUS
10
37.3179
20
-211.531
11
37.6036
21
-211.388
0
LINE
8
BLACK
6
CONTINUOUS
10
37.6036
20
-211.388
11
38.0321
21
-211.388
0
LINE
8
BLACK
6
CONTINUOUS
10
38.0321
20
-211.388
11
38.3179
21
-211.531
0
LINE
8
BLACK
6
CONTINUOUS
10
38.3179
20
-211.531
11
38.4607
21
-211.817
0
LINE
8
BLACK
6
CONTINUOUS
10
38.4607
20
-211.817
11
38.4607
21
-213.388
0
LINE
8
BLACK
6
CONTINUOUS
10
44.3179
20
-210.246
11
41.7464
21
-214.103
0
LINE
8
BLACK
6
CONTINUOUS
10
48.175
20
-210.388
11
48.4607
21
-210.388
0
LINE
8
BLACK
6
CONTINUOUS
10
48.4607
20
-210.388
11
48.7464
21
-210.531
0
LINE
8
BLACK
6
CONTINUOUS
10
48.7464
20
-210.531
11
48.8893
21
-210.674
0
LINE
8
BLACK
6
CONTINUOUS
10
48.8893
20
-210.674
11
49.0321
21
-210.96
0
LINE
8
BLACK
6
CONTINUOUS
10
49.0321
20
-210.96
11
49.175
21
-211.531
0
LINE
8
BLACK
6
CONTINUOUS
10
49.175
20
-211.531
11
49.175
21
-212.246
0
LINE
8
BLACK
6
CONTINUOUS
10
49.175
20
-212.246
11
49.0321
21
-212.817
0
LINE
8
BLACK
6
CONTINUOUS
10
49.0321
20
-212.817
11
48.8893
21
-213.103
0
LINE
8
BLACK
6
CONTINUOUS
10
48.8893
20
-213.103
11
48.7464
21
-213.246
0
LINE
8
BLACK
6
CONTINUOUS
10
48.7464
20
-213.246
11
48.4607
21
-213.388
0
LINE
8
BLACK
6
CONTINUOUS
10
48.4607
20
-213.388
11
48.175
21
-213.388
0
LINE
8
BLACK
6
CONTINUOUS
10
48.175
20
-213.388
11
47.8893
21
-213.246
0
LINE
8
BLACK
6
CONTINUOUS
10
47.8893
20
-213.246
11
47.7464
21
-213.103
0
LINE
8
BLACK
6
CONTINUOUS
10
47.7464
20
-213.103
11
47.6036
21
-212.817
0
LINE
8
BLACK
6
CONTINUOUS
10
47.6036
20
-212.817
11
47.4607
21
-212.246
0
LINE
8
BLACK
6
CONTINUOUS
10
47.4607
20
-212.246
11
47.4607
21
-211.531
0
LINE
8
BLACK
6
CONTINUOUS
10
47.4607
20
-211.531
11
47.6036
21
-210.96
0
LINE
8
BLACK
6
CONTINUOUS
10
47.6036
20
-210.96
11
47.7464
21
-210.674
0
LINE
8
BLACK
6
CONTINUOUS
10
47.7464
20
-210.674
11
47.8893
21
-210.531
0
LINE
8
BLACK
6
CONTINUOUS
10
47.8893
20
-210.531
11
48.175
21
-210.388
0
LINE
8
BLACK
6
CONTINUOUS
10
50.4607
20
-213.103
11
50.6036
21
-213.246
0
LINE
8
BLACK
6
CONTINUOUS
10
50.6036
20
-213.246
11
50.4607
21
-213.388
0
LINE
8
BLACK
6
CONTINUOUS
10
50.4607
20
-213.388
11
50.3179
21
-213.246
0
LINE
8
BLACK
6
CONTINUOUS
10
50.3179
20
-213.246
11
50.4607
21
-213.103
0
LINE
8
BLACK
6
CONTINUOUS
10
50.4607
20
-213.103
11
50.4607
21
-213.388
0
LINE
8
BLACK
6
CONTINUOUS
10
52.4607
20
-210.388
11
52.7464
21
-210.388
0
LINE
8
BLACK
6
CONTINUOUS
10
52.7464
20
-210.388
11
53.0321
21
-210.531
0
LINE
8
BLACK
6
CONTINUOUS
10
53.0321
20
-210.531
11
53.175
21
-210.674
0
LINE
8
BLACK
6
CONTINUOUS
10
53.175
20
-210.674
11
53.3179
21
-210.96
0
LINE
8
BLACK
6
CONTINUOUS
10
53.3179
20
-210.96
11
53.4607
21
-211.531
0
LINE
8
BLACK
6
CONTINUOUS
10
53.4607
20
-211.531
11
53.4607
21
-212.246
0
LINE
8
BLACK
6
CONTINUOUS
10
53.4607
20
-212.246
11
53.3179
21
-212.817
0
LINE
8
BLACK
6
CONTINUOUS
10
53.3179
20
-212.817
11
53.175
21
-213.103
0
LINE
8
BLACK
6
CONTINUOUS
10
53.175
20
-213.103
11
53.0321
21
-213.246
0
LINE
8
BLACK
6
CONTINUOUS
10
53.0321
20
-213.246
11
52.7464
21
-213.388
0
LINE
8
BLACK
6
CONTINUOUS
10
52.7464
20
-213.388
11
52.4607
21
-213.388
0
LINE
8
BLACK
6
CONTINUOUS
10
52.4607
20
-213.388
11
52.175
21
-213.246
0
LINE
8
BLACK
6
CONTINUOUS
10
52.175
20
-213.246
11
52.0321
21
-213.103
0
LINE
8
BLACK
6
CONTINUOUS
10
52.0321
20
-213.103
11
51.8893
21
-212.817
0
LINE
8
BLACK
6
CONTINUOUS
10
51.8893
20
-212.817
11
51.7464
21
-212.246
0
LINE
8
BLACK
6
CONTINUOUS
10
51.7464
20
-212.246
11
51.7464
21
-211.531
0
LINE
8
BLACK
6
CONTINUOUS
10
51.7464
20
-211.531
11
51.8893
21
-210.96
0
LINE
8
BLACK
6
CONTINUOUS
10
51.8893
20
-210.96
11
52.0321
21
-210.674
0
LINE
8
BLACK
6
CONTINUOUS
10
52.0321
20
-210.674
11
52.175
21
-210.531
0
LINE
8
BLACK
6
CONTINUOUS
10
52.175
20
-210.531
11
52.4607
21
-210.388
0
LINE
8
BLACK
6
CONTINUOUS
10
56.0321
20
-210.388
11
55.4607
21
-210.388
0
LINE
8
BLACK
6
CONTINUOUS
10
55.4607
20
-210.388
11
55.175
21
-210.531
0
LINE
8
BLACK
6
CONTINUOUS
10
55.175
20
-210.531
11
55.0321
21
-210.674
0
LINE
8
BLACK
6
CONTINUOUS
10
55.0321
20
-210.674
11
54.7464
21
-211.103
0
LINE
8
BLACK
6
CONTINUOUS
10
54.7464
20
-211.103
11
54.6036
21
-211.674
0
LINE
8
BLACK
6
CONTINUOUS
10
54.6036
20
-211.674
11
54.6036
21
-212.817
0
LINE
8
BLACK
6
CONTINUOUS
10
54.6036
20
-212.817
11
54.7464
21
-213.103
0
LINE
8
BLACK
6
CONTINUOUS
10
54.7464
20
-213.103
11
54.8893
21
-213.246
0
LINE
8
BLACK
6
CONTINUOUS
10
54.8893
20
-213.246
11
55.175
21
-213.388
0
LINE
8
BLACK
6
CONTINUOUS
10
55.175
20
-213.388
11
55.7464
21
-213.388
0
LINE
8
BLACK
6
CONTINUOUS
10
55.7464
20
-213.388
11
56.0321
21
-213.246
0
LINE
8
BLACK
6
CONTINUOUS
10
56.0321
20
-213.246
11
56.175
21
-213.103
0
LINE
8
BLACK
6
CONTINUOUS
10
56.175
20
-213.103
11
56.3179
21
-212.817
0
LINE
8
BLACK
6
CONTINUOUS
10
56.3179
20
-212.817
11
56.3179
21
-212.103
0
LINE
8
BLACK
6
CONTINUOUS
10
56.3179
20
-212.103
11
56.175
21
-211.817
0
LINE
8
BLACK
6
CONTINUOUS
10
56.175
20
-211.817
11
56.0321
21
-211.674
0
LINE
8
BLACK
6
CONTINUOUS
10
56.0321
20
-211.674
11
55.7464
21
-211.531
0
LINE
8
BLACK
6
CONTINUOUS
10
55.7464
20
-211.531
11
55.175
21
-211.531
0
LINE
8
BLACK
6
CONTINUOUS
10
55.175
20
-211.531
11
54.8893
21
-211.674
0
LINE
8
BLACK
6
CONTINUOUS
10
54.8893
20
-211.674
11
54.7464
21
-211.817
0
LINE
8
BLACK
6
CONTINUOUS
10
54.7464
20
-211.817
11
54.6036
21
-212.103
0
LINE
8
BLACK
6
CONTINUOUS
10
57.7464
20
-213.388
11
58.3179
21
-213.388
0
LINE
8
BLACK
6
CONTINUOUS
10
58.3179
20
-213.388
11
58.6036
21
-213.246
0
LINE
8
BLACK
6
CONTINUOUS
10
58.6036
20
-213.246
11
58.7464
21
-213.103
0
LINE
8
BLACK
6
CONTINUOUS
10
58.7464
20
-213.103
11
59.0321
21
-212.674
0
LINE
8
BLACK
6
CONTINUOUS
10
59.0321
20
-212.674
11
59.175
21
-212.103
0
LINE
8
BLACK
6
CONTINUOUS
10
59.175
20
-212.103
11
59.175
21
-210.96
0
LINE
8
BLACK
6
CONTINUOUS
10
59.175
20
-210.96
11
59.0321
21
-210.674
0
LINE
8
BLACK
6
CONTINUOUS
10
59.0321
20
-210.674
11
58.8893
21
-210.531
0
LINE
8
BLACK
6
CONTINUOUS
10
58.8893
20
-210.531
11
58.6036
21
-210.388
0
LINE
8
BLACK
6
CONTINUOUS
10
58.6036
20
-210.388
11
58.0321
21
-210.388
0
LINE
8
BLACK
6
CONTINUOUS
10
58.0321
20
-210.388
11
57.7464
21
-210.531
0
LINE
8
BLACK
6
CONTINUOUS
10
57.7464
20
-210.531
11
57.6036
21
-210.674
0
LINE
8
BLACK
6
CONTINUOUS
10
57.6036
20
-210.674
11
57.4607
21
-210.96
0
LINE
8
BLACK
6
CONTINUOUS
10
57.4607
20
-210.96
11
57.4607
21
-211.674
0
LINE
8
BLACK
6
CONTINUOUS
10
57.4607
20
-211.674
11
57.6036
21
-211.96
0
LINE
8
BLACK
6
CONTINUOUS
10
57.6036
20
-211.96
11
57.7464
21
-212.103
0
LINE
8
BLACK
6
CONTINUOUS
10
57.7464
20
-212.103
11
58.0321
21
-212.246
0
LINE
8
BLACK
6
CONTINUOUS
10
58.0321
20
-212.246
11
58.6036
21
-212.246
0
LINE
8
BLACK
6
CONTINUOUS
10
58.6036
20
-212.246
11
58.8893
21
-212.103
0
LINE
8
BLACK
6
CONTINUOUS
10
58.8893
20
-212.103
11
59.0321
21
-211.96
0
LINE
8
BLACK
6
CONTINUOUS
10
59.0321
20
-211.96
11
59.175
21
-211.674
0
LINE
8
BLACK
6
CONTINUOUS
10
60.3179
20
-210.388
11
60.3179
21
-210.96
0
LINE
8
BLACK
6
CONTINUOUS
10
61.4607
20
-210.388
11
61.4607
21
-210.96
0
LINE
8
BLACK
6
CONTINUOUS
10
65.8893
20
-214.531
11
65.7464
21
-214.388
0
LINE
8
BLACK
6
CONTINUOUS
10
65.7464
20
-214.388
11
65.4607
21
-213.96
0
LINE
8
BLACK
6
CONTINUOUS
10
65.4607
20
-213.96
11
65.3179
21
-213.674
0
LINE
8
BLACK
6
CONTINUOUS
10
65.3179
20
-213.674
11
65.175
21
-213.246
0
LINE
8
BLACK
6
CONTINUOUS
10
65.175
20
-213.246
11
65.0321
21
-212.531
0
LINE
8
BLACK
6
CONTINUOUS
10
65.0321
20
-212.531
11
65.0321
21
-211.96
0
LINE
8
BLACK
6
CONTINUOUS
10
65.0321
20
-211.96
11
65.175
21
-211.246
0
LINE
8
BLACK
6
CONTINUOUS
10
65.175
20
-211.246
11
65.3179
21
-210.817
0
LINE
8
BLACK
6
CONTINUOUS
10
65.3179
20
-210.817
11
65.4607
21
-210.531
0
LINE
8
BLACK
6
CONTINUOUS
10
65.4607
20
-210.531
11
65.7464
21
-210.103
0
LINE
8
BLACK
6
CONTINUOUS
10
65.7464
20
-210.103
11
65.8893
21
-209.96
0
LINE
8
BLACK
6
CONTINUOUS
10
68.6036
20
-213.388
11
66.8893
21
-213.388
0
LINE
8
BLACK
6
CONTINUOUS
10
67.7464
20
-213.388
11
67.7464
21
-210.388
0
LINE
8
BLACK
6
CONTINUOUS
10
67.7464
20
-210.388
11
67.4607
21
-210.817
0
LINE
8
BLACK
6
CONTINUOUS
10
67.4607
20
-210.817
11
67.175
21
-211.103
0
LINE
8
BLACK
6
CONTINUOUS
10
67.175
20
-211.103
11
66.8893
21
-211.246
0
LINE
8
BLACK
6
CONTINUOUS
10
69.6036
20
-210.388
11
71.6036
21
-210.388
0
LINE
8
BLACK
6
CONTINUOUS
10
71.6036
20
-210.388
11
70.3179
21
-213.388
0
LINE
8
BLACK
6
CONTINUOUS
10
73.175
20
-211.674
11
72.8893
21
-211.531
0
LINE
8
BLACK
6
CONTINUOUS
10
72.8893
20
-211.531
11
72.7464
21
-211.388
0
LINE
8
BLACK
6
CONTINUOUS
10
72.7464
20
-211.388
11
72.6036
21
-211.103
0
LINE
8
BLACK
6
CONTINUOUS
10
72.6036
20
-211.103
11
72.6036
21
-210.96
0
LINE
8
BLACK
6
CONTINUOUS
10
72.6036
20
-210.96
11
72.7464
21
-210.674
0
LINE
8
BLACK
6
CONTINUOUS
10
72.7464
20
-210.674
11
72.8893
21
-210.531
0
LINE
8
BLACK
6
CONTINUOUS
10
72.8893
20
-210.531
11
73.175
21
-210.388
0
LINE
8
BLACK
6
CONTINUOUS
10
73.175
20
-210.388
11
73.7464
21
-210.388
0
LINE
8
BLACK
6
CONTINUOUS
10
73.7464
20
-210.388
11
74.0321
21
-210.531
0
LINE
8
BLACK
6
CONTINUOUS
10
74.0321
20
-210.531
11
74.175
21
-210.674
0
LINE
8
BLACK
6
CONTINUOUS
10
74.175
20
-210.674
11
74.3179
21
-210.96
0
LINE
8
BLACK
6
CONTINUOUS
10
74.3179
20
-210.96
11
74.3179
21
-211.103
0
LINE
8
BLACK
6
CONTINUOUS
10
74.3179
20
-211.103
11
74.175
21
-211.388
0
LINE
8
BLACK
6
CONTINUOUS
10
74.175
20
-211.388
11
74.0321
21
-211.531
0
LINE
8
BLACK
6
CONTINUOUS
10
74.0321
20
-211.531
11
73.7464
21
-211.674
0
LINE
8
BLACK
6
CONTINUOUS
10
73.7464
20
-211.674
11
73.175
21
-211.674
0
LINE
8
BLACK
6
CONTINUOUS
10
73.175
20
-211.674
11
72.8893
21
-211.817
0
LINE
8
BLACK
6
CONTINUOUS
10
72.8893
20
-211.817
11
72.7464
21
-211.96
0
LINE
8
BLACK
6
CONTINUOUS
10
72.7464
20
-211.96
11
72.6036
21
-212.246
0
LINE
8
BLACK
6
CONTINUOUS
10
72.6036
20
-212.246
11
72.6036
21
-212.817
0
LINE
8
BLACK
6
CONTINUOUS
10
72.6036
20
-212.817
11
72.7464
21
-213.103
0
LINE
8
BLACK
6
CONTINUOUS
10
72.7464
20
-213.103
11
72.8893
21
-213.246
0
LINE
8
BLACK
6
CONTINUOUS
10
72.8893
20
-213.246
11
73.175
21
-213.388
0
LINE
8
BLACK
6
CONTINUOUS
10
73.175
20
-213.388
11
73.7464
21
-213.388
0
LINE
8
BLACK
6
CONTINUOUS
10
73.7464
20
-213.388
11
74.0321
21
-213.246
0
LINE
8
BLACK
6
CONTINUOUS
10
74.0321
20
-213.246
11
74.175
21
-213.103
0
LINE
8
BLACK
6
CONTINUOUS
10
74.175
20
-213.103
11
74.3179
21
-212.817
0
LINE
8
BLACK
6
CONTINUOUS
10
74.3179
20
-212.817
11
74.3179
21
-212.246
0
LINE
8
BLACK
6
CONTINUOUS
10
74.3179
20
-212.246
11
74.175
21
-211.96
0
LINE
8
BLACK
6
CONTINUOUS
10
74.175
20
-211.96
11
74.0321
21
-211.817
0
LINE
8
BLACK
6
CONTINUOUS
10
74.0321
20
-211.817
11
73.7464
21
-211.674
0
LINE
8
BLACK
6
CONTINUOUS
10
77.8893
20
-213.388
11
77.8893
21
-210.388
0
LINE
8
BLACK
6
CONTINUOUS
10
79.175
20
-213.388
11
79.175
21
-211.817
0
LINE
8
BLACK
6
CONTINUOUS
10
79.175
20
-211.817
11
79.0321
21
-211.531
0
LINE
8
BLACK
6
CONTINUOUS
10
79.0321
20
-211.531
11
78.7464
21
-211.388
0
LINE
8
BLACK
6
CONTINUOUS
10
78.7464
20
-211.388
11
78.3179
21
-211.388
0
LINE
8
BLACK
6
CONTINUOUS
10
78.3179
20
-211.388
11
78.0321
21
-211.531
0
LINE
8
BLACK
6
CONTINUOUS
10
78.0321
20
-211.531
11
77.8893
21
-211.674
0
LINE
8
BLACK
6
CONTINUOUS
10
81.0321
20
-213.388
11
80.7464
21
-213.246
0
LINE
8
BLACK
6
CONTINUOUS
10
80.7464
20
-213.246
11
80.6036
21
-213.103
0
LINE
8
BLACK
6
CONTINUOUS
10
80.6036
20
-213.103
11
80.4607
21
-212.817
0
LINE
8
BLACK
6
CONTINUOUS
10
80.4607
20
-212.817
11
80.4607
21
-211.96
0
LINE
8
BLACK
6
CONTINUOUS
10
80.4607
20
-211.96
11
80.6036
21
-211.674
0
LINE
8
BLACK
6
CONTINUOUS
10
80.6036
20
-211.674
11
80.7464
21
-211.531
0
LINE
8
BLACK
6
CONTINUOUS
10
80.7464
20
-211.531
11
81.0321
21
-211.388
0
LINE
8
BLACK
6
CONTINUOUS
10
81.0321
20
-211.388
11
81.4607
21
-211.388
0
LINE
8
BLACK
6
CONTINUOUS
10
81.4607
20
-211.388
11
81.7464
21
-211.531
0
LINE
8
BLACK
6
CONTINUOUS
10
81.7464
20
-211.531
11
81.8893
21
-211.674
0
LINE
8
BLACK
6
CONTINUOUS
10
81.8893
20
-211.674
11
82.0321
21
-211.96
0
LINE
8
BLACK
6
CONTINUOUS
10
82.0321
20
-211.96
11
82.0321
21
-212.817
0
LINE
8
BLACK
6
CONTINUOUS
10
82.0321
20
-212.817
11
81.8893
21
-213.103
0
LINE
8
BLACK
6
CONTINUOUS
10
81.8893
20
-213.103
11
81.7464
21
-213.246
0
LINE
8
BLACK
6
CONTINUOUS
10
81.7464
20
-213.246
11
81.4607
21
-213.388
0
LINE
8
BLACK
6
CONTINUOUS
10
81.4607
20
-213.388
11
81.0321
21
-213.388
0
LINE
8
BLACK
6
CONTINUOUS
10
83.7464
20
-213.388
11
83.4607
21
-213.246
0
LINE
8
BLACK
6
CONTINUOUS
10
83.4607
20
-213.246
11
83.3179
21
-212.96
0
LINE
8
BLACK
6
CONTINUOUS
10
83.3179
20
-212.96
11
83.3179
21
-210.388
0
LINE
8
BLACK
6
CONTINUOUS
10
86.0321
20
-213.246
11
85.7464
21
-213.388
0
LINE
8
BLACK
6
CONTINUOUS
10
85.7464
20
-213.388
11
85.175
21
-213.388
0
LINE
8
BLACK
6
CONTINUOUS
10
85.175
20
-213.388
11
84.8893
21
-213.246
0
LINE
8
BLACK
6
CONTINUOUS
10
84.8893
20
-213.246
11
84.7464
21
-212.96
0
LINE
8
BLACK
6
CONTINUOUS
10
84.7464
20
-212.96
11
84.7464
21
-211.817
0
LINE
8
BLACK
6
CONTINUOUS
10
84.7464
20
-211.817
11
84.8893
21
-211.531
0
LINE
8
BLACK
6
CONTINUOUS
10
84.8893
20
-211.531
11
85.175
21
-211.388
0
LINE
8
BLACK
6
CONTINUOUS
10
85.175
20
-211.388
11
85.7464
21
-211.388
0
LINE
8
BLACK
6
CONTINUOUS
10
85.7464
20
-211.388
11
86.0321
21
-211.531
0
LINE
8
BLACK
6
CONTINUOUS
10
86.0321
20
-211.531
11
86.175
21
-211.817
0
LINE
8
BLACK
6
CONTINUOUS
10
86.175
20
-211.817
11
86.175
21
-212.103
0
LINE
8
BLACK
6
CONTINUOUS
10
86.175
20
-212.103
11
84.7464
21
-212.388
0
LINE
8
BLACK
6
CONTINUOUS
10
87.3179
20
-213.246
11
87.6036
21
-213.388
0
LINE
8
BLACK
6
CONTINUOUS
10
87.6036
20
-213.388
11
88.175
21
-213.388
0
LINE
8
BLACK
6
CONTINUOUS
10
88.175
20
-213.388
11
88.4607
21
-213.246
0
LINE
8
BLACK
6
CONTINUOUS
10
88.4607
20
-213.246
11
88.6036
21
-212.96
0
LINE
8
BLACK
6
CONTINUOUS
10
88.6036
20
-212.96
11
88.6036
21
-212.817
0
LINE
8
BLACK
6
CONTINUOUS
10
88.6036
20
-212.817
11
88.4607
21
-212.531
0
LINE
8
BLACK
6
CONTINUOUS
10
88.4607
20
-212.531
11
88.175
21
-212.388
0
LINE
8
BLACK
6
CONTINUOUS
10
88.175
20
-212.388
11
87.7464
21
-212.388
0
LINE
8
BLACK
6
CONTINUOUS
10
87.7464
20
-212.388
11
87.4607
21
-212.246
0
LINE
8
BLACK
6
CONTINUOUS
10
87.4607
20
-212.246
11
87.3179
21
-211.96
0
LINE
8
BLACK
6
CONTINUOUS
10
87.3179
20
-211.96
11
87.3179
21
-211.817
0
LINE
8
BLACK
6
CONTINUOUS
10
87.3179
20
-211.817
11
87.4607
21
-211.531
0
LINE
8
BLACK
6
CONTINUOUS
10
87.4607
20
-211.531
11
87.7464
21
-211.388
0
LINE
8
BLACK
6
CONTINUOUS
10
87.7464
20
-211.388
11
88.175
21
-211.388
0
LINE
8
BLACK
6
CONTINUOUS
10
88.175
20
-211.388
11
88.4607
21
-211.531
0
LINE
8
BLACK
6
CONTINUOUS
10
89.6036
20
-214.531
11
89.7464
21
-214.388
0
LINE
8
BLACK
6
CONTINUOUS
10
89.7464
20
-214.388
11
90.0321
21
-213.96
0
LINE
8
BLACK
6
CONTINUOUS
10
90.0321
20
-213.96
11
90.175
21
-213.674
0
LINE
8
BLACK
6
CONTINUOUS
10
90.175
20
-213.674
11
90.3179
21
-213.246
0
LINE
8
BLACK
6
CONTINUOUS
10
90.3179
20
-213.246
11
90.4607
21
-212.531
0
LINE
8
BLACK
6
CONTINUOUS
10
90.4607
20
-212.531
11
90.4607
21
-211.96
0
LINE
8
BLACK
6
CONTINUOUS
10
90.4607
20
-211.96
11
90.3179
21
-211.246
0
LINE
8
BLACK
6
CONTINUOUS
10
90.3179
20
-211.246
11
90.175
21
-210.817
0
LINE
8
BLACK
6
CONTINUOUS
10
90.175
20
-210.817
11
90.0321
21
-210.531
0
LINE
8
BLACK
6
CONTINUOUS
10
90.0321
20
-210.531
11
89.7464
21
-210.103
0
LINE
8
BLACK
6
CONTINUOUS
10
89.7464
20
-210.103
11
89.6036
21
-209.96
0
LINE
8
BLACK
6
CONTINUOUS
10
95.0321
20
-214.531
11
94.8893
21
-214.388
0
LINE
8
BLACK
6
CONTINUOUS
10
94.8893
20
-214.388
11
94.6036
21
-213.96
0
LINE
8
BLACK
6
CONTINUOUS
10
94.6036
20
-213.96
11
94.4607
21
-213.674
0
LINE
8
BLACK
6
CONTINUOUS
10
94.4607
20
-213.674
11
94.3179
21
-213.246
0
LINE
8
BLACK
6
CONTINUOUS
10
94.3179
20
-213.246
11
94.175
21
-212.531
0
LINE
8
BLACK
6
CONTINUOUS
10
94.175
20
-212.531
11
94.175
21
-211.96
0
LINE
8
BLACK
6
CONTINUOUS
10
94.175
20
-211.96
11
94.3179
21
-211.246
0
LINE
8
BLACK
6
CONTINUOUS
10
94.3179
20
-211.246
11
94.4607
21
-210.817
0
LINE
8
BLACK
6
CONTINUOUS
10
94.4607
20
-210.817
11
94.6036
21
-210.531
0
LINE
8
BLACK
6
CONTINUOUS
10
94.6036
20
-210.531
11
94.8893
21
-210.103
0
LINE
8
BLACK
6
CONTINUOUS
10
94.8893
20
-210.103
11
95.0321
21
-209.96
0
LINE
8
BLACK
6
CONTINUOUS
10
96.175
20
-211.388
11
96.175
21
-213.388
0
LINE
8
BLACK
6
CONTINUOUS
10
96.175
20
-211.674
11
96.3179
21
-211.531
0
LINE
8
BLACK
6
CONTINUOUS
10
96.3179
20
-211.531
11
96.6036
21
-211.388
0
LINE
8
BLACK
6
CONTINUOUS
10
96.6036
20
-211.388
11
97.0321
21
-211.388
0
LINE
8
BLACK
6
CONTINUOUS
10
97.0321
20
-211.388
11
97.3179
21
-211.531
0
LINE
8
BLACK
6
CONTINUOUS
10
97.3179
20
-211.531
11
97.4607
21
-211.817
0
LINE
8
BLACK
6
CONTINUOUS
10
97.4607
20
-211.817
11
97.4607
21
-213.388
0
LINE
8
BLACK
6
CONTINUOUS
10
99.3179
20
-213.388
11
99.0321
21
-213.246
0
LINE
8
BLACK
6
CONTINUOUS
10
99.0321
20
-213.246
11
98.8893
21
-213.103
0
LINE
8
BLACK
6
CONTINUOUS
10
98.8893
20
-213.103
11
98.7464
21
-212.817
0
LINE
8
BLACK
6
CONTINUOUS
10
98.7464
20
-212.817
11
98.7464
21
-211.96
0
LINE
8
BLACK
6
CONTINUOUS
10
98.7464
20
-211.96
11
98.8893
21
-211.674
0
LINE
8
BLACK
6
CONTINUOUS
10
98.8893
20
-211.674
11
99.0321
21
-211.531
0
LINE
8
BLACK
6
CONTINUOUS
10
99.0321
20
-211.531
11
99.3179
21
-211.388
0
LINE
8
BLACK
6
CONTINUOUS
10
99.3179
20
-211.388
11
99.7464
21
-211.388
0
LINE
8
BLACK
6
CONTINUOUS
10
99.7464
20
-211.388
11
100.032
21
-211.531
0
LINE
8
BLACK
6
CONTINUOUS
10
100.032
20
-211.531
11
100.175
21
-211.674
0
LINE
8
BLACK
6
CONTINUOUS
10
100.175
20
-211.674
11
100.318
21
-211.96
0
LINE
8
BLACK
6
CONTINUOUS
10
100.318
20
-211.96
11
100.318
21
-212.817
0
LINE
8
BLACK
6
CONTINUOUS
10
100.318
20
-212.817
11
100.175
21
-213.103
0
LINE
8
BLACK
6
CONTINUOUS
10
100.175
20
-213.103
11
100.032
21
-213.246
0
LINE
8
BLACK
6
CONTINUOUS
10
100.032
20
-213.246
11
99.7464
21
-213.388
0
LINE
8
BLACK
6
CONTINUOUS
10
99.7464
20
-213.388
11
99.3179
21
-213.388
0
LINE
8
BLACK
6
CONTINUOUS
10
101.175
20
-211.388
11
102.318
21
-211.388
0
LINE
8
BLACK
6
CONTINUOUS
10
101.604
20
-210.388
11
101.604
21
-212.96
0
LINE
8
BLACK
6
CONTINUOUS
10
101.604
20
-212.96
11
101.746
21
-213.246
0
LINE
8
BLACK
6
CONTINUOUS
10
101.746
20
-213.246
11
102.032
21
-213.388
0
LINE
8
BLACK
6
CONTINUOUS
10
102.032
20
-213.388
11
102.318
21
-213.388
0
LINE
8
BLACK
6
CONTINUOUS
10
105.604
20
-211.388
11
105.604
21
-214.388
0
LINE
8
BLACK
6
CONTINUOUS
10
105.604
20
-211.531
11
105.889
21
-211.388
0
LINE
8
BLACK
6
CONTINUOUS
10
105.889
20
-211.388
11
106.461
21
-211.388
0
LINE
8
BLACK
6
CONTINUOUS
10
106.461
20
-211.388
11
106.746
21
-211.531
0
LINE
8
BLACK
6
CONTINUOUS
10
106.746
20
-211.531
11
106.889
21
-211.674
0
LINE
8
BLACK
6
CONTINUOUS
10
106.889
20
-211.674
11
107.032
21
-211.96
0
LINE
8
BLACK
6
CONTINUOUS
10
107.032
20
-211.96
11
107.032
21
-212.817
0
LINE
8
BLACK
6
CONTINUOUS
10
107.032
20
-212.817
11
106.889
21
-213.103
0
LINE
8
BLACK
6
CONTINUOUS
10
106.889
20
-213.103
11
106.746
21
-213.246
0
LINE
8
BLACK
6
CONTINUOUS
10
106.746
20
-213.246
11
106.461
21
-213.388
0
LINE
8
BLACK
6
CONTINUOUS
10
106.461
20
-213.388
11
105.889
21
-213.388
0
LINE
8
BLACK
6
CONTINUOUS
10
105.889
20
-213.388
11
105.604
21
-213.246
0
LINE
8
BLACK
6
CONTINUOUS
10
108.746
20
-213.388
11
108.461
21
-213.246
0
LINE
8
BLACK
6
CONTINUOUS
10
108.461
20
-213.246
11
108.318
21
-212.96
0
LINE
8
BLACK
6
CONTINUOUS
10
108.318
20
-212.96
11
108.318
21
-210.388
0
LINE
8
BLACK
6
CONTINUOUS
10
111.175
20
-213.388
11
111.175
21
-211.817
0
LINE
8
BLACK
6
CONTINUOUS
10
111.175
20
-211.817
11
111.032
21
-211.531
0
LINE
8
BLACK
6
CONTINUOUS
10
111.032
20
-211.531
11
110.746
21
-211.388
0
LINE
8
BLACK
6
CONTINUOUS
10
110.746
20
-211.388
11
110.175
21
-211.388
0
LINE
8
BLACK
6
CONTINUOUS
10
110.175
20
-211.388
11
109.889
21
-211.531
0
LINE
8
BLACK
6
CONTINUOUS
10
111.175
20
-213.246
11
110.889
21
-213.388
0
LINE
8
BLACK
6
CONTINUOUS
10
110.889
20
-213.388
11
110.175
21
-213.388
0
LINE
8
BLACK
6
CONTINUOUS
10
110.175
20
-213.388
11
109.889
21
-213.246
0
LINE
8
BLACK
6
CONTINUOUS
10
109.889
20
-213.246
11
109.746
21
-212.96
0
LINE
8
BLACK
6
CONTINUOUS
10
109.746
20
-212.96
11
109.746
21
-212.674
0
LINE
8
BLACK
6
CONTINUOUS
10
109.746
20
-212.674
11
109.889
21
-212.388
0
LINE
8
BLACK
6
CONTINUOUS
10
109.889
20
-212.388
11
110.175
21
-212.246
0
LINE
8
BLACK
6
CONTINUOUS
10
110.175
20
-212.246
11
110.889
21
-212.246
0
LINE
8
BLACK
6
CONTINUOUS
10
110.889
20
-212.246
11
111.175
21
-212.103
0
LINE
8
BLACK
6
CONTINUOUS
10
112.175
20
-211.388
11
113.318
21
-211.388
0
LINE
8
BLACK
6
CONTINUOUS
10
112.604
20
-210.388
11
112.604
21
-212.96
0
LINE
8
BLACK
6
CONTINUOUS
10
112.604
20
-212.96
11
112.746
21
-213.246
0
LINE
8
BLACK
6
CONTINUOUS
10
112.746
20
-213.246
11
113.032
21
-213.388
0
LINE
8
BLACK
6
CONTINUOUS
10
113.032
20
-213.388
11
113.318
21
-213.388
0
LINE
8
BLACK
6
CONTINUOUS
10
115.461
20
-213.246
11
115.175
21
-213.388
0
LINE
8
BLACK
6
CONTINUOUS
10
115.175
20
-213.388
11
114.604
21
-213.388
0
LINE
8
BLACK
6
CONTINUOUS
10
114.604
20
-213.388
11
114.318
21
-213.246
0
LINE
8
BLACK
6
CONTINUOUS
10
114.318
20
-213.246
11
114.175
21
-212.96
0
LINE
8
BLACK
6
CONTINUOUS
10
114.175
20
-212.96
11
114.175
21
-211.817
0
LINE
8
BLACK
6
CONTINUOUS
10
114.175
20
-211.817
11
114.318
21
-211.531
0
LINE
8
BLACK
6
CONTINUOUS
10
114.318
20
-211.531
11
114.604
21
-211.388
0
LINE
8
BLACK
6
CONTINUOUS
10
114.604
20
-211.388
11
115.175
21
-211.388
0
LINE
8
BLACK
6
CONTINUOUS
10
115.175
20
-211.388
11
115.461
21
-211.531
0
LINE
8
BLACK
6
CONTINUOUS
10
115.461
20
-211.531
11
115.604
21
-211.817
0
LINE
8
BLACK
6
CONTINUOUS
10
115.604
20
-211.817
11
115.604
21
-212.103
0
LINE
8
BLACK
6
CONTINUOUS
10
115.604
20
-212.103
11
114.175
21
-212.388
0
LINE
8
BLACK
6
CONTINUOUS
10
118.175
20
-213.388
11
118.175
21
-210.388
0
LINE
8
BLACK
6
CONTINUOUS
10
118.175
20
-213.246
11
117.889
21
-213.388
0
LINE
8
BLACK
6
CONTINUOUS
10
117.889
20
-213.388
11
117.318
21
-213.388
0
LINE
8
BLACK
6
CONTINUOUS
10
117.318
20
-213.388
11
117.032
21
-213.246
0
LINE
8
BLACK
6
CONTINUOUS
10
117.032
20
-213.246
11
116.889
21
-213.103
0
LINE
8
BLACK
6
CONTINUOUS
10
116.889
20
-213.103
11
116.746
21
-212.817
0
LINE
8
BLACK
6
CONTINUOUS
10
116.746
20
-212.817
11
116.746
21
-211.96
0
LINE
8
BLACK
6
CONTINUOUS
10
116.746
20
-211.96
11
116.889
21
-211.674
0
LINE
8
BLACK
6
CONTINUOUS
10
116.889
20
-211.674
11
117.032
21
-211.531
0
LINE
8
BLACK
6
CONTINUOUS
10
117.032
20
-211.531
11
117.318
21
-211.388
0
LINE
8
BLACK
6
CONTINUOUS
10
117.318
20
-211.388
11
117.889
21
-211.388
0
LINE
8
BLACK
6
CONTINUOUS
10
117.889
20
-211.388
11
118.175
21
-211.531
0
LINE
8
BLACK
6
CONTINUOUS
10
119.318
20
-214.531
11
119.461
21
-214.388
0
LINE
8
BLACK
6
CONTINUOUS
10
119.461
20
-214.388
11
119.746
21
-213.96
0
LINE
8
BLACK
6
CONTINUOUS
10
119.746
20
-213.96
11
119.889
21
-213.674
0
LINE
8
BLACK
6
CONTINUOUS
10
119.889
20
-213.674
11
120.032
21
-213.246
0
LINE
8
BLACK
6
CONTINUOUS
10
120.032
20
-213.246
11
120.175
21
-212.531
0
LINE
8
BLACK
6
CONTINUOUS
10
120.175
20
-212.531
11
120.175
21
-211.96
0
LINE
8
BLACK
6
CONTINUOUS
10
120.175
20
-211.96
11
120.032
21
-211.246
0
LINE
8
BLACK
6
CONTINUOUS
10
120.032
20
-211.246
11
119.889
21
-210.817
0
LINE
8
BLACK
6
CONTINUOUS
10
119.889
20
-210.817
11
119.746
21
-210.531
0
LINE
8
BLACK
6
CONTINUOUS
10
119.746
20
-210.531
11
119.461
21
-210.103
0
LINE
8
BLACK
6
CONTINUOUS
10
119.461
20
-210.103
11
119.318
21
-209.96
0
CIRCLE
8
BLACK
10
17.525
20
-215.991
40
1.5
0
LINE
8
BLACK
6
CONTINUOUS
10
21.6036
20
-214.348
11
23.4607
21
-214.348
0
LINE
8
BLACK
6
CONTINUOUS
10
23.4607
20
-214.348
11
22.4607
21
-215.491
0
LINE
8
BLACK
6
CONTINUOUS
10
22.4607
20
-215.491
11
22.8893
21
-215.491
0
LINE
8
BLACK
6
CONTINUOUS
10
22.8893
20
-215.491
11
23.175
21
-215.634
0
LINE
8
BLACK
6
CONTINUOUS
10
23.175
20
-215.634
11
23.3179
21
-215.777
0
LINE
8
BLACK
6
CONTINUOUS
10
23.3179
20
-215.777
11
23.4607
21
-216.063
0
LINE
8
BLACK
6
CONTINUOUS
10
23.4607
20
-216.063
11
23.4607
21
-216.777
0
LINE
8
BLACK
6
CONTINUOUS
10
23.4607
20
-216.777
11
23.3179
21
-217.063
0
LINE
8
BLACK
6
CONTINUOUS
10
23.3179
20
-217.063
11
23.175
21
-217.206
0
LINE
8
BLACK
6
CONTINUOUS
10
23.175
20
-217.206
11
22.8893
21
-217.348
0
LINE
8
BLACK
6
CONTINUOUS
10
22.8893
20
-217.348
11
22.0321
21
-217.348
0
LINE
8
BLACK
6
CONTINUOUS
10
22.0321
20
-217.348
11
21.7464
21
-217.206
0
LINE
8
BLACK
6
CONTINUOUS
10
21.7464
20
-217.206
11
21.6036
21
-217.063
0
LINE
8
BLACK
6
CONTINUOUS
10
24.7464
20
-217.063
11
24.8893
21
-217.206
0
LINE
8
BLACK
6
CONTINUOUS
10
24.8893
20
-217.206
11
24.7464
21
-217.348
0
LINE
8
BLACK
6
CONTINUOUS
10
24.7464
20
-217.348
11
24.6036
21
-217.206
0
LINE
8
BLACK
6
CONTINUOUS
10
24.6036
20
-217.206
11
24.7464
21
-217.063
0
LINE
8
BLACK
6
CONTINUOUS
10
24.7464
20
-217.063
11
24.7464
21
-217.348
0
LINE
8
BLACK
6
CONTINUOUS
10
26.7464
20
-214.348
11
27.0321
21
-214.348
0
LINE
8
BLACK
6
CONTINUOUS
10
27.0321
20
-214.348
11
27.3179
21
-214.491
0
LINE
8
BLACK
6
CONTINUOUS
10
27.3179
20
-214.491
11
27.4607
21
-214.634
0
LINE
8
BLACK
6
CONTINUOUS
10
27.4607
20
-214.634
11
27.6036
21
-214.92
0
LINE
8
BLACK
6
CONTINUOUS
10
27.6036
20
-214.92
11
27.7464
21
-215.491
0
LINE
8
BLACK
6
CONTINUOUS
10
27.7464
20
-215.491
11
27.7464
21
-216.206
0
LINE
8
BLACK
6
CONTINUOUS
10
27.7464
20
-216.206
11
27.6036
21
-216.777
0
LINE
8
BLACK
6
CONTINUOUS
10
27.6036
20
-216.777
11
27.4607
21
-217.063
0
LINE
8
BLACK
6
CONTINUOUS
10
27.4607
20
-217.063
11
27.3179
21
-217.206
0
LINE
8
BLACK
6
CONTINUOUS
10
27.3179
20
-217.206
11
27.0321
21
-217.348
0
LINE
8
BLACK
6
CONTINUOUS
10
27.0321
20
-217.348
11
26.7464
21
-217.348
0
LINE
8
BLACK
6
CONTINUOUS
10
26.7464
20
-217.348
11
26.4607
21
-217.206
0
LINE
8
BLACK
6
CONTINUOUS
10
26.4607
20
-217.206
11
26.3179
21
-217.063
0
LINE
8
BLACK
6
CONTINUOUS
10
26.3179
20
-217.063
11
26.175
21
-216.777
0
LINE
8
BLACK
6
CONTINUOUS
10
26.175
20
-216.777
11
26.0321
21
-216.206
0
LINE
8
BLACK
6
CONTINUOUS
10
26.0321
20
-216.206
11
26.0321
21
-215.491
0
LINE
8
BLACK
6
CONTINUOUS
10
26.0321
20
-215.491
11
26.175
21
-214.92
0
LINE
8
BLACK
6
CONTINUOUS
10
26.175
20
-214.92
11
26.3179
21
-214.634
0
LINE
8
BLACK
6
CONTINUOUS
10
26.3179
20
-214.634
11
26.4607
21
-214.491
0
LINE
8
BLACK
6
CONTINUOUS
10
26.4607
20
-214.491
11
26.7464
21
-214.348
0
LINE
8
BLACK
6
CONTINUOUS
10
29.6036
20
-214.348
11
29.8893
21
-214.348
0
LINE
8
BLACK
6
CONTINUOUS
10
29.8893
20
-214.348
11
30.175
21
-214.491
0
LINE
8
BLACK
6
CONTINUOUS
10
30.175
20
-214.491
11
30.3179
21
-214.634
0
LINE
8
BLACK
6
CONTINUOUS
10
30.3179
20
-214.634
11
30.4607
21
-214.92
0
LINE
8
BLACK
6
CONTINUOUS
10
30.4607
20
-214.92
11
30.6036
21
-215.491
0
LINE
8
BLACK
6
CONTINUOUS
10
30.6036
20
-215.491
11
30.6036
21
-216.206
0
LINE
8
BLACK
6
CONTINUOUS
10
30.6036
20
-216.206
11
30.4607
21
-216.777
0
LINE
8
BLACK
6
CONTINUOUS
10
30.4607
20
-216.777
11
30.3179
21
-217.063
0
LINE
8
BLACK
6
CONTINUOUS
10
30.3179
20
-217.063
11
30.175
21
-217.206
0
LINE
8
BLACK
6
CONTINUOUS
10
30.175
20
-217.206
11
29.8893
21
-217.348
0
LINE
8
BLACK
6
CONTINUOUS
10
29.8893
20
-217.348
11
29.6036
21
-217.348
0
LINE
8
BLACK
6
CONTINUOUS
10
29.6036
20
-217.348
11
29.3179
21
-217.206
0
LINE
8
BLACK
6
CONTINUOUS
10
29.3179
20
-217.206
11
29.175
21
-217.063
0
LINE
8
BLACK
6
CONTINUOUS
10
29.175
20
-217.063
11
29.0321
21
-216.777
0
LINE
8
BLACK
6
CONTINUOUS
10
29.0321
20
-216.777
11
28.8893
21
-216.206
0
LINE
8
BLACK
6
CONTINUOUS
10
28.8893
20
-216.206
11
28.8893
21
-215.491
0
LINE
8
BLACK
6
CONTINUOUS
10
28.8893
20
-215.491
11
29.0321
21
-214.92
0
LINE
8
BLACK
6
CONTINUOUS
10
29.0321
20
-214.92
11
29.175
21
-214.634
0
LINE
8
BLACK
6
CONTINUOUS
10
29.175
20
-214.634
11
29.3179
21
-214.491
0
LINE
8
BLACK
6
CONTINUOUS
10
29.3179
20
-214.491
11
29.6036
21
-214.348
0
LINE
8
BLACK
6
CONTINUOUS
10
31.8893
20
-217.348
11
31.8893
21
-215.348
0
LINE
8
BLACK
6
CONTINUOUS
10
31.8893
20
-215.634
11
32.0321
21
-215.491
0
LINE
8
BLACK
6
CONTINUOUS
10
32.0321
20
-215.491
11
32.3179
21
-215.348
0
LINE
8
BLACK
6
CONTINUOUS
10
32.3179
20
-215.348
11
32.7464
21
-215.348
0
LINE
8
BLACK
6
CONTINUOUS
10
32.7464
20
-215.348
11
33.0321
21
-215.491
0
LINE
8
BLACK
6
CONTINUOUS
10
33.0321
20
-215.491
11
33.175
21
-215.777
0
LINE
8
BLACK
6
CONTINUOUS
10
33.175
20
-215.777
11
33.175
21
-217.348
0
LINE
8
BLACK
6
CONTINUOUS
10
33.175
20
-215.777
11
33.3179
21
-215.491
0
LINE
8
BLACK
6
CONTINUOUS
10
33.3179
20
-215.491
11
33.6036
21
-215.348
0
LINE
8
BLACK
6
CONTINUOUS
10
33.6036
20
-215.348
11
34.0321
21
-215.348
0
LINE
8
BLACK
6
CONTINUOUS
10
34.0321
20
-215.348
11
34.3179
21
-215.491
0
LINE
8
BLACK
6
CONTINUOUS
10
34.3179
20
-215.491
11
34.4607
21
-215.777
0
LINE
8
BLACK
6
CONTINUOUS
10
34.4607
20
-215.777
11
34.4607
21
-217.348
0
LINE
8
BLACK
6
CONTINUOUS
10
35.8893
20
-217.348
11
35.8893
21
-215.348
0
LINE
8
BLACK
6
CONTINUOUS
10
35.8893
20
-215.634
11
36.0321
21
-215.491
0
LINE
8
BLACK
6
CONTINUOUS
10
36.0321
20
-215.491
11
36.3179
21
-215.348
0
LINE
8
BLACK
6
CONTINUOUS
10
36.3179
20
-215.348
11
36.7464
21
-215.348
0
LINE
8
BLACK
6
CONTINUOUS
10
36.7464
20
-215.348
11
37.0321
21
-215.491
0
LINE
8
BLACK
6
CONTINUOUS
10
37.0321
20
-215.491
11
37.175
21
-215.777
0
LINE
8
BLACK
6
CONTINUOUS
10
37.175
20
-215.777
11
37.175
21
-217.348
0
LINE
8
BLACK
6
CONTINUOUS
10
37.175
20
-215.777
11
37.3179
21
-215.491
0
LINE
8
BLACK
6
CONTINUOUS
10
37.3179
20
-215.491
11
37.6036
21
-215.348
0
LINE
8
BLACK
6
CONTINUOUS
10
37.6036
20
-215.348
11
38.0321
21
-215.348
0
LINE
8
BLACK
6
CONTINUOUS
10
38.0321
20
-215.348
11
38.3179
21
-215.491
0
LINE
8
BLACK
6
CONTINUOUS
10
38.3179
20
-215.491
11
38.4607
21
-215.777
0
LINE
8
BLACK
6
CONTINUOUS
10
38.4607
20
-215.777
11
38.4607
21
-217.348
0
LINE
8
BLACK
6
CONTINUOUS
10
44.3179
20
-214.206
11
41.7464
21
-218.063
0
LINE
8
BLACK
6
CONTINUOUS
10
48.175
20
-214.348
11
48.4607
21
-214.348
0
LINE
8
BLACK
6
CONTINUOUS
10
48.4607
20
-214.348
11
48.7464
21
-214.491
0
LINE
8
BLACK
6
CONTINUOUS
10
48.7464
20
-214.491
11
48.8893
21
-214.634
0
LINE
8
BLACK
6
CONTINUOUS
10
48.8893
20
-214.634
11
49.0321
21
-214.92
0
LINE
8
BLACK
6
CONTINUOUS
10
49.0321
20
-214.92
11
49.175
21
-215.491
0
LINE
8
BLACK
6
CONTINUOUS
10
49.175
20
-215.491
11
49.175
21
-216.206
0
LINE
8
BLACK
6
CONTINUOUS
10
49.175
20
-216.206
11
49.0321
21
-216.777
0
LINE
8
BLACK
6
CONTINUOUS
10
49.0321
20
-216.777
11
48.8893
21
-217.063
0
LINE
8
BLACK
6
CONTINUOUS
10
48.8893
20
-217.063
11
48.7464
21
-217.206
0
LINE
8
BLACK
6
CONTINUOUS
10
48.7464
20
-217.206
11
48.4607
21
-217.348
0
LINE
8
BLACK
6
CONTINUOUS
10
48.4607
20
-217.348
11
48.175
21
-217.348
0
LINE
8
BLACK
6
CONTINUOUS
10
48.175
20
-217.348
11
47.8893
21
-217.206
0
LINE
8
BLACK
6
CONTINUOUS
10
47.8893
20
-217.206
11
47.7464
21
-217.063
0
LINE
8
BLACK
6
CONTINUOUS
10
47.7464
20
-217.063
11
47.6036
21
-216.777
0
LINE
8
BLACK
6
CONTINUOUS
10
47.6036
20
-216.777
11
47.4607
21
-216.206
0
LINE
8
BLACK
6
CONTINUOUS
10
47.4607
20
-216.206
11
47.4607
21
-215.491
0
LINE
8
BLACK
6
CONTINUOUS
10
47.4607
20
-215.491
11
47.6036
21
-214.92
0
LINE
8
BLACK
6
CONTINUOUS
10
47.6036
20
-214.92
11
47.7464
21
-214.634
0
LINE
8
BLACK
6
CONTINUOUS
10
47.7464
20
-214.634
11
47.8893
21
-214.491
0
LINE
8
BLACK
6
CONTINUOUS
10
47.8893
20
-214.491
11
48.175
21
-214.348
0
LINE
8
BLACK
6
CONTINUOUS
10
50.4607
20
-217.063
11
50.6036
21
-217.206
0
LINE
8
BLACK
6
CONTINUOUS
10
50.6036
20
-217.206
11
50.4607
21
-217.348
0
LINE
8
BLACK
6
CONTINUOUS
10
50.4607
20
-217.348
11
50.3179
21
-217.206
0
LINE
8
BLACK
6
CONTINUOUS
10
50.3179
20
-217.206
11
50.4607
21
-217.063
0
LINE
8
BLACK
6
CONTINUOUS
10
50.4607
20
-217.063
11
50.4607
21
-217.348
0
LINE
8
BLACK
6
CONTINUOUS
10
53.4607
20
-217.348
11
51.7464
21
-217.348
0
LINE
8
BLACK
6
CONTINUOUS
10
52.6036
20
-217.348
11
52.6036
21
-214.348
0
LINE
8
BLACK
6
CONTINUOUS
10
52.6036
20
-214.348
11
52.3179
21
-214.777
0
LINE
8
BLACK
6
CONTINUOUS
10
52.3179
20
-214.777
11
52.0321
21
-215.063
0
LINE
8
BLACK
6
CONTINUOUS
10
52.0321
20
-215.063
11
51.7464
21
-215.206
0
LINE
8
BLACK
6
CONTINUOUS
10
56.3179
20
-217.348
11
54.6036
21
-217.348
0
LINE
8
BLACK
6
CONTINUOUS
10
55.4607
20
-217.348
11
55.4607
21
-214.348
0
LINE
8
BLACK
6
CONTINUOUS
10
55.4607
20
-214.348
11
55.175
21
-214.777
0
LINE
8
BLACK
6
CONTINUOUS
10
55.175
20
-214.777
11
54.8893
21
-215.063
0
LINE
8
BLACK
6
CONTINUOUS
10
54.8893
20
-215.063
11
54.6036
21
-215.206
0
LINE
8
BLACK
6
CONTINUOUS
10
58.0321
20
-215.634
11
57.7464
21
-215.491
0
LINE
8
BLACK
6
CONTINUOUS
10
57.7464
20
-215.491
11
57.6036
21
-215.348
0
LINE
8
BLACK
6
CONTINUOUS
10
57.6036
20
-215.348
11
57.4607
21
-215.063
0
LINE
8
BLACK
6
CONTINUOUS
10
57.4607
20
-215.063
11
57.4607
21
-214.92
0
LINE
8
BLACK
6
CONTINUOUS
10
57.4607
20
-214.92
11
57.6036
21
-214.634
0
LINE
8
BLACK
6
CONTINUOUS
10
57.6036
20
-214.634
11
57.7464
21
-214.491
0
LINE
8
BLACK
6
CONTINUOUS
10
57.7464
20
-214.491
11
58.0321
21
-214.348
0
LINE
8
BLACK
6
CONTINUOUS
10
58.0321
20
-214.348
11
58.6036
21
-214.348
0
LINE
8
BLACK
6
CONTINUOUS
10
58.6036
20
-214.348
11
58.8893
21
-214.491
0
LINE
8
BLACK
6
CONTINUOUS
10
58.8893
20
-214.491
11
59.0321
21
-214.634
0
LINE
8
BLACK
6
CONTINUOUS
10
59.0321
20
-214.634
11
59.175
21
-214.92
0
LINE
8
BLACK
6
CONTINUOUS
10
59.175
20
-214.92
11
59.175
21
-215.063
0
LINE
8
BLACK
6
CONTINUOUS
10
59.175
20
-215.063
11
59.0321
21
-215.348
0
LINE
8
BLACK
6
CONTINUOUS
10
59.0321
20
-215.348
11
58.8893
21
-215.491
0
LINE
8
BLACK
6
CONTINUOUS
10
58.8893
20
-215.491
11
58.6036
21
-215.634
0
LINE
8
BLACK
6
CONTINUOUS
10
58.6036
20
-215.634
11
58.0321
21
-215.634
0
LINE
8
BLACK
6
CONTINUOUS
10
58.0321
20
-215.634
11
57.7464
21
-215.777
0
LINE
8
BLACK
6
CONTINUOUS
10
57.7464
20
-215.777
11
57.6036
21
-215.92
0
LINE
8
BLACK
6
CONTINUOUS
10
57.6036
20
-215.92
11
57.4607
21
-216.206
0
LINE
8
BLACK
6
CONTINUOUS
10
57.4607
20
-216.206
11
57.4607
21
-216.777
0
LINE
8
BLACK
6
CONTINUOUS
10
57.4607
20
-216.777
11
57.6036
21
-217.063
0
LINE
8
BLACK
6
CONTINUOUS
10
57.6036
20
-217.063
11
57.7464
21
-217.206
0
LINE
8
BLACK
6
CONTINUOUS
10
57.7464
20
-217.206
11
58.0321
21
-217.348
0
LINE
8
BLACK
6
CONTINUOUS
10
58.0321
20
-217.348
11
58.6036
21
-217.348
0
LINE
8
BLACK
6
CONTINUOUS
10
58.6036
20
-217.348
11
58.8893
21
-217.206
0
LINE
8
BLACK
6
CONTINUOUS
10
58.8893
20
-217.206
11
59.0321
21
-217.063
0
LINE
8
BLACK
6
CONTINUOUS
10
59.0321
20
-217.063
11
59.175
21
-216.777
0
LINE
8
BLACK
6
CONTINUOUS
10
59.175
20
-216.777
11
59.175
21
-216.206
0
LINE
8
BLACK
6
CONTINUOUS
10
59.175
20
-216.206
11
59.0321
21
-215.92
0
LINE
8
BLACK
6
CONTINUOUS
10
59.0321
20
-215.92
11
58.8893
21
-215.777
0
LINE
8
BLACK
6
CONTINUOUS
10
58.8893
20
-215.777
11
58.6036
21
-215.634
0
LINE
8
BLACK
6
CONTINUOUS
10
60.3179
20
-214.348
11
60.3179
21
-214.92
0
LINE
8
BLACK
6
CONTINUOUS
10
61.4607
20
-214.348
11
61.4607
21
-214.92
0
LINE
8
BLACK
6
CONTINUOUS
10
65.8893
20
-218.491
11
65.7464
21
-218.348
0
LINE
8
BLACK
6
CONTINUOUS
10
65.7464
20
-218.348
11
65.4607
21
-217.92
0
LINE
8
BLACK
6
CONTINUOUS
10
65.4607
20
-217.92
11
65.3179
21
-217.634
0
LINE
8
BLACK
6
CONTINUOUS
10
65.3179
20
-217.634
11
65.175
21
-217.206
0
LINE
8
BLACK
6
CONTINUOUS
10
65.175
20
-217.206
11
65.0321
21
-216.491
0
LINE
8
BLACK
6
CONTINUOUS
10
65.0321
20
-216.491
11
65.0321
21
-215.92
0
LINE
8
BLACK
6
CONTINUOUS
10
65.0321
20
-215.92
11
65.175
21
-215.206
0
LINE
8
BLACK
6
CONTINUOUS
10
65.175
20
-215.206
11
65.3179
21
-214.777
0
LINE
8
BLACK
6
CONTINUOUS
10
65.3179
20
-214.777
11
65.4607
21
-214.491
0
LINE
8
BLACK
6
CONTINUOUS
10
65.4607
20
-214.491
11
65.7464
21
-214.063
0
LINE
8
BLACK
6
CONTINUOUS
10
65.7464
20
-214.063
11
65.8893
21
-213.92
0
LINE
8
BLACK
6
CONTINUOUS
10
68.6036
20
-217.348
11
66.8893
21
-217.348
0
LINE
8
BLACK
6
CONTINUOUS
10
67.7464
20
-217.348
11
67.7464
21
-214.348
0
LINE
8
BLACK
6
CONTINUOUS
10
67.7464
20
-214.348
11
67.4607
21
-214.777
0
LINE
8
BLACK
6
CONTINUOUS
10
67.4607
20
-214.777
11
67.175
21
-215.063
0
LINE
8
BLACK
6
CONTINUOUS
10
67.175
20
-215.063
11
66.8893
21
-215.206
0
LINE
8
BLACK
6
CONTINUOUS
10
69.6036
20
-214.348
11
71.6036
21
-214.348
0
LINE
8
BLACK
6
CONTINUOUS
10
71.6036
20
-214.348
11
70.3179
21
-217.348
0
LINE
8
BLACK
6
CONTINUOUS
10
73.175
20
-215.634
11
72.8893
21
-215.491
0
LINE
8
BLACK
6
CONTINUOUS
10
72.8893
20
-215.491
11
72.7464
21
-215.348
0
LINE
8
BLACK
6
CONTINUOUS
10
72.7464
20
-215.348
11
72.6036
21
-215.063
0
LINE
8
BLACK
6
CONTINUOUS
10
72.6036
20
-215.063
11
72.6036
21
-214.92
0
LINE
8
BLACK
6
CONTINUOUS
10
72.6036
20
-214.92
11
72.7464
21
-214.634
0
LINE
8
BLACK
6
CONTINUOUS
10
72.7464
20
-214.634
11
72.8893
21
-214.491
0
LINE
8
BLACK
6
CONTINUOUS
10
72.8893
20
-214.491
11
73.175
21
-214.348
0
LINE
8
BLACK
6
CONTINUOUS
10
73.175
20
-214.348
11
73.7464
21
-214.348
0
LINE
8
BLACK
6
CONTINUOUS
10
73.7464
20
-214.348
11
74.0321
21
-214.491
0
LINE
8
BLACK
6
CONTINUOUS
10
74.0321
20
-214.491
11
74.175
21
-214.634
0
LINE
8
BLACK
6
CONTINUOUS
10
74.175
20
-214.634
11
74.3179
21
-214.92
0
LINE
8
BLACK
6
CONTINUOUS
10
74.3179
20
-214.92
11
74.3179
21
-215.063
0
LINE
8
BLACK
6
CONTINUOUS
10
74.3179
20
-215.063
11
74.175
21
-215.348
0
LINE
8
BLACK
6
CONTINUOUS
10
74.175
20
-215.348
11
74.0321
21
-215.491
0
LINE
8
BLACK
6
CONTINUOUS
10
74.0321
20
-215.491
11
73.7464
21
-215.634
0
LINE
8
BLACK
6
CONTINUOUS
10
73.7464
20
-215.634
11
73.175
21
-215.634
0
LINE
8
BLACK
6
CONTINUOUS
10
73.175
20
-215.634
11
72.8893
21
-215.777
0
LINE
8
BLACK
6
CONTINUOUS
10
72.8893
20
-215.777
11
72.7464
21
-215.92
0
LINE
8
BLACK
6
CONTINUOUS
10
72.7464
20
-215.92
11
72.6036
21
-216.206
0
LINE
8
BLACK
6
CONTINUOUS
10
72.6036
20
-216.206
11
72.6036
21
-216.777
0
LINE
8
BLACK
6
CONTINUOUS
10
72.6036
20
-216.777
11
72.7464
21
-217.063
0
LINE
8
BLACK
6
CONTINUOUS
10
72.7464
20
-217.063
11
72.8893
21
-217.206
0
LINE
8
BLACK
6
CONTINUOUS
10
72.8893
20
-217.206
11
73.175
21
-217.348
0
LINE
8
BLACK
6
CONTINUOUS
10
73.175
20
-217.348
11
73.7464
21
-217.348
0
LINE
8
BLACK
6
CONTINUOUS
10
73.7464
20
-217.348
11
74.0321
21
-217.206
0
LINE
8
BLACK
6
CONTINUOUS
10
74.0321
20
-217.206
11
74.175
21
-217.063
0
LINE
8
BLACK
6
CONTINUOUS
10
74.175
20
-217.063
11
74.3179
21
-216.777
0
LINE
8
BLACK
6
CONTINUOUS
10
74.3179
20
-216.777
11
74.3179
21
-216.206
0
LINE
8
BLACK
6
CONTINUOUS
10
74.3179
20
-216.206
11
74.175
21
-215.92
0
LINE
8
BLACK
6
CONTINUOUS
10
74.175
20
-215.92
11
74.0321
21
-215.777
0
LINE
8
BLACK
6
CONTINUOUS
10
74.0321
20
-215.777
11
73.7464
21
-215.634
0
LINE
8
BLACK
6
CONTINUOUS
10
77.8893
20
-217.348
11
77.8893
21
-214.348
0
LINE
8
BLACK
6
CONTINUOUS
10
79.175
20
-217.348
11
79.175
21
-215.777
0
LINE
8
BLACK
6
CONTINUOUS
10
79.175
20
-215.777
11
79.0321
21
-215.491
0
LINE
8
BLACK
6
CONTINUOUS
10
79.0321
20
-215.491
11
78.7464
21
-215.348
0
LINE
8
BLACK
6
CONTINUOUS
10
78.7464
20
-215.348
11
78.3179
21
-215.348
0
LINE
8
BLACK
6
CONTINUOUS
10
78.3179
20
-215.348
11
78.0321
21
-215.491
0
LINE
8
BLACK
6
CONTINUOUS
10
78.0321
20
-215.491
11
77.8893
21
-215.634
0
LINE
8
BLACK
6
CONTINUOUS
10
81.0321
20
-217.348
11
80.7464
21
-217.206
0
LINE
8
BLACK
6
CONTINUOUS
10
80.7464
20
-217.206
11
80.6036
21
-217.063
0
LINE
8
BLACK
6
CONTINUOUS
10
80.6036
20
-217.063
11
80.4607
21
-216.777
0
LINE
8
BLACK
6
CONTINUOUS
10
80.4607
20
-216.777
11
80.4607
21
-215.92
0
LINE
8
BLACK
6
CONTINUOUS
10
80.4607
20
-215.92
11
80.6036
21
-215.634
0
LINE
8
BLACK
6
CONTINUOUS
10
80.6036
20
-215.634
11
80.7464
21
-215.491
0
LINE
8
BLACK
6
CONTINUOUS
10
80.7464
20
-215.491
11
81.0321
21
-215.348
0
LINE
8
BLACK
6
CONTINUOUS
10
81.0321
20
-215.348
11
81.4607
21
-215.348
0
LINE
8
BLACK
6
CONTINUOUS
10
81.4607
20
-215.348
11
81.7464
21
-215.491
0
LINE
8
BLACK
6
CONTINUOUS
10
81.7464
20
-215.491
11
81.8893
21
-215.634
0
LINE
8
BLACK
6
CONTINUOUS
10
81.8893
20
-215.634
11
82.0321
21
-215.92
0
LINE
8
BLACK
6
CONTINUOUS
10
82.0321
20
-215.92
11
82.0321
21
-216.777
0
LINE
8
BLACK
6
CONTINUOUS
10
82.0321
20
-216.777
11
81.8893
21
-217.063
0
LINE
8
BLACK
6
CONTINUOUS
10
81.8893
20
-217.063
11
81.7464
21
-217.206
0
LINE
8
BLACK
6
CONTINUOUS
10
81.7464
20
-217.206
11
81.4607
21
-217.348
0
LINE
8
BLACK
6
CONTINUOUS
10
81.4607
20
-217.348
11
81.0321
21
-217.348
0
LINE
8
BLACK
6
CONTINUOUS
10
83.7464
20
-217.348
11
83.4607
21
-217.206
0
LINE
8
BLACK
6
CONTINUOUS
10
83.4607
20
-217.206
11
83.3179
21
-216.92
0
LINE
8
BLACK
6
CONTINUOUS
10
83.3179
20
-216.92
11
83.3179
21
-214.348
0
LINE
8
BLACK
6
CONTINUOUS
10
86.0321
20
-217.206
11
85.7464
21
-217.348
0
LINE
8
BLACK
6
CONTINUOUS
10
85.7464
20
-217.348
11
85.175
21
-217.348
0
LINE
8
BLACK
6
CONTINUOUS
10
85.175
20
-217.348
11
84.8893
21
-217.206
0
LINE
8
BLACK
6
CONTINUOUS
10
84.8893
20
-217.206
11
84.7464
21
-216.92
0
LINE
8
BLACK
6
CONTINUOUS
10
84.7464
20
-216.92
11
84.7464
21
-215.777
0
LINE
8
BLACK
6
CONTINUOUS
10
84.7464
20
-215.777
11
84.8893
21
-215.491
0
LINE
8
BLACK
6
CONTINUOUS
10
84.8893
20
-215.491
11
85.175
21
-215.348
0
LINE
8
BLACK
6
CONTINUOUS
10
85.175
20
-215.348
11
85.7464
21
-215.348
0
LINE
8
BLACK
6
CONTINUOUS
10
85.7464
20
-215.348
11
86.0321
21
-215.491
0
LINE
8
BLACK
6
CONTINUOUS
10
86.0321
20
-215.491
11
86.175
21
-215.777
0
LINE
8
BLACK
6
CONTINUOUS
10
86.175
20
-215.777
11
86.175
21
-216.063
0
LINE
8
BLACK
6
CONTINUOUS
10
86.175
20
-216.063
11
84.7464
21
-216.348
0
LINE
8
BLACK
6
CONTINUOUS
10
87.3179
20
-217.206
11
87.6036
21
-217.348
0
LINE
8
BLACK
6
CONTINUOUS
10
87.6036
20
-217.348
11
88.175
21
-217.348
0
LINE
8
BLACK
6
CONTINUOUS
10
88.175
20
-217.348
11
88.4607
21
-217.206
0
LINE
8
BLACK
6
CONTINUOUS
10
88.4607
20
-217.206
11
88.6036
21
-216.92
0
LINE
8
BLACK
6
CONTINUOUS
10
88.6036
20
-216.92
11
88.6036
21
-216.777
0
LINE
8
BLACK
6
CONTINUOUS
10
88.6036
20
-216.777
11
88.4607
21
-216.491
0
LINE
8
BLACK
6
CONTINUOUS
10
88.4607
20
-216.491
11
88.175
21
-216.348
0
LINE
8
BLACK
6
CONTINUOUS
10
88.175
20
-216.348
11
87.7464
21
-216.348
0
LINE
8
BLACK
6
CONTINUOUS
10
87.7464
20
-216.348
11
87.4607
21
-216.206
0
LINE
8
BLACK
6
CONTINUOUS
10
87.4607
20
-216.206
11
87.3179
21
-215.92
0
LINE
8
BLACK
6
CONTINUOUS
10
87.3179
20
-215.92
11
87.3179
21
-215.777
0
LINE
8
BLACK
6
CONTINUOUS
10
87.3179
20
-215.777
11
87.4607
21
-215.491
0
LINE
8
BLACK
6
CONTINUOUS
10
87.4607
20
-215.491
11
87.7464
21
-215.348
0
LINE
8
BLACK
6
CONTINUOUS
10
87.7464
20
-215.348
11
88.175
21
-215.348
0
LINE
8
BLACK
6
CONTINUOUS
10
88.175
20
-215.348
11
88.4607
21
-215.491
0
LINE
8
BLACK
6
CONTINUOUS
10
89.6036
20
-218.491
11
89.7464
21
-218.348
0
LINE
8
BLACK
6
CONTINUOUS
10
89.7464
20
-218.348
11
90.0321
21
-217.92
0
LINE
8
BLACK
6
CONTINUOUS
10
90.0321
20
-217.92
11
90.175
21
-217.634
0
LINE
8
BLACK
6
CONTINUOUS
10
90.175
20
-217.634
11
90.3179
21
-217.206
0
LINE
8
BLACK
6
CONTINUOUS
10
90.3179
20
-217.206
11
90.4607
21
-216.491
0
LINE
8
BLACK
6
CONTINUOUS
10
90.4607
20
-216.491
11
90.4607
21
-215.92
0
LINE
8
BLACK
6
CONTINUOUS
10
90.4607
20
-215.92
11
90.3179
21
-215.206
0
LINE
8
BLACK
6
CONTINUOUS
10
90.3179
20
-215.206
11
90.175
21
-214.777
0
LINE
8
BLACK
6
CONTINUOUS
10
90.175
20
-214.777
11
90.0321
21
-214.491
0
LINE
8
BLACK
6
CONTINUOUS
10
90.0321
20
-214.491
11
89.7464
21
-214.063
0
LINE
8
BLACK
6
CONTINUOUS
10
89.7464
20
-214.063
11
89.6036
21
-213.92
0
LINE
8
BLACK
6
CONTINUOUS
10
95.0321
20
-218.491
11
94.8893
21
-218.348
0
LINE
8
BLACK
6
CONTINUOUS
10
94.8893
20
-218.348
11
94.6036
21
-217.92
0
LINE
8
BLACK
6
CONTINUOUS
10
94.6036
20
-217.92
11
94.4607
21
-217.634
0
LINE
8
BLACK
6
CONTINUOUS
10
94.4607
20
-217.634
11
94.3179
21
-217.206
0
LINE
8
BLACK
6
CONTINUOUS
10
94.3179
20
-217.206
11
94.175
21
-216.491
0
LINE
8
BLACK
6
CONTINUOUS
10
94.175
20
-216.491
11
94.175
21
-215.92
0
LINE
8
BLACK
6
CONTINUOUS
10
94.175
20
-215.92
11
94.3179
21
-215.206
0
LINE
8
BLACK
6
CONTINUOUS
10
94.3179
20
-215.206
11
94.4607
21
-214.777
0
LINE
8
BLACK
6
CONTINUOUS
10
94.4607
20
-214.777
11
94.6036
21
-214.491
0
LINE
8
BLACK
6
CONTINUOUS
10
94.6036
20
-214.491
11
94.8893
21
-214.063
0
LINE
8
BLACK
6
CONTINUOUS
10
94.8893
20
-214.063
11
95.0321
21
-213.92
0
LINE
8
BLACK
6
CONTINUOUS
10
96.175
20
-215.348
11
96.175
21
-217.348
0
LINE
8
BLACK
6
CONTINUOUS
10
96.175
20
-215.634
11
96.3179
21
-215.491
0
LINE
8
BLACK
6
CONTINUOUS
10
96.3179
20
-215.491
11
96.6036
21
-215.348
0
LINE
8
BLACK
6
CONTINUOUS
10
96.6036
20
-215.348
11
97.0321
21
-215.348
0
LINE
8
BLACK
6
CONTINUOUS
10
97.0321
20
-215.348
11
97.3179
21
-215.491
0
LINE
8
BLACK
6
CONTINUOUS
10
97.3179
20
-215.491
11
97.4607
21
-215.777
0
LINE
8
BLACK
6
CONTINUOUS
10
97.4607
20
-215.777
11
97.4607
21
-217.348
0
LINE
8
BLACK
6
CONTINUOUS
10
99.3179
20
-217.348
11
99.0321
21
-217.206
0
LINE
8
BLACK
6
CONTINUOUS
10
99.0321
20
-217.206
11
98.8893
21
-217.063
0
LINE
8
BLACK
6
CONTINUOUS
10
98.8893
20
-217.063
11
98.7464
21
-216.777
0
LINE
8
BLACK
6
CONTINUOUS
10
98.7464
20
-216.777
11
98.7464
21
-215.92
0
LINE
8
BLACK
6
CONTINUOUS
10
98.7464
20
-215.92
11
98.8893
21
-215.634
0
LINE
8
BLACK
6
CONTINUOUS
10
98.8893
20
-215.634
11
99.0321
21
-215.491
0
LINE
8
BLACK
6
CONTINUOUS
10
99.0321
20
-215.491
11
99.3179
21
-215.348
0
LINE
8
BLACK
6
CONTINUOUS
10
99.3179
20
-215.348
11
99.7464
21
-215.348
0
LINE
8
BLACK
6
CONTINUOUS
10
99.7464
20
-215.348
11
100.032
21
-215.491
0
LINE
8
BLACK
6
CONTINUOUS
10
100.032
20
-215.491
11
100.175
21
-215.634
0
LINE
8
BLACK
6
CONTINUOUS
10
100.175
20
-215.634
11
100.318
21
-215.92
0
LINE
8
BLACK
6
CONTINUOUS
10
100.318
20
-215.92
11
100.318
21
-216.777
0
LINE
8
BLACK
6
CONTINUOUS
10
100.318
20
-216.777
11
100.175
21
-217.063
0
LINE
8
BLACK
6
CONTINUOUS
10
100.175
20
-217.063
11
100.032
21
-217.206
0
LINE
8
BLACK
6
CONTINUOUS
10
100.032
20
-217.206
11
99.7464
21
-217.348
0
LINE
8
BLACK
6
CONTINUOUS
10
99.7464
20
-217.348
11
99.3179
21
-217.348
0
LINE
8
BLACK
6
CONTINUOUS
10
101.175
20
-215.348
11
102.318
21
-215.348
0
LINE
8
BLACK
6
CONTINUOUS
10
101.604
20
-214.348
11
101.604
21
-216.92
0
LINE
8
BLACK
6
CONTINUOUS
10
101.604
20
-216.92
11
101.746
21
-217.206
0
LINE
8
BLACK
6
CONTINUOUS
10
101.746
20
-217.206
11
102.032
21
-217.348
0
LINE
8
BLACK
6
CONTINUOUS
10
102.032
20
-217.348
11
102.318
21
-217.348
0
LINE
8
BLACK
6
CONTINUOUS
10
105.604
20
-215.348
11
105.604
21
-218.348
0
LINE
8
BLACK
6
CONTINUOUS
10
105.604
20
-215.491
11
105.889
21
-215.348
0
LINE
8
BLACK
6
CONTINUOUS
10
105.889
20
-215.348
11
106.461
21
-215.348
0
LINE
8
BLACK
6
CONTINUOUS
10
106.461
20
-215.348
11
106.746
21
-215.491
0
LINE
8
BLACK
6
CONTINUOUS
10
106.746
20
-215.491
11
106.889
21
-215.634
0
LINE
8
BLACK
6
CONTINUOUS
10
106.889
20
-215.634
11
107.032
21
-215.92
0
LINE
8
BLACK
6
CONTINUOUS
10
107.032
20
-215.92
11
107.032
21
-216.777
0
LINE
8
BLACK
6
CONTINUOUS
10
107.032
20
-216.777
11
106.889
21
-217.063
0
LINE
8
BLACK
6
CONTINUOUS
10
106.889
20
-217.063
11
106.746
21
-217.206
0
LINE
8
BLACK
6
CONTINUOUS
10
106.746
20
-217.206
11
106.461
21
-217.348
0
LINE
8
BLACK
6
CONTINUOUS
10
106.461
20
-217.348
11
105.889
21
-217.348
0
LINE
8
BLACK
6
CONTINUOUS
10
105.889
20
-217.348
11
105.604
21
-217.206
0
LINE
8
BLACK
6
CONTINUOUS
10
108.746
20
-217.348
11
108.461
21
-217.206
0
LINE
8
BLACK
6
CONTINUOUS
10
108.461
20
-217.206
11
108.318
21
-216.92
0
LINE
8
BLACK
6
CONTINUOUS
10
108.318
20
-216.92
11
108.318
21
-214.348
0
LINE
8
BLACK
6
CONTINUOUS
10
111.175
20
-217.348
11
111.175
21
-215.777
0
LINE
8
BLACK
6
CONTINUOUS
10
111.175
20
-215.777
11
111.032
21
-215.491
0
LINE
8
BLACK
6
CONTINUOUS
10
111.032
20
-215.491
11
110.746
21
-215.348
0
LINE
8
BLACK
6
CONTINUOUS
10
110.746
20
-215.348
11
110.175
21
-215.348
0
LINE
8
BLACK
6
CONTINUOUS
10
110.175
20
-215.348
11
109.889
21
-215.491
0
LINE
8
BLACK
6
CONTINUOUS
10
111.175
20
-217.206
11
110.889
21
-217.348
0
LINE
8
BLACK
6
CONTINUOUS
10
110.889
20
-217.348
11
110.175
21
-217.348
0
LINE
8
BLACK
6
CONTINUOUS
10
110.175
20
-217.348
11
109.889
21
-217.206
0
LINE
8
BLACK
6
CONTINUOUS
10
109.889
20
-217.206
11
109.746
21
-216.92
0
LINE
8
BLACK
6
CONTINUOUS
10
109.746
20
-216.92
11
109.746
21
-216.634
0
LINE
8
BLACK
6
CONTINUOUS
10
109.746
20
-216.634
11
109.889
21
-216.348
0
LINE
8
BLACK
6
CONTINUOUS
10
109.889
20
-216.348
11
110.175
21
-216.206
0
LINE
8
BLACK
6
CONTINUOUS
10
110.175
20
-216.206
11
110.889
21
-216.206
0
LINE
8
BLACK
6
CONTINUOUS
10
110.889
20
-216.206
11
111.175
21
-216.063
0
LINE
8
BLACK
6
CONTINUOUS
10
112.175
20
-215.348
11
113.318
21
-215.348
0
LINE
8
BLACK
6
CONTINUOUS
10
112.604
20
-214.348
11
112.604
21
-216.92
0
LINE
8
BLACK
6
CONTINUOUS
10
112.604
20
-216.92
11
112.746
21
-217.206
0
LINE
8
BLACK
6
CONTINUOUS
10
112.746
20
-217.206
11
113.032
21
-217.348
0
LINE
8
BLACK
6
CONTINUOUS
10
113.032
20
-217.348
11
113.318
21
-217.348
0
LINE
8
BLACK
6
CONTINUOUS
10
115.461
20
-217.206
11
115.175
21
-217.348
0
LINE
8
BLACK
6
CONTINUOUS
10
115.175
20
-217.348
11
114.604
21
-217.348
0
LINE
8
BLACK
6
CONTINUOUS
10
114.604
20
-217.348
11
114.318
21
-217.206
0
LINE
8
BLACK
6
CONTINUOUS
10
114.318
20
-217.206
11
114.175
21
-216.92
0
LINE
8
BLACK
6
CONTINUOUS
10
114.175
20
-216.92
11
114.175
21
-215.777
0
LINE
8
BLACK
6
CONTINUOUS
10
114.175
20
-215.777
11
114.318
21
-215.491
0
LINE
8
BLACK
6
CONTINUOUS
10
114.318
20
-215.491
11
114.604
21
-215.348
0
LINE
8
BLACK
6
CONTINUOUS
10
114.604
20
-215.348
11
115.175
21
-215.348
0
LINE
8
BLACK
6
CONTINUOUS
10
115.175
20
-215.348
11
115.461
21
-215.491
0
LINE
8
BLACK
6
CONTINUOUS
10
115.461
20
-215.491
11
115.604
21
-215.777
0
LINE
8
BLACK
6
CONTINUOUS
10
115.604
20
-215.777
11
115.604
21
-216.063
0
LINE
8
BLACK
6
CONTINUOUS
10
115.604
20
-216.063
11
114.175
21
-216.348
0
LINE
8
BLACK
6
CONTINUOUS
10
118.175
20
-217.348
11
118.175
21
-214.348
0
LINE
8
BLACK
6
CONTINUOUS
10
118.175
20
-217.206
11
117.889
21
-217.348
0
LINE
8
BLACK
6
CONTINUOUS
10
117.889
20
-217.348
11
117.318
21
-217.348
0
LINE
8
BLACK
6
CONTINUOUS
10
117.318
20
-217.348
11
117.032
21
-217.206
0
LINE
8
BLACK
6
CONTINUOUS
10
117.032
20
-217.206
11
116.889
21
-217.063
0
LINE
8
BLACK
6
CONTINUOUS
10
116.889
20
-217.063
11
116.746
21
-216.777
0
LINE
8
BLACK
6
CONTINUOUS
10
116.746
20
-216.777
11
116.746
21
-215.92
0
LINE
8
BLACK
6
CONTINUOUS
10
116.746
20
-215.92
11
116.889
21
-215.634
0
LINE
8
BLACK
6
CONTINUOUS
10
116.889
20
-215.634
11
117.032
21
-215.491
0
LINE
8
BLACK
6
CONTINUOUS
10
117.032
20
-215.491
11
117.318
21
-215.348
0
LINE
8
BLACK
6
CONTINUOUS
10
117.318
20
-215.348
11
117.889
21
-215.348
0
LINE
8
BLACK
6
CONTINUOUS
10
117.889
20
-215.348
11
118.175
21
-215.491
0
LINE
8
BLACK
6
CONTINUOUS
10
119.318
20
-218.491
11
119.461
21
-218.348
0
LINE
8
BLACK
6
CONTINUOUS
10
119.461
20
-218.348
11
119.746
21
-217.92
0
LINE
8
BLACK
6
CONTINUOUS
10
119.746
20
-217.92
11
119.889
21
-217.634
0
LINE
8
BLACK
6
CONTINUOUS
10
119.889
20
-217.634
11
120.032
21
-217.206
0
LINE
8
BLACK
6
CONTINUOUS
10
120.032
20
-217.206
11
120.175
21
-216.491
0
LINE
8
BLACK
6
CONTINUOUS
10
120.175
20
-216.491
11
120.175
21
-215.92
0
LINE
8
BLACK
6
CONTINUOUS
10
120.175
20
-215.92
11
120.032
21
-215.206
0
LINE
8
BLACK
6
CONTINUOUS
10
120.032
20
-215.206
11
119.889
21
-214.777
0
LINE
8
BLACK
6
CONTINUOUS
10
119.889
20
-214.777
11
119.746
21
-214.491
0
LINE
8
BLACK
6
CONTINUOUS
10
119.746
20
-214.491
11
119.461
21
-214.063
0
LINE
8
BLACK
6
CONTINUOUS
10
119.461
20
-214.063
11
119.318
21
-213.92
0
LINE
8
BLACK
6
CONTINUOUS
10
17.5
20
-218.766
11
17.5
21
-221.816
0
LINE
8
BLACK
6
CONTINUOUS
10
15.975
20
-220.291
11
19.025
21
-220.291
0
LINE
8
BLACK
6
CONTINUOUS
10
21.6036
20
-218.648
11
23.4607
21
-218.648
0
LINE
8
BLACK
6
CONTINUOUS
10
23.4607
20
-218.648
11
22.4607
21
-219.791
0
LINE
8
BLACK
6
CONTINUOUS
10
22.4607
20
-219.791
11
22.8893
21
-219.791
0
LINE
8
BLACK
6
CONTINUOUS
10
22.8893
20
-219.791
11
23.175
21
-219.934
0
LINE
8
BLACK
6
CONTINUOUS
10
23.175
20
-219.934
11
23.3179
21
-220.077
0
LINE
8
BLACK
6
CONTINUOUS
10
23.3179
20
-220.077
11
23.4607
21
-220.363
0
LINE
8
BLACK
6
CONTINUOUS
10
23.4607
20
-220.363
11
23.4607
21
-221.077
0
LINE
8
BLACK
6
CONTINUOUS
10
23.4607
20
-221.077
11
23.3179
21
-221.363
0
LINE
8
BLACK
6
CONTINUOUS
10
23.3179
20
-221.363
11
23.175
21
-221.506
0
LINE
8
BLACK
6
CONTINUOUS
10
23.175
20
-221.506
11
22.8893
21
-221.648
0
LINE
8
BLACK
6
CONTINUOUS
10
22.8893
20
-221.648
11
22.0321
21
-221.648
0
LINE
8
BLACK
6
CONTINUOUS
10
22.0321
20
-221.648
11
21.7464
21
-221.506
0
LINE
8
BLACK
6
CONTINUOUS
10
21.7464
20
-221.506
11
21.6036
21
-221.363
0
LINE
8
BLACK
6
CONTINUOUS
10
24.7464
20
-221.363
11
24.8893
21
-221.506
0
LINE
8
BLACK
6
CONTINUOUS
10
24.8893
20
-221.506
11
24.7464
21
-221.648
0
LINE
8
BLACK
6
CONTINUOUS
10
24.7464
20
-221.648
11
24.6036
21
-221.506
0
LINE
8
BLACK
6
CONTINUOUS
10
24.6036
20
-221.506
11
24.7464
21
-221.363
0
LINE
8
BLACK
6
CONTINUOUS
10
24.7464
20
-221.363
11
24.7464
21
-221.648
0
LINE
8
BLACK
6
CONTINUOUS
10
26.7464
20
-218.648
11
27.0321
21
-218.648
0
LINE
8
BLACK
6
CONTINUOUS
10
27.0321
20
-218.648
11
27.3179
21
-218.791
0
LINE
8
BLACK
6
CONTINUOUS
10
27.3179
20
-218.791
11
27.4607
21
-218.934
0
LINE
8
BLACK
6
CONTINUOUS
10
27.4607
20
-218.934
11
27.6036
21
-219.22
0
LINE
8
BLACK
6
CONTINUOUS
10
27.6036
20
-219.22
11
27.7464
21
-219.791
0
LINE
8
BLACK
6
CONTINUOUS
10
27.7464
20
-219.791
11
27.7464
21
-220.506
0
LINE
8
BLACK
6
CONTINUOUS
10
27.7464
20
-220.506
11
27.6036
21
-221.077
0
LINE
8
BLACK
6
CONTINUOUS
10
27.6036
20
-221.077
11
27.4607
21
-221.363
0
LINE
8
BLACK
6
CONTINUOUS
10
27.4607
20
-221.363
11
27.3179
21
-221.506
0
LINE
8
BLACK
6
CONTINUOUS
10
27.3179
20
-221.506
11
27.0321
21
-221.648
0
LINE
8
BLACK
6
CONTINUOUS
10
27.0321
20
-221.648
11
26.7464
21
-221.648
0
LINE
8
BLACK
6
CONTINUOUS
10
26.7464
20
-221.648
11
26.4607
21
-221.506
0
LINE
8
BLACK
6
CONTINUOUS
10
26.4607
20
-221.506
11
26.3179
21
-221.363
0
LINE
8
BLACK
6
CONTINUOUS
10
26.3179
20
-221.363
11
26.175
21
-221.077
0
LINE
8
BLACK
6
CONTINUOUS
10
26.175
20
-221.077
11
26.0321
21
-220.506
0
LINE
8
BLACK
6
CONTINUOUS
10
26.0321
20
-220.506
11
26.0321
21
-219.791
0
LINE
8
BLACK
6
CONTINUOUS
10
26.0321
20
-219.791
11
26.175
21
-219.22
0
LINE
8
BLACK
6
CONTINUOUS
10
26.175
20
-219.22
11
26.3179
21
-218.934
0
LINE
8
BLACK
6
CONTINUOUS
10
26.3179
20
-218.934
11
26.4607
21
-218.791
0
LINE
8
BLACK
6
CONTINUOUS
10
26.4607
20
-218.791
11
26.7464
21
-218.648
0
LINE
8
BLACK
6
CONTINUOUS
10
30.4607
20
-218.648
11
29.0321
21
-218.648
0
LINE
8
BLACK
6
CONTINUOUS
10
29.0321
20
-218.648
11
28.8893
21
-220.077
0
LINE
8
BLACK
6
CONTINUOUS
10
28.8893
20
-220.077
11
29.0321
21
-219.934
0
LINE
8
BLACK
6
CONTINUOUS
10
29.0321
20
-219.934
11
29.3179
21
-219.791
0
LINE
8
BLACK
6
CONTINUOUS
10
29.3179
20
-219.791
11
30.0321
21
-219.791
0
LINE
8
BLACK
6
CONTINUOUS
10
30.0321
20
-219.791
11
30.3179
21
-219.934
0
LINE
8
BLACK
6
CONTINUOUS
10
30.3179
20
-219.934
11
30.4607
21
-220.077
0
LINE
8
BLACK
6
CONTINUOUS
10
30.4607
20
-220.077
11
30.6036
21
-220.363
0
LINE
8
BLACK
6
CONTINUOUS
10
30.6036
20
-220.363
11
30.6036
21
-221.077
0
LINE
8
BLACK
6
CONTINUOUS
10
30.6036
20
-221.077
11
30.4607
21
-221.363
0
LINE
8
BLACK
6
CONTINUOUS
10
30.4607
20
-221.363
11
30.3179
21
-221.506
0
LINE
8
BLACK
6
CONTINUOUS
10
30.3179
20
-221.506
11
30.0321
21
-221.648
0
LINE
8
BLACK
6
CONTINUOUS
10
30.0321
20
-221.648
11
29.3179
21
-221.648
0
LINE
8
BLACK
6
CONTINUOUS
10
29.3179
20
-221.648
11
29.0321
21
-221.506
0
LINE
8
BLACK
6
CONTINUOUS
10
29.0321
20
-221.506
11
28.8893
21
-221.363
0
LINE
8
BLACK
6
CONTINUOUS
10
31.8893
20
-221.648
11
31.8893
21
-219.648
0
LINE
8
BLACK
6
CONTINUOUS
10
31.8893
20
-219.934
11
32.0321
21
-219.791
0
LINE
8
BLACK
6
CONTINUOUS
10
32.0321
20
-219.791
11
32.3179
21
-219.648
0
LINE
8
BLACK
6
CONTINUOUS
10
32.3179
20
-219.648
11
32.7464
21
-219.648
0
LINE
8
BLACK
6
CONTINUOUS
10
32.7464
20
-219.648
11
33.0321
21
-219.791
0
LINE
8
BLACK
6
CONTINUOUS
10
33.0321
20
-219.791
11
33.175
21
-220.077
0
LINE
8
BLACK
6
CONTINUOUS
10
33.175
20
-220.077
11
33.175
21
-221.648
0
LINE
8
BLACK
6
CONTINUOUS
10
33.175
20
-220.077
11
33.3179
21
-219.791
0
LINE
8
BLACK
6
CONTINUOUS
10
33.3179
20
-219.791
11
33.6036
21
-219.648
0
LINE
8
BLACK
6
CONTINUOUS
10
33.6036
20
-219.648
11
34.0321
21
-219.648
0
LINE
8
BLACK
6
CONTINUOUS
10
34.0321
20
-219.648
11
34.3179
21
-219.791
0
LINE
8
BLACK
6
CONTINUOUS
10
34.3179
20
-219.791
11
34.4607
21
-220.077
0
LINE
8
BLACK
6
CONTINUOUS
10
34.4607
20
-220.077
11
34.4607
21
-221.648
0
LINE
8
BLACK
6
CONTINUOUS
10
35.8893
20
-221.648
11
35.8893
21
-219.648
0
LINE
8
BLACK
6
CONTINUOUS
10
35.8893
20
-219.934
11
36.0321
21
-219.791
0
LINE
8
BLACK
6
CONTINUOUS
10
36.0321
20
-219.791
11
36.3179
21
-219.648
0
LINE
8
BLACK
6
CONTINUOUS
10
36.3179
20
-219.648
11
36.7464
21
-219.648
0
LINE
8
BLACK
6
CONTINUOUS
10
36.7464
20
-219.648
11
37.0321
21
-219.791
0
LINE
8
BLACK
6
CONTINUOUS
10
37.0321
20
-219.791
11
37.175
21
-220.077
0
LINE
8
BLACK
6
CONTINUOUS
10
37.175
20
-220.077
11
37.175
21
-221.648
0
LINE
8
BLACK
6
CONTINUOUS
10
37.175
20
-220.077
11
37.3179
21
-219.791
0
LINE
8
BLACK
6
CONTINUOUS
10
37.3179
20
-219.791
11
37.6036
21
-219.648
0
LINE
8
BLACK
6
CONTINUOUS
10
37.6036
20
-219.648
11
38.0321
21
-219.648
0
LINE
8
BLACK
6
CONTINUOUS
10
38.0321
20
-219.648
11
38.3179
21
-219.791
0
LINE
8
BLACK
6
CONTINUOUS
10
38.3179
20
-219.791
11
38.4607
21
-220.077
0
LINE
8
BLACK
6
CONTINUOUS
10
38.4607
20
-220.077
11
38.4607
21
-221.648
0
LINE
8
BLACK
6
CONTINUOUS
10
44.3179
20
-218.506
11
41.7464
21
-222.363
0
LINE
8
BLACK
6
CONTINUOUS
10
48.175
20
-218.648
11
48.4607
21
-218.648
0
LINE
8
BLACK
6
CONTINUOUS
10
48.4607
20
-218.648
11
48.7464
21
-218.791
0
LINE
8
BLACK
6
CONTINUOUS
10
48.7464
20
-218.791
11
48.8893
21
-218.934
0
LINE
8
BLACK
6
CONTINUOUS
10
48.8893
20
-218.934
11
49.0321
21
-219.22
0
LINE
8
BLACK
6
CONTINUOUS
10
49.0321
20
-219.22
11
49.175
21
-219.791
0
LINE
8
BLACK
6
CONTINUOUS
10
49.175
20
-219.791
11
49.175
21
-220.506
0
LINE
8
BLACK
6
CONTINUOUS
10
49.175
20
-220.506
11
49.0321
21
-221.077
0
LINE
8
BLACK
6
CONTINUOUS
10
49.0321
20
-221.077
11
48.8893
21
-221.363
0
LINE
8
BLACK
6
CONTINUOUS
10
48.8893
20
-221.363
11
48.7464
21
-221.506
0
LINE
8
BLACK
6
CONTINUOUS
10
48.7464
20
-221.506
11
48.4607
21
-221.648
0
LINE
8
BLACK
6
CONTINUOUS
10
48.4607
20
-221.648
11
48.175
21
-221.648
0
LINE
8
BLACK
6
CONTINUOUS
10
48.175
20
-221.648
11
47.8893
21
-221.506
0
LINE
8
BLACK
6
CONTINUOUS
10
47.8893
20
-221.506
11
47.7464
21
-221.363
0
LINE
8
BLACK
6
CONTINUOUS
10
47.7464
20
-221.363
11
47.6036
21
-221.077
0
LINE
8
BLACK
6
CONTINUOUS
10
47.6036
20
-221.077
11
47.4607
21
-220.506
0
LINE
8
BLACK
6
CONTINUOUS
10
47.4607
20
-220.506
11
47.4607
21
-219.791
0
LINE
8
BLACK
6
CONTINUOUS
10
47.4607
20
-219.791
11
47.6036
21
-219.22
0
LINE
8
BLACK
6
CONTINUOUS
10
47.6036
20
-219.22
11
47.7464
21
-218.934
0
LINE
8
BLACK
6
CONTINUOUS
10
47.7464
20
-218.934
11
47.8893
21
-218.791
0
LINE
8
BLACK
6
CONTINUOUS
10
47.8893
20
-218.791
11
48.175
21
-218.648
0
LINE
8
BLACK
6
CONTINUOUS
10
50.4607
20
-221.363
11
50.6036
21
-221.506
0
LINE
8
BLACK
6
CONTINUOUS
10
50.6036
20
-221.506
11
50.4607
21
-221.648
0
LINE
8
BLACK
6
CONTINUOUS
10
50.4607
20
-221.648
11
50.3179
21
-221.506
0
LINE
8
BLACK
6
CONTINUOUS
10
50.3179
20
-221.506
11
50.4607
21
-221.363
0
LINE
8
BLACK
6
CONTINUOUS
10
50.4607
20
-221.363
11
50.4607
21
-221.648
0
LINE
8
BLACK
6
CONTINUOUS
10
53.4607
20
-221.648
11
51.7464
21
-221.648
0
LINE
8
BLACK
6
CONTINUOUS
10
52.6036
20
-221.648
11
52.6036
21
-218.648
0
LINE
8
BLACK
6
CONTINUOUS
10
52.6036
20
-218.648
11
52.3179
21
-219.077
0
LINE
8
BLACK
6
CONTINUOUS
10
52.3179
20
-219.077
11
52.0321
21
-219.363
0
LINE
8
BLACK
6
CONTINUOUS
10
52.0321
20
-219.363
11
51.7464
21
-219.506
0
LINE
8
BLACK
6
CONTINUOUS
10
54.6036
20
-218.934
11
54.7464
21
-218.791
0
LINE
8
BLACK
6
CONTINUOUS
10
54.7464
20
-218.791
11
55.0321
21
-218.648
0
LINE
8
BLACK
6
CONTINUOUS
10
55.0321
20
-218.648
11
55.7464
21
-218.648
0
LINE
8
BLACK
6
CONTINUOUS
10
55.7464
20
-218.648
11
56.0321
21
-218.791
0
LINE
8
BLACK
6
CONTINUOUS
10
56.0321
20
-218.791
11
56.175
21
-218.934
0
LINE
8
BLACK
6
CONTINUOUS
10
56.175
20
-218.934
11
56.3179
21
-219.22
0
LINE
8
BLACK
6
CONTINUOUS
10
56.3179
20
-219.22
11
56.3179
21
-219.506
0
LINE
8
BLACK
6
CONTINUOUS
10
56.3179
20
-219.506
11
56.175
21
-219.934
0
LINE
8
BLACK
6
CONTINUOUS
10
56.175
20
-219.934
11
54.4607
21
-221.648
0
LINE
8
BLACK
6
CONTINUOUS
10
54.4607
20
-221.648
11
56.3179
21
-221.648
0
LINE
8
BLACK
6
CONTINUOUS
10
58.175
20
-218.648
11
58.4607
21
-218.648
0
LINE
8
BLACK
6
CONTINUOUS
10
58.4607
20
-218.648
11
58.7464
21
-218.791
0
LINE
8
BLACK
6
CONTINUOUS
10
58.7464
20
-218.791
11
58.8893
21
-218.934
0
LINE
8
BLACK
6
CONTINUOUS
10
58.8893
20
-218.934
11
59.0321
21
-219.22
0
LINE
8
BLACK
6
CONTINUOUS
10
59.0321
20
-219.22
11
59.175
21
-219.791
0
LINE
8
BLACK
6
CONTINUOUS
10
59.175
20
-219.791
11
59.175
21
-220.506
0
LINE
8
BLACK
6
CONTINUOUS
10
59.175
20
-220.506
11
59.0321
21
-221.077
0
LINE
8
BLACK
6
CONTINUOUS
10
59.0321
20
-221.077
11
58.8893
21
-221.363
0
LINE
8
BLACK
6
CONTINUOUS
10
58.8893
20
-221.363
11
58.7464
21
-221.506
0
LINE
8
BLACK
6
CONTINUOUS
10
58.7464
20
-221.506
11
58.4607
21
-221.648
0
LINE
8
BLACK
6
CONTINUOUS
10
58.4607
20
-221.648
11
58.175
21
-221.648
0
LINE
8
BLACK
6
CONTINUOUS
10
58.175
20
-221.648
11
57.8893
21
-221.506
0
LINE
8
BLACK
6
CONTINUOUS
10
57.8893
20
-221.506
11
57.7464
21
-221.363
0
LINE
8
BLACK
6
CONTINUOUS
10
57.7464
20
-221.363
11
57.6036
21
-221.077
0
LINE
8
BLACK
6
CONTINUOUS
10
57.6036
20
-221.077
11
57.4607
21
-220.506
0
LINE
8
BLACK
6
CONTINUOUS
10
57.4607
20
-220.506
11
57.4607
21
-219.791
0
LINE
8
BLACK
6
CONTINUOUS
10
57.4607
20
-219.791
11
57.6036
21
-219.22
0
LINE
8
BLACK
6
CONTINUOUS
10
57.6036
20
-219.22
11
57.7464
21
-218.934
0
LINE
8
BLACK
6
CONTINUOUS
10
57.7464
20
-218.934
11
57.8893
21
-218.791
0
LINE
8
BLACK
6
CONTINUOUS
10
57.8893
20
-218.791
11
58.175
21
-218.648
0
LINE
8
BLACK
6
CONTINUOUS
10
60.3179
20
-218.648
11
60.3179
21
-219.22
0
LINE
8
BLACK
6
CONTINUOUS
10
61.4607
20
-218.648
11
61.4607
21
-219.22
0
LINE
8
BLACK
6
CONTINUOUS
10
65.8893
20
-222.791
11
65.7464
21
-222.648
0
LINE
8
BLACK
6
CONTINUOUS
10
65.7464
20
-222.648
11
65.4607
21
-222.22
0
LINE
8
BLACK
6
CONTINUOUS
10
65.4607
20
-222.22
11
65.3179
21
-221.934
0
LINE
8
BLACK
6
CONTINUOUS
10
65.3179
20
-221.934
11
65.175
21
-221.506
0
LINE
8
BLACK
6
CONTINUOUS
10
65.175
20
-221.506
11
65.0321
21
-220.791
0
LINE
8
BLACK
6
CONTINUOUS
10
65.0321
20
-220.791
11
65.0321
21
-220.22
0
LINE
8
BLACK
6
CONTINUOUS
10
65.0321
20
-220.22
11
65.175
21
-219.506
0
LINE
8
BLACK
6
CONTINUOUS
10
65.175
20
-219.506
11
65.3179
21
-219.077
0
LINE
8
BLACK
6
CONTINUOUS
10
65.3179
20
-219.077
11
65.4607
21
-218.791
0
LINE
8
BLACK
6
CONTINUOUS
10
65.4607
20
-218.791
11
65.7464
21
-218.363
0
LINE
8
BLACK
6
CONTINUOUS
10
65.7464
20
-218.363
11
65.8893
21
-218.22
0
LINE
8
BLACK
6
CONTINUOUS
10
68.6036
20
-221.648
11
66.8893
21
-221.648
0
LINE
8
BLACK
6
CONTINUOUS
10
67.7464
20
-221.648
11
67.7464
21
-218.648
0
LINE
8
BLACK
6
CONTINUOUS
10
67.7464
20
-218.648
11
67.4607
21
-219.077
0
LINE
8
BLACK
6
CONTINUOUS
10
67.4607
20
-219.077
11
67.175
21
-219.363
0
LINE
8
BLACK
6
CONTINUOUS
10
67.175
20
-219.363
11
66.8893
21
-219.506
0
LINE
8
BLACK
6
CONTINUOUS
10
71.175
20
-219.648
11
71.175
21
-221.648
0
LINE
8
BLACK
6
CONTINUOUS
10
70.4607
20
-218.506
11
69.7464
21
-220.648
0
LINE
8
BLACK
6
CONTINUOUS
10
69.7464
20
-220.648
11
71.6036
21
-220.648
0
LINE
8
BLACK
6
CONTINUOUS
10
75.0321
20
-221.648
11
75.0321
21
-218.648
0
LINE
8
BLACK
6
CONTINUOUS
10
76.3179
20
-221.648
11
76.3179
21
-220.077
0
LINE
8
BLACK
6
CONTINUOUS
10
76.3179
20
-220.077
11
76.175
21
-219.791
0
LINE
8
BLACK
6
CONTINUOUS
10
76.175
20
-219.791
11
75.8893
21
-219.648
0
LINE
8
BLACK
6
CONTINUOUS
10
75.8893
20
-219.648
11
75.4607
21
-219.648
0
LINE
8
BLACK
6
CONTINUOUS
10
75.4607
20
-219.648
11
75.175
21
-219.791
0
LINE
8
BLACK
6
CONTINUOUS
10
75.175
20
-219.791
11
75.0321
21
-219.934
0
LINE
8
BLACK
6
CONTINUOUS
10
78.175
20
-221.648
11
77.8893
21
-221.506
0
LINE
8
BLACK
6
CONTINUOUS
10
77.8893
20
-221.506
11
77.7464
21
-221.363
0
LINE
8
BLACK
6
CONTINUOUS
10
77.7464
20
-221.363
11
77.6036
21
-221.077
0
LINE
8
BLACK
6
CONTINUOUS
10
77.6036
20
-221.077
11
77.6036
21
-220.22
0
LINE
8
BLACK
6
CONTINUOUS
10
77.6036
20
-220.22
11
77.7464
21
-219.934
0
LINE
8
BLACK
6
CONTINUOUS
10
77.7464
20
-219.934
11
77.8893
21
-219.791
0
LINE
8
BLACK
6
CONTINUOUS
10
77.8893
20
-219.791
11
78.175
21
-219.648
0
LINE
8
BLACK
6
CONTINUOUS
10
78.175
20
-219.648
11
78.6036
21
-219.648
0
LINE
8
BLACK
6
CONTINUOUS
10
78.6036
20
-219.648
11
78.8893
21
-219.791
0
LINE
8
BLACK
6
CONTINUOUS
10
78.8893
20
-219.791
11
79.0321
21
-219.934
0
LINE
8
BLACK
6
CONTINUOUS
10
79.0321
20
-219.934
11
79.175
21
-220.22
0
LINE
8
BLACK
6
CONTINUOUS
10
79.175
20
-220.22
11
79.175
21
-221.077
0
LINE
8
BLACK
6
CONTINUOUS
10
79.175
20
-221.077
11
79.0321
21
-221.363
0
LINE
8
BLACK
6
CONTINUOUS
10
79.0321
20
-221.363
11
78.8893
21
-221.506
0
LINE
8
BLACK
6
CONTINUOUS
10
78.8893
20
-221.506
11
78.6036
21
-221.648
0
LINE
8
BLACK
6
CONTINUOUS
10
78.6036
20
-221.648
11
78.175
21
-221.648
0
LINE
8
BLACK
6
CONTINUOUS
10
80.8893
20
-221.648
11
80.6036
21
-221.506
0
LINE
8
BLACK
6
CONTINUOUS
10
80.6036
20
-221.506
11
80.4607
21
-221.22
0
LINE
8
BLACK
6
CONTINUOUS
10
80.4607
20
-221.22
11
80.4607
21
-218.648
0
LINE
8
BLACK
6
CONTINUOUS
10
83.175
20
-221.506
11
82.8893
21
-221.648
0
LINE
8
BLACK
6
CONTINUOUS
10
82.8893
20
-221.648
11
82.3179
21
-221.648
0
LINE
8
BLACK
6
CONTINUOUS
10
82.3179
20
-221.648
11
82.0321
21
-221.506
0
LINE
8
BLACK
6
CONTINUOUS
10
82.0321
20
-221.506
11
81.8893
21
-221.22
0
LINE
8
BLACK
6
CONTINUOUS
10
81.8893
20
-221.22
11
81.8893
21
-220.077
0
LINE
8
BLACK
6
CONTINUOUS
10
81.8893
20
-220.077
11
82.0321
21
-219.791
0
LINE
8
BLACK
6
CONTINUOUS
10
82.0321
20
-219.791
11
82.3179
21
-219.648
0
LINE
8
BLACK
6
CONTINUOUS
10
82.3179
20
-219.648
11
82.8893
21
-219.648
0
LINE
8
BLACK
6
CONTINUOUS
10
82.8893
20
-219.648
11
83.175
21
-219.791
0
LINE
8
BLACK
6
CONTINUOUS
10
83.175
20
-219.791
11
83.3179
21
-220.077
0
LINE
8
BLACK
6
CONTINUOUS
10
83.3179
20
-220.077
11
83.3179
21
-220.363
0
LINE
8
BLACK
6
CONTINUOUS
10
83.3179
20
-220.363
11
81.8893
21
-220.648
0
LINE
8
BLACK
6
CONTINUOUS
10
84.4607
20
-221.506
11
84.7464
21
-221.648
0
LINE
8
BLACK
6
CONTINUOUS
10
84.7464
20
-221.648
11
85.3179
21
-221.648
0
LINE
8
BLACK
6
CONTINUOUS
10
85.3179
20
-221.648
11
85.6036
21
-221.506
0
LINE
8
BLACK
6
CONTINUOUS
10
85.6036
20
-221.506
11
85.7464
21
-221.22
0
LINE
8
BLACK
6
CONTINUOUS
10
85.7464
20
-221.22
11
85.7464
21
-221.077
0
LINE
8
BLACK
6
CONTINUOUS
10
85.7464
20
-221.077
11
85.6036
21
-220.791
0
LINE
8
BLACK
6
CONTINUOUS
10
85.6036
20
-220.791
11
85.3179
21
-220.648
0
LINE
8
BLACK
6
CONTINUOUS
10
85.3179
20
-220.648
11
84.8893
21
-220.648
0
LINE
8
BLACK
6
CONTINUOUS
10
84.8893
20
-220.648
11
84.6036
21
-220.506
0
LINE
8
BLACK
6
CONTINUOUS
10
84.6036
20
-220.506
11
84.4607
21
-220.22
0
LINE
8
BLACK
6
CONTINUOUS
10
84.4607
20
-220.22
11
84.4607
21
-220.077
0
LINE
8
BLACK
6
CONTINUOUS
10
84.4607
20
-220.077
11
84.6036
21
-219.791
0
LINE
8
BLACK
6
CONTINUOUS
10
84.6036
20
-219.791
11
84.8893
21
-219.648
0
LINE
8
BLACK
6
CONTINUOUS
10
84.8893
20
-219.648
11
85.3179
21
-219.648
0
LINE
8
BLACK
6
CONTINUOUS
10
85.3179
20
-219.648
11
85.6036
21
-219.791
0
LINE
8
BLACK
6
CONTINUOUS
10
86.7464
20
-222.791
11
86.8893
21
-222.648
0
LINE
8
BLACK
6
CONTINUOUS
10
86.8893
20
-222.648
11
87.175
21
-222.22
0
LINE
8
BLACK
6
CONTINUOUS
10
87.175
20
-222.22
11
87.3179
21
-221.934
0
LINE
8
BLACK
6
CONTINUOUS
10
87.3179
20
-221.934
11
87.4607
21
-221.506
0
LINE
8
BLACK
6
CONTINUOUS
10
87.4607
20
-221.506
11
87.6036
21
-220.791
0
LINE
8
BLACK
6
CONTINUOUS
10
87.6036
20
-220.791
11
87.6036
21
-220.22
0
LINE
8
BLACK
6
CONTINUOUS
10
87.6036
20
-220.22
11
87.4607
21
-219.506
0
LINE
8
BLACK
6
CONTINUOUS
10
87.4607
20
-219.506
11
87.3179
21
-219.077
0
LINE
8
BLACK
6
CONTINUOUS
10
87.3179
20
-219.077
11
87.175
21
-218.791
0
LINE
8
BLACK
6
CONTINUOUS
10
87.175
20
-218.791
11
86.8893
21
-218.363
0
LINE
8
BLACK
6
CONTINUOUS
10
86.8893
20
-218.363
11
86.7464
21
-218.22
0
LINE
8
BLACK
6
CONTINUOUS
10
92.175
20
-222.791
11
92.0321
21
-222.648
0
LINE
8
BLACK
6
CONTINUOUS
10
92.0321
20
-222.648
11
91.7464
21
-222.22
0
LINE
8
BLACK
6
CONTINUOUS
10
91.7464
20
-222.22
11
91.6036
21
-221.934
0
LINE
8
BLACK
6
CONTINUOUS
10
91.6036
20
-221.934
11
91.4607
21
-221.506
0
LINE
8
BLACK
6
CONTINUOUS
10
91.4607
20
-221.506
11
91.3179
21
-220.791
0
LINE
8
BLACK
6
CONTINUOUS
10
91.3179
20
-220.791
11
91.3179
21
-220.22
0
LINE
8
BLACK
6
CONTINUOUS
10
91.3179
20
-220.22
11
91.4607
21
-219.506
0
LINE
8
BLACK
6
CONTINUOUS
10
91.4607
20
-219.506
11
91.6036
21
-219.077
0
LINE
8
BLACK
6
CONTINUOUS
10
91.6036
20
-219.077
11
91.7464
21
-218.791
0
LINE
8
BLACK
6
CONTINUOUS
10
91.7464
20
-218.791
11
92.0321
21
-218.363
0
LINE
8
BLACK
6
CONTINUOUS
10
92.0321
20
-218.363
11
92.175
21
-218.22
0
LINE
8
BLACK
6
CONTINUOUS
10
93.3179
20
-219.648
11
93.3179
21
-221.648
0
LINE
8
BLACK
6
CONTINUOUS
10
93.3179
20
-219.934
11
93.4607
21
-219.791
0
LINE
8
BLACK
6
CONTINUOUS
10
93.4607
20
-219.791
11
93.7464
21
-219.648
0
LINE
8
BLACK
6
CONTINUOUS
10
93.7464
20
-219.648
11
94.175
21
-219.648
0
LINE
8
BLACK
6
CONTINUOUS
10
94.175
20
-219.648
11
94.4607
21
-219.791
0
LINE
8
BLACK
6
CONTINUOUS
10
94.4607
20
-219.791
11
94.6036
21
-220.077
0
LINE
8
BLACK
6
CONTINUOUS
10
94.6036
20
-220.077
11
94.6036
21
-221.648
0
LINE
8
BLACK
6
CONTINUOUS
10
96.4607
20
-221.648
11
96.175
21
-221.506
0
LINE
8
BLACK
6
CONTINUOUS
10
96.175
20
-221.506
11
96.0321
21
-221.363
0
LINE
8
BLACK
6
CONTINUOUS
10
96.0321
20
-221.363
11
95.8893
21
-221.077
0
LINE
8
BLACK
6
CONTINUOUS
10
95.8893
20
-221.077
11
95.8893
21
-220.22
0
LINE
8
BLACK
6
CONTINUOUS
10
95.8893
20
-220.22
11
96.0321
21
-219.934
0
LINE
8
BLACK
6
CONTINUOUS
10
96.0321
20
-219.934
11
96.175
21
-219.791
0
LINE
8
BLACK
6
CONTINUOUS
10
96.175
20
-219.791
11
96.4607
21
-219.648
0
LINE
8
BLACK
6
CONTINUOUS
10
96.4607
20
-219.648
11
96.8893
21
-219.648
0
LINE
8
BLACK
6
CONTINUOUS
10
96.8893
20
-219.648
11
97.175
21
-219.791
0
LINE
8
BLACK
6
CONTINUOUS
10
97.175
20
-219.791
11
97.3179
21
-219.934
0
LINE
8
BLACK
6
CONTINUOUS
10
97.3179
20
-219.934
11
97.4607
21
-220.22
0
LINE
8
BLACK
6
CONTINUOUS
10
97.4607
20
-220.22
11
97.4607
21
-221.077
0
LINE
8
BLACK
6
CONTINUOUS
10
97.4607
20
-221.077
11
97.3179
21
-221.363
0
LINE
8
BLACK
6
CONTINUOUS
10
97.3179
20
-221.363
11
97.175
21
-221.506
0
LINE
8
BLACK
6
CONTINUOUS
10
97.175
20
-221.506
11
96.8893
21
-221.648
0
LINE
8
BLACK
6
CONTINUOUS
10
96.8893
20
-221.648
11
96.4607
21
-221.648
0
LINE
8
BLACK
6
CONTINUOUS
10
98.3179
20
-219.648
11
99.4607
21
-219.648
0
LINE
8
BLACK
6
CONTINUOUS
10
98.7464
20
-218.648
11
98.7464
21
-221.22
0
LINE
8
BLACK
6
CONTINUOUS
10
98.7464
20
-221.22
11
98.8893
21
-221.506
0
LINE
8
BLACK
6
CONTINUOUS
10
98.8893
20
-221.506
11
99.175
21
-221.648
0
LINE
8
BLACK
6
CONTINUOUS
10
99.175
20
-221.648
11
99.4607
21
-221.648
0
LINE
8
BLACK
6
CONTINUOUS
10
102.746
20
-219.648
11
102.746
21
-222.648
0
LINE
8
BLACK
6
CONTINUOUS
10
102.746
20
-219.791
11
103.032
21
-219.648
0
LINE
8
BLACK
6
CONTINUOUS
10
103.032
20
-219.648
11
103.604
21
-219.648
0
LINE
8
BLACK
6
CONTINUOUS
10
103.604
20
-219.648
11
103.889
21
-219.791
0
LINE
8
BLACK
6
CONTINUOUS
10
103.889
20
-219.791
11
104.032
21
-219.934
0
LINE
8
BLACK
6
CONTINUOUS
10
104.032
20
-219.934
11
104.175
21
-220.22
0
LINE
8
BLACK
6
CONTINUOUS
10
104.175
20
-220.22
11
104.175
21
-221.077
0
LINE
8
BLACK
6
CONTINUOUS
10
104.175
20
-221.077
11
104.032
21
-221.363
0
LINE
8
BLACK
6
CONTINUOUS
10
104.032
20
-221.363
11
103.889
21
-221.506
0
LINE
8
BLACK
6
CONTINUOUS
10
103.889
20
-221.506
11
103.604
21
-221.648
0
LINE
8
BLACK
6
CONTINUOUS
10
103.604
20
-221.648
11
103.032
21
-221.648
0
LINE
8
BLACK
6
CONTINUOUS
10
103.032
20
-221.648
11
102.746
21
-221.506
0
LINE
8
BLACK
6
CONTINUOUS
10
105.889
20
-221.648
11
105.604
21
-221.506
0
LINE
8
BLACK
6
CONTINUOUS
10
105.604
20
-221.506
11
105.461
21
-221.22
0
LINE
8
BLACK
6
CONTINUOUS
10
105.461
20
-221.22
11
105.461
21
-218.648
0
LINE
8
BLACK
6
CONTINUOUS
10
108.318
20
-221.648
11
108.318
21
-220.077
0
LINE
8
BLACK
6
CONTINUOUS
10
108.318
20
-220.077
11
108.175
21
-219.791
0
LINE
8
BLACK
6
CONTINUOUS
10
108.175
20
-219.791
11
107.889
21
-219.648
0
LINE
8
BLACK
6
CONTINUOUS
10
107.889
20
-219.648
11
107.318
21
-219.648
0
LINE
8
BLACK
6
CONTINUOUS
10
107.318
20
-219.648
11
107.032
21
-219.791
0
LINE
8
BLACK
6
CONTINUOUS
10
108.318
20
-221.506
11
108.032
21
-221.648
0
LINE
8
BLACK
6
CONTINUOUS
10
108.032
20
-221.648
11
107.318
21
-221.648
0
LINE
8
BLACK
6
CONTINUOUS
10
107.318
20
-221.648
11
107.032
21
-221.506
0
LINE
8
BLACK
6
CONTINUOUS
10
107.032
20
-221.506
11
106.889
21
-221.22
0
LINE
8
BLACK
6
CONTINUOUS
10
106.889
20
-221.22
11
106.889
21
-220.934
0
LINE
8
BLACK
6
CONTINUOUS
10
106.889
20
-220.934
11
107.032
21
-220.648
0
LINE
8
BLACK
6
CONTINUOUS
10
107.032
20
-220.648
11
107.318
21
-220.506
0
LINE
8
BLACK
6
CONTINUOUS
10
107.318
20
-220.506
11
108.032
21
-220.506
0
LINE
8
BLACK
6
CONTINUOUS
10
108.032
20
-220.506
11
108.318
21
-220.363
0
LINE
8
BLACK
6
CONTINUOUS
10
109.318
20
-219.648
11
110.461
21
-219.648
0
LINE
8
BLACK
6
CONTINUOUS
10
109.746
20
-218.648
11
109.746
21
-221.22
0
LINE
8
BLACK
6
CONTINUOUS
10
109.746
20
-221.22
11
109.889
21
-221.506
0
LINE
8
BLACK
6
CONTINUOUS
10
109.889
20
-221.506
11
110.175
21
-221.648
0
LINE
8
BLACK
6
CONTINUOUS
10
110.175
20
-221.648
11
110.461
21
-221.648
0
LINE
8
BLACK
6
CONTINUOUS
10
112.604
20
-221.506
11
112.318
21
-221.648
0
LINE
8
BLACK
6
CONTINUOUS
10
112.318
20
-221.648
11
111.746
21
-221.648
0
LINE
8
BLACK
6
CONTINUOUS
10
111.746
20
-221.648
11
111.461
21
-221.506
0
LINE
8
BLACK
6
CONTINUOUS
10
111.461
20
-221.506
11
111.318
21
-221.22
0
LINE
8
BLACK
6
CONTINUOUS
10
111.318
20
-221.22
11
111.318
21
-220.077
0
LINE
8
BLACK
6
CONTINUOUS
10
111.318
20
-220.077
11
111.461
21
-219.791
0
LINE
8
BLACK
6
CONTINUOUS
10
111.461
20
-219.791
11
111.746
21
-219.648
0
LINE
8
BLACK
6
CONTINUOUS
10
111.746
20
-219.648
11
112.318
21
-219.648
0
LINE
8
BLACK
6
CONTINUOUS
10
112.318
20
-219.648
11
112.604
21
-219.791
0
LINE
8
BLACK
6
CONTINUOUS
10
112.604
20
-219.791
11
112.746
21
-220.077
0
LINE
8
BLACK
6
CONTINUOUS
10
112.746
20
-220.077
11
112.746
21
-220.363
0
LINE
8
BLACK
6
CONTINUOUS
10
112.746
20
-220.363
11
111.318
21
-220.648
0
LINE
8
BLACK
6
CONTINUOUS
10
115.318
20
-221.648
11
115.318
21
-218.648
0
LINE
8
BLACK
6
CONTINUOUS
10
115.318
20
-221.506
11
115.032
21
-221.648
0
LINE
8
BLACK
6
CONTINUOUS
10
115.032
20
-221.648
11
114.461
21
-221.648
0
LINE
8
BLACK
6
CONTINUOUS
10
114.461
20
-221.648
11
114.175
21
-221.506
0
LINE
8
BLACK
6
CONTINUOUS
10
114.175
20
-221.506
11
114.032
21
-221.363
0
LINE
8
BLACK
6
CONTINUOUS
10
114.032
20
-221.363
11
113.889
21
-221.077
0
LINE
8
BLACK
6
CONTINUOUS
10
113.889
20
-221.077
11
113.889
21
-220.22
0
LINE
8
BLACK
6
CONTINUOUS
10
113.889
20
-220.22
11
114.032
21
-219.934
0
LINE
8
BLACK
6
CONTINUOUS
10
114.032
20
-219.934
11
114.175
21
-219.791
0
LINE
8
BLACK
6
CONTINUOUS
10
114.175
20
-219.791
11
114.461
21
-219.648
0
LINE
8
BLACK
6
CONTINUOUS
10
114.461
20
-219.648
11
115.032
21
-219.648
0
LINE
8
BLACK
6
CONTINUOUS
10
115.032
20
-219.648
11
115.318
21
-219.791
0
LINE
8
BLACK
6
CONTINUOUS
10
116.461
20
-222.791
11
116.604
21
-222.648
0
LINE
8
BLACK
6
CONTINUOUS
10
116.604
20
-222.648
11
116.889
21
-222.22
0
LINE
8
BLACK
6
CONTINUOUS
10
116.889
20
-222.22
11
117.032
21
-221.934
0
LINE
8
BLACK
6
CONTINUOUS
10
117.032
20
-221.934
11
117.175
21
-221.506
0
LINE
8
BLACK
6
CONTINUOUS
10
117.175
20
-221.506
11
117.318
21
-220.791
0
LINE
8
BLACK
6
CONTINUOUS
10
117.318
20
-220.791
11
117.318
21
-220.22
0
LINE
8
BLACK
6
CONTINUOUS
10
117.318
20
-220.22
11
117.175
21
-219.506
0
LINE
8
BLACK
6
CONTINUOUS
10
117.175
20
-219.506
11
117.032
21
-219.077
0
LINE
8
BLACK
6
CONTINUOUS
10
117.032
20
-219.077
11
116.889
21
-218.791
0
LINE
8
BLACK
6
CONTINUOUS
10
116.889
20
-218.791
11
116.604
21
-218.363
0
LINE
8
BLACK
6
CONTINUOUS
10
116.604
20
-218.363
11
116.461
21
-218.22
0
LINE
8
BLACK
6
CONTINUOUS
10
18.4392
20
-226.055
11
18.4392
21
-223.227
0
LINE
8
BLACK
6
CONTINUOUS
10
18.4392
20
-223.227
11
15.6108
21
-223.227
0
LINE
8
BLACK
6
CONTINUOUS
10
15.6108
20
-223.227
11
15.6108
21
-226.055
0
LINE
8
BLACK
6
CONTINUOUS
10
15.6108
20
-226.055
11
18.4392
21
-226.055
0
LINE
8
BLACK
6
CONTINUOUS
10
23.175
20
-223.998
11
23.175
21
-225.998
0
LINE
8
BLACK
6
CONTINUOUS
10
22.4607
20
-222.856
11
21.7464
21
-224.998
0
LINE
8
BLACK
6
CONTINUOUS
10
21.7464
20
-224.998
11
23.6036
21
-224.998
0
LINE
8
BLACK
6
CONTINUOUS
10
24.7464
20
-225.713
11
24.8893
21
-225.856
0
LINE
8
BLACK
6
CONTINUOUS
10
24.8893
20
-225.856
11
24.7464
21
-225.998
0
LINE
8
BLACK
6
CONTINUOUS
10
24.7464
20
-225.998
11
24.6036
21
-225.856
0
LINE
8
BLACK
6
CONTINUOUS
10
24.6036
20
-225.856
11
24.7464
21
-225.713
0
LINE
8
BLACK
6
CONTINUOUS
10
24.7464
20
-225.713
11
24.7464
21
-225.998
0
LINE
8
BLACK
6
CONTINUOUS
10
26.7464
20
-222.998
11
27.0321
21
-222.998
0
LINE
8
BLACK
6
CONTINUOUS
10
27.0321
20
-222.998
11
27.3179
21
-223.141
0
LINE
8
BLACK
6
CONTINUOUS
10
27.3179
20
-223.141
11
27.4607
21
-223.284
0
LINE
8
BLACK
6
CONTINUOUS
10
27.4607
20
-223.284
11
27.6036
21
-223.57
0
LINE
8
BLACK
6
CONTINUOUS
10
27.6036
20
-223.57
11
27.7464
21
-224.141
0
LINE
8
BLACK
6
CONTINUOUS
10
27.7464
20
-224.141
11
27.7464
21
-224.856
0
LINE
8
BLACK
6
CONTINUOUS
10
27.7464
20
-224.856
11
27.6036
21
-225.427
0
LINE
8
BLACK
6
CONTINUOUS
10
27.6036
20
-225.427
11
27.4607
21
-225.713
0
LINE
8
BLACK
6
CONTINUOUS
10
27.4607
20
-225.713
11
27.3179
21
-225.856
0
LINE
8
BLACK
6
CONTINUOUS
10
27.3179
20
-225.856
11
27.0321
21
-225.998
0
LINE
8
BLACK
6
CONTINUOUS
10
27.0321
20
-225.998
11
26.7464
21
-225.998
0
LINE
8
BLACK
6
CONTINUOUS
10
26.7464
20
-225.998
11
26.4607
21
-225.856
0
LINE
8
BLACK
6
CONTINUOUS
10
26.4607
20
-225.856
11
26.3179
21
-225.713
0
LINE
8
BLACK
6
CONTINUOUS
10
26.3179
20
-225.713
11
26.175
21
-225.427
0
LINE
8
BLACK
6
CONTINUOUS
10
26.175
20
-225.427
11
26.0321
21
-224.856
0
LINE
8
BLACK
6
CONTINUOUS
10
26.0321
20
-224.856
11
26.0321
21
-224.141
0
LINE
8
BLACK
6
CONTINUOUS
10
26.0321
20
-224.141
11
26.175
21
-223.57
0
LINE
8
BLACK
6
CONTINUOUS
10
26.175
20
-223.57
11
26.3179
21
-223.284
0
LINE
8
BLACK
6
CONTINUOUS
10
26.3179
20
-223.284
11
26.4607
21
-223.141
0
LINE
8
BLACK
6
CONTINUOUS
10
26.4607
20
-223.141
11
26.7464
21
-222.998
0
LINE
8
BLACK
6
CONTINUOUS
10
29.6036
20
-222.998
11
29.8893
21
-222.998
0
LINE
8
BLACK
6
CONTINUOUS
10
29.8893
20
-222.998
11
30.175
21
-223.141
0
LINE
8
BLACK
6
CONTINUOUS
10
30.175
20
-223.141
11
30.3179
21
-223.284
0
LINE
8
BLACK
6
CONTINUOUS
10
30.3179
20
-223.284
11
30.4607
21
-223.57
0
LINE
8
BLACK
6
CONTINUOUS
10
30.4607
20
-223.57
11
30.6036
21
-224.141
0
LINE
8
BLACK
6
CONTINUOUS
10
30.6036
20
-224.141
11
30.6036
21
-224.856
0
LINE
8
BLACK
6
CONTINUOUS
10
30.6036
20
-224.856
11
30.4607
21
-225.427
0
LINE
8
BLACK
6
CONTINUOUS
10
30.4607
20
-225.427
11
30.3179
21
-225.713
0
LINE
8
BLACK
6
CONTINUOUS
10
30.3179
20
-225.713
11
30.175
21
-225.856
0
LINE
8
BLACK
6
CONTINUOUS
10
30.175
20
-225.856
11
29.8893
21
-225.998
0
LINE
8
BLACK
6
CONTINUOUS
10
29.8893
20
-225.998
11
29.6036
21
-225.998
0
LINE
8
BLACK
6
CONTINUOUS
10
29.6036
20
-225.998
11
29.3179
21
-225.856
0
LINE
8
BLACK
6
CONTINUOUS
10
29.3179
20
-225.856
11
29.175
21
-225.713
0
LINE
8
BLACK
6
CONTINUOUS
10
29.175
20
-225.713
11
29.0321
21
-225.427
0
LINE
8
BLACK
6
CONTINUOUS
10
29.0321
20
-225.427
11
28.8893
21
-224.856
0
LINE
8
BLACK
6
CONTINUOUS
10
28.8893
20
-224.856
11
28.8893
21
-224.141
0
LINE
8
BLACK
6
CONTINUOUS
10
28.8893
20
-224.141
11
29.0321
21
-223.57
0
LINE
8
BLACK
6
CONTINUOUS
10
29.0321
20
-223.57
11
29.175
21
-223.284
0
LINE
8
BLACK
6
CONTINUOUS
10
29.175
20
-223.284
11
29.3179
21
-223.141
0
LINE
8
BLACK
6
CONTINUOUS
10
29.3179
20
-223.141
11
29.6036
21
-222.998
0
LINE
8
BLACK
6
CONTINUOUS
10
31.8893
20
-225.998
11
31.8893
21
-223.998
0
LINE
8
BLACK
6
CONTINUOUS
10
31.8893
20
-224.284
11
32.0321
21
-224.141
0
LINE
8
BLACK
6
CONTINUOUS
10
32.0321
20
-224.141
11
32.3179
21
-223.998
0
LINE
8
BLACK
6
CONTINUOUS
10
32.3179
20
-223.998
11
32.7464
21
-223.998
0
LINE
8
BLACK
6
CONTINUOUS
10
32.7464
20
-223.998
11
33.0321
21
-224.141
0
LINE
8
BLACK
6
CONTINUOUS
10
33.0321
20
-224.141
11
33.175
21
-224.427
0
LINE
8
BLACK
6
CONTINUOUS
10
33.175
20
-224.427
11
33.175
21
-225.998
0
LINE
8
BLACK
6
CONTINUOUS
10
33.175
20
-224.427
11
33.3179
21
-224.141
0
LINE
8
BLACK
6
CONTINUOUS
10
33.3179
20
-224.141
11
33.6036
21
-223.998
0
LINE
8
BLACK
6
CONTINUOUS
10
33.6036
20
-223.998
11
34.0321
21
-223.998
0
LINE
8
BLACK
6
CONTINUOUS
10
34.0321
20
-223.998
11
34.3179
21
-224.141
0
LINE
8
BLACK
6
CONTINUOUS
10
34.3179
20
-224.141
11
34.4607
21
-224.427
0
LINE
8
BLACK
6
CONTINUOUS
10
34.4607
20
-224.427
11
34.4607
21
-225.998
0
LINE
8
BLACK
6
CONTINUOUS
10
35.8893
20
-225.998
11
35.8893
21
-223.998
0
LINE
8
BLACK
6
CONTINUOUS
10
35.8893
20
-224.284
11
36.0321
21
-224.141
0
LINE
8
BLACK
6
CONTINUOUS
10
36.0321
20
-224.141
11
36.3179
21
-223.998
0
LINE
8
BLACK
6
CONTINUOUS
10
36.3179
20
-223.998
11
36.7464
21
-223.998
0
LINE
8
BLACK
6
CONTINUOUS
10
36.7464
20
-223.998
11
37.0321
21
-224.141
0
LINE
8
BLACK
6
CONTINUOUS
10
37.0321
20
-224.141
11
37.175
21
-224.427
0
LINE
8
BLACK
6
CONTINUOUS
10
37.175
20
-224.427
11
37.175
21
-225.998
0
LINE
8
BLACK
6
CONTINUOUS
10
37.175
20
-224.427
11
37.3179
21
-224.141
0
LINE
8
BLACK
6
CONTINUOUS
10
37.3179
20
-224.141
11
37.6036
21
-223.998
0
LINE
8
BLACK
6
CONTINUOUS
10
37.6036
20
-223.998
11
38.0321
21
-223.998
0
LINE
8
BLACK
6
CONTINUOUS
10
38.0321
20
-223.998
11
38.3179
21
-224.141
0
LINE
8
BLACK
6
CONTINUOUS
10
38.3179
20
-224.141
11
38.4607
21
-224.427
0
LINE
8
BLACK
6
CONTINUOUS
10
38.4607
20
-224.427
11
38.4607
21
-225.998
0
LINE
8
BLACK
6
CONTINUOUS
10
44.3179
20
-222.856
11
41.7464
21
-226.713
0
LINE
8
BLACK
6
CONTINUOUS
10
48.175
20
-222.998
11
48.4607
21
-222.998
0
LINE
8
BLACK
6
CONTINUOUS
10
48.4607
20
-222.998
11
48.7464
21
-223.141
0
LINE
8
BLACK
6
CONTINUOUS
10
48.7464
20
-223.141
11
48.8893
21
-223.284
0
LINE
8
BLACK
6
CONTINUOUS
10
48.8893
20
-223.284
11
49.0321
21
-223.57
0
LINE
8
BLACK
6
CONTINUOUS
10
49.0321
20
-223.57
11
49.175
21
-224.141
0
LINE
8
BLACK
6
CONTINUOUS
10
49.175
20
-224.141
11
49.175
21
-224.856
0
LINE
8
BLACK
6
CONTINUOUS
10
49.175
20
-224.856
11
49.0321
21
-225.427
0
LINE
8
BLACK
6
CONTINUOUS
10
49.0321
20
-225.427
11
48.8893
21
-225.713
0
LINE
8
BLACK
6
CONTINUOUS
10
48.8893
20
-225.713
11
48.7464
21
-225.856
0
LINE
8
BLACK
6
CONTINUOUS
10
48.7464
20
-225.856
11
48.4607
21
-225.998
0
LINE
8
BLACK
6
CONTINUOUS
10
48.4607
20
-225.998
11
48.175
21
-225.998
0
LINE
8
BLACK
6
CONTINUOUS
10
48.175
20
-225.998
11
47.8893
21
-225.856
0
LINE
8
BLACK
6
CONTINUOUS
10
47.8893
20
-225.856
11
47.7464
21
-225.713
0
LINE
8
BLACK
6
CONTINUOUS
10
47.7464
20
-225.713
11
47.6036
21
-225.427
0
LINE
8
BLACK
6
CONTINUOUS
10
47.6036
20
-225.427
11
47.4607
21
-224.856
0
LINE
8
BLACK
6
CONTINUOUS
10
47.4607
20
-224.856
11
47.4607
21
-224.141
0
LINE
8
BLACK
6
CONTINUOUS
10
47.4607
20
-224.141
11
47.6036
21
-223.57
0
LINE
8
BLACK
6
CONTINUOUS
10
47.6036
20
-223.57
11
47.7464
21
-223.284
0
LINE
8
BLACK
6
CONTINUOUS
10
47.7464
20
-223.284
11
47.8893
21
-223.141
0
LINE
8
BLACK
6
CONTINUOUS
10
47.8893
20
-223.141
11
48.175
21
-222.998
0
LINE
8
BLACK
6
CONTINUOUS
10
50.4607
20
-225.713
11
50.6036
21
-225.856
0
LINE
8
BLACK
6
CONTINUOUS
10
50.6036
20
-225.856
11
50.4607
21
-225.998
0
LINE
8
BLACK
6
CONTINUOUS
10
50.4607
20
-225.998
11
50.3179
21
-225.856
0
LINE
8
BLACK
6
CONTINUOUS
10
50.3179
20
-225.856
11
50.4607
21
-225.713
0
LINE
8
BLACK
6
CONTINUOUS
10
50.4607
20
-225.713
11
50.4607
21
-225.998
0
LINE
8
BLACK
6
CONTINUOUS
10
53.4607
20
-225.998
11
51.7464
21
-225.998
0
LINE
8
BLACK
6
CONTINUOUS
10
52.6036
20
-225.998
11
52.6036
21
-222.998
0
LINE
8
BLACK
6
CONTINUOUS
10
52.6036
20
-222.998
11
52.3179
21
-223.427
0
LINE
8
BLACK
6
CONTINUOUS
10
52.3179
20
-223.427
11
52.0321
21
-223.713
0
LINE
8
BLACK
6
CONTINUOUS
10
52.0321
20
-223.713
11
51.7464
21
-223.856
0
LINE
8
BLACK
6
CONTINUOUS
10
56.175
20
-222.998
11
54.7464
21
-222.998
0
LINE
8
BLACK
6
CONTINUOUS
10
54.7464
20
-222.998
11
54.6036
21
-224.427
0
LINE
8
BLACK
6
CONTINUOUS
10
54.6036
20
-224.427
11
54.7464
21
-224.284
0
LINE
8
BLACK
6
CONTINUOUS
10
54.7464
20
-224.284
11
55.0321
21
-224.141
0
LINE
8
BLACK
6
CONTINUOUS
10
55.0321
20
-224.141
11
55.7464
21
-224.141
0
LINE
8
BLACK
6
CONTINUOUS
10
55.7464
20
-224.141
11
56.0321
21
-224.284
0
LINE
8
BLACK
6
CONTINUOUS
10
56.0321
20
-224.284
11
56.175
21
-224.427
0
LINE
8
BLACK
6
CONTINUOUS
10
56.175
20
-224.427
11
56.3179
21
-224.713
0
LINE
8
BLACK
6
CONTINUOUS
10
56.3179
20
-224.713
11
56.3179
21
-225.427
0
LINE
8
BLACK
6
CONTINUOUS
10
56.3179
20
-225.427
11
56.175
21
-225.713
0
LINE
8
BLACK
6
CONTINUOUS
10
56.175
20
-225.713
11
56.0321
21
-225.856
0
LINE
8
BLACK
6
CONTINUOUS
10
56.0321
20
-225.856
11
55.7464
21
-225.998
0
LINE
8
BLACK
6
CONTINUOUS
10
55.7464
20
-225.998
11
55.0321
21
-225.998
0
LINE
8
BLACK
6
CONTINUOUS
10
55.0321
20
-225.998
11
54.7464
21
-225.856
0
LINE
8
BLACK
6
CONTINUOUS
10
54.7464
20
-225.856
11
54.6036
21
-225.713
0
LINE
8
BLACK
6
CONTINUOUS
10
57.3179
20
-222.998
11
59.3179
21
-222.998
0
LINE
8
BLACK
6
CONTINUOUS
10
59.3179
20
-222.998
11
58.0321
21
-225.998
0
LINE
8
BLACK
6
CONTINUOUS
10
60.3179
20
-222.998
11
60.3179
21
-223.57
0
LINE
8
BLACK
6
CONTINUOUS
10
61.4607
20
-222.998
11
61.4607
21
-223.57
0
LINE
8
BLACK
6
CONTINUOUS
10
65.8893
20
-227.141
11
65.7464
21
-226.998
0
LINE
8
BLACK
6
CONTINUOUS
10
65.7464
20
-226.998
11
65.4607
21
-226.57
0
LINE
8
BLACK
6
CONTINUOUS
10
65.4607
20
-226.57
11
65.3179
21
-226.284
0
LINE
8
BLACK
6
CONTINUOUS
10
65.3179
20
-226.284
11
65.175
21
-225.856
0
LINE
8
BLACK
6
CONTINUOUS
10
65.175
20
-225.856
11
65.0321
21
-225.141
0
LINE
8
BLACK
6
CONTINUOUS
10
65.0321
20
-225.141
11
65.0321
21
-224.57
0
LINE
8
BLACK
6
CONTINUOUS
10
65.0321
20
-224.57
11
65.175
21
-223.856
0
LINE
8
BLACK
6
CONTINUOUS
10
65.175
20
-223.856
11
65.3179
21
-223.427
0
LINE
8
BLACK
6
CONTINUOUS
10
65.3179
20
-223.427
11
65.4607
21
-223.141
0
LINE
8
BLACK
6
CONTINUOUS
10
65.4607
20
-223.141
11
65.7464
21
-222.713
0
LINE
8
BLACK
6
CONTINUOUS
10
65.7464
20
-222.713
11
65.8893
21
-222.57
0
LINE
8
BLACK
6
CONTINUOUS
10
68.6036
20
-225.998
11
66.8893
21
-225.998
0
LINE
8
BLACK
6
CONTINUOUS
10
67.7464
20
-225.998
11
67.7464
21
-222.998
0
LINE
8
BLACK
6
CONTINUOUS
10
67.7464
20
-222.998
11
67.4607
21
-223.427
0
LINE
8
BLACK
6
CONTINUOUS
10
67.4607
20
-223.427
11
67.175
21
-223.713
0
LINE
8
BLACK
6
CONTINUOUS
10
67.175
20
-223.713
11
66.8893
21
-223.856
0
LINE
8
BLACK
6
CONTINUOUS
10
70.4607
20
-222.998
11
70.7464
21
-222.998
0
LINE
8
BLACK
6
CONTINUOUS
10
70.7464
20
-222.998
11
71.0321
21
-223.141
0
LINE
8
BLACK
6
CONTINUOUS
10
71.0321
20
-223.141
11
71.175
21
-223.284
0
LINE
8
BLACK
6
CONTINUOUS
10
71.175
20
-223.284
11
71.3179
21
-223.57
0
LINE
8
BLACK
6
CONTINUOUS
10
71.3179
20
-223.57
11
71.4607
21
-224.141
0
LINE
8
BLACK
6
CONTINUOUS
10
71.4607
20
-224.141
11
71.4607
21
-224.856
0
LINE
8
BLACK
6
CONTINUOUS
10
71.4607
20
-224.856
11
71.3179
21
-225.427
0
LINE
8
BLACK
6
CONTINUOUS
10
71.3179
20
-225.427
11
71.175
21
-225.713
0
LINE
8
BLACK
6
CONTINUOUS
10
71.175
20
-225.713
11
71.0321
21
-225.856
0
LINE
8
BLACK
6
CONTINUOUS
10
71.0321
20
-225.856
11
70.7464
21
-225.998
0
LINE
8
BLACK
6
CONTINUOUS
10
70.7464
20
-225.998
11
70.4607
21
-225.998
0
LINE
8
BLACK
6
CONTINUOUS
10
70.4607
20
-225.998
11
70.175
21
-225.856
0
LINE
8
BLACK
6
CONTINUOUS
10
70.175
20
-225.856
11
70.0321
21
-225.713
0
LINE
8
BLACK
6
CONTINUOUS
10
70.0321
20
-225.713
11
69.8893
21
-225.427
0
LINE
8
BLACK
6
CONTINUOUS
10
69.8893
20
-225.427
11
69.7464
21
-224.856
0
LINE
8
BLACK
6
CONTINUOUS
10
69.7464
20
-224.856
11
69.7464
21
-224.141
0
LINE
8
BLACK
6
CONTINUOUS
10
69.7464
20
-224.141
11
69.8893
21
-223.57
0
LINE
8
BLACK
6
CONTINUOUS
10
69.8893
20
-223.57
11
70.0321
21
-223.284
0
LINE
8
BLACK
6
CONTINUOUS
10
70.0321
20
-223.284
11
70.175
21
-223.141
0
LINE
8
BLACK
6
CONTINUOUS
10
70.175
20
-223.141
11
70.4607
21
-222.998
0
LINE
8
BLACK
6
CONTINUOUS
10
72.4607
20
-222.998
11
74.3179
21
-222.998
0
LINE
8
BLACK
6
CONTINUOUS
10
74.3179
20
-222.998
11
73.3179
21
-224.141
0
LINE
8
BLACK
6
CONTINUOUS
10
73.3179
20
-224.141
11
73.7464
21
-224.141
0
LINE
8
BLACK
6
CONTINUOUS
10
73.7464
20
-224.141
11
74.0321
21
-224.284
0
LINE
8
BLACK
6
CONTINUOUS
10
74.0321
20
-224.284
11
74.175
21
-224.427
0
LINE
8
BLACK
6
CONTINUOUS
10
74.175
20
-224.427
11
74.3179
21
-224.713
0
LINE
8
BLACK
6
CONTINUOUS
10
74.3179
20
-224.713
11
74.3179
21
-225.427
0
LINE
8
BLACK
6
CONTINUOUS
10
74.3179
20
-225.427
11
74.175
21
-225.713
0
LINE
8
BLACK
6
CONTINUOUS
10
74.175
20
-225.713
11
74.0321
21
-225.856
0
LINE
8
BLACK
6
CONTINUOUS
10
74.0321
20
-225.856
11
73.7464
21
-225.998
0
LINE
8
BLACK
6
CONTINUOUS
10
73.7464
20
-225.998
11
72.8893
21
-225.998
0
LINE
8
BLACK
6
CONTINUOUS
10
72.8893
20
-225.998
11
72.6036
21
-225.856
0
LINE
8
BLACK
6
CONTINUOUS
10
72.6036
20
-225.856
11
72.4607
21
-225.713
0
LINE
8
BLACK
6
CONTINUOUS
10
77.8893
20
-225.998
11
77.8893
21
-222.998
0
LINE
8
BLACK
6
CONTINUOUS
10
79.175
20
-225.998
11
79.175
21
-224.427
0
LINE
8
BLACK
6
CONTINUOUS
10
79.175
20
-224.427
11
79.0321
21
-224.141
0
LINE
8
BLACK
6
CONTINUOUS
10
79.0321
20
-224.141
11
78.7464
21
-223.998
0
LINE
8
BLACK
6
CONTINUOUS
10
78.7464
20
-223.998
11
78.3179
21
-223.998
0
LINE
8
BLACK
6
CONTINUOUS
10
78.3179
20
-223.998
11
78.0321
21
-224.141
0
LINE
8
BLACK
6
CONTINUOUS
10
78.0321
20
-224.141
11
77.8893
21
-224.284
0
LINE
8
BLACK
6
CONTINUOUS
10
81.0321
20
-225.998
11
80.7464
21
-225.856
0
LINE
8
BLACK
6
CONTINUOUS
10
80.7464
20
-225.856
11
80.6036
21
-225.713
0
LINE
8
BLACK
6
CONTINUOUS
10
80.6036
20
-225.713
11
80.4607
21
-225.427
0
LINE
8
BLACK
6
CONTINUOUS
10
80.4607
20
-225.427
11
80.4607
21
-224.57
0
LINE
8
BLACK
6
CONTINUOUS
10
80.4607
20
-224.57
11
80.6036
21
-224.284
0
LINE
8
BLACK
6
CONTINUOUS
10
80.6036
20
-224.284
11
80.7464
21
-224.141
0
LINE
8
BLACK
6
CONTINUOUS
10
80.7464
20
-224.141
11
81.0321
21
-223.998
0
LINE
8
BLACK
6
CONTINUOUS
10
81.0321
20
-223.998
11
81.4607
21
-223.998
0
LINE
8
BLACK
6
CONTINUOUS
10
81.4607
20
-223.998
11
81.7464
21
-224.141
0
LINE
8
BLACK
6
CONTINUOUS
10
81.7464
20
-224.141
11
81.8893
21
-224.284
0
LINE
8
BLACK
6
CONTINUOUS
10
81.8893
20
-224.284
11
82.0321
21
-224.57
0
LINE
8
BLACK
6
CONTINUOUS
10
82.0321
20
-224.57
11
82.0321
21
-225.427
0
LINE
8
BLACK
6
CONTINUOUS
10
82.0321
20
-225.427
11
81.8893
21
-225.713
0
LINE
8
BLACK
6
CONTINUOUS
10
81.8893
20
-225.713
11
81.7464
21
-225.856
0
LINE
8
BLACK
6
CONTINUOUS
10
81.7464
20
-225.856
11
81.4607
21
-225.998
0
LINE
8
BLACK
6
CONTINUOUS
10
81.4607
20
-225.998
11
81.0321
21
-225.998
0
LINE
8
BLACK
6
CONTINUOUS
10
83.7464
20
-225.998
11
83.4607
21
-225.856
0
LINE
8
BLACK
6
CONTINUOUS
10
83.4607
20
-225.856
11
83.3179
21
-225.57
0
LINE
8
BLACK
6
CONTINUOUS
10
83.3179
20
-225.57
11
83.3179
21
-222.998
0
LINE
8
BLACK
6
CONTINUOUS
10
86.0321
20
-225.856
11
85.7464
21
-225.998
0
LINE
8
BLACK
6
CONTINUOUS
10
85.7464
20
-225.998
11
85.175
21
-225.998
0
LINE
8
BLACK
6
CONTINUOUS
10
85.175
20
-225.998
11
84.8893
21
-225.856
0
LINE
8
BLACK
6
CONTINUOUS
10
84.8893
20
-225.856
11
84.7464
21
-225.57
0
LINE
8
BLACK
6
CONTINUOUS
10
84.7464
20
-225.57
11
84.7464
21
-224.427
0
LINE
8
BLACK
6
CONTINUOUS
10
84.7464
20
-224.427
11
84.8893
21
-224.141
0
LINE
8
BLACK
6
CONTINUOUS
10
84.8893
20
-224.141
11
85.175
21
-223.998
0
LINE
8
BLACK
6
CONTINUOUS
10
85.175
20
-223.998
11
85.7464
21
-223.998
0
LINE
8
BLACK
6
CONTINUOUS
10
85.7464
20
-223.998
11
86.0321
21
-224.141
0
LINE
8
BLACK
6
CONTINUOUS
10
86.0321
20
-224.141
11
86.175
21
-224.427
0
LINE
8
BLACK
6
CONTINUOUS
10
86.175
20
-224.427
11
86.175
21
-224.713
0
LINE
8
BLACK
6
CONTINUOUS
10
86.175
20
-224.713
11
84.7464
21
-224.998
0
LINE
8
BLACK
6
CONTINUOUS
10
87.3179
20
-225.856
11
87.6036
21
-225.998
0
LINE
8
BLACK
6
CONTINUOUS
10
87.6036
20
-225.998
11
88.175
21
-225.998
0
LINE
8
BLACK
6
CONTINUOUS
10
88.175
20
-225.998
11
88.4607
21
-225.856
0
LINE
8
BLACK
6
CONTINUOUS
10
88.4607
20
-225.856
11
88.6036
21
-225.57
0
LINE
8
BLACK
6
CONTINUOUS
10
88.6036
20
-225.57
11
88.6036
21
-225.427
0
LINE
8
BLACK
6
CONTINUOUS
10
88.6036
20
-225.427
11
88.4607
21
-225.141
0
LINE
8
BLACK
6
CONTINUOUS
10
88.4607
20
-225.141
11
88.175
21
-224.998
0
LINE
8
BLACK
6
CONTINUOUS
10
88.175
20
-224.998
11
87.7464
21
-224.998
0
LINE
8
BLACK
6
CONTINUOUS
10
87.7464
20
-224.998
11
87.4607
21
-224.856
0
LINE
8
BLACK
6
CONTINUOUS
10
87.4607
20
-224.856
11
87.3179
21
-224.57
0
LINE
8
BLACK
6
CONTINUOUS
10
87.3179
20
-224.57
11
87.3179
21
-224.427
0
LINE
8
BLACK
6
CONTINUOUS
10
87.3179
20
-224.427
11
87.4607
21
-224.141
0
LINE
8
BLACK
6
CONTINUOUS
10
87.4607
20
-224.141
11
87.7464
21
-223.998
0
LINE
8
BLACK
6
CONTINUOUS
10
87.7464
20
-223.998
11
88.175
21
-223.998
0
LINE
8
BLACK
6
CONTINUOUS
10
88.175
20
-223.998
11
88.4607
21
-224.141
0
LINE
8
BLACK
6
CONTINUOUS
10
89.6036
20
-227.141
11
89.7464
21
-226.998
0
LINE
8
BLACK
6
CONTINUOUS
10
89.7464
20
-226.998
11
90.0321
21
-226.57
0
LINE
8
BLACK
6
CONTINUOUS
10
90.0321
20
-226.57
11
90.175
21
-226.284
0
LINE
8
BLACK
6
CONTINUOUS
10
90.175
20
-226.284
11
90.3179
21
-225.856
0
LINE
8
BLACK
6
CONTINUOUS
10
90.3179
20
-225.856
11
90.4607
21
-225.141
0
LINE
8
BLACK
6
CONTINUOUS
10
90.4607
20
-225.141
11
90.4607
21
-224.57
0
LINE
8
BLACK
6
CONTINUOUS
10
90.4607
20
-224.57
11
90.3179
21
-223.856
0
LINE
8
BLACK
6
CONTINUOUS
10
90.3179
20
-223.856
11
90.175
21
-223.427
0
LINE
8
BLACK
6
CONTINUOUS
10
90.175
20
-223.427
11
90.0321
21
-223.141
0
LINE
8
BLACK
6
CONTINUOUS
10
90.0321
20
-223.141
11
89.7464
21
-222.713
0
LINE
8
BLACK
6
CONTINUOUS
10
89.7464
20
-222.713
11
89.6036
21
-222.57
0
LINE
8
BLACK
6
CONTINUOUS
10
95.0321
20
-227.141
11
94.8893
21
-226.998
0
LINE
8
BLACK
6
CONTINUOUS
10
94.8893
20
-226.998
11
94.6036
21
-226.57
0
LINE
8
BLACK
6
CONTINUOUS
10
94.6036
20
-226.57
11
94.4607
21
-226.284
0
LINE
8
BLACK
6
CONTINUOUS
10
94.4607
20
-226.284
11
94.3179
21
-225.856
0
LINE
8
BLACK
6
CONTINUOUS
10
94.3179
20
-225.856
11
94.175
21
-225.141
0
LINE
8
BLACK
6
CONTINUOUS
10
94.175
20
-225.141
11
94.175
21
-224.57
0
LINE
8
BLACK
6
CONTINUOUS
10
94.175
20
-224.57
11
94.3179
21
-223.856
0
LINE
8
BLACK
6
CONTINUOUS
10
94.3179
20
-223.856
11
94.4607
21
-223.427
0
LINE
8
BLACK
6
CONTINUOUS
10
94.4607
20
-223.427
11
94.6036
21
-223.141
0
LINE
8
BLACK
6
CONTINUOUS
10
94.6036
20
-223.141
11
94.8893
21
-222.713
0
LINE
8
BLACK
6
CONTINUOUS
10
94.8893
20
-222.713
11
95.0321
21
-222.57
0
LINE
8
BLACK
6
CONTINUOUS
10
96.175
20
-223.998
11
96.175
21
-225.998
0
LINE
8
BLACK
6
CONTINUOUS
10
96.175
20
-224.284
11
96.3179
21
-224.141
0
LINE
8
BLACK
6
CONTINUOUS
10
96.3179
20
-224.141
11
96.6036
21
-223.998
0
LINE
8
BLACK
6
CONTINUOUS
10
96.6036
20
-223.998
11
97.0321
21
-223.998
0
LINE
8
BLACK
6
CONTINUOUS
10
97.0321
20
-223.998
11
97.3179
21
-224.141
0
LINE
8
BLACK
6
CONTINUOUS
10
97.3179
20
-224.141
11
97.4607
21
-224.427
0
LINE
8
BLACK
6
CONTINUOUS
10
97.4607
20
-224.427
11
97.4607
21
-225.998
0
LINE
8
BLACK
6
CONTINUOUS
10
99.3179
20
-225.998
11
99.0321
21
-225.856
0
LINE
8
BLACK
6
CONTINUOUS
10
99.0321
20
-225.856
11
98.8893
21
-225.713
0
LINE
8
BLACK
6
CONTINUOUS
10
98.8893
20
-225.713
11
98.7464
21
-225.427
0
LINE
8
BLACK
6
CONTINUOUS
10
98.7464
20
-225.427
11
98.7464
21
-224.57
0
LINE
8
BLACK
6
CONTINUOUS
10
98.7464
20
-224.57
11
98.8893
21
-224.284
0
LINE
8
BLACK
6
CONTINUOUS
10
98.8893
20
-224.284
11
99.0321
21
-224.141
0
LINE
8
BLACK
6
CONTINUOUS
10
99.0321
20
-224.141
11
99.3179
21
-223.998
0
LINE
8
BLACK
6
CONTINUOUS
10
99.3179
20
-223.998
11
99.7464
21
-223.998
0
LINE
8
BLACK
6
CONTINUOUS
10
99.7464
20
-223.998
11
100.032
21
-224.141
0
LINE
8
BLACK
6
CONTINUOUS
10
100.032
20
-224.141
11
100.175
21
-224.284
0
LINE
8
BLACK
6
CONTINUOUS
10
100.175
20
-224.284
11
100.318
21
-224.57
0
LINE
8
BLACK
6
CONTINUOUS
10
100.318
20
-224.57
11
100.318
21
-225.427
0
LINE
8
BLACK
6
CONTINUOUS
10
100.318
20
-225.427
11
100.175
21
-225.713
0
LINE
8
BLACK
6
CONTINUOUS
10
100.175
20
-225.713
11
100.032
21
-225.856
0
LINE
8
BLACK
6
CONTINUOUS
10
100.032
20
-225.856
11
99.7464
21
-225.998
0
LINE
8
BLACK
6
CONTINUOUS
10
99.7464
20
-225.998
11
99.3179
21
-225.998
0
LINE
8
BLACK
6
CONTINUOUS
10
101.175
20
-223.998
11
102.318
21
-223.998
0
LINE
8
BLACK
6
CONTINUOUS
10
101.604
20
-222.998
11
101.604
21
-225.57
0
LINE
8
BLACK
6
CONTINUOUS
10
101.604
20
-225.57
11
101.746
21
-225.856
0
LINE
8
BLACK
6
CONTINUOUS
10
101.746
20
-225.856
11
102.032
21
-225.998
0
LINE
8
BLACK
6
CONTINUOUS
10
102.032
20
-225.998
11
102.318
21
-225.998
0
LINE
8
BLACK
6
CONTINUOUS
10
105.604
20
-223.998
11
105.604
21
-226.998
0
LINE
8
BLACK
6
CONTINUOUS
10
105.604
20
-224.141
11
105.889
21
-223.998
0
LINE
8
BLACK
6
CONTINUOUS
10
105.889
20
-223.998
11
106.461
21
-223.998
0
LINE
8
BLACK
6
CONTINUOUS
10
106.461
20
-223.998
11
106.746
21
-224.141
0
LINE
8
BLACK
6
CONTINUOUS
10
106.746
20
-224.141
11
106.889
21
-224.284
0
LINE
8
BLACK
6
CONTINUOUS
10
106.889
20
-224.284
11
107.032
21
-224.57
0
LINE
8
BLACK
6
CONTINUOUS
10
107.032
20
-224.57
11
107.032
21
-225.427
0
LINE
8
BLACK
6
CONTINUOUS
10
107.032
20
-225.427
11
106.889
21
-225.713
0
LINE
8
BLACK
6
CONTINUOUS
10
106.889
20
-225.713
11
106.746
21
-225.856
0
LINE
8
BLACK
6
CONTINUOUS
10
106.746
20
-225.856
11
106.461
21
-225.998
0
LINE
8
BLACK
6
CONTINUOUS
10
106.461
20
-225.998
11
105.889
21
-225.998
0
LINE
8
BLACK
6
CONTINUOUS
10
105.889
20
-225.998
11
105.604
21
-225.856
0
LINE
8
BLACK
6
CONTINUOUS
10
108.746
20
-225.998
11
108.461
21
-225.856
0
LINE
8
BLACK
6
CONTINUOUS
10
108.461
20
-225.856
11
108.318
21
-225.57
0
LINE
8
BLACK
6
CONTINUOUS
10
108.318
20
-225.57
11
108.318
21
-222.998
0
LINE
8
BLACK
6
CONTINUOUS
10
111.175
20
-225.998
11
111.175
21
-224.427
0
LINE
8
BLACK
6
CONTINUOUS
10
111.175
20
-224.427
11
111.032
21
-224.141
0
LINE
8
BLACK
6
CONTINUOUS
10
111.032
20
-224.141
11
110.746
21
-223.998
0
LINE
8
BLACK
6
CONTINUOUS
10
110.746
20
-223.998
11
110.175
21
-223.998
0
LINE
8
BLACK
6
CONTINUOUS
10
110.175
20
-223.998
11
109.889
21
-224.141
0
LINE
8
BLACK
6
CONTINUOUS
10
111.175
20
-225.856
11
110.889
21
-225.998
0
LINE
8
BLACK
6
CONTINUOUS
10
110.889
20
-225.998
11
110.175
21
-225.998
0
LINE
8
BLACK
6
CONTINUOUS
10
110.175
20
-225.998
11
109.889
21
-225.856
0
LINE
8
BLACK
6
CONTINUOUS
10
109.889
20
-225.856
11
109.746
21
-225.57
0
LINE
8
BLACK
6
CONTINUOUS
10
109.746
20
-225.57
11
109.746
21
-225.284
0
LINE
8
BLACK
6
CONTINUOUS
10
109.746
20
-225.284
11
109.889
21
-224.998
0
LINE
8
BLACK
6
CONTINUOUS
10
109.889
20
-224.998
11
110.175
21
-224.856
0
LINE
8
BLACK
6
CONTINUOUS
10
110.175
20
-224.856
11
110.889
21
-224.856
0
LINE
8
BLACK
6
CONTINUOUS
10
110.889
20
-224.856
11
111.175
21
-224.713
0
LINE
8
BLACK
6
CONTINUOUS
10
112.175
20
-223.998
11
113.318
21
-223.998
0
LINE
8
BLACK
6
CONTINUOUS
10
112.604
20
-222.998
11
112.604
21
-225.57
0
LINE
8
BLACK
6
CONTINUOUS
10
112.604
20
-225.57
11
112.746
21
-225.856
0
LINE
8
BLACK
6
CONTINUOUS
10
112.746
20
-225.856
11
113.032
21
-225.998
0
LINE
8
BLACK
6
CONTINUOUS
10
113.032
20
-225.998
11
113.318
21
-225.998
0
LINE
8
BLACK
6
CONTINUOUS
10
115.461
20
-225.856
11
115.175
21
-225.998
0
LINE
8
BLACK
6
CONTINUOUS
10
115.175
20
-225.998
11
114.604
21
-225.998
0
LINE
8
BLACK
6
CONTINUOUS
10
114.604
20
-225.998
11
114.318
21
-225.856
0
LINE
8
BLACK
6
CONTINUOUS
10
114.318
20
-225.856
11
114.175
21
-225.57
0
LINE
8
BLACK
6
CONTINUOUS
10
114.175
20
-225.57
11
114.175
21
-224.427
0
LINE
8
BLACK
6
CONTINUOUS
10
114.175
20
-224.427
11
114.318
21
-224.141
0
LINE
8
BLACK
6
CONTINUOUS
10
114.318
20
-224.141
11
114.604
21
-223.998
0
LINE
8
BLACK
6
CONTINUOUS
10
114.604
20
-223.998
11
115.175
21
-223.998
0
LINE
8
BLACK
6
CONTINUOUS
10
115.175
20
-223.998
11
115.461
21
-224.141
0
LINE
8
BLACK
6
CONTINUOUS
10
115.461
20
-224.141
11
115.604
21
-224.427
0
LINE
8
BLACK
6
CONTINUOUS
10
115.604
20
-224.427
11
115.604
21
-224.713
0
LINE
8
BLACK
6
CONTINUOUS
10
115.604
20
-224.713
11
114.175
21
-224.998
0
LINE
8
BLACK
6
CONTINUOUS
10
118.175
20
-225.998
11
118.175
21
-222.998
0
LINE
8
BLACK
6
CONTINUOUS
10
118.175
20
-225.856
11
117.889
21
-225.998
0
LINE
8
BLACK
6
CONTINUOUS
10
117.889
20
-225.998
11
117.318
21
-225.998
0
LINE
8
BLACK
6
CONTINUOUS
10
117.318
20
-225.998
11
117.032
21
-225.856
0
LINE
8
BLACK
6
CONTINUOUS
10
117.032
20
-225.856
11
116.889
21
-225.713
0
LINE
8
BLACK
6
CONTINUOUS
10
116.889
20
-225.713
11
116.746
21
-225.427
0
LINE
8
BLACK
6
CONTINUOUS
10
116.746
20
-225.427
11
116.746
21
-224.57
0
LINE
8
BLACK
6
CONTINUOUS
10
116.746
20
-224.57
11
116.889
21
-224.284
0
LINE
8
BLACK
6
CONTINUOUS
10
116.889
20
-224.284
11
117.032
21
-224.141
0
LINE
8
BLACK
6
CONTINUOUS
10
117.032
20
-224.141
11
117.318
21
-223.998
0
LINE
8
BLACK
6
CONTINUOUS
10
117.318
20
-223.998
11
117.889
21
-223.998
0
LINE
8
BLACK
6
CONTINUOUS
10
117.889
20
-223.998
11
118.175
21
-224.141
0
LINE
8
BLACK
6
CONTINUOUS
10
119.318
20
-227.141
11
119.461
21
-226.998
0
LINE
8
BLACK
6
CONTINUOUS
10
119.461
20
-226.998
11
119.746
21
-226.57
0
LINE
8
BLACK
6
CONTINUOUS
10
119.746
20
-226.57
11
119.889
21
-226.284
0
LINE
8
BLACK
6
CONTINUOUS
10
119.889
20
-226.284
11
120.032
21
-225.856
0
LINE
8
BLACK
6
CONTINUOUS
10
120.032
20
-225.856
11
120.175
21
-225.141
0
LINE
8
BLACK
6
CONTINUOUS
10
120.175
20
-225.141
11
120.175
21
-224.57
0
LINE
8
BLACK
6
CONTINUOUS
10
120.175
20
-224.57
11
120.032
21
-223.856
0
LINE
8
BLACK
6
CONTINUOUS
10
120.032
20
-223.856
11
119.889
21
-223.427
0
LINE
8
BLACK
6
CONTINUOUS
10
119.889
20
-223.427
11
119.746
21
-223.141
0
LINE
8
BLACK
6
CONTINUOUS
10
119.746
20
-223.141
11
119.461
21
-222.713
0
LINE
8
BLACK
6
CONTINUOUS
10
119.461
20
-222.713
11
119.318
21
-222.57
  0
ENDSEC
  0
EOF
