M48
; DRILL file {KiCad (5.1.8)-1} date 09/26/21 17:56:19
; FORMAT={-:-/ absolute / metric / decimal}
; #@! TF.CreationDate,2021-09-26T17:56:19+10:00
; #@! TF.GenerationSoftware,Kicad,Pcbnew,(5.1.8)-1
; #@! TF.FileFunction,NonPlated,1,2,NPTH
FMAT,2
METRIC
T1C1.750
T2C3.000
T3C3.050
T4C4.000
%
G90
G05
T1
X223.52Y-169.069
X233.68Y-169.069
X320.357Y-188.119
X330.517Y-188.119
X71.12Y-169.069
X81.28Y-169.069
X283.051Y-150.019
X293.211Y-150.019
X61.595Y-150.019
X71.755Y-150.019
X358.457Y-111.919
X368.618Y-111.919
X142.558Y-111.919
X152.718Y-111.919
X221.139Y-188.119
X231.299Y-188.119
X187.801Y-188.119
X197.961Y-188.119
X156.845Y-150.019
X167.005Y-150.019
X161.607Y-111.919
X171.767Y-111.919
X339.407Y-90.487
X349.567Y-90.487
X99.695Y-150.019
X109.855Y-150.019
X358.457Y-130.969
X368.618Y-130.969
X320.357Y-111.919
X330.517Y-111.919
X35.401Y-150.019
X45.561Y-150.019
X266.382Y-130.969
X276.542Y-130.969
X56.832Y-130.969
X66.992Y-130.969
X133.032Y-130.969
X143.192Y-130.969
X137.795Y-150.019
X147.955Y-150.019
X185.42Y-169.069
X195.58Y-169.069
X147.32Y-169.069
X157.48Y-169.069
X185.42Y-90.487
X195.58Y-90.487
X320.357Y-90.487
X330.517Y-90.487
X94.932Y-130.969
X105.093Y-130.969
X358.457Y-90.487
X368.618Y-90.487
X247.332Y-130.969
X257.493Y-130.969
X80.645Y-150.019
X90.805Y-150.019
X275.907Y-90.487
X286.067Y-90.487
X47.307Y-111.919
X57.467Y-111.919
X339.407Y-188.119
X349.567Y-188.119
X166.37Y-90.487
X176.53Y-90.487
X90.17Y-169.069
X100.33Y-169.069
X190.183Y-130.969
X200.343Y-130.969
X147.32Y-90.487
X157.48Y-90.487
X152.082Y-130.969
X162.243Y-130.969
X290.195Y-130.969
X300.355Y-130.969
X75.882Y-90.487
X86.042Y-90.487
X339.407Y-130.969
X349.567Y-130.969
X237.807Y-111.919
X247.968Y-111.919
X75.882Y-130.969
X86.042Y-130.969
X233.045Y-150.019
X243.205Y-150.019
X56.832Y-90.487
X66.992Y-90.487
X339.407Y-169.069
X349.567Y-169.069
X128.27Y-169.069
X138.43Y-169.069
X111.601Y-188.119
X121.761Y-188.119
X194.945Y-150.019
X205.105Y-150.019
X213.995Y-150.019
X224.155Y-150.019
X104.457Y-111.919
X114.617Y-111.919
X256.858Y-111.919
X267.017Y-111.919
X85.407Y-111.919
X95.567Y-111.919
X244.951Y-188.119
X255.111Y-188.119
X54.451Y-188.119
X64.611Y-188.119
X204.47Y-169.069
X214.63Y-169.069
X30.639Y-188.119
X40.799Y-188.119
X123.507Y-111.919
X133.667Y-111.919
X199.707Y-111.919
X209.867Y-111.919
X171.132Y-130.969
X181.292Y-130.969
X113.983Y-90.487
X124.142Y-90.487
X228.282Y-130.969
X238.442Y-130.969
X278.289Y-169.069
X288.449Y-169.069
X294.957Y-90.487
X305.118Y-90.487
X252.095Y-150.019
X262.255Y-150.019
X94.932Y-90.487
X105.093Y-90.487
X285.433Y-111.919
X295.592Y-111.919
X66.358Y-111.919
X76.517Y-111.919
X175.895Y-150.019
X186.055Y-150.019
X28.258Y-111.919
X38.417Y-111.919
X204.47Y-90.487
X214.63Y-90.487
X237.807Y-90.487
X247.968Y-90.487
X149.701Y-188.119
X159.861Y-188.119
X218.757Y-111.919
X228.917Y-111.919
X180.657Y-111.919
X190.817Y-111.919
X33.02Y-130.969
X43.18Y-130.969
X320.357Y-130.969
X330.517Y-130.969
X242.57Y-169.069
X252.73Y-169.069
X268.764Y-188.119
X278.924Y-188.119
X339.407Y-111.919
X349.567Y-111.919
X78.264Y-188.119
X88.424Y-188.119
X292.576Y-188.119
X302.736Y-188.119
X40.164Y-169.069
X50.324Y-169.069
X358.457Y-188.119
X368.618Y-188.119
X118.745Y-150.019
X128.905Y-150.019
X256.858Y-90.487
X267.017Y-90.487
X166.37Y-169.069
X176.53Y-169.069
X109.22Y-169.069
X119.38Y-169.069
X209.232Y-130.969
X219.392Y-130.969
X113.983Y-130.969
X124.142Y-130.969
X28.258Y-90.487
X38.417Y-90.487
T2
X292.735Y-136.049
X299.085Y-133.509
X78.422Y-95.567
X84.772Y-93.027
X341.947Y-136.049
X348.297Y-133.509
X240.347Y-116.999
X246.697Y-114.459
X78.422Y-136.049
X84.772Y-133.509
X235.585Y-155.099
X241.935Y-152.559
X59.372Y-95.567
X65.722Y-93.027
X341.947Y-174.149
X348.297Y-171.609
X130.81Y-174.149
X137.16Y-171.609
X114.141Y-193.199
X120.491Y-190.659
X197.485Y-155.099
X203.835Y-152.559
X216.535Y-155.099
X222.885Y-152.559
X106.997Y-116.999
X113.347Y-114.459
X259.397Y-116.999
X265.748Y-114.459
X87.947Y-116.999
X94.297Y-114.459
X247.491Y-193.199
X253.841Y-190.659
X56.991Y-193.199
X63.341Y-190.659
X207.01Y-174.149
X213.36Y-171.609
X33.179Y-193.199
X39.529Y-190.659
X126.047Y-116.999
X132.398Y-114.459
X202.248Y-116.999
X208.597Y-114.459
X173.672Y-136.049
X180.022Y-133.509
X116.522Y-95.567
X122.872Y-93.027
X230.822Y-136.049
X237.172Y-133.509
X280.829Y-174.149
X287.179Y-171.609
X297.498Y-95.567
X303.847Y-93.027
X254.635Y-155.099
X260.985Y-152.559
X97.472Y-95.567
X103.822Y-93.027
X287.972Y-116.999
X294.322Y-114.459
X68.897Y-116.999
X75.248Y-114.459
X178.435Y-155.099
X184.785Y-152.559
X30.797Y-116.999
X37.148Y-114.459
X207.01Y-95.567
X213.36Y-93.027
X240.347Y-95.567
X246.697Y-93.027
X152.241Y-193.199
X158.591Y-190.659
X221.297Y-116.999
X227.647Y-114.459
X183.197Y-116.999
X189.547Y-114.459
X35.56Y-136.049
X41.91Y-133.509
X322.897Y-136.049
X329.248Y-133.509
X245.11Y-174.149
X251.46Y-171.609
X271.304Y-193.199
X277.654Y-190.659
X341.947Y-116.999
X348.297Y-114.459
X80.804Y-193.199
X87.154Y-190.659
X295.116Y-193.199
X301.466Y-190.659
X42.704Y-174.149
X49.054Y-171.609
X360.998Y-193.199
X367.347Y-190.659
X121.285Y-155.099
X127.635Y-152.559
X259.397Y-95.567
X265.748Y-93.027
X168.91Y-174.149
X175.26Y-171.609
X111.76Y-174.149
X118.11Y-171.609
X211.772Y-136.049
X218.123Y-133.509
X116.522Y-136.049
X122.872Y-133.509
X30.797Y-95.567
X37.148Y-93.027
X226.06Y-174.149
X232.41Y-171.609
X322.897Y-193.199
X329.248Y-190.659
X73.66Y-174.149
X80.01Y-171.609
X285.591Y-155.099
X291.941Y-152.559
X64.135Y-155.099
X70.485Y-152.559
X360.998Y-116.999
X367.347Y-114.459
X145.097Y-116.999
X151.447Y-114.459
X223.679Y-193.199
X230.029Y-190.659
X190.341Y-193.199
X196.691Y-190.659
X159.385Y-155.099
X165.735Y-152.559
X164.147Y-116.999
X170.498Y-114.459
X341.947Y-95.567
X348.297Y-93.027
X102.235Y-155.099
X108.585Y-152.559
X360.998Y-136.049
X367.347Y-133.509
X322.897Y-116.999
X329.248Y-114.459
X37.941Y-155.099
X44.291Y-152.559
X268.923Y-136.049
X275.272Y-133.509
X59.372Y-136.049
X65.722Y-133.509
X135.572Y-136.049
X141.922Y-133.509
X140.335Y-155.099
X146.685Y-152.559
X187.96Y-174.149
X194.31Y-171.609
X149.86Y-174.149
X156.21Y-171.609
X187.96Y-95.567
X194.31Y-93.027
X322.897Y-95.567
X329.248Y-93.027
X97.472Y-136.049
X103.822Y-133.509
X360.998Y-95.567
X367.347Y-93.027
X249.873Y-136.049
X256.222Y-133.509
X83.185Y-155.099
X89.535Y-152.559
X278.447Y-95.567
X284.798Y-93.027
X49.847Y-116.999
X56.197Y-114.459
X341.947Y-193.199
X348.297Y-190.659
X168.91Y-95.567
X175.26Y-93.027
X92.71Y-174.149
X99.06Y-171.609
X192.722Y-136.049
X199.072Y-133.509
X149.86Y-95.567
X156.21Y-93.027
X154.623Y-136.049
X160.972Y-133.509
T3
X271.431Y-176.069
X295.307Y-176.069
X278.575Y-118.919
X302.45Y-118.919
X104.781Y-195.119
X204.781Y-195.119
X33.306Y-176.069
X57.182Y-176.069
X276.193Y-157.019
X300.069Y-157.019
X180.943Y-195.119
X204.819Y-195.119
X104.743Y-195.119
X128.619Y-195.119
T4
X228.6Y-169.069
X325.438Y-188.119
X76.2Y-169.069
X276.193Y-141.779
X288.131Y-150.019
X300.069Y-141.779
X66.675Y-150.019
X363.537Y-111.919
X147.637Y-111.919
X226.219Y-188.119
X180.943Y-179.879
X192.881Y-188.119
X204.819Y-179.879
X161.925Y-150.019
X166.688Y-111.919
X344.488Y-90.487
X104.775Y-150.019
X363.537Y-130.969
X325.438Y-111.919
X40.481Y-150.019
X271.462Y-130.969
X61.912Y-130.969
X138.112Y-130.969
X142.875Y-150.019
X190.5Y-169.069
X152.4Y-169.069
X190.5Y-90.487
X325.438Y-90.487
X100.012Y-130.969
X363.537Y-90.487
X252.412Y-130.969
X85.725Y-150.019
X280.988Y-90.487
X52.387Y-111.919
X344.488Y-188.119
X171.45Y-90.487
X95.25Y-169.069
X195.262Y-130.969
X152.4Y-90.487
X157.162Y-130.969
X295.275Y-130.969
X80.962Y-90.487
X344.488Y-130.969
X242.887Y-111.919
X80.962Y-130.969
X238.125Y-150.019
X61.912Y-90.487
X344.488Y-169.069
X133.35Y-169.069
X104.743Y-179.879
X116.681Y-188.119
X128.619Y-179.879
X200.025Y-150.019
X219.075Y-150.019
X109.537Y-111.919
X261.938Y-111.919
X90.487Y-111.919
X250.031Y-188.119
X59.531Y-188.119
X209.55Y-169.069
X35.719Y-188.119
X128.588Y-111.919
X204.787Y-111.919
X176.213Y-130.969
X119.062Y-90.487
X233.362Y-130.969
X271.431Y-160.829
X283.369Y-169.069
X295.307Y-160.829
X300.037Y-90.487
X257.175Y-150.019
X100.012Y-90.487
X278.575Y-103.679
X290.512Y-111.919
X302.45Y-103.679
X71.438Y-111.919
X180.975Y-150.019
X33.337Y-111.919
X209.55Y-90.487
X242.887Y-90.487
X104.781Y-179.879
X154.781Y-188.119
X204.781Y-179.879
X223.837Y-111.919
X185.737Y-111.919
X38.1Y-130.969
X325.438Y-130.969
X247.65Y-169.069
X273.844Y-188.119
X344.488Y-111.919
X83.344Y-188.119
X297.656Y-188.119
X33.306Y-160.829
X45.244Y-169.069
X57.182Y-160.829
X363.537Y-188.119
X123.825Y-150.019
X261.938Y-90.487
X171.45Y-169.069
X114.3Y-169.069
X214.312Y-130.969
X119.062Y-130.969
X33.337Y-90.487
T0
M30
