M48
; DRILL file {KiCad (5.1.8)-1} date 09/26/21 17:56:19
; FORMAT={-:-/ absolute / metric / decimal}
; #@! TF.CreationDate,2021-09-26T17:56:19+10:00
; #@! TF.GenerationSoftware,Kicad,Pcbnew,(5.1.8)-1
; #@! TF.FileFunction,Plated,1,2,PTH
FMAT,2
METRIC
T1C0.400
T2C0.406
T3C0.600
T4C0.800
T5C1.000
T6C1.500
T7C3.200
%
G90
G05
T1
X21.433Y-106.949
X21.814Y-115.692
X23.622Y-90.5
X23.647Y-111.887
X27.3Y-76.652
X27.635Y-186.715
X28.296Y-130.988
X30.759Y-150.089
X35.281Y-169.113
X36.546Y-198.252
X37.109Y-81.813
X41.91Y-122.364
X44.501Y-110.287
X45.187Y-76.746
X50.292Y-119.126
X51.562Y-186.665
X52.095Y-90.805
X52.273Y-130.886
X55.966Y-78.464
X57.099Y-150.038
X59.797Y-114.459
X62.382Y-157.861
X63.487Y-110.211
X65.761Y-121.983
X65.964Y-81.826
X68.059Y-167.221
X69.322Y-133.509
X69.469Y-119.126
X72.822Y-129.261
X72.923Y-88.824
X73.533Y-188.062
X74.085Y-152.559
X74.859Y-78.914
X77.635Y-148.476
X78.645Y-55.474
X78.847Y-114.459
X82.41Y-110.02
X83.215Y-157.726
X83.642Y-198.303
X84.785Y-81.839
X84.811Y-121.907
X87.224Y-167.475
X88.373Y-133.509
X88.773Y-119.253
X90.335Y-130.886
X90.504Y-63.492
X91.262Y-181.747
X91.885Y-88.532
X92.38Y-62.636
X93.135Y-152.559
X93.164Y-65.232
X93.434Y-55.08
X93.64Y-75.672
X94.894Y-65.811
X95.235Y-60.289
X96.965Y-148.361
X97.688Y-190.627
X97.897Y-114.459
X99.441Y-73.787
X99.466Y-78.511
X101.105Y-157.899
X101.155Y-59.182
X101.93Y-162.804
X102.273Y-110.084
X102.601Y-183.51
X102.616Y-75.514
X103.835Y-81.852
X103.924Y-122.174
X104.775Y-71.831
X105.359Y-76.429
X106.08Y-71.72
X106.172Y-167.462
X106.69Y-60.01
X106.705Y-188.163
X106.807Y-119.761
X107.01Y-62.753
X107.086Y-71.755
X107.422Y-133.509
X108.763Y-164.318
X110.333Y-143.601
X110.777Y-177.074
X111.074Y-129.337
X111.1Y-124.587
X111.354Y-88.837
X112.185Y-152.559
X112.763Y-55.004
X112.895Y-84.308
X114.389Y-126.213
X114.884Y-144.998
X115.202Y-105.639
X115.964Y-148.247
X116.947Y-114.459
X117.45Y-138.595
X119.294Y-157.77
X119.705Y-59.08
X120.739Y-110.325
X121.71Y-171.609
X121.945Y-105.791
X122.872Y-81.775
X122.936Y-122.174
X124.091Y-190.659
X125.075Y-63.139
X125.184Y-167.691
X126.258Y-58.11
X126.472Y-93.027
X126.472Y-133.509
X127.0Y-119.634
X128.095Y-84.229
X130.277Y-129.375
X130.912Y-63.464
X131.235Y-152.559
X131.75Y-54.902
X135.064Y-148.526
X135.998Y-114.459
X136.408Y-59.99
X136.652Y-62.073
X136.964Y-157.726
X138.913Y-59.055
X140.843Y-93.091
X141.262Y-84.254
X141.961Y-122.542
X143.779Y-109.952
X144.104Y-198.201
X144.513Y-88.913
X144.513Y-167.259
X144.92Y-188.049
X146.004Y-78.389
X146.939Y-119.761
X150.266Y-129.248
X150.285Y-152.559
X151.384Y-60.274
X154.445Y-147.993
X155.047Y-114.459
X156.299Y-81.877
X157.262Y-198.379
X157.658Y-55.55
X158.059Y-157.683
X159.08Y-110.236
X159.81Y-171.609
X160.884Y-122.339
X161.709Y-169.024
X162.191Y-190.659
X163.487Y-89.065
X164.572Y-133.509
X165.232Y-77.531
X165.481Y-119.38
X168.072Y-129.362
X169.335Y-152.559
X169.342Y-78.486
X170.17Y-77.536
X171.089Y-78.456
X171.877Y-77.089
X172.781Y-74.519
X172.898Y-148.222
X174.097Y-114.459
X175.527Y-81.775
X177.549Y-157.856
X177.978Y-110.147
X179.921Y-122.39
X181.635Y-81.054
X181.724Y-69.215
X182.308Y-167.348
X182.474Y-89.116
X182.88Y-187.985
X184.211Y-81.227
X184.531Y-76.2
X184.785Y-119.634
X186.578Y-81.29
X187.249Y-128.956
X187.363Y-68.897
X188.385Y-152.559
X188.773Y-76.378
X189.027Y-69.139
X189.443Y-72.532
X190.906Y-65.329
X191.948Y-64.389
X192.126Y-74.625
X192.791Y-199.233
X192.989Y-71.628
X193.147Y-114.459
X193.176Y-74.326
X193.319Y-148.133
X193.53Y-69.573
X194.323Y-81.75
X194.818Y-61.62
X195.25Y-72.822
X195.656Y-76.937
X196.085Y-157.683
X196.177Y-78.93
X196.545Y-77.648
X196.804Y-110.256
X197.282Y-68.377
X197.91Y-93.027
X198.552Y-81.458
X199.2Y-122.491
X200.279Y-72.034
X200.558Y-68.758
X200.67Y-57.092
X200.787Y-77.927
X201.315Y-167.411
X201.752Y-88.76
X202.082Y-72.72
X202.311Y-119.634
X202.336Y-77.292
X202.777Y-70.841
X203.251Y-80.569
X203.276Y-84.836
X203.827Y-70.841
X204.018Y-183.312
X204.338Y-55.527
X204.8Y-74.066
X205.511Y-190.475
X205.872Y-61.514
X205.964Y-60.289
X206.299Y-129.205
X207.046Y-61.453
X207.435Y-152.559
X209.067Y-55.245
X209.093Y-78.562
X209.144Y-69.101
X209.768Y-72.512
X210.058Y-68.313
X211.079Y-148.118
X211.353Y-183.383
X211.899Y-66.865
X211.912Y-55.601
X212.197Y-114.459
X213.36Y-81.813
X213.929Y-157.856
X214.173Y-68.174
X215.252Y-58.331
X216.662Y-188.062
X217.018Y-162.834
X217.665Y-61.354
X218.135Y-122.403
X219.423Y-84.204
X219.583Y-124.612
X219.837Y-92.964
X220.411Y-167.193
X221.729Y-59.22
X222.047Y-60.795
X223.063Y-164.16
X223.429Y-118.501
X223.835Y-124.612
X224.028Y-120.015
X225.237Y-129.408
X225.328Y-143.815
X225.74Y-62.845
X226.485Y-152.559
X226.959Y-177.208
X227.762Y-70.079
X227.813Y-68.809
X228.006Y-93.838
X228.864Y-105.603
X229.362Y-196.215
X229.794Y-70.993
X230.078Y-148.402
X230.49Y-143.784
X231.064Y-64.287
X231.248Y-114.459
X231.864Y-138.773
X231.877Y-78.664
X232.461Y-75.235
X232.771Y-157.813
X233.281Y-84.267
X234.254Y-105.694
X234.645Y-80.01
X235.102Y-78.985
X235.407Y-88.844
X235.509Y-72.466
X235.89Y-57.76
X235.941Y-80.289
X236.01Y-171.609
X237.109Y-122.822
X239.512Y-167.584
X240.167Y-188.128
X240.441Y-82.108
X240.772Y-133.509
X242.326Y-58.918
X243.114Y-118.318
X243.881Y-58.933
X244.094Y-119.761
X244.236Y-129.51
X244.983Y-200.025
X245.535Y-152.559
X246.685Y-81.724
X247.401Y-198.44
X248.209Y-55.499
X248.615Y-77.165
X249.169Y-148.443
X250.297Y-114.459
X253.299Y-157.856
X254.061Y-89.083
X255.295Y-80.518
X256.134Y-122.466
X260.121Y-53.975
X261.203Y-58.08
X261.224Y-59.781
X262.352Y-58.08
X262.387Y-59.802
X262.438Y-117.81
X262.763Y-120.65
X263.317Y-129.195
X264.282Y-188.001
X264.585Y-152.559
X264.846Y-67.066
X265.039Y-64.196
X265.709Y-81.737
X267.284Y-56.972
X269.347Y-114.459
X273.035Y-89.002
X274.625Y-80.366
X275.234Y-122.517
X275.336Y-167.442
X280.06Y-148.204
X283.185Y-157.726
X284.81Y-81.775
X285.369Y-75.463
X286.004Y-70.231
X287.172Y-129.276
X287.894Y-188.067
X288.544Y-119.761
X291.308Y-68.504
X291.333Y-72.487
X292.003Y-89.007
X292.73Y-72.598
X292.852Y-68.544
X293.705Y-79.04
X293.817Y-72.583
X294.386Y-120.132
X295.541Y-152.559
X296.824Y-198.516
X297.923Y-114.459
X298.755Y-76.251
X299.136Y-122.276
X302.971Y-171.45
X303.373Y-144.597
X303.809Y-81.686
X304.8Y-181.813
X304.927Y-190.449
X305.511Y-107.023
X306.72Y-124.597
X306.972Y-133.401
X307.447Y-93.027
X309.105Y-84.29
X311.33Y-146.812
X311.503Y-115.31
X312.801Y-95.25
X314.432Y-139.228
X314.681Y-137.643
X315.148Y-182.098
X315.58Y-124.714
X316.128Y-196.164
X316.23Y-107.023
X317.251Y-186.533
X317.271Y-84.252
X317.419Y-89.002
X317.47Y-110.368
X319.136Y-77.613
X324.536Y-69.329
X327.612Y-136.67
X329.011Y-69.322
X329.311Y-122.593
X330.246Y-198.415
X330.759Y-55.524
X332.562Y-82.41
X332.847Y-114.459
X332.847Y-133.509
X332.918Y-172.06
X336.311Y-89.088
X336.408Y-110.46
X336.453Y-129.037
X336.525Y-186.568
X336.53Y-167.33
X337.866Y-76.449
X342.773Y-54.051
X343.634Y-69.395
X348.221Y-122.047
X348.605Y-69.317
X351.897Y-114.459
X352.692Y-82.233
X354.94Y-60.147
X355.529Y-110.353
X355.539Y-89.007
X355.57Y-186.593
X355.595Y-129.418
X357.139Y-74.549
X362.75Y-69.278
X367.335Y-122.479
X367.767Y-100.279
X368.196Y-69.352
X368.681Y-56.794
X372.669Y-82.283
X373.822Y-107.701
X373.827Y-116.667
X373.837Y-84.226
X375.402Y-110.226
X376.58Y-96.85
X220.558Y-56.346
X220.558Y-57.696
X221.408Y-56.346
X221.408Y-57.696
X222.258Y-56.346
X222.258Y-57.696
X223.108Y-56.346
X223.108Y-57.696
X223.958Y-56.346
X223.958Y-57.696
X224.808Y-56.346
X224.808Y-57.696
X225.658Y-56.346
X225.658Y-57.696
X226.508Y-56.346
X226.508Y-57.696
X116.287Y-56.34
X116.287Y-57.69
X117.137Y-56.34
X117.137Y-57.69
X117.987Y-56.34
X117.987Y-57.69
X118.837Y-56.34
X118.837Y-57.69
X119.688Y-56.34
X119.688Y-57.69
X120.537Y-56.34
X120.537Y-57.69
X121.387Y-56.34
X121.387Y-57.69
X122.237Y-56.34
X122.237Y-57.69
X97.237Y-56.34
X97.237Y-57.69
X98.087Y-56.34
X98.087Y-57.69
X98.938Y-56.34
X98.938Y-57.69
X99.787Y-56.34
X99.787Y-57.69
X100.637Y-56.34
X100.637Y-57.69
X101.487Y-56.34
X101.487Y-57.69
X102.337Y-56.34
X102.337Y-57.69
X103.188Y-56.34
X103.188Y-57.69
X135.338Y-56.34
X135.338Y-57.69
X136.188Y-56.34
X136.188Y-57.69
X137.037Y-56.34
X137.037Y-57.69
X137.887Y-56.34
X137.887Y-57.69
X138.737Y-56.34
X138.737Y-57.69
X139.588Y-56.34
X139.588Y-57.69
X140.438Y-56.34
X140.438Y-57.69
X141.287Y-56.34
X141.287Y-57.69
T2
X21.445Y-144.978
X21.463Y-171.338
X21.468Y-94.955
X21.476Y-133.289
X22.926Y-144.821
X22.962Y-182.87
X22.972Y-106.761
X22.977Y-174.318
X24.971Y-87.234
X29.053Y-105.542
X29.53Y-104.038
X31.14Y-114.275
X31.43Y-181.798
X31.907Y-180.116
X33.35Y-124.333
X36.165Y-143.673
X36.561Y-142.052
X37.592Y-85.496
X37.922Y-151.79
X40.919Y-162.763
X42.357Y-126.172
X48.077Y-105.613
X48.438Y-103.922
X48.971Y-160.604
X49.657Y-163.739
X55.245Y-181.778
X55.692Y-180.249
X62.362Y-143.627
X62.88Y-142.067
X66.182Y-126.167
X66.345Y-85.623
X67.305Y-105.557
X67.33Y-55.538
X67.65Y-104.023
X79.024Y-181.722
X79.466Y-180.243
X79.985Y-160.655
X80.543Y-163.855
X81.478Y-143.708
X81.864Y-142.123
X83.05Y-199.977
X85.004Y-126.162
X85.242Y-85.661
X86.121Y-105.583
X86.655Y-103.972
X94.905Y-198.481
X99.136Y-160.68
X99.558Y-163.637
X100.518Y-143.698
X100.863Y-142.077
X104.318Y-85.369
X104.46Y-125.842
X105.197Y-105.527
X105.725Y-103.993
X112.415Y-181.798
X112.867Y-180.122
X118.11Y-160.655
X118.709Y-163.866
X119.543Y-143.728
X119.979Y-142.143
X123.33Y-85.42
X123.546Y-125.842
X124.389Y-105.639
X124.678Y-103.932
X137.211Y-160.604
X137.698Y-163.744
X138.689Y-143.708
X139.101Y-142.088
X142.657Y-125.659
X143.347Y-105.517
X143.835Y-103.947
X150.466Y-181.813
X150.906Y-180.213
X154.432Y-200.02
X156.21Y-160.553
X156.781Y-85.369
X156.789Y-163.759
X157.582Y-143.734
X158.13Y-141.92
X161.641Y-125.71
X162.326Y-105.562
X162.768Y-103.947
X166.279Y-198.465
X169.819Y-54.14
X175.209Y-160.655
X175.783Y-163.617
X175.832Y-85.433
X176.865Y-143.54
X177.109Y-142.001
X180.645Y-125.872
X181.397Y-105.598
X181.879Y-103.972
X188.605Y-181.767
X188.966Y-180.238
X194.234Y-160.757
X194.869Y-163.784
X194.996Y-85.446
X195.651Y-143.708
X196.2Y-142.113
X199.771Y-125.73
X200.431Y-105.578
X200.884Y-103.998
X213.335Y-160.655
X213.924Y-163.718
X214.046Y-85.293
X214.671Y-143.683
X215.062Y-142.052
X218.618Y-125.669
X219.563Y-105.567
X219.888Y-103.962
X221.971Y-181.773
X222.397Y-180.198
X232.41Y-160.604
X232.943Y-163.601
X233.863Y-143.693
X234.279Y-142.047
X237.607Y-125.669
X238.557Y-105.527
X238.938Y-103.922
X245.73Y-181.712
X246.207Y-180.203
X247.269Y-85.382
X251.409Y-160.833
X252.029Y-163.667
X252.766Y-143.688
X253.37Y-141.986
X256.662Y-198.491
X256.743Y-125.623
X257.637Y-105.598
X258.084Y-103.911
X266.268Y-85.344
X269.53Y-181.737
X270.058Y-180.243
X275.814Y-125.598
X283.865Y-143.571
X284.246Y-142.047
X285.331Y-85.293
X286.121Y-105.598
X286.68Y-103.952
X287.223Y-160.553
X287.807Y-163.769
X293.299Y-181.707
X293.665Y-180.208
X297.383Y-164.211
X299.629Y-125.816
X304.508Y-85.306
X321.127Y-181.808
X321.137Y-105.608
X321.564Y-180.147
X321.569Y-103.972
X327.652Y-199.456
X329.712Y-125.598
X329.882Y-85.255
X333.096Y-164.363
X339.476Y-198.501
X339.999Y-105.613
X340.203Y-181.813
X340.512Y-103.876
X340.604Y-180.188
X348.234Y-160.503
X348.849Y-163.81
X348.869Y-85.192
X348.879Y-125.628
X358.496Y-139.09
X359.354Y-105.639
X359.374Y-181.839
X359.72Y-103.967
X359.73Y-180.127
X361.493Y-163.424
X366.776Y-177.368
X367.957Y-85.28
X367.979Y-125.638
X368.021Y-124.562
X373.873Y-98.024
X373.903Y-144.729
X373.944Y-174.107
X374.081Y-136.114
X375.407Y-148.052
X375.417Y-185.938
X375.463Y-173.893
T5
X41.463Y-53.467
X44.003Y-53.467
X46.543Y-53.467
X49.083Y-53.467
X237.322Y-67.02
X239.862Y-67.02
X242.402Y-67.02
X363.3Y-81.756
X363.3Y-96.256
X365.8Y-81.756
X368.3Y-81.756
X368.3Y-96.256
X344.25Y-81.756
X344.25Y-96.256
X346.75Y-81.756
X349.25Y-81.756
X349.25Y-96.256
X325.2Y-81.756
X325.2Y-96.256
X327.7Y-81.756
X330.2Y-81.756
X330.2Y-96.256
T7
X22.225Y-121.444
X374.65Y-199.231
X184.944Y-138.906
X138.112Y-199.231
X88.9Y-138.906
X284.937Y-199.231
X22.225Y-54.769
X22.225Y-199.231
X374.65Y-121.444
X309.562Y-137.319
X85.725Y-54.769
X297.656Y-54.769
X150.812Y-54.769
X374.65Y-54.813
T3
G00X219.208Y-53.736
M15
G01X219.208Y-52.936
M16
G05
G00X219.208Y-57.466
M15
G01X219.208Y-55.966
M16
G05
G00X227.858Y-53.736
M15
G01X227.858Y-52.936
M16
G05
G00X227.858Y-57.466
M15
G01X227.858Y-55.966
M16
G05
G00X114.938Y-53.73
M15
G01X114.938Y-52.93
M16
G05
G00X114.938Y-57.46
M15
G01X114.938Y-55.96
M16
G05
G00X123.587Y-53.73
M15
G01X123.587Y-52.93
M16
G05
G00X123.587Y-57.46
M15
G01X123.587Y-55.96
M16
G05
G00X95.887Y-53.73
M15
G01X95.887Y-52.93
M16
G05
G00X95.887Y-57.46
M15
G01X95.887Y-55.96
M16
G05
G00X104.537Y-53.73
M15
G01X104.537Y-52.93
M16
G05
G00X104.537Y-57.46
M15
G01X104.537Y-55.96
M16
G05
G00X133.987Y-53.73
M15
G01X133.987Y-52.93
M16
G05
G00X133.987Y-57.46
M15
G01X133.987Y-55.96
M16
G05
G00X142.637Y-53.73
M15
G01X142.637Y-52.93
M16
G05
G00X142.637Y-57.46
M15
G01X142.637Y-55.96
M16
G05
T4
G00X271.963Y-61.681
M15
G01X271.963Y-63.881
M16
G05
G00X277.863Y-59.981
M15
G01X275.663Y-59.981
M16
G05
G00X278.063Y-65.781
M15
G01X275.463Y-65.781
M16
G05
T6
G00X360.2Y-88.606
M15
G01X360.2Y-89.906
M16
G05
G00X371.4Y-88.606
M15
G01X371.4Y-89.906
M16
G05
G00X341.15Y-88.606
M15
G01X341.15Y-89.906
M16
G05
G00X352.35Y-88.606
M15
G01X352.35Y-89.906
M16
G05
G00X322.1Y-88.606
M15
G01X322.1Y-89.906
M16
G05
G00X333.3Y-88.606
M15
G01X333.3Y-89.906
M16
G05
T0
M30
