%TF.GenerationSoftware,KiCad,Pcbnew,(5.1.8)-1*%
%TF.CreationDate,2022-08-08T12:33:42+10:00*%
%TF.ProjectId,tkl_keyboard,746b6c5f-6b65-4796-926f-6172642e6b69,rev?*%
%TF.SameCoordinates,Original*%
%TF.FileFunction,Soldermask,Bot*%
%TF.FilePolarity,Negative*%
%FSLAX46Y46*%
G04 Gerber Fmt 4.6, Leading zero omitted, Abs format (unit mm)*
G04 Created by KiCad (PCBNEW (5.1.8)-1) date 2022-08-08 12:33:42*
%MOMM*%
%LPD*%
G01*
G04 APERTURE LIST*
%ADD10R,1.800000X0.820000*%
%ADD11R,1.000000X1.000000*%
%ADD12C,5.700000*%
%ADD13O,1.700000X1.700000*%
%ADD14R,1.700000X1.700000*%
%ADD15R,4.400000X1.800000*%
%ADD16O,4.000000X1.800000*%
%ADD17O,1.800000X4.000000*%
%ADD18O,0.900000X1.700000*%
%ADD19O,0.900000X2.400000*%
%ADD20C,0.700000*%
%ADD21R,2.550000X2.500000*%
%ADD22C,3.000000*%
%ADD23C,1.750000*%
%ADD24C,4.000000*%
%ADD25C,3.050000*%
%ADD26C,2.000000*%
%ADD27R,2.000000X3.200000*%
%ADD28R,2.000000X2.000000*%
%ADD29C,1.000000*%
%ADD30C,0.100000*%
G04 APERTURE END LIST*
%TO.C,U8*%
G36*
G01*
X287378000Y-74398000D02*
X287678000Y-74398000D01*
G75*
G02*
X287828000Y-74548000I0J-150000D01*
G01*
X287828000Y-76198000D01*
G75*
G02*
X287678000Y-76348000I-150000J0D01*
G01*
X287378000Y-76348000D01*
G75*
G02*
X287228000Y-76198000I0J150000D01*
G01*
X287228000Y-74548000D01*
G75*
G02*
X287378000Y-74398000I150000J0D01*
G01*
G37*
G36*
G01*
X288648000Y-74398000D02*
X288948000Y-74398000D01*
G75*
G02*
X289098000Y-74548000I0J-150000D01*
G01*
X289098000Y-76198000D01*
G75*
G02*
X288948000Y-76348000I-150000J0D01*
G01*
X288648000Y-76348000D01*
G75*
G02*
X288498000Y-76198000I0J150000D01*
G01*
X288498000Y-74548000D01*
G75*
G02*
X288648000Y-74398000I150000J0D01*
G01*
G37*
G36*
G01*
X289918000Y-74398000D02*
X290218000Y-74398000D01*
G75*
G02*
X290368000Y-74548000I0J-150000D01*
G01*
X290368000Y-76198000D01*
G75*
G02*
X290218000Y-76348000I-150000J0D01*
G01*
X289918000Y-76348000D01*
G75*
G02*
X289768000Y-76198000I0J150000D01*
G01*
X289768000Y-74548000D01*
G75*
G02*
X289918000Y-74398000I150000J0D01*
G01*
G37*
G36*
G01*
X291188000Y-74398000D02*
X291488000Y-74398000D01*
G75*
G02*
X291638000Y-74548000I0J-150000D01*
G01*
X291638000Y-76198000D01*
G75*
G02*
X291488000Y-76348000I-150000J0D01*
G01*
X291188000Y-76348000D01*
G75*
G02*
X291038000Y-76198000I0J150000D01*
G01*
X291038000Y-74548000D01*
G75*
G02*
X291188000Y-74398000I150000J0D01*
G01*
G37*
G36*
G01*
X292458000Y-74398000D02*
X292758000Y-74398000D01*
G75*
G02*
X292908000Y-74548000I0J-150000D01*
G01*
X292908000Y-76198000D01*
G75*
G02*
X292758000Y-76348000I-150000J0D01*
G01*
X292458000Y-76348000D01*
G75*
G02*
X292308000Y-76198000I0J150000D01*
G01*
X292308000Y-74548000D01*
G75*
G02*
X292458000Y-74398000I150000J0D01*
G01*
G37*
G36*
G01*
X293728000Y-74398000D02*
X294028000Y-74398000D01*
G75*
G02*
X294178000Y-74548000I0J-150000D01*
G01*
X294178000Y-76198000D01*
G75*
G02*
X294028000Y-76348000I-150000J0D01*
G01*
X293728000Y-76348000D01*
G75*
G02*
X293578000Y-76198000I0J150000D01*
G01*
X293578000Y-74548000D01*
G75*
G02*
X293728000Y-74398000I150000J0D01*
G01*
G37*
G36*
G01*
X294998000Y-74398000D02*
X295298000Y-74398000D01*
G75*
G02*
X295448000Y-74548000I0J-150000D01*
G01*
X295448000Y-76198000D01*
G75*
G02*
X295298000Y-76348000I-150000J0D01*
G01*
X294998000Y-76348000D01*
G75*
G02*
X294848000Y-76198000I0J150000D01*
G01*
X294848000Y-74548000D01*
G75*
G02*
X294998000Y-74398000I150000J0D01*
G01*
G37*
G36*
G01*
X296268000Y-74398000D02*
X296568000Y-74398000D01*
G75*
G02*
X296718000Y-74548000I0J-150000D01*
G01*
X296718000Y-76198000D01*
G75*
G02*
X296568000Y-76348000I-150000J0D01*
G01*
X296268000Y-76348000D01*
G75*
G02*
X296118000Y-76198000I0J150000D01*
G01*
X296118000Y-74548000D01*
G75*
G02*
X296268000Y-74398000I150000J0D01*
G01*
G37*
G36*
G01*
X296268000Y-69448000D02*
X296568000Y-69448000D01*
G75*
G02*
X296718000Y-69598000I0J-150000D01*
G01*
X296718000Y-71248000D01*
G75*
G02*
X296568000Y-71398000I-150000J0D01*
G01*
X296268000Y-71398000D01*
G75*
G02*
X296118000Y-71248000I0J150000D01*
G01*
X296118000Y-69598000D01*
G75*
G02*
X296268000Y-69448000I150000J0D01*
G01*
G37*
G36*
G01*
X294998000Y-69448000D02*
X295298000Y-69448000D01*
G75*
G02*
X295448000Y-69598000I0J-150000D01*
G01*
X295448000Y-71248000D01*
G75*
G02*
X295298000Y-71398000I-150000J0D01*
G01*
X294998000Y-71398000D01*
G75*
G02*
X294848000Y-71248000I0J150000D01*
G01*
X294848000Y-69598000D01*
G75*
G02*
X294998000Y-69448000I150000J0D01*
G01*
G37*
G36*
G01*
X293728000Y-69448000D02*
X294028000Y-69448000D01*
G75*
G02*
X294178000Y-69598000I0J-150000D01*
G01*
X294178000Y-71248000D01*
G75*
G02*
X294028000Y-71398000I-150000J0D01*
G01*
X293728000Y-71398000D01*
G75*
G02*
X293578000Y-71248000I0J150000D01*
G01*
X293578000Y-69598000D01*
G75*
G02*
X293728000Y-69448000I150000J0D01*
G01*
G37*
G36*
G01*
X292458000Y-69448000D02*
X292758000Y-69448000D01*
G75*
G02*
X292908000Y-69598000I0J-150000D01*
G01*
X292908000Y-71248000D01*
G75*
G02*
X292758000Y-71398000I-150000J0D01*
G01*
X292458000Y-71398000D01*
G75*
G02*
X292308000Y-71248000I0J150000D01*
G01*
X292308000Y-69598000D01*
G75*
G02*
X292458000Y-69448000I150000J0D01*
G01*
G37*
G36*
G01*
X291188000Y-69448000D02*
X291488000Y-69448000D01*
G75*
G02*
X291638000Y-69598000I0J-150000D01*
G01*
X291638000Y-71248000D01*
G75*
G02*
X291488000Y-71398000I-150000J0D01*
G01*
X291188000Y-71398000D01*
G75*
G02*
X291038000Y-71248000I0J150000D01*
G01*
X291038000Y-69598000D01*
G75*
G02*
X291188000Y-69448000I150000J0D01*
G01*
G37*
G36*
G01*
X289918000Y-69448000D02*
X290218000Y-69448000D01*
G75*
G02*
X290368000Y-69598000I0J-150000D01*
G01*
X290368000Y-71248000D01*
G75*
G02*
X290218000Y-71398000I-150000J0D01*
G01*
X289918000Y-71398000D01*
G75*
G02*
X289768000Y-71248000I0J150000D01*
G01*
X289768000Y-69598000D01*
G75*
G02*
X289918000Y-69448000I150000J0D01*
G01*
G37*
G36*
G01*
X288648000Y-69448000D02*
X288948000Y-69448000D01*
G75*
G02*
X289098000Y-69598000I0J-150000D01*
G01*
X289098000Y-71248000D01*
G75*
G02*
X288948000Y-71398000I-150000J0D01*
G01*
X288648000Y-71398000D01*
G75*
G02*
X288498000Y-71248000I0J150000D01*
G01*
X288498000Y-69598000D01*
G75*
G02*
X288648000Y-69448000I150000J0D01*
G01*
G37*
G36*
G01*
X287378000Y-69448000D02*
X287678000Y-69448000D01*
G75*
G02*
X287828000Y-69598000I0J-150000D01*
G01*
X287828000Y-71248000D01*
G75*
G02*
X287678000Y-71398000I-150000J0D01*
G01*
X287378000Y-71398000D01*
G75*
G02*
X287228000Y-71248000I0J150000D01*
G01*
X287228000Y-69598000D01*
G75*
G02*
X287378000Y-69448000I150000J0D01*
G01*
G37*
%TD*%
D10*
%TO.C,D193*%
X322837500Y-126162500D03*
X322837500Y-124662500D03*
X328037500Y-124662500D03*
X328037500Y-126162500D03*
%TD*%
%TO.C,D191*%
X366137500Y-181812500D03*
X366137500Y-183312500D03*
X360937500Y-183312500D03*
X360937500Y-181812500D03*
%TD*%
%TO.C,D190*%
X360937500Y-126162500D03*
X360937500Y-124662500D03*
X366137500Y-124662500D03*
X366137500Y-126162500D03*
%TD*%
%TO.C,D189*%
X360937500Y-85681250D03*
X360937500Y-84181250D03*
X366137500Y-84181250D03*
X366137500Y-85681250D03*
%TD*%
%TO.C,D188*%
X347087500Y-181812500D03*
X347087500Y-183312500D03*
X341887500Y-183312500D03*
X341887500Y-181812500D03*
%TD*%
%TO.C,D187*%
X341887500Y-164262500D03*
X341887500Y-162762500D03*
X347087500Y-162762500D03*
X347087500Y-164262500D03*
%TD*%
%TO.C,D186*%
X341887500Y-126162500D03*
X341887500Y-124662500D03*
X347087500Y-124662500D03*
X347087500Y-126162500D03*
%TD*%
%TO.C,D185*%
X341887500Y-85681250D03*
X341887500Y-84181250D03*
X347087500Y-84181250D03*
X347087500Y-85681250D03*
%TD*%
%TO.C,D184*%
X328037500Y-181812500D03*
X328037500Y-183312500D03*
X322837500Y-183312500D03*
X322837500Y-181812500D03*
%TD*%
%TO.C,D183*%
X328037500Y-105612500D03*
X328037500Y-107112500D03*
X322837500Y-107112500D03*
X322837500Y-105612500D03*
%TD*%
%TO.C,D182*%
X292675000Y-126162500D03*
X292675000Y-124662500D03*
X297875000Y-124662500D03*
X297875000Y-126162500D03*
%TD*%
%TO.C,D181*%
X322837500Y-85681250D03*
X322837500Y-84181250D03*
X328037500Y-84181250D03*
X328037500Y-85681250D03*
%TD*%
%TO.C,D179*%
X300256250Y-181812500D03*
X300256250Y-183312500D03*
X295056250Y-183312500D03*
X295056250Y-181812500D03*
%TD*%
%TO.C,D178*%
X290731250Y-143712500D03*
X290731250Y-145212500D03*
X285531250Y-145212500D03*
X285531250Y-143712500D03*
%TD*%
%TO.C,D177*%
X280768750Y-164262500D03*
X280768750Y-162762500D03*
X285968750Y-162762500D03*
X285968750Y-164262500D03*
%TD*%
%TO.C,D176*%
X268862500Y-126162500D03*
X268862500Y-124662500D03*
X274062500Y-124662500D03*
X274062500Y-126162500D03*
%TD*%
%TO.C,D175*%
X297437500Y-85681250D03*
X297437500Y-84181250D03*
X302637500Y-84181250D03*
X302637500Y-85681250D03*
%TD*%
%TO.C,D173*%
X276443750Y-181812500D03*
X276443750Y-183312500D03*
X271243750Y-183312500D03*
X271243750Y-181812500D03*
%TD*%
%TO.C,D172*%
X259775000Y-143712500D03*
X259775000Y-145212500D03*
X254575000Y-145212500D03*
X254575000Y-143712500D03*
%TD*%
%TO.C,D171*%
X245487500Y-105612500D03*
X245487500Y-107112500D03*
X240287500Y-107112500D03*
X240287500Y-105612500D03*
%TD*%
%TO.C,D170*%
X245050000Y-164262500D03*
X245050000Y-162762500D03*
X250250000Y-162762500D03*
X250250000Y-164262500D03*
%TD*%
%TO.C,D169*%
X249812500Y-126162500D03*
X249812500Y-124662500D03*
X255012500Y-124662500D03*
X255012500Y-126162500D03*
%TD*%
%TO.C,D168*%
X278387500Y-85681250D03*
X278387500Y-84181250D03*
X283587500Y-84181250D03*
X283587500Y-85681250D03*
%TD*%
%TO.C,D166*%
X252631250Y-181812500D03*
X252631250Y-183312500D03*
X247431250Y-183312500D03*
X247431250Y-181812500D03*
%TD*%
%TO.C,D165*%
X240725000Y-143712500D03*
X240725000Y-145212500D03*
X235525000Y-145212500D03*
X235525000Y-143712500D03*
%TD*%
%TO.C,D164*%
X226437500Y-105612500D03*
X226437500Y-107112500D03*
X221237500Y-107112500D03*
X221237500Y-105612500D03*
%TD*%
%TO.C,D163*%
X226000000Y-164262500D03*
X226000000Y-162762500D03*
X231200000Y-162762500D03*
X231200000Y-164262500D03*
%TD*%
%TO.C,D162*%
X230762500Y-126162500D03*
X230762500Y-124662500D03*
X235962500Y-124662500D03*
X235962500Y-126162500D03*
%TD*%
%TO.C,D161*%
X259337500Y-85681250D03*
X259337500Y-84181250D03*
X264537500Y-84181250D03*
X264537500Y-85681250D03*
%TD*%
%TO.C,D159*%
X228818750Y-181812500D03*
X228818750Y-183312500D03*
X223618750Y-183312500D03*
X223618750Y-181812500D03*
%TD*%
%TO.C,D158*%
X221675000Y-143712500D03*
X221675000Y-145212500D03*
X216475000Y-145212500D03*
X216475000Y-143712500D03*
%TD*%
%TO.C,D157*%
X207387500Y-105612500D03*
X207387500Y-107112500D03*
X202187500Y-107112500D03*
X202187500Y-105612500D03*
%TD*%
%TO.C,D156*%
X206950000Y-164262500D03*
X206950000Y-162762500D03*
X212150000Y-162762500D03*
X212150000Y-164262500D03*
%TD*%
%TO.C,D155*%
X211712500Y-126162500D03*
X211712500Y-124662500D03*
X216912500Y-124662500D03*
X216912500Y-126162500D03*
%TD*%
%TO.C,D154*%
X240287500Y-85681250D03*
X240287500Y-84181250D03*
X245487500Y-84181250D03*
X245487500Y-85681250D03*
%TD*%
%TO.C,D153*%
X195481250Y-181812500D03*
X195481250Y-183312500D03*
X190281250Y-183312500D03*
X190281250Y-181812500D03*
%TD*%
%TO.C,D152*%
X202625000Y-143712500D03*
X202625000Y-145212500D03*
X197425000Y-145212500D03*
X197425000Y-143712500D03*
%TD*%
%TO.C,D151*%
X188337500Y-105612500D03*
X188337500Y-107112500D03*
X183137500Y-107112500D03*
X183137500Y-105612500D03*
%TD*%
%TO.C,D150*%
X187900000Y-164262500D03*
X187900000Y-162762500D03*
X193100000Y-162762500D03*
X193100000Y-164262500D03*
%TD*%
%TO.C,D149*%
X192662500Y-126162500D03*
X192662500Y-124662500D03*
X197862500Y-124662500D03*
X197862500Y-126162500D03*
%TD*%
%TO.C,D148*%
X206950000Y-85681250D03*
X206950000Y-84181250D03*
X212150000Y-84181250D03*
X212150000Y-85681250D03*
%TD*%
%TO.C,D147*%
X183575000Y-143712500D03*
X183575000Y-145212500D03*
X178375000Y-145212500D03*
X178375000Y-143712500D03*
%TD*%
%TO.C,D146*%
X169287500Y-105612500D03*
X169287500Y-107112500D03*
X164087500Y-107112500D03*
X164087500Y-105612500D03*
%TD*%
%TO.C,D145*%
X168850000Y-164262500D03*
X168850000Y-162762500D03*
X174050000Y-162762500D03*
X174050000Y-164262500D03*
%TD*%
%TO.C,D144*%
X173612500Y-126162500D03*
X173612500Y-124662500D03*
X178812500Y-124662500D03*
X178812500Y-126162500D03*
%TD*%
%TO.C,D143*%
X187900000Y-85681250D03*
X187900000Y-84181250D03*
X193100000Y-84181250D03*
X193100000Y-85681250D03*
%TD*%
%TO.C,D142*%
X157381250Y-181812500D03*
X157381250Y-183312500D03*
X152181250Y-183312500D03*
X152181250Y-181812500D03*
%TD*%
%TO.C,D141*%
X164525000Y-143712500D03*
X164525000Y-145212500D03*
X159325000Y-145212500D03*
X159325000Y-143712500D03*
%TD*%
%TO.C,D140*%
X150237500Y-105612500D03*
X150237500Y-107112500D03*
X145037500Y-107112500D03*
X145037500Y-105612500D03*
%TD*%
%TO.C,D139*%
X149800000Y-164262500D03*
X149800000Y-162762500D03*
X155000000Y-162762500D03*
X155000000Y-164262500D03*
%TD*%
%TO.C,D138*%
X154562500Y-126162500D03*
X154562500Y-124662500D03*
X159762500Y-124662500D03*
X159762500Y-126162500D03*
%TD*%
%TO.C,D137*%
X168850000Y-85681250D03*
X168850000Y-84181250D03*
X174050000Y-84181250D03*
X174050000Y-85681250D03*
%TD*%
%TO.C,D136*%
X145475000Y-143712500D03*
X145475000Y-145212500D03*
X140275000Y-145212500D03*
X140275000Y-143712500D03*
%TD*%
%TO.C,D135*%
X131187500Y-105612500D03*
X131187500Y-107112500D03*
X125987500Y-107112500D03*
X125987500Y-105612500D03*
%TD*%
%TO.C,D134*%
X130750000Y-164262500D03*
X130750000Y-162762500D03*
X135950000Y-162762500D03*
X135950000Y-164262500D03*
%TD*%
%TO.C,D133*%
X135512500Y-126162500D03*
X135512500Y-124662500D03*
X140712500Y-124662500D03*
X140712500Y-126162500D03*
%TD*%
%TO.C,D132*%
X149800000Y-85681250D03*
X149800000Y-84181250D03*
X155000000Y-84181250D03*
X155000000Y-85681250D03*
%TD*%
%TO.C,D131*%
X119281250Y-181812500D03*
X119281250Y-183312500D03*
X114081250Y-183312500D03*
X114081250Y-181812500D03*
%TD*%
%TO.C,D130*%
X126425000Y-143712500D03*
X126425000Y-145212500D03*
X121225000Y-145212500D03*
X121225000Y-143712500D03*
%TD*%
%TO.C,D129*%
X112137500Y-105612500D03*
X112137500Y-107112500D03*
X106937500Y-107112500D03*
X106937500Y-105612500D03*
%TD*%
%TO.C,D128*%
X111700000Y-164262500D03*
X111700000Y-162762500D03*
X116900000Y-162762500D03*
X116900000Y-164262500D03*
%TD*%
%TO.C,D127*%
X116462500Y-126162500D03*
X116462500Y-124662500D03*
X121662500Y-124662500D03*
X121662500Y-126162500D03*
%TD*%
%TO.C,D126*%
X116462500Y-85681250D03*
X116462500Y-84181250D03*
X121662500Y-84181250D03*
X121662500Y-85681250D03*
%TD*%
%TO.C,D125*%
X107375000Y-143712500D03*
X107375000Y-145212500D03*
X102175000Y-145212500D03*
X102175000Y-143712500D03*
%TD*%
%TO.C,D124*%
X93087500Y-105612500D03*
X93087500Y-107112500D03*
X87887500Y-107112500D03*
X87887500Y-105612500D03*
%TD*%
%TO.C,D123*%
X92650000Y-164262500D03*
X92650000Y-162762500D03*
X97850000Y-162762500D03*
X97850000Y-164262500D03*
%TD*%
%TO.C,D122*%
X97412500Y-126162500D03*
X97412500Y-124662500D03*
X102612500Y-124662500D03*
X102612500Y-126162500D03*
%TD*%
%TO.C,D121*%
X85943750Y-181812500D03*
X85943750Y-183312500D03*
X80743750Y-183312500D03*
X80743750Y-181812500D03*
%TD*%
%TO.C,D120*%
X88325000Y-143712500D03*
X88325000Y-145212500D03*
X83125000Y-145212500D03*
X83125000Y-143712500D03*
%TD*%
%TO.C,D27*%
X74037500Y-105612500D03*
X74037500Y-107112500D03*
X68837500Y-107112500D03*
X68837500Y-105612500D03*
%TD*%
%TO.C,D26*%
X366137500Y-105612500D03*
X366137500Y-107112500D03*
X360937500Y-107112500D03*
X360937500Y-105612500D03*
%TD*%
%TO.C,D25*%
X73600000Y-164262500D03*
X73600000Y-162762500D03*
X78800000Y-162762500D03*
X78800000Y-164262500D03*
%TD*%
%TO.C,D24*%
X78362500Y-126162500D03*
X78362500Y-124662500D03*
X83562500Y-124662500D03*
X83562500Y-126162500D03*
%TD*%
%TO.C,D23*%
X97412500Y-85681250D03*
X97412500Y-84181250D03*
X102612500Y-84181250D03*
X102612500Y-85681250D03*
%TD*%
%TO.C,D20*%
X69275000Y-143712500D03*
X69275000Y-145212500D03*
X64075000Y-145212500D03*
X64075000Y-143712500D03*
%TD*%
%TO.C,D19*%
X347087500Y-105612500D03*
X347087500Y-107112500D03*
X341887500Y-107112500D03*
X341887500Y-105612500D03*
%TD*%
%TO.C,D18*%
X54987500Y-105612500D03*
X54987500Y-107112500D03*
X49787500Y-107112500D03*
X49787500Y-105612500D03*
%TD*%
%TO.C,D17*%
X62131250Y-181812500D03*
X62131250Y-183312500D03*
X56931250Y-183312500D03*
X56931250Y-181812500D03*
%TD*%
%TO.C,D16*%
X78362500Y-85681250D03*
X78362500Y-84181250D03*
X83562500Y-84181250D03*
X83562500Y-85681250D03*
%TD*%
%TO.C,D13*%
X59312500Y-126162500D03*
X59312500Y-124662500D03*
X64512500Y-124662500D03*
X64512500Y-126162500D03*
%TD*%
%TO.C,D12*%
X293112500Y-105612500D03*
X293112500Y-107112500D03*
X287912500Y-107112500D03*
X287912500Y-105612500D03*
%TD*%
%TO.C,D11*%
X38318750Y-181812500D03*
X38318750Y-183312500D03*
X33118750Y-183312500D03*
X33118750Y-181812500D03*
%TD*%
%TO.C,D10*%
X43081250Y-143712500D03*
X43081250Y-145212500D03*
X37881250Y-145212500D03*
X37881250Y-143712500D03*
%TD*%
%TO.C,D9*%
X59312500Y-85681250D03*
X59312500Y-84181250D03*
X64512500Y-84181250D03*
X64512500Y-85681250D03*
%TD*%
%TO.C,D7*%
X35937500Y-105612500D03*
X35937500Y-107112500D03*
X30737500Y-107112500D03*
X30737500Y-105612500D03*
%TD*%
%TO.C,D6*%
X264537500Y-105612500D03*
X264537500Y-107112500D03*
X259337500Y-107112500D03*
X259337500Y-105612500D03*
%TD*%
%TO.C,D5*%
X42643750Y-164262500D03*
X42643750Y-162762500D03*
X47843750Y-162762500D03*
X47843750Y-164262500D03*
%TD*%
%TO.C,D4*%
X35500000Y-126162500D03*
X35500000Y-124662500D03*
X40700000Y-124662500D03*
X40700000Y-126162500D03*
%TD*%
%TO.C,D3*%
X30737500Y-85681250D03*
X30737500Y-84181250D03*
X35937500Y-84181250D03*
X35937500Y-85681250D03*
%TD*%
%TO.C,R7*%
G36*
G01*
X206883320Y-71110520D02*
X206883320Y-70560520D01*
G75*
G02*
X207083320Y-70360520I200000J0D01*
G01*
X207483320Y-70360520D01*
G75*
G02*
X207683320Y-70560520I0J-200000D01*
G01*
X207683320Y-71110520D01*
G75*
G02*
X207483320Y-71310520I-200000J0D01*
G01*
X207083320Y-71310520D01*
G75*
G02*
X206883320Y-71110520I0J200000D01*
G01*
G37*
G36*
G01*
X205233320Y-71110520D02*
X205233320Y-70560520D01*
G75*
G02*
X205433320Y-70360520I200000J0D01*
G01*
X205833320Y-70360520D01*
G75*
G02*
X206033320Y-70560520I0J-200000D01*
G01*
X206033320Y-71110520D01*
G75*
G02*
X205833320Y-71310520I-200000J0D01*
G01*
X205433320Y-71310520D01*
G75*
G02*
X205233320Y-71110520I0J200000D01*
G01*
G37*
%TD*%
%TO.C,R4*%
G36*
G01*
X206878240Y-69495080D02*
X206878240Y-68945080D01*
G75*
G02*
X207078240Y-68745080I200000J0D01*
G01*
X207478240Y-68745080D01*
G75*
G02*
X207678240Y-68945080I0J-200000D01*
G01*
X207678240Y-69495080D01*
G75*
G02*
X207478240Y-69695080I-200000J0D01*
G01*
X207078240Y-69695080D01*
G75*
G02*
X206878240Y-69495080I0J200000D01*
G01*
G37*
G36*
G01*
X205228240Y-69495080D02*
X205228240Y-68945080D01*
G75*
G02*
X205428240Y-68745080I200000J0D01*
G01*
X205828240Y-68745080D01*
G75*
G02*
X206028240Y-68945080I0J-200000D01*
G01*
X206028240Y-69495080D01*
G75*
G02*
X205828240Y-69695080I-200000J0D01*
G01*
X205428240Y-69695080D01*
G75*
G02*
X205228240Y-69495080I0J200000D01*
G01*
G37*
%TD*%
D11*
%TO.C,D35*%
X32512000Y-152400000D03*
X32512000Y-150000000D03*
%TD*%
%TO.C,U7*%
G36*
G01*
X100688000Y-77496800D02*
X100988000Y-77496800D01*
G75*
G02*
X101138000Y-77646800I0J-150000D01*
G01*
X101138000Y-79296800D01*
G75*
G02*
X100988000Y-79446800I-150000J0D01*
G01*
X100688000Y-79446800D01*
G75*
G02*
X100538000Y-79296800I0J150000D01*
G01*
X100538000Y-77646800D01*
G75*
G02*
X100688000Y-77496800I150000J0D01*
G01*
G37*
G36*
G01*
X101958000Y-77496800D02*
X102258000Y-77496800D01*
G75*
G02*
X102408000Y-77646800I0J-150000D01*
G01*
X102408000Y-79296800D01*
G75*
G02*
X102258000Y-79446800I-150000J0D01*
G01*
X101958000Y-79446800D01*
G75*
G02*
X101808000Y-79296800I0J150000D01*
G01*
X101808000Y-77646800D01*
G75*
G02*
X101958000Y-77496800I150000J0D01*
G01*
G37*
G36*
G01*
X103228000Y-77496800D02*
X103528000Y-77496800D01*
G75*
G02*
X103678000Y-77646800I0J-150000D01*
G01*
X103678000Y-79296800D01*
G75*
G02*
X103528000Y-79446800I-150000J0D01*
G01*
X103228000Y-79446800D01*
G75*
G02*
X103078000Y-79296800I0J150000D01*
G01*
X103078000Y-77646800D01*
G75*
G02*
X103228000Y-77496800I150000J0D01*
G01*
G37*
G36*
G01*
X104498000Y-77496800D02*
X104798000Y-77496800D01*
G75*
G02*
X104948000Y-77646800I0J-150000D01*
G01*
X104948000Y-79296800D01*
G75*
G02*
X104798000Y-79446800I-150000J0D01*
G01*
X104498000Y-79446800D01*
G75*
G02*
X104348000Y-79296800I0J150000D01*
G01*
X104348000Y-77646800D01*
G75*
G02*
X104498000Y-77496800I150000J0D01*
G01*
G37*
G36*
G01*
X105768000Y-77496800D02*
X106068000Y-77496800D01*
G75*
G02*
X106218000Y-77646800I0J-150000D01*
G01*
X106218000Y-79296800D01*
G75*
G02*
X106068000Y-79446800I-150000J0D01*
G01*
X105768000Y-79446800D01*
G75*
G02*
X105618000Y-79296800I0J150000D01*
G01*
X105618000Y-77646800D01*
G75*
G02*
X105768000Y-77496800I150000J0D01*
G01*
G37*
G36*
G01*
X107038000Y-77496800D02*
X107338000Y-77496800D01*
G75*
G02*
X107488000Y-77646800I0J-150000D01*
G01*
X107488000Y-79296800D01*
G75*
G02*
X107338000Y-79446800I-150000J0D01*
G01*
X107038000Y-79446800D01*
G75*
G02*
X106888000Y-79296800I0J150000D01*
G01*
X106888000Y-77646800D01*
G75*
G02*
X107038000Y-77496800I150000J0D01*
G01*
G37*
G36*
G01*
X108308000Y-77496800D02*
X108608000Y-77496800D01*
G75*
G02*
X108758000Y-77646800I0J-150000D01*
G01*
X108758000Y-79296800D01*
G75*
G02*
X108608000Y-79446800I-150000J0D01*
G01*
X108308000Y-79446800D01*
G75*
G02*
X108158000Y-79296800I0J150000D01*
G01*
X108158000Y-77646800D01*
G75*
G02*
X108308000Y-77496800I150000J0D01*
G01*
G37*
G36*
G01*
X109578000Y-77496800D02*
X109878000Y-77496800D01*
G75*
G02*
X110028000Y-77646800I0J-150000D01*
G01*
X110028000Y-79296800D01*
G75*
G02*
X109878000Y-79446800I-150000J0D01*
G01*
X109578000Y-79446800D01*
G75*
G02*
X109428000Y-79296800I0J150000D01*
G01*
X109428000Y-77646800D01*
G75*
G02*
X109578000Y-77496800I150000J0D01*
G01*
G37*
G36*
G01*
X109578000Y-72546800D02*
X109878000Y-72546800D01*
G75*
G02*
X110028000Y-72696800I0J-150000D01*
G01*
X110028000Y-74346800D01*
G75*
G02*
X109878000Y-74496800I-150000J0D01*
G01*
X109578000Y-74496800D01*
G75*
G02*
X109428000Y-74346800I0J150000D01*
G01*
X109428000Y-72696800D01*
G75*
G02*
X109578000Y-72546800I150000J0D01*
G01*
G37*
G36*
G01*
X108308000Y-72546800D02*
X108608000Y-72546800D01*
G75*
G02*
X108758000Y-72696800I0J-150000D01*
G01*
X108758000Y-74346800D01*
G75*
G02*
X108608000Y-74496800I-150000J0D01*
G01*
X108308000Y-74496800D01*
G75*
G02*
X108158000Y-74346800I0J150000D01*
G01*
X108158000Y-72696800D01*
G75*
G02*
X108308000Y-72546800I150000J0D01*
G01*
G37*
G36*
G01*
X107038000Y-72546800D02*
X107338000Y-72546800D01*
G75*
G02*
X107488000Y-72696800I0J-150000D01*
G01*
X107488000Y-74346800D01*
G75*
G02*
X107338000Y-74496800I-150000J0D01*
G01*
X107038000Y-74496800D01*
G75*
G02*
X106888000Y-74346800I0J150000D01*
G01*
X106888000Y-72696800D01*
G75*
G02*
X107038000Y-72546800I150000J0D01*
G01*
G37*
G36*
G01*
X105768000Y-72546800D02*
X106068000Y-72546800D01*
G75*
G02*
X106218000Y-72696800I0J-150000D01*
G01*
X106218000Y-74346800D01*
G75*
G02*
X106068000Y-74496800I-150000J0D01*
G01*
X105768000Y-74496800D01*
G75*
G02*
X105618000Y-74346800I0J150000D01*
G01*
X105618000Y-72696800D01*
G75*
G02*
X105768000Y-72546800I150000J0D01*
G01*
G37*
G36*
G01*
X104498000Y-72546800D02*
X104798000Y-72546800D01*
G75*
G02*
X104948000Y-72696800I0J-150000D01*
G01*
X104948000Y-74346800D01*
G75*
G02*
X104798000Y-74496800I-150000J0D01*
G01*
X104498000Y-74496800D01*
G75*
G02*
X104348000Y-74346800I0J150000D01*
G01*
X104348000Y-72696800D01*
G75*
G02*
X104498000Y-72546800I150000J0D01*
G01*
G37*
G36*
G01*
X103228000Y-72546800D02*
X103528000Y-72546800D01*
G75*
G02*
X103678000Y-72696800I0J-150000D01*
G01*
X103678000Y-74346800D01*
G75*
G02*
X103528000Y-74496800I-150000J0D01*
G01*
X103228000Y-74496800D01*
G75*
G02*
X103078000Y-74346800I0J150000D01*
G01*
X103078000Y-72696800D01*
G75*
G02*
X103228000Y-72546800I150000J0D01*
G01*
G37*
G36*
G01*
X101958000Y-72546800D02*
X102258000Y-72546800D01*
G75*
G02*
X102408000Y-72696800I0J-150000D01*
G01*
X102408000Y-74346800D01*
G75*
G02*
X102258000Y-74496800I-150000J0D01*
G01*
X101958000Y-74496800D01*
G75*
G02*
X101808000Y-74346800I0J150000D01*
G01*
X101808000Y-72696800D01*
G75*
G02*
X101958000Y-72546800I150000J0D01*
G01*
G37*
G36*
G01*
X100688000Y-72546800D02*
X100988000Y-72546800D01*
G75*
G02*
X101138000Y-72696800I0J-150000D01*
G01*
X101138000Y-74346800D01*
G75*
G02*
X100988000Y-74496800I-150000J0D01*
G01*
X100688000Y-74496800D01*
G75*
G02*
X100538000Y-74346800I0J150000D01*
G01*
X100538000Y-72696800D01*
G75*
G02*
X100688000Y-72546800I150000J0D01*
G01*
G37*
%TD*%
D12*
%TO.C,H14*%
X150812500Y-54768750D03*
%TD*%
%TO.C,H13*%
X85725000Y-54768750D03*
%TD*%
%TO.C,C43*%
G36*
G01*
X198630233Y-76695187D02*
X198983787Y-76341633D01*
G75*
G02*
X199301985Y-76341633I159099J-159099D01*
G01*
X199620183Y-76659831D01*
G75*
G02*
X199620183Y-76978029I-159099J-159099D01*
G01*
X199266629Y-77331583D01*
G75*
G02*
X198948431Y-77331583I-159099J159099D01*
G01*
X198630233Y-77013385D01*
G75*
G02*
X198630233Y-76695187I159099J159099D01*
G01*
G37*
G36*
G01*
X197534217Y-75599171D02*
X197887771Y-75245617D01*
G75*
G02*
X198205969Y-75245617I159099J-159099D01*
G01*
X198524167Y-75563815D01*
G75*
G02*
X198524167Y-75882013I-159099J-159099D01*
G01*
X198170613Y-76235567D01*
G75*
G02*
X197852415Y-76235567I-159099J159099D01*
G01*
X197534217Y-75917369D01*
G75*
G02*
X197534217Y-75599171I159099J159099D01*
G01*
G37*
%TD*%
%TO.C,R23*%
G36*
G01*
X188791800Y-59745200D02*
X188791800Y-60295200D01*
G75*
G02*
X188591800Y-60495200I-200000J0D01*
G01*
X188191800Y-60495200D01*
G75*
G02*
X187991800Y-60295200I0J200000D01*
G01*
X187991800Y-59745200D01*
G75*
G02*
X188191800Y-59545200I200000J0D01*
G01*
X188591800Y-59545200D01*
G75*
G02*
X188791800Y-59745200I0J-200000D01*
G01*
G37*
G36*
G01*
X190441800Y-59745200D02*
X190441800Y-60295200D01*
G75*
G02*
X190241800Y-60495200I-200000J0D01*
G01*
X189841800Y-60495200D01*
G75*
G02*
X189641800Y-60295200I0J200000D01*
G01*
X189641800Y-59745200D01*
G75*
G02*
X189841800Y-59545200I200000J0D01*
G01*
X190241800Y-59545200D01*
G75*
G02*
X190441800Y-59745200I0J-200000D01*
G01*
G37*
%TD*%
D13*
%TO.C,J8*%
X242402360Y-67020440D03*
X239862360Y-67020440D03*
D14*
X237322360Y-67020440D03*
%TD*%
D15*
%TO.C,J7*%
X276763480Y-65780920D03*
D16*
X276763480Y-59980920D03*
D17*
X271963480Y-62780920D03*
%TD*%
D12*
%TO.C,H12*%
X284937200Y-199231250D03*
%TD*%
%TO.C,H11*%
X374650000Y-121443750D03*
%TD*%
%TO.C,H10*%
X138112500Y-199231250D03*
%TD*%
%TO.C,H9*%
X22225000Y-121443750D03*
%TD*%
%TO.C,H8*%
X309562500Y-137318750D03*
%TD*%
%TO.C,H7*%
X184943750Y-138906250D03*
%TD*%
%TO.C,H6*%
X297656250Y-54768750D03*
%TD*%
%TO.C,H5*%
X88900000Y-138906250D03*
%TD*%
D13*
%TO.C,J6*%
X44002960Y-53467000D03*
D14*
X41462960Y-53467000D03*
D13*
X49082960Y-53467000D03*
X46542960Y-53467000D03*
%TD*%
D18*
%TO.C,J2*%
X133987500Y-53329750D03*
X142637500Y-53329750D03*
D19*
X133987500Y-56709750D03*
X142637500Y-56709750D03*
D20*
X137887500Y-56339750D03*
X135337500Y-56339750D03*
X136187500Y-56339750D03*
X137037500Y-56339750D03*
X141287500Y-56339750D03*
X139587500Y-56339750D03*
X138737500Y-56339750D03*
X140437500Y-56339750D03*
X135337500Y-57689750D03*
X136187500Y-57689750D03*
X137037500Y-57689750D03*
X137887500Y-57689750D03*
X138737500Y-57689750D03*
X139587500Y-57689750D03*
X140437500Y-57689750D03*
X141287500Y-57689750D03*
%TD*%
%TO.C,C60*%
G36*
G01*
X345991000Y-160252600D02*
X345991000Y-160752600D01*
G75*
G02*
X345766000Y-160977600I-225000J0D01*
G01*
X345316000Y-160977600D01*
G75*
G02*
X345091000Y-160752600I0J225000D01*
G01*
X345091000Y-160252600D01*
G75*
G02*
X345316000Y-160027600I225000J0D01*
G01*
X345766000Y-160027600D01*
G75*
G02*
X345991000Y-160252600I0J-225000D01*
G01*
G37*
G36*
G01*
X347541000Y-160252600D02*
X347541000Y-160752600D01*
G75*
G02*
X347316000Y-160977600I-225000J0D01*
G01*
X346866000Y-160977600D01*
G75*
G02*
X346641000Y-160752600I0J225000D01*
G01*
X346641000Y-160252600D01*
G75*
G02*
X346866000Y-160027600I225000J0D01*
G01*
X347316000Y-160027600D01*
G75*
G02*
X347541000Y-160252600I0J-225000D01*
G01*
G37*
%TD*%
D21*
%TO.C,SW93*%
X319422500Y-136048750D03*
X332847500Y-133508750D03*
D22*
X322897500Y-136048750D03*
X329247500Y-133508750D03*
D23*
X320357500Y-130968750D03*
X330517500Y-130968750D03*
D24*
X325437500Y-130968750D03*
%TD*%
D25*
%TO.C,SW74*%
X271430750Y-176068750D03*
D24*
X271430750Y-160828750D03*
X295306750Y-160828750D03*
D25*
X295306750Y-176068750D03*
D21*
X277353750Y-174148750D03*
X290778750Y-171608750D03*
D22*
X280828750Y-174148750D03*
X287178750Y-171608750D03*
D23*
X278288750Y-169068750D03*
X288448750Y-169068750D03*
D24*
X283368750Y-169068750D03*
%TD*%
D11*
%TO.C,D192*%
X317500000Y-130950000D03*
X317500000Y-133350000D03*
%TD*%
%TO.C,C1*%
G36*
G01*
X221059160Y-54451440D02*
X221059160Y-54951440D01*
G75*
G02*
X220834160Y-55176440I-225000J0D01*
G01*
X220384160Y-55176440D01*
G75*
G02*
X220159160Y-54951440I0J225000D01*
G01*
X220159160Y-54451440D01*
G75*
G02*
X220384160Y-54226440I225000J0D01*
G01*
X220834160Y-54226440D01*
G75*
G02*
X221059160Y-54451440I0J-225000D01*
G01*
G37*
G36*
G01*
X222609160Y-54451440D02*
X222609160Y-54951440D01*
G75*
G02*
X222384160Y-55176440I-225000J0D01*
G01*
X221934160Y-55176440D01*
G75*
G02*
X221709160Y-54951440I0J225000D01*
G01*
X221709160Y-54451440D01*
G75*
G02*
X221934160Y-54226440I225000J0D01*
G01*
X222384160Y-54226440D01*
G75*
G02*
X222609160Y-54451440I0J-225000D01*
G01*
G37*
%TD*%
%TO.C,C2*%
G36*
G01*
X224501960Y-54951440D02*
X224501960Y-54451440D01*
G75*
G02*
X224726960Y-54226440I225000J0D01*
G01*
X225176960Y-54226440D01*
G75*
G02*
X225401960Y-54451440I0J-225000D01*
G01*
X225401960Y-54951440D01*
G75*
G02*
X225176960Y-55176440I-225000J0D01*
G01*
X224726960Y-55176440D01*
G75*
G02*
X224501960Y-54951440I0J225000D01*
G01*
G37*
G36*
G01*
X226051960Y-54951440D02*
X226051960Y-54451440D01*
G75*
G02*
X226276960Y-54226440I225000J0D01*
G01*
X226726960Y-54226440D01*
G75*
G02*
X226951960Y-54451440I0J-225000D01*
G01*
X226951960Y-54951440D01*
G75*
G02*
X226726960Y-55176440I-225000J0D01*
G01*
X226276960Y-55176440D01*
G75*
G02*
X226051960Y-54951440I0J225000D01*
G01*
G37*
%TD*%
%TO.C,C9*%
G36*
G01*
X113621400Y-180488400D02*
X113621400Y-179988400D01*
G75*
G02*
X113846400Y-179763400I225000J0D01*
G01*
X114296400Y-179763400D01*
G75*
G02*
X114521400Y-179988400I0J-225000D01*
G01*
X114521400Y-180488400D01*
G75*
G02*
X114296400Y-180713400I-225000J0D01*
G01*
X113846400Y-180713400D01*
G75*
G02*
X113621400Y-180488400I0J225000D01*
G01*
G37*
G36*
G01*
X115171400Y-180488400D02*
X115171400Y-179988400D01*
G75*
G02*
X115396400Y-179763400I225000J0D01*
G01*
X115846400Y-179763400D01*
G75*
G02*
X116071400Y-179988400I0J-225000D01*
G01*
X116071400Y-180488400D01*
G75*
G02*
X115846400Y-180713400I-225000J0D01*
G01*
X115396400Y-180713400D01*
G75*
G02*
X115171400Y-180488400I0J225000D01*
G01*
G37*
%TD*%
%TO.C,C10*%
G36*
G01*
X235071500Y-142299500D02*
X235071500Y-141799500D01*
G75*
G02*
X235296500Y-141574500I225000J0D01*
G01*
X235746500Y-141574500D01*
G75*
G02*
X235971500Y-141799500I0J-225000D01*
G01*
X235971500Y-142299500D01*
G75*
G02*
X235746500Y-142524500I-225000J0D01*
G01*
X235296500Y-142524500D01*
G75*
G02*
X235071500Y-142299500I0J225000D01*
G01*
G37*
G36*
G01*
X236621500Y-142299500D02*
X236621500Y-141799500D01*
G75*
G02*
X236846500Y-141574500I225000J0D01*
G01*
X237296500Y-141574500D01*
G75*
G02*
X237521500Y-141799500I0J-225000D01*
G01*
X237521500Y-142299500D01*
G75*
G02*
X237296500Y-142524500I-225000J0D01*
G01*
X236846500Y-142524500D01*
G75*
G02*
X236621500Y-142299500I0J225000D01*
G01*
G37*
%TD*%
%TO.C,C11*%
G36*
G01*
X77716800Y-160430400D02*
X77716800Y-160930400D01*
G75*
G02*
X77491800Y-161155400I-225000J0D01*
G01*
X77041800Y-161155400D01*
G75*
G02*
X76816800Y-160930400I0J225000D01*
G01*
X76816800Y-160430400D01*
G75*
G02*
X77041800Y-160205400I225000J0D01*
G01*
X77491800Y-160205400D01*
G75*
G02*
X77716800Y-160430400I0J-225000D01*
G01*
G37*
G36*
G01*
X79266800Y-160430400D02*
X79266800Y-160930400D01*
G75*
G02*
X79041800Y-161155400I-225000J0D01*
G01*
X78591800Y-161155400D01*
G75*
G02*
X78366800Y-160930400I0J225000D01*
G01*
X78366800Y-160430400D01*
G75*
G02*
X78591800Y-160205400I225000J0D01*
G01*
X79041800Y-160205400D01*
G75*
G02*
X79266800Y-160430400I0J-225000D01*
G01*
G37*
%TD*%
%TO.C,C12*%
G36*
G01*
X122141400Y-121924000D02*
X122141400Y-122424000D01*
G75*
G02*
X121916400Y-122649000I-225000J0D01*
G01*
X121466400Y-122649000D01*
G75*
G02*
X121241400Y-122424000I0J225000D01*
G01*
X121241400Y-121924000D01*
G75*
G02*
X121466400Y-121699000I225000J0D01*
G01*
X121916400Y-121699000D01*
G75*
G02*
X122141400Y-121924000I0J-225000D01*
G01*
G37*
G36*
G01*
X120591400Y-121924000D02*
X120591400Y-122424000D01*
G75*
G02*
X120366400Y-122649000I-225000J0D01*
G01*
X119916400Y-122649000D01*
G75*
G02*
X119691400Y-122424000I0J225000D01*
G01*
X119691400Y-121924000D01*
G75*
G02*
X119916400Y-121699000I225000J0D01*
G01*
X120366400Y-121699000D01*
G75*
G02*
X120591400Y-121924000I0J-225000D01*
G01*
G37*
%TD*%
%TO.C,C13*%
G36*
G01*
X286659500Y-142299500D02*
X286659500Y-141799500D01*
G75*
G02*
X286884500Y-141574500I225000J0D01*
G01*
X287334500Y-141574500D01*
G75*
G02*
X287559500Y-141799500I0J-225000D01*
G01*
X287559500Y-142299500D01*
G75*
G02*
X287334500Y-142524500I-225000J0D01*
G01*
X286884500Y-142524500D01*
G75*
G02*
X286659500Y-142299500I0J225000D01*
G01*
G37*
G36*
G01*
X285109500Y-142299500D02*
X285109500Y-141799500D01*
G75*
G02*
X285334500Y-141574500I225000J0D01*
G01*
X285784500Y-141574500D01*
G75*
G02*
X286009500Y-141799500I0J-225000D01*
G01*
X286009500Y-142299500D01*
G75*
G02*
X285784500Y-142524500I-225000J0D01*
G01*
X285334500Y-142524500D01*
G75*
G02*
X285109500Y-142299500I0J225000D01*
G01*
G37*
%TD*%
%TO.C,C14*%
G36*
G01*
X139654100Y-122279600D02*
X139654100Y-122779600D01*
G75*
G02*
X139429100Y-123004600I-225000J0D01*
G01*
X138979100Y-123004600D01*
G75*
G02*
X138754100Y-122779600I0J225000D01*
G01*
X138754100Y-122279600D01*
G75*
G02*
X138979100Y-122054600I225000J0D01*
G01*
X139429100Y-122054600D01*
G75*
G02*
X139654100Y-122279600I0J-225000D01*
G01*
G37*
G36*
G01*
X141204100Y-122279600D02*
X141204100Y-122779600D01*
G75*
G02*
X140979100Y-123004600I-225000J0D01*
G01*
X140529100Y-123004600D01*
G75*
G02*
X140304100Y-122779600I0J225000D01*
G01*
X140304100Y-122279600D01*
G75*
G02*
X140529100Y-122054600I225000J0D01*
G01*
X140979100Y-122054600D01*
G75*
G02*
X141204100Y-122279600I0J-225000D01*
G01*
G37*
%TD*%
%TO.C,C15*%
G36*
G01*
X248496000Y-180463000D02*
X248496000Y-179963000D01*
G75*
G02*
X248721000Y-179738000I225000J0D01*
G01*
X249171000Y-179738000D01*
G75*
G02*
X249396000Y-179963000I0J-225000D01*
G01*
X249396000Y-180463000D01*
G75*
G02*
X249171000Y-180688000I-225000J0D01*
G01*
X248721000Y-180688000D01*
G75*
G02*
X248496000Y-180463000I0J225000D01*
G01*
G37*
G36*
G01*
X246946000Y-180463000D02*
X246946000Y-179963000D01*
G75*
G02*
X247171000Y-179738000I225000J0D01*
G01*
X247621000Y-179738000D01*
G75*
G02*
X247846000Y-179963000I0J-225000D01*
G01*
X247846000Y-180463000D01*
G75*
G02*
X247621000Y-180688000I-225000J0D01*
G01*
X247171000Y-180688000D01*
G75*
G02*
X246946000Y-180463000I0J225000D01*
G01*
G37*
%TD*%
%TO.C,C16*%
G36*
G01*
X146134000Y-104199500D02*
X146134000Y-103699500D01*
G75*
G02*
X146359000Y-103474500I225000J0D01*
G01*
X146809000Y-103474500D01*
G75*
G02*
X147034000Y-103699500I0J-225000D01*
G01*
X147034000Y-104199500D01*
G75*
G02*
X146809000Y-104424500I-225000J0D01*
G01*
X146359000Y-104424500D01*
G75*
G02*
X146134000Y-104199500I0J225000D01*
G01*
G37*
G36*
G01*
X144584000Y-104199500D02*
X144584000Y-103699500D01*
G75*
G02*
X144809000Y-103474500I225000J0D01*
G01*
X145259000Y-103474500D01*
G75*
G02*
X145484000Y-103699500I0J-225000D01*
G01*
X145484000Y-104199500D01*
G75*
G02*
X145259000Y-104424500I-225000J0D01*
G01*
X144809000Y-104424500D01*
G75*
G02*
X144584000Y-104199500I0J225000D01*
G01*
G37*
%TD*%
%TO.C,C17*%
G36*
G01*
X258884000Y-104085200D02*
X258884000Y-103585200D01*
G75*
G02*
X259109000Y-103360200I225000J0D01*
G01*
X259559000Y-103360200D01*
G75*
G02*
X259784000Y-103585200I0J-225000D01*
G01*
X259784000Y-104085200D01*
G75*
G02*
X259559000Y-104310200I-225000J0D01*
G01*
X259109000Y-104310200D01*
G75*
G02*
X258884000Y-104085200I0J225000D01*
G01*
G37*
G36*
G01*
X260434000Y-104085200D02*
X260434000Y-103585200D01*
G75*
G02*
X260659000Y-103360200I225000J0D01*
G01*
X261109000Y-103360200D01*
G75*
G02*
X261334000Y-103585200I0J-225000D01*
G01*
X261334000Y-104085200D01*
G75*
G02*
X261109000Y-104310200I-225000J0D01*
G01*
X260659000Y-104310200D01*
G75*
G02*
X260434000Y-104085200I0J225000D01*
G01*
G37*
%TD*%
%TO.C,C18*%
G36*
G01*
X197035000Y-142299500D02*
X197035000Y-141799500D01*
G75*
G02*
X197260000Y-141574500I225000J0D01*
G01*
X197710000Y-141574500D01*
G75*
G02*
X197935000Y-141799500I0J-225000D01*
G01*
X197935000Y-142299500D01*
G75*
G02*
X197710000Y-142524500I-225000J0D01*
G01*
X197260000Y-142524500D01*
G75*
G02*
X197035000Y-142299500I0J225000D01*
G01*
G37*
G36*
G01*
X198585000Y-142299500D02*
X198585000Y-141799500D01*
G75*
G02*
X198810000Y-141574500I225000J0D01*
G01*
X199260000Y-141574500D01*
G75*
G02*
X199485000Y-141799500I0J-225000D01*
G01*
X199485000Y-142299500D01*
G75*
G02*
X199260000Y-142524500I-225000J0D01*
G01*
X198810000Y-142524500D01*
G75*
G02*
X198585000Y-142299500I0J225000D01*
G01*
G37*
%TD*%
%TO.C,C19*%
G36*
G01*
X41204300Y-122178000D02*
X41204300Y-122678000D01*
G75*
G02*
X40979300Y-122903000I-225000J0D01*
G01*
X40529300Y-122903000D01*
G75*
G02*
X40304300Y-122678000I0J225000D01*
G01*
X40304300Y-122178000D01*
G75*
G02*
X40529300Y-121953000I225000J0D01*
G01*
X40979300Y-121953000D01*
G75*
G02*
X41204300Y-122178000I0J-225000D01*
G01*
G37*
G36*
G01*
X39654300Y-122178000D02*
X39654300Y-122678000D01*
G75*
G02*
X39429300Y-122903000I-225000J0D01*
G01*
X38979300Y-122903000D01*
G75*
G02*
X38754300Y-122678000I0J225000D01*
G01*
X38754300Y-122178000D01*
G75*
G02*
X38979300Y-121953000I225000J0D01*
G01*
X39429300Y-121953000D01*
G75*
G02*
X39654300Y-122178000I0J-225000D01*
G01*
G37*
%TD*%
%TO.C,C20*%
G36*
G01*
X125534000Y-104199500D02*
X125534000Y-103699500D01*
G75*
G02*
X125759000Y-103474500I225000J0D01*
G01*
X126209000Y-103474500D01*
G75*
G02*
X126434000Y-103699500I0J-225000D01*
G01*
X126434000Y-104199500D01*
G75*
G02*
X126209000Y-104424500I-225000J0D01*
G01*
X125759000Y-104424500D01*
G75*
G02*
X125534000Y-104199500I0J225000D01*
G01*
G37*
G36*
G01*
X127084000Y-104199500D02*
X127084000Y-103699500D01*
G75*
G02*
X127309000Y-103474500I225000J0D01*
G01*
X127759000Y-103474500D01*
G75*
G02*
X127984000Y-103699500I0J-225000D01*
G01*
X127984000Y-104199500D01*
G75*
G02*
X127759000Y-104424500I-225000J0D01*
G01*
X127309000Y-104424500D01*
G75*
G02*
X127084000Y-104199500I0J225000D01*
G01*
G37*
%TD*%
%TO.C,C21*%
G36*
G01*
X174554300Y-81538000D02*
X174554300Y-82038000D01*
G75*
G02*
X174329300Y-82263000I-225000J0D01*
G01*
X173879300Y-82263000D01*
G75*
G02*
X173654300Y-82038000I0J225000D01*
G01*
X173654300Y-81538000D01*
G75*
G02*
X173879300Y-81313000I225000J0D01*
G01*
X174329300Y-81313000D01*
G75*
G02*
X174554300Y-81538000I0J-225000D01*
G01*
G37*
G36*
G01*
X173004300Y-81538000D02*
X173004300Y-82038000D01*
G75*
G02*
X172779300Y-82263000I-225000J0D01*
G01*
X172329300Y-82263000D01*
G75*
G02*
X172104300Y-82038000I0J225000D01*
G01*
X172104300Y-81538000D01*
G75*
G02*
X172329300Y-81313000I225000J0D01*
G01*
X172779300Y-81313000D01*
G75*
G02*
X173004300Y-81538000I0J-225000D01*
G01*
G37*
%TD*%
%TO.C,C22*%
G36*
G01*
X272915200Y-122292300D02*
X272915200Y-122792300D01*
G75*
G02*
X272690200Y-123017300I-225000J0D01*
G01*
X272240200Y-123017300D01*
G75*
G02*
X272015200Y-122792300I0J225000D01*
G01*
X272015200Y-122292300D01*
G75*
G02*
X272240200Y-122067300I225000J0D01*
G01*
X272690200Y-122067300D01*
G75*
G02*
X272915200Y-122292300I0J-225000D01*
G01*
G37*
G36*
G01*
X274465200Y-122292300D02*
X274465200Y-122792300D01*
G75*
G02*
X274240200Y-123017300I-225000J0D01*
G01*
X273790200Y-123017300D01*
G75*
G02*
X273565200Y-122792300I0J225000D01*
G01*
X273565200Y-122292300D01*
G75*
G02*
X273790200Y-122067300I225000J0D01*
G01*
X274240200Y-122067300D01*
G75*
G02*
X274465200Y-122292300I0J-225000D01*
G01*
G37*
%TD*%
%TO.C,C24*%
G36*
G01*
X191990800Y-160506600D02*
X191990800Y-161006600D01*
G75*
G02*
X191765800Y-161231600I-225000J0D01*
G01*
X191315800Y-161231600D01*
G75*
G02*
X191090800Y-161006600I0J225000D01*
G01*
X191090800Y-160506600D01*
G75*
G02*
X191315800Y-160281600I225000J0D01*
G01*
X191765800Y-160281600D01*
G75*
G02*
X191990800Y-160506600I0J-225000D01*
G01*
G37*
G36*
G01*
X193540800Y-160506600D02*
X193540800Y-161006600D01*
G75*
G02*
X193315800Y-161231600I-225000J0D01*
G01*
X192865800Y-161231600D01*
G75*
G02*
X192640800Y-161006600I0J225000D01*
G01*
X192640800Y-160506600D01*
G75*
G02*
X192865800Y-160281600I225000J0D01*
G01*
X193315800Y-160281600D01*
G75*
G02*
X193540800Y-160506600I0J-225000D01*
G01*
G37*
%TD*%
%TO.C,C26*%
G36*
G01*
X286479400Y-160303400D02*
X286479400Y-160803400D01*
G75*
G02*
X286254400Y-161028400I-225000J0D01*
G01*
X285804400Y-161028400D01*
G75*
G02*
X285579400Y-160803400I0J225000D01*
G01*
X285579400Y-160303400D01*
G75*
G02*
X285804400Y-160078400I225000J0D01*
G01*
X286254400Y-160078400D01*
G75*
G02*
X286479400Y-160303400I0J-225000D01*
G01*
G37*
G36*
G01*
X284929400Y-160303400D02*
X284929400Y-160803400D01*
G75*
G02*
X284704400Y-161028400I-225000J0D01*
G01*
X284254400Y-161028400D01*
G75*
G02*
X284029400Y-160803400I0J225000D01*
G01*
X284029400Y-160303400D01*
G75*
G02*
X284254400Y-160078400I225000J0D01*
G01*
X284704400Y-160078400D01*
G75*
G02*
X284929400Y-160303400I0J-225000D01*
G01*
G37*
%TD*%
%TO.C,C27*%
G36*
G01*
X212590800Y-160379600D02*
X212590800Y-160879600D01*
G75*
G02*
X212365800Y-161104600I-225000J0D01*
G01*
X211915800Y-161104600D01*
G75*
G02*
X211690800Y-160879600I0J225000D01*
G01*
X211690800Y-160379600D01*
G75*
G02*
X211915800Y-160154600I225000J0D01*
G01*
X212365800Y-160154600D01*
G75*
G02*
X212590800Y-160379600I0J-225000D01*
G01*
G37*
G36*
G01*
X211040800Y-160379600D02*
X211040800Y-160879600D01*
G75*
G02*
X210815800Y-161104600I-225000J0D01*
G01*
X210365800Y-161104600D01*
G75*
G02*
X210140800Y-160879600I0J225000D01*
G01*
X210140800Y-160379600D01*
G75*
G02*
X210365800Y-160154600I225000J0D01*
G01*
X210815800Y-160154600D01*
G75*
G02*
X211040800Y-160379600I0J-225000D01*
G01*
G37*
%TD*%
%TO.C,C28*%
G36*
G01*
X96842400Y-160430400D02*
X96842400Y-160930400D01*
G75*
G02*
X96617400Y-161155400I-225000J0D01*
G01*
X96167400Y-161155400D01*
G75*
G02*
X95942400Y-160930400I0J225000D01*
G01*
X95942400Y-160430400D01*
G75*
G02*
X96167400Y-160205400I225000J0D01*
G01*
X96617400Y-160205400D01*
G75*
G02*
X96842400Y-160430400I0J-225000D01*
G01*
G37*
G36*
G01*
X98392400Y-160430400D02*
X98392400Y-160930400D01*
G75*
G02*
X98167400Y-161155400I-225000J0D01*
G01*
X97717400Y-161155400D01*
G75*
G02*
X97492400Y-160930400I0J225000D01*
G01*
X97492400Y-160430400D01*
G75*
G02*
X97717400Y-160205400I225000J0D01*
G01*
X98167400Y-160205400D01*
G75*
G02*
X98392400Y-160430400I0J-225000D01*
G01*
G37*
%TD*%
%TO.C,C29*%
G36*
G01*
X32671600Y-180386800D02*
X32671600Y-179886800D01*
G75*
G02*
X32896600Y-179661800I225000J0D01*
G01*
X33346600Y-179661800D01*
G75*
G02*
X33571600Y-179886800I0J-225000D01*
G01*
X33571600Y-180386800D01*
G75*
G02*
X33346600Y-180611800I-225000J0D01*
G01*
X32896600Y-180611800D01*
G75*
G02*
X32671600Y-180386800I0J225000D01*
G01*
G37*
G36*
G01*
X34221600Y-180386800D02*
X34221600Y-179886800D01*
G75*
G02*
X34446600Y-179661800I225000J0D01*
G01*
X34896600Y-179661800D01*
G75*
G02*
X35121600Y-179886800I0J-225000D01*
G01*
X35121600Y-180386800D01*
G75*
G02*
X34896600Y-180611800I-225000J0D01*
G01*
X34446600Y-180611800D01*
G75*
G02*
X34221600Y-180386800I0J225000D01*
G01*
G37*
%TD*%
%TO.C,C30*%
G36*
G01*
X184234000Y-104237600D02*
X184234000Y-103737600D01*
G75*
G02*
X184459000Y-103512600I225000J0D01*
G01*
X184909000Y-103512600D01*
G75*
G02*
X185134000Y-103737600I0J-225000D01*
G01*
X185134000Y-104237600D01*
G75*
G02*
X184909000Y-104462600I-225000J0D01*
G01*
X184459000Y-104462600D01*
G75*
G02*
X184234000Y-104237600I0J225000D01*
G01*
G37*
G36*
G01*
X182684000Y-104237600D02*
X182684000Y-103737600D01*
G75*
G02*
X182909000Y-103512600I225000J0D01*
G01*
X183359000Y-103512600D01*
G75*
G02*
X183584000Y-103737600I0J-225000D01*
G01*
X183584000Y-104237600D01*
G75*
G02*
X183359000Y-104462600I-225000J0D01*
G01*
X182909000Y-104462600D01*
G75*
G02*
X182684000Y-104237600I0J225000D01*
G01*
G37*
%TD*%
%TO.C,C33*%
G36*
G01*
X333369500Y-82609500D02*
X333369500Y-82109500D01*
G75*
G02*
X333594500Y-81884500I225000J0D01*
G01*
X334044500Y-81884500D01*
G75*
G02*
X334269500Y-82109500I0J-225000D01*
G01*
X334269500Y-82609500D01*
G75*
G02*
X334044500Y-82834500I-225000J0D01*
G01*
X333594500Y-82834500D01*
G75*
G02*
X333369500Y-82609500I0J225000D01*
G01*
G37*
G36*
G01*
X334919500Y-82609500D02*
X334919500Y-82109500D01*
G75*
G02*
X335144500Y-81884500I225000J0D01*
G01*
X335594500Y-81884500D01*
G75*
G02*
X335819500Y-82109500I0J-225000D01*
G01*
X335819500Y-82609500D01*
G75*
G02*
X335594500Y-82834500I-225000J0D01*
G01*
X335144500Y-82834500D01*
G75*
G02*
X334919500Y-82609500I0J225000D01*
G01*
G37*
%TD*%
%TO.C,C34*%
G36*
G01*
X36352900Y-81538000D02*
X36352900Y-82038000D01*
G75*
G02*
X36127900Y-82263000I-225000J0D01*
G01*
X35677900Y-82263000D01*
G75*
G02*
X35452900Y-82038000I0J225000D01*
G01*
X35452900Y-81538000D01*
G75*
G02*
X35677900Y-81313000I225000J0D01*
G01*
X36127900Y-81313000D01*
G75*
G02*
X36352900Y-81538000I0J-225000D01*
G01*
G37*
G36*
G01*
X34802900Y-81538000D02*
X34802900Y-82038000D01*
G75*
G02*
X34577900Y-82263000I-225000J0D01*
G01*
X34127900Y-82263000D01*
G75*
G02*
X33902900Y-82038000I0J225000D01*
G01*
X33902900Y-81538000D01*
G75*
G02*
X34127900Y-81313000I225000J0D01*
G01*
X34577900Y-81313000D01*
G75*
G02*
X34802900Y-81538000I0J-225000D01*
G01*
G37*
%TD*%
%TO.C,C35*%
G36*
G01*
X254185000Y-142236000D02*
X254185000Y-141736000D01*
G75*
G02*
X254410000Y-141511000I225000J0D01*
G01*
X254860000Y-141511000D01*
G75*
G02*
X255085000Y-141736000I0J-225000D01*
G01*
X255085000Y-142236000D01*
G75*
G02*
X254860000Y-142461000I-225000J0D01*
G01*
X254410000Y-142461000D01*
G75*
G02*
X254185000Y-142236000I0J225000D01*
G01*
G37*
G36*
G01*
X255735000Y-142236000D02*
X255735000Y-141736000D01*
G75*
G02*
X255960000Y-141511000I225000J0D01*
G01*
X256410000Y-141511000D01*
G75*
G02*
X256635000Y-141736000I0J-225000D01*
G01*
X256635000Y-142236000D01*
G75*
G02*
X256410000Y-142461000I-225000J0D01*
G01*
X255960000Y-142461000D01*
G75*
G02*
X255735000Y-142236000I0J225000D01*
G01*
G37*
%TD*%
%TO.C,C36*%
G36*
G01*
X343047500Y-104136000D02*
X343047500Y-103636000D01*
G75*
G02*
X343272500Y-103411000I225000J0D01*
G01*
X343722500Y-103411000D01*
G75*
G02*
X343947500Y-103636000I0J-225000D01*
G01*
X343947500Y-104136000D01*
G75*
G02*
X343722500Y-104361000I-225000J0D01*
G01*
X343272500Y-104361000D01*
G75*
G02*
X343047500Y-104136000I0J225000D01*
G01*
G37*
G36*
G01*
X341497500Y-104136000D02*
X341497500Y-103636000D01*
G75*
G02*
X341722500Y-103411000I225000J0D01*
G01*
X342172500Y-103411000D01*
G75*
G02*
X342397500Y-103636000I0J-225000D01*
G01*
X342397500Y-104136000D01*
G75*
G02*
X342172500Y-104361000I-225000J0D01*
G01*
X341722500Y-104361000D01*
G75*
G02*
X341497500Y-104136000I0J225000D01*
G01*
G37*
%TD*%
%TO.C,C37*%
G36*
G01*
X64940600Y-121695400D02*
X64940600Y-122195400D01*
G75*
G02*
X64715600Y-122420400I-225000J0D01*
G01*
X64265600Y-122420400D01*
G75*
G02*
X64040600Y-122195400I0J225000D01*
G01*
X64040600Y-121695400D01*
G75*
G02*
X64265600Y-121470400I225000J0D01*
G01*
X64715600Y-121470400D01*
G75*
G02*
X64940600Y-121695400I0J-225000D01*
G01*
G37*
G36*
G01*
X63390600Y-121695400D02*
X63390600Y-122195400D01*
G75*
G02*
X63165600Y-122420400I-225000J0D01*
G01*
X62715600Y-122420400D01*
G75*
G02*
X62490600Y-122195400I0J225000D01*
G01*
X62490600Y-121695400D01*
G75*
G02*
X62715600Y-121470400I225000J0D01*
G01*
X63165600Y-121470400D01*
G75*
G02*
X63390600Y-121695400I0J-225000D01*
G01*
G37*
%TD*%
%TO.C,C38*%
G36*
G01*
X289034400Y-104186800D02*
X289034400Y-103686800D01*
G75*
G02*
X289259400Y-103461800I225000J0D01*
G01*
X289709400Y-103461800D01*
G75*
G02*
X289934400Y-103686800I0J-225000D01*
G01*
X289934400Y-104186800D01*
G75*
G02*
X289709400Y-104411800I-225000J0D01*
G01*
X289259400Y-104411800D01*
G75*
G02*
X289034400Y-104186800I0J225000D01*
G01*
G37*
G36*
G01*
X287484400Y-104186800D02*
X287484400Y-103686800D01*
G75*
G02*
X287709400Y-103461800I225000J0D01*
G01*
X288159400Y-103461800D01*
G75*
G02*
X288384400Y-103686800I0J-225000D01*
G01*
X288384400Y-104186800D01*
G75*
G02*
X288159400Y-104411800I-225000J0D01*
G01*
X287709400Y-104411800D01*
G75*
G02*
X287484400Y-104186800I0J225000D01*
G01*
G37*
%TD*%
%TO.C,C40*%
G36*
G01*
X342984000Y-180463000D02*
X342984000Y-179963000D01*
G75*
G02*
X343209000Y-179738000I225000J0D01*
G01*
X343659000Y-179738000D01*
G75*
G02*
X343884000Y-179963000I0J-225000D01*
G01*
X343884000Y-180463000D01*
G75*
G02*
X343659000Y-180688000I-225000J0D01*
G01*
X343209000Y-180688000D01*
G75*
G02*
X342984000Y-180463000I0J225000D01*
G01*
G37*
G36*
G01*
X341434000Y-180463000D02*
X341434000Y-179963000D01*
G75*
G02*
X341659000Y-179738000I225000J0D01*
G01*
X342109000Y-179738000D01*
G75*
G02*
X342334000Y-179963000I0J-225000D01*
G01*
X342334000Y-180463000D01*
G75*
G02*
X342109000Y-180688000I-225000J0D01*
G01*
X341659000Y-180688000D01*
G75*
G02*
X341434000Y-180463000I0J225000D01*
G01*
G37*
%TD*%
%TO.C,C41*%
G36*
G01*
X365028300Y-122165300D02*
X365028300Y-122665300D01*
G75*
G02*
X364803300Y-122890300I-225000J0D01*
G01*
X364353300Y-122890300D01*
G75*
G02*
X364128300Y-122665300I0J225000D01*
G01*
X364128300Y-122165300D01*
G75*
G02*
X364353300Y-121940300I225000J0D01*
G01*
X364803300Y-121940300D01*
G75*
G02*
X365028300Y-122165300I0J-225000D01*
G01*
G37*
G36*
G01*
X366578300Y-122165300D02*
X366578300Y-122665300D01*
G75*
G02*
X366353300Y-122890300I-225000J0D01*
G01*
X365903300Y-122890300D01*
G75*
G02*
X365678300Y-122665300I0J225000D01*
G01*
X365678300Y-122165300D01*
G75*
G02*
X365903300Y-121940300I225000J0D01*
G01*
X366353300Y-121940300D01*
G75*
G02*
X366578300Y-122165300I0J-225000D01*
G01*
G37*
%TD*%
%TO.C,C47*%
G36*
G01*
X160421500Y-142172500D02*
X160421500Y-141672500D01*
G75*
G02*
X160646500Y-141447500I225000J0D01*
G01*
X161096500Y-141447500D01*
G75*
G02*
X161321500Y-141672500I0J-225000D01*
G01*
X161321500Y-142172500D01*
G75*
G02*
X161096500Y-142397500I-225000J0D01*
G01*
X160646500Y-142397500D01*
G75*
G02*
X160421500Y-142172500I0J225000D01*
G01*
G37*
G36*
G01*
X158871500Y-142172500D02*
X158871500Y-141672500D01*
G75*
G02*
X159096500Y-141447500I225000J0D01*
G01*
X159546500Y-141447500D01*
G75*
G02*
X159771500Y-141672500I0J-225000D01*
G01*
X159771500Y-142172500D01*
G75*
G02*
X159546500Y-142397500I-225000J0D01*
G01*
X159096500Y-142397500D01*
G75*
G02*
X158871500Y-142172500I0J225000D01*
G01*
G37*
%TD*%
%TO.C,C48*%
G36*
G01*
X153954300Y-81626900D02*
X153954300Y-82126900D01*
G75*
G02*
X153729300Y-82351900I-225000J0D01*
G01*
X153279300Y-82351900D01*
G75*
G02*
X153054300Y-82126900I0J225000D01*
G01*
X153054300Y-81626900D01*
G75*
G02*
X153279300Y-81401900I225000J0D01*
G01*
X153729300Y-81401900D01*
G75*
G02*
X153954300Y-81626900I0J-225000D01*
G01*
G37*
G36*
G01*
X155504300Y-81626900D02*
X155504300Y-82126900D01*
G75*
G02*
X155279300Y-82351900I-225000J0D01*
G01*
X154829300Y-82351900D01*
G75*
G02*
X154604300Y-82126900I0J225000D01*
G01*
X154604300Y-81626900D01*
G75*
G02*
X154829300Y-81401900I225000J0D01*
G01*
X155279300Y-81401900D01*
G75*
G02*
X155504300Y-81626900I0J-225000D01*
G01*
G37*
%TD*%
%TO.C,C49*%
G36*
G01*
X179266000Y-122152600D02*
X179266000Y-122652600D01*
G75*
G02*
X179041000Y-122877600I-225000J0D01*
G01*
X178591000Y-122877600D01*
G75*
G02*
X178366000Y-122652600I0J225000D01*
G01*
X178366000Y-122152600D01*
G75*
G02*
X178591000Y-121927600I225000J0D01*
G01*
X179041000Y-121927600D01*
G75*
G02*
X179266000Y-122152600I0J-225000D01*
G01*
G37*
G36*
G01*
X177716000Y-122152600D02*
X177716000Y-122652600D01*
G75*
G02*
X177491000Y-122877600I-225000J0D01*
G01*
X177041000Y-122877600D01*
G75*
G02*
X176816000Y-122652600I0J225000D01*
G01*
X176816000Y-122152600D01*
G75*
G02*
X177041000Y-121927600I225000J0D01*
G01*
X177491000Y-121927600D01*
G75*
G02*
X177716000Y-122152600I0J-225000D01*
G01*
G37*
%TD*%
%TO.C,C50*%
G36*
G01*
X84079500Y-121631900D02*
X84079500Y-122131900D01*
G75*
G02*
X83854500Y-122356900I-225000J0D01*
G01*
X83404500Y-122356900D01*
G75*
G02*
X83179500Y-122131900I0J225000D01*
G01*
X83179500Y-121631900D01*
G75*
G02*
X83404500Y-121406900I225000J0D01*
G01*
X83854500Y-121406900D01*
G75*
G02*
X84079500Y-121631900I0J-225000D01*
G01*
G37*
G36*
G01*
X82529500Y-121631900D02*
X82529500Y-122131900D01*
G75*
G02*
X82304500Y-122356900I-225000J0D01*
G01*
X81854500Y-122356900D01*
G75*
G02*
X81629500Y-122131900I0J225000D01*
G01*
X81629500Y-121631900D01*
G75*
G02*
X81854500Y-121406900I225000J0D01*
G01*
X82304500Y-121406900D01*
G75*
G02*
X82529500Y-121631900I0J-225000D01*
G01*
G37*
%TD*%
%TO.C,C51*%
G36*
G01*
X328478300Y-122305000D02*
X328478300Y-122805000D01*
G75*
G02*
X328253300Y-123030000I-225000J0D01*
G01*
X327803300Y-123030000D01*
G75*
G02*
X327578300Y-122805000I0J225000D01*
G01*
X327578300Y-122305000D01*
G75*
G02*
X327803300Y-122080000I225000J0D01*
G01*
X328253300Y-122080000D01*
G75*
G02*
X328478300Y-122305000I0J-225000D01*
G01*
G37*
G36*
G01*
X326928300Y-122305000D02*
X326928300Y-122805000D01*
G75*
G02*
X326703300Y-123030000I-225000J0D01*
G01*
X326253300Y-123030000D01*
G75*
G02*
X326028300Y-122805000I0J225000D01*
G01*
X326028300Y-122305000D01*
G75*
G02*
X326253300Y-122080000I225000J0D01*
G01*
X326703300Y-122080000D01*
G75*
G02*
X326928300Y-122305000I0J-225000D01*
G01*
G37*
%TD*%
%TO.C,C52*%
G36*
G01*
X264978300Y-81461800D02*
X264978300Y-81961800D01*
G75*
G02*
X264753300Y-82186800I-225000J0D01*
G01*
X264303300Y-82186800D01*
G75*
G02*
X264078300Y-81961800I0J225000D01*
G01*
X264078300Y-81461800D01*
G75*
G02*
X264303300Y-81236800I225000J0D01*
G01*
X264753300Y-81236800D01*
G75*
G02*
X264978300Y-81461800I0J-225000D01*
G01*
G37*
G36*
G01*
X263428300Y-81461800D02*
X263428300Y-81961800D01*
G75*
G02*
X263203300Y-82186800I-225000J0D01*
G01*
X262753300Y-82186800D01*
G75*
G02*
X262528300Y-81961800I0J225000D01*
G01*
X262528300Y-81461800D01*
G75*
G02*
X262753300Y-81236800I225000J0D01*
G01*
X263203300Y-81236800D01*
G75*
G02*
X263428300Y-81461800I0J-225000D01*
G01*
G37*
%TD*%
%TO.C,C53*%
G36*
G01*
X234866000Y-122508200D02*
X234866000Y-123008200D01*
G75*
G02*
X234641000Y-123233200I-225000J0D01*
G01*
X234191000Y-123233200D01*
G75*
G02*
X233966000Y-123008200I0J225000D01*
G01*
X233966000Y-122508200D01*
G75*
G02*
X234191000Y-122283200I225000J0D01*
G01*
X234641000Y-122283200D01*
G75*
G02*
X234866000Y-122508200I0J-225000D01*
G01*
G37*
G36*
G01*
X236416000Y-122508200D02*
X236416000Y-123008200D01*
G75*
G02*
X236191000Y-123233200I-225000J0D01*
G01*
X235741000Y-123233200D01*
G75*
G02*
X235516000Y-123008200I0J225000D01*
G01*
X235516000Y-122508200D01*
G75*
G02*
X235741000Y-122283200I225000J0D01*
G01*
X236191000Y-122283200D01*
G75*
G02*
X236416000Y-122508200I0J-225000D01*
G01*
G37*
%TD*%
%TO.C,C54*%
G36*
G01*
X230116200Y-160354200D02*
X230116200Y-160854200D01*
G75*
G02*
X229891200Y-161079200I-225000J0D01*
G01*
X229441200Y-161079200D01*
G75*
G02*
X229216200Y-160854200I0J225000D01*
G01*
X229216200Y-160354200D01*
G75*
G02*
X229441200Y-160129200I225000J0D01*
G01*
X229891200Y-160129200D01*
G75*
G02*
X230116200Y-160354200I0J-225000D01*
G01*
G37*
G36*
G01*
X231666200Y-160354200D02*
X231666200Y-160854200D01*
G75*
G02*
X231441200Y-161079200I-225000J0D01*
G01*
X230991200Y-161079200D01*
G75*
G02*
X230766200Y-160854200I0J225000D01*
G01*
X230766200Y-160354200D01*
G75*
G02*
X230991200Y-160129200I225000J0D01*
G01*
X231441200Y-160129200D01*
G75*
G02*
X231666200Y-160354200I0J-225000D01*
G01*
G37*
%TD*%
%TO.C,C55*%
G36*
G01*
X323934000Y-104199500D02*
X323934000Y-103699500D01*
G75*
G02*
X324159000Y-103474500I225000J0D01*
G01*
X324609000Y-103474500D01*
G75*
G02*
X324834000Y-103699500I0J-225000D01*
G01*
X324834000Y-104199500D01*
G75*
G02*
X324609000Y-104424500I-225000J0D01*
G01*
X324159000Y-104424500D01*
G75*
G02*
X323934000Y-104199500I0J225000D01*
G01*
G37*
G36*
G01*
X322384000Y-104199500D02*
X322384000Y-103699500D01*
G75*
G02*
X322609000Y-103474500I225000J0D01*
G01*
X323059000Y-103474500D01*
G75*
G02*
X323284000Y-103699500I0J-225000D01*
G01*
X323284000Y-104199500D01*
G75*
G02*
X323059000Y-104424500I-225000J0D01*
G01*
X322609000Y-104424500D01*
G75*
G02*
X322384000Y-104199500I0J225000D01*
G01*
G37*
%TD*%
%TO.C,C56*%
G36*
G01*
X270822000Y-180463000D02*
X270822000Y-179963000D01*
G75*
G02*
X271047000Y-179738000I225000J0D01*
G01*
X271497000Y-179738000D01*
G75*
G02*
X271722000Y-179963000I0J-225000D01*
G01*
X271722000Y-180463000D01*
G75*
G02*
X271497000Y-180688000I-225000J0D01*
G01*
X271047000Y-180688000D01*
G75*
G02*
X270822000Y-180463000I0J225000D01*
G01*
G37*
G36*
G01*
X272372000Y-180463000D02*
X272372000Y-179963000D01*
G75*
G02*
X272597000Y-179738000I225000J0D01*
G01*
X273047000Y-179738000D01*
G75*
G02*
X273272000Y-179963000I0J-225000D01*
G01*
X273272000Y-180463000D01*
G75*
G02*
X273047000Y-180688000I-225000J0D01*
G01*
X272597000Y-180688000D01*
G75*
G02*
X272372000Y-180463000I0J225000D01*
G01*
G37*
%TD*%
%TO.C,C57*%
G36*
G01*
X296121000Y-180463000D02*
X296121000Y-179963000D01*
G75*
G02*
X296346000Y-179738000I225000J0D01*
G01*
X296796000Y-179738000D01*
G75*
G02*
X297021000Y-179963000I0J-225000D01*
G01*
X297021000Y-180463000D01*
G75*
G02*
X296796000Y-180688000I-225000J0D01*
G01*
X296346000Y-180688000D01*
G75*
G02*
X296121000Y-180463000I0J225000D01*
G01*
G37*
G36*
G01*
X294571000Y-180463000D02*
X294571000Y-179963000D01*
G75*
G02*
X294796000Y-179738000I225000J0D01*
G01*
X295246000Y-179738000D01*
G75*
G02*
X295471000Y-179963000I0J-225000D01*
G01*
X295471000Y-180463000D01*
G75*
G02*
X295246000Y-180688000I-225000J0D01*
G01*
X294796000Y-180688000D01*
G75*
G02*
X294571000Y-180463000I0J225000D01*
G01*
G37*
%TD*%
%TO.C,C58*%
G36*
G01*
X103271500Y-142299500D02*
X103271500Y-141799500D01*
G75*
G02*
X103496500Y-141574500I225000J0D01*
G01*
X103946500Y-141574500D01*
G75*
G02*
X104171500Y-141799500I0J-225000D01*
G01*
X104171500Y-142299500D01*
G75*
G02*
X103946500Y-142524500I-225000J0D01*
G01*
X103496500Y-142524500D01*
G75*
G02*
X103271500Y-142299500I0J225000D01*
G01*
G37*
G36*
G01*
X101721500Y-142299500D02*
X101721500Y-141799500D01*
G75*
G02*
X101946500Y-141574500I225000J0D01*
G01*
X102396500Y-141574500D01*
G75*
G02*
X102621500Y-141799500I0J-225000D01*
G01*
X102621500Y-142299500D01*
G75*
G02*
X102396500Y-142524500I-225000J0D01*
G01*
X101946500Y-142524500D01*
G75*
G02*
X101721500Y-142299500I0J225000D01*
G01*
G37*
%TD*%
%TO.C,C61*%
G36*
G01*
X49334000Y-104199500D02*
X49334000Y-103699500D01*
G75*
G02*
X49559000Y-103474500I225000J0D01*
G01*
X50009000Y-103474500D01*
G75*
G02*
X50234000Y-103699500I0J-225000D01*
G01*
X50234000Y-104199500D01*
G75*
G02*
X50009000Y-104424500I-225000J0D01*
G01*
X49559000Y-104424500D01*
G75*
G02*
X49334000Y-104199500I0J225000D01*
G01*
G37*
G36*
G01*
X50884000Y-104199500D02*
X50884000Y-103699500D01*
G75*
G02*
X51109000Y-103474500I225000J0D01*
G01*
X51559000Y-103474500D01*
G75*
G02*
X51784000Y-103699500I0J-225000D01*
G01*
X51784000Y-104199500D01*
G75*
G02*
X51559000Y-104424500I-225000J0D01*
G01*
X51109000Y-104424500D01*
G75*
G02*
X50884000Y-104199500I0J225000D01*
G01*
G37*
%TD*%
%TO.C,C62*%
G36*
G01*
X56496800Y-180437600D02*
X56496800Y-179937600D01*
G75*
G02*
X56721800Y-179712600I225000J0D01*
G01*
X57171800Y-179712600D01*
G75*
G02*
X57396800Y-179937600I0J-225000D01*
G01*
X57396800Y-180437600D01*
G75*
G02*
X57171800Y-180662600I-225000J0D01*
G01*
X56721800Y-180662600D01*
G75*
G02*
X56496800Y-180437600I0J225000D01*
G01*
G37*
G36*
G01*
X58046800Y-180437600D02*
X58046800Y-179937600D01*
G75*
G02*
X58271800Y-179712600I225000J0D01*
G01*
X58721800Y-179712600D01*
G75*
G02*
X58946800Y-179937600I0J-225000D01*
G01*
X58946800Y-180437600D01*
G75*
G02*
X58721800Y-180662600I-225000J0D01*
G01*
X58271800Y-180662600D01*
G75*
G02*
X58046800Y-180437600I0J225000D01*
G01*
G37*
%TD*%
%TO.C,C63*%
G36*
G01*
X37459500Y-142299500D02*
X37459500Y-141799500D01*
G75*
G02*
X37684500Y-141574500I225000J0D01*
G01*
X38134500Y-141574500D01*
G75*
G02*
X38359500Y-141799500I0J-225000D01*
G01*
X38359500Y-142299500D01*
G75*
G02*
X38134500Y-142524500I-225000J0D01*
G01*
X37684500Y-142524500D01*
G75*
G02*
X37459500Y-142299500I0J225000D01*
G01*
G37*
G36*
G01*
X39009500Y-142299500D02*
X39009500Y-141799500D01*
G75*
G02*
X39234500Y-141574500I225000J0D01*
G01*
X39684500Y-141574500D01*
G75*
G02*
X39909500Y-141799500I0J-225000D01*
G01*
X39909500Y-142299500D01*
G75*
G02*
X39684500Y-142524500I-225000J0D01*
G01*
X39234500Y-142524500D01*
G75*
G02*
X39009500Y-142299500I0J225000D01*
G01*
G37*
%TD*%
%TO.C,C64*%
G36*
G01*
X298341200Y-122063700D02*
X298341200Y-122563700D01*
G75*
G02*
X298116200Y-122788700I-225000J0D01*
G01*
X297666200Y-122788700D01*
G75*
G02*
X297441200Y-122563700I0J225000D01*
G01*
X297441200Y-122063700D01*
G75*
G02*
X297666200Y-121838700I225000J0D01*
G01*
X298116200Y-121838700D01*
G75*
G02*
X298341200Y-122063700I0J-225000D01*
G01*
G37*
G36*
G01*
X296791200Y-122063700D02*
X296791200Y-122563700D01*
G75*
G02*
X296566200Y-122788700I-225000J0D01*
G01*
X296116200Y-122788700D01*
G75*
G02*
X295891200Y-122563700I0J225000D01*
G01*
X295891200Y-122063700D01*
G75*
G02*
X296116200Y-121838700I225000J0D01*
G01*
X296566200Y-121838700D01*
G75*
G02*
X296791200Y-122063700I0J-225000D01*
G01*
G37*
%TD*%
%TO.C,C65*%
G36*
G01*
X189846800Y-180463000D02*
X189846800Y-179963000D01*
G75*
G02*
X190071800Y-179738000I225000J0D01*
G01*
X190521800Y-179738000D01*
G75*
G02*
X190746800Y-179963000I0J-225000D01*
G01*
X190746800Y-180463000D01*
G75*
G02*
X190521800Y-180688000I-225000J0D01*
G01*
X190071800Y-180688000D01*
G75*
G02*
X189846800Y-180463000I0J225000D01*
G01*
G37*
G36*
G01*
X191396800Y-180463000D02*
X191396800Y-179963000D01*
G75*
G02*
X191621800Y-179738000I225000J0D01*
G01*
X192071800Y-179738000D01*
G75*
G02*
X192296800Y-179963000I0J-225000D01*
G01*
X192296800Y-180463000D01*
G75*
G02*
X192071800Y-180688000I-225000J0D01*
G01*
X191621800Y-180688000D01*
G75*
G02*
X191396800Y-180463000I0J225000D01*
G01*
G37*
%TD*%
%TO.C,C66*%
G36*
G01*
X241384000Y-104186800D02*
X241384000Y-103686800D01*
G75*
G02*
X241609000Y-103461800I225000J0D01*
G01*
X242059000Y-103461800D01*
G75*
G02*
X242284000Y-103686800I0J-225000D01*
G01*
X242284000Y-104186800D01*
G75*
G02*
X242059000Y-104411800I-225000J0D01*
G01*
X241609000Y-104411800D01*
G75*
G02*
X241384000Y-104186800I0J225000D01*
G01*
G37*
G36*
G01*
X239834000Y-104186800D02*
X239834000Y-103686800D01*
G75*
G02*
X240059000Y-103461800I225000J0D01*
G01*
X240509000Y-103461800D01*
G75*
G02*
X240734000Y-103686800I0J-225000D01*
G01*
X240734000Y-104186800D01*
G75*
G02*
X240509000Y-104411800I-225000J0D01*
G01*
X240059000Y-104411800D01*
G75*
G02*
X239834000Y-104186800I0J225000D01*
G01*
G37*
%TD*%
%TO.C,C67*%
G36*
G01*
X155491600Y-160328800D02*
X155491600Y-160828800D01*
G75*
G02*
X155266600Y-161053800I-225000J0D01*
G01*
X154816600Y-161053800D01*
G75*
G02*
X154591600Y-160828800I0J225000D01*
G01*
X154591600Y-160328800D01*
G75*
G02*
X154816600Y-160103800I225000J0D01*
G01*
X155266600Y-160103800D01*
G75*
G02*
X155491600Y-160328800I0J-225000D01*
G01*
G37*
G36*
G01*
X153941600Y-160328800D02*
X153941600Y-160828800D01*
G75*
G02*
X153716600Y-161053800I-225000J0D01*
G01*
X153266600Y-161053800D01*
G75*
G02*
X153041600Y-160828800I0J225000D01*
G01*
X153041600Y-160328800D01*
G75*
G02*
X153266600Y-160103800I225000J0D01*
G01*
X153716600Y-160103800D01*
G75*
G02*
X153941600Y-160328800I0J-225000D01*
G01*
G37*
%TD*%
%TO.C,C68*%
G36*
G01*
X355049000Y-82469800D02*
X355049000Y-81969800D01*
G75*
G02*
X355274000Y-81744800I225000J0D01*
G01*
X355724000Y-81744800D01*
G75*
G02*
X355949000Y-81969800I0J-225000D01*
G01*
X355949000Y-82469800D01*
G75*
G02*
X355724000Y-82694800I-225000J0D01*
G01*
X355274000Y-82694800D01*
G75*
G02*
X355049000Y-82469800I0J225000D01*
G01*
G37*
G36*
G01*
X353499000Y-82469800D02*
X353499000Y-81969800D01*
G75*
G02*
X353724000Y-81744800I225000J0D01*
G01*
X354174000Y-81744800D01*
G75*
G02*
X354399000Y-81969800I0J-225000D01*
G01*
X354399000Y-82469800D01*
G75*
G02*
X354174000Y-82694800I-225000J0D01*
G01*
X353724000Y-82694800D01*
G75*
G02*
X353499000Y-82469800I0J225000D01*
G01*
G37*
%TD*%
%TO.C,C69*%
G36*
G01*
X244429100Y-81474500D02*
X244429100Y-81974500D01*
G75*
G02*
X244204100Y-82199500I-225000J0D01*
G01*
X243754100Y-82199500D01*
G75*
G02*
X243529100Y-81974500I0J225000D01*
G01*
X243529100Y-81474500D01*
G75*
G02*
X243754100Y-81249500I225000J0D01*
G01*
X244204100Y-81249500D01*
G75*
G02*
X244429100Y-81474500I0J-225000D01*
G01*
G37*
G36*
G01*
X245979100Y-81474500D02*
X245979100Y-81974500D01*
G75*
G02*
X245754100Y-82199500I-225000J0D01*
G01*
X245304100Y-82199500D01*
G75*
G02*
X245079100Y-81974500I0J225000D01*
G01*
X245079100Y-81474500D01*
G75*
G02*
X245304100Y-81249500I225000J0D01*
G01*
X245754100Y-81249500D01*
G75*
G02*
X245979100Y-81474500I0J-225000D01*
G01*
G37*
%TD*%
%TO.C,C70*%
G36*
G01*
X31834000Y-104263000D02*
X31834000Y-103763000D01*
G75*
G02*
X32059000Y-103538000I225000J0D01*
G01*
X32509000Y-103538000D01*
G75*
G02*
X32734000Y-103763000I0J-225000D01*
G01*
X32734000Y-104263000D01*
G75*
G02*
X32509000Y-104488000I-225000J0D01*
G01*
X32059000Y-104488000D01*
G75*
G02*
X31834000Y-104263000I0J225000D01*
G01*
G37*
G36*
G01*
X30284000Y-104263000D02*
X30284000Y-103763000D01*
G75*
G02*
X30509000Y-103538000I225000J0D01*
G01*
X30959000Y-103538000D01*
G75*
G02*
X31184000Y-103763000I0J-225000D01*
G01*
X31184000Y-104263000D01*
G75*
G02*
X30959000Y-104488000I-225000J0D01*
G01*
X30509000Y-104488000D01*
G75*
G02*
X30284000Y-104263000I0J225000D01*
G01*
G37*
%TD*%
%TO.C,C71*%
G36*
G01*
X360484000Y-104263000D02*
X360484000Y-103763000D01*
G75*
G02*
X360709000Y-103538000I225000J0D01*
G01*
X361159000Y-103538000D01*
G75*
G02*
X361384000Y-103763000I0J-225000D01*
G01*
X361384000Y-104263000D01*
G75*
G02*
X361159000Y-104488000I-225000J0D01*
G01*
X360709000Y-104488000D01*
G75*
G02*
X360484000Y-104263000I0J225000D01*
G01*
G37*
G36*
G01*
X362034000Y-104263000D02*
X362034000Y-103763000D01*
G75*
G02*
X362259000Y-103538000I225000J0D01*
G01*
X362709000Y-103538000D01*
G75*
G02*
X362934000Y-103763000I0J-225000D01*
G01*
X362934000Y-104263000D01*
G75*
G02*
X362709000Y-104488000I-225000J0D01*
G01*
X362259000Y-104488000D01*
G75*
G02*
X362034000Y-104263000I0J225000D01*
G01*
G37*
%TD*%
%TO.C,C73*%
G36*
G01*
X220784000Y-104186800D02*
X220784000Y-103686800D01*
G75*
G02*
X221009000Y-103461800I225000J0D01*
G01*
X221459000Y-103461800D01*
G75*
G02*
X221684000Y-103686800I0J-225000D01*
G01*
X221684000Y-104186800D01*
G75*
G02*
X221459000Y-104411800I-225000J0D01*
G01*
X221009000Y-104411800D01*
G75*
G02*
X220784000Y-104186800I0J225000D01*
G01*
G37*
G36*
G01*
X222334000Y-104186800D02*
X222334000Y-103686800D01*
G75*
G02*
X222559000Y-103461800I225000J0D01*
G01*
X223009000Y-103461800D01*
G75*
G02*
X223234000Y-103686800I0J-225000D01*
G01*
X223234000Y-104186800D01*
G75*
G02*
X223009000Y-104411800I-225000J0D01*
G01*
X222559000Y-104411800D01*
G75*
G02*
X222334000Y-104186800I0J225000D01*
G01*
G37*
%TD*%
%TO.C,C76*%
G36*
G01*
X82440600Y-81588800D02*
X82440600Y-82088800D01*
G75*
G02*
X82215600Y-82313800I-225000J0D01*
G01*
X81765600Y-82313800D01*
G75*
G02*
X81540600Y-82088800I0J225000D01*
G01*
X81540600Y-81588800D01*
G75*
G02*
X81765600Y-81363800I225000J0D01*
G01*
X82215600Y-81363800D01*
G75*
G02*
X82440600Y-81588800I0J-225000D01*
G01*
G37*
G36*
G01*
X83990600Y-81588800D02*
X83990600Y-82088800D01*
G75*
G02*
X83765600Y-82313800I-225000J0D01*
G01*
X83315600Y-82313800D01*
G75*
G02*
X83090600Y-82088800I0J225000D01*
G01*
X83090600Y-81588800D01*
G75*
G02*
X83315600Y-81363800I225000J0D01*
G01*
X83765600Y-81363800D01*
G75*
G02*
X83990600Y-81588800I0J-225000D01*
G01*
G37*
%TD*%
%TO.C,C77*%
G36*
G01*
X203284000Y-104237600D02*
X203284000Y-103737600D01*
G75*
G02*
X203509000Y-103512600I225000J0D01*
G01*
X203959000Y-103512600D01*
G75*
G02*
X204184000Y-103737600I0J-225000D01*
G01*
X204184000Y-104237600D01*
G75*
G02*
X203959000Y-104462600I-225000J0D01*
G01*
X203509000Y-104462600D01*
G75*
G02*
X203284000Y-104237600I0J225000D01*
G01*
G37*
G36*
G01*
X201734000Y-104237600D02*
X201734000Y-103737600D01*
G75*
G02*
X201959000Y-103512600I225000J0D01*
G01*
X202409000Y-103512600D01*
G75*
G02*
X202634000Y-103737600I0J-225000D01*
G01*
X202634000Y-104237600D01*
G75*
G02*
X202409000Y-104462600I-225000J0D01*
G01*
X201959000Y-104462600D01*
G75*
G02*
X201734000Y-104237600I0J225000D01*
G01*
G37*
%TD*%
%TO.C,C78*%
G36*
G01*
X115790800Y-160354200D02*
X115790800Y-160854200D01*
G75*
G02*
X115565800Y-161079200I-225000J0D01*
G01*
X115115800Y-161079200D01*
G75*
G02*
X114890800Y-160854200I0J225000D01*
G01*
X114890800Y-160354200D01*
G75*
G02*
X115115800Y-160129200I225000J0D01*
G01*
X115565800Y-160129200D01*
G75*
G02*
X115790800Y-160354200I0J-225000D01*
G01*
G37*
G36*
G01*
X117340800Y-160354200D02*
X117340800Y-160854200D01*
G75*
G02*
X117115800Y-161079200I-225000J0D01*
G01*
X116665800Y-161079200D01*
G75*
G02*
X116440800Y-160854200I0J225000D01*
G01*
X116440800Y-160354200D01*
G75*
G02*
X116665800Y-160129200I225000J0D01*
G01*
X117115800Y-160129200D01*
G75*
G02*
X117340800Y-160354200I0J-225000D01*
G01*
G37*
%TD*%
%TO.C,C79*%
G36*
G01*
X345978300Y-121835100D02*
X345978300Y-122335100D01*
G75*
G02*
X345753300Y-122560100I-225000J0D01*
G01*
X345303300Y-122560100D01*
G75*
G02*
X345078300Y-122335100I0J225000D01*
G01*
X345078300Y-121835100D01*
G75*
G02*
X345303300Y-121610100I225000J0D01*
G01*
X345753300Y-121610100D01*
G75*
G02*
X345978300Y-121835100I0J-225000D01*
G01*
G37*
G36*
G01*
X347528300Y-121835100D02*
X347528300Y-122335100D01*
G75*
G02*
X347303300Y-122560100I-225000J0D01*
G01*
X346853300Y-122560100D01*
G75*
G02*
X346628300Y-122335100I0J225000D01*
G01*
X346628300Y-121835100D01*
G75*
G02*
X346853300Y-121610100I225000J0D01*
G01*
X347303300Y-121610100D01*
G75*
G02*
X347528300Y-121835100I0J-225000D01*
G01*
G37*
%TD*%
%TO.C,C80*%
G36*
G01*
X122321500Y-142363000D02*
X122321500Y-141863000D01*
G75*
G02*
X122546500Y-141638000I225000J0D01*
G01*
X122996500Y-141638000D01*
G75*
G02*
X123221500Y-141863000I0J-225000D01*
G01*
X123221500Y-142363000D01*
G75*
G02*
X122996500Y-142588000I-225000J0D01*
G01*
X122546500Y-142588000D01*
G75*
G02*
X122321500Y-142363000I0J225000D01*
G01*
G37*
G36*
G01*
X120771500Y-142363000D02*
X120771500Y-141863000D01*
G75*
G02*
X120996500Y-141638000I225000J0D01*
G01*
X121446500Y-141638000D01*
G75*
G02*
X121671500Y-141863000I0J-225000D01*
G01*
X121671500Y-142363000D01*
G75*
G02*
X121446500Y-142588000I-225000J0D01*
G01*
X120996500Y-142588000D01*
G75*
G02*
X120771500Y-142363000I0J225000D01*
G01*
G37*
%TD*%
%TO.C,C81*%
G36*
G01*
X322384000Y-180463000D02*
X322384000Y-179963000D01*
G75*
G02*
X322609000Y-179738000I225000J0D01*
G01*
X323059000Y-179738000D01*
G75*
G02*
X323284000Y-179963000I0J-225000D01*
G01*
X323284000Y-180463000D01*
G75*
G02*
X323059000Y-180688000I-225000J0D01*
G01*
X322609000Y-180688000D01*
G75*
G02*
X322384000Y-180463000I0J225000D01*
G01*
G37*
G36*
G01*
X323934000Y-180463000D02*
X323934000Y-179963000D01*
G75*
G02*
X324159000Y-179738000I225000J0D01*
G01*
X324609000Y-179738000D01*
G75*
G02*
X324834000Y-179963000I0J-225000D01*
G01*
X324834000Y-180463000D01*
G75*
G02*
X324609000Y-180688000I-225000J0D01*
G01*
X324159000Y-180688000D01*
G75*
G02*
X323934000Y-180463000I0J225000D01*
G01*
G37*
%TD*%
%TO.C,C82*%
G36*
G01*
X82735000Y-142363000D02*
X82735000Y-141863000D01*
G75*
G02*
X82960000Y-141638000I225000J0D01*
G01*
X83410000Y-141638000D01*
G75*
G02*
X83635000Y-141863000I0J-225000D01*
G01*
X83635000Y-142363000D01*
G75*
G02*
X83410000Y-142588000I-225000J0D01*
G01*
X82960000Y-142588000D01*
G75*
G02*
X82735000Y-142363000I0J225000D01*
G01*
G37*
G36*
G01*
X84285000Y-142363000D02*
X84285000Y-141863000D01*
G75*
G02*
X84510000Y-141638000I225000J0D01*
G01*
X84960000Y-141638000D01*
G75*
G02*
X85185000Y-141863000I0J-225000D01*
G01*
X85185000Y-142363000D01*
G75*
G02*
X84960000Y-142588000I-225000J0D01*
G01*
X84510000Y-142588000D01*
G75*
G02*
X84285000Y-142363000I0J225000D01*
G01*
G37*
%TD*%
%TO.C,C83*%
G36*
G01*
X103027900Y-81550700D02*
X103027900Y-82050700D01*
G75*
G02*
X102802900Y-82275700I-225000J0D01*
G01*
X102352900Y-82275700D01*
G75*
G02*
X102127900Y-82050700I0J225000D01*
G01*
X102127900Y-81550700D01*
G75*
G02*
X102352900Y-81325700I225000J0D01*
G01*
X102802900Y-81325700D01*
G75*
G02*
X103027900Y-81550700I0J-225000D01*
G01*
G37*
G36*
G01*
X101477900Y-81550700D02*
X101477900Y-82050700D01*
G75*
G02*
X101252900Y-82275700I-225000J0D01*
G01*
X100802900Y-82275700D01*
G75*
G02*
X100577900Y-82050700I0J225000D01*
G01*
X100577900Y-81550700D01*
G75*
G02*
X100802900Y-81325700I225000J0D01*
G01*
X101252900Y-81325700D01*
G75*
G02*
X101477900Y-81550700I0J-225000D01*
G01*
G37*
%TD*%
%TO.C,C84*%
G36*
G01*
X371623400Y-81069000D02*
X371123400Y-81069000D01*
G75*
G02*
X370898400Y-80844000I0J225000D01*
G01*
X370898400Y-80394000D01*
G75*
G02*
X371123400Y-80169000I225000J0D01*
G01*
X371623400Y-80169000D01*
G75*
G02*
X371848400Y-80394000I0J-225000D01*
G01*
X371848400Y-80844000D01*
G75*
G02*
X371623400Y-81069000I-225000J0D01*
G01*
G37*
G36*
G01*
X371623400Y-82619000D02*
X371123400Y-82619000D01*
G75*
G02*
X370898400Y-82394000I0J225000D01*
G01*
X370898400Y-81944000D01*
G75*
G02*
X371123400Y-81719000I225000J0D01*
G01*
X371623400Y-81719000D01*
G75*
G02*
X371848400Y-81944000I0J-225000D01*
G01*
X371848400Y-82394000D01*
G75*
G02*
X371623400Y-82619000I-225000J0D01*
G01*
G37*
%TD*%
%TO.C,C85*%
G36*
G01*
X158678700Y-122114500D02*
X158678700Y-122614500D01*
G75*
G02*
X158453700Y-122839500I-225000J0D01*
G01*
X158003700Y-122839500D01*
G75*
G02*
X157778700Y-122614500I0J225000D01*
G01*
X157778700Y-122114500D01*
G75*
G02*
X158003700Y-121889500I225000J0D01*
G01*
X158453700Y-121889500D01*
G75*
G02*
X158678700Y-122114500I0J-225000D01*
G01*
G37*
G36*
G01*
X160228700Y-122114500D02*
X160228700Y-122614500D01*
G75*
G02*
X160003700Y-122839500I-225000J0D01*
G01*
X159553700Y-122839500D01*
G75*
G02*
X159328700Y-122614500I0J225000D01*
G01*
X159328700Y-122114500D01*
G75*
G02*
X159553700Y-121889500I225000J0D01*
G01*
X160003700Y-121889500D01*
G75*
G02*
X160228700Y-122114500I0J-225000D01*
G01*
G37*
%TD*%
%TO.C,C86*%
G36*
G01*
X163634000Y-104186800D02*
X163634000Y-103686800D01*
G75*
G02*
X163859000Y-103461800I225000J0D01*
G01*
X164309000Y-103461800D01*
G75*
G02*
X164534000Y-103686800I0J-225000D01*
G01*
X164534000Y-104186800D01*
G75*
G02*
X164309000Y-104411800I-225000J0D01*
G01*
X163859000Y-104411800D01*
G75*
G02*
X163634000Y-104186800I0J225000D01*
G01*
G37*
G36*
G01*
X165184000Y-104186800D02*
X165184000Y-103686800D01*
G75*
G02*
X165409000Y-103461800I225000J0D01*
G01*
X165859000Y-103461800D01*
G75*
G02*
X166084000Y-103686800I0J-225000D01*
G01*
X166084000Y-104186800D01*
G75*
G02*
X165859000Y-104411800I-225000J0D01*
G01*
X165409000Y-104411800D01*
G75*
G02*
X165184000Y-104186800I0J225000D01*
G01*
G37*
%TD*%
%TO.C,C89*%
G36*
G01*
X80322000Y-180437600D02*
X80322000Y-179937600D01*
G75*
G02*
X80547000Y-179712600I225000J0D01*
G01*
X80997000Y-179712600D01*
G75*
G02*
X81222000Y-179937600I0J-225000D01*
G01*
X81222000Y-180437600D01*
G75*
G02*
X80997000Y-180662600I-225000J0D01*
G01*
X80547000Y-180662600D01*
G75*
G02*
X80322000Y-180437600I0J225000D01*
G01*
G37*
G36*
G01*
X81872000Y-180437600D02*
X81872000Y-179937600D01*
G75*
G02*
X82097000Y-179712600I225000J0D01*
G01*
X82547000Y-179712600D01*
G75*
G02*
X82772000Y-179937600I0J-225000D01*
G01*
X82772000Y-180437600D01*
G75*
G02*
X82547000Y-180662600I-225000J0D01*
G01*
X82097000Y-180662600D01*
G75*
G02*
X81872000Y-180437600I0J225000D01*
G01*
G37*
%TD*%
%TO.C,C90*%
G36*
G01*
X48316300Y-160328800D02*
X48316300Y-160828800D01*
G75*
G02*
X48091300Y-161053800I-225000J0D01*
G01*
X47641300Y-161053800D01*
G75*
G02*
X47416300Y-160828800I0J225000D01*
G01*
X47416300Y-160328800D01*
G75*
G02*
X47641300Y-160103800I225000J0D01*
G01*
X48091300Y-160103800D01*
G75*
G02*
X48316300Y-160328800I0J-225000D01*
G01*
G37*
G36*
G01*
X46766300Y-160328800D02*
X46766300Y-160828800D01*
G75*
G02*
X46541300Y-161053800I-225000J0D01*
G01*
X46091300Y-161053800D01*
G75*
G02*
X45866300Y-160828800I0J225000D01*
G01*
X45866300Y-160328800D01*
G75*
G02*
X46091300Y-160103800I225000J0D01*
G01*
X46541300Y-160103800D01*
G75*
G02*
X46766300Y-160328800I0J-225000D01*
G01*
G37*
%TD*%
%TO.C,C91*%
G36*
G01*
X362034000Y-180399500D02*
X362034000Y-179899500D01*
G75*
G02*
X362259000Y-179674500I225000J0D01*
G01*
X362709000Y-179674500D01*
G75*
G02*
X362934000Y-179899500I0J-225000D01*
G01*
X362934000Y-180399500D01*
G75*
G02*
X362709000Y-180624500I-225000J0D01*
G01*
X362259000Y-180624500D01*
G75*
G02*
X362034000Y-180399500I0J225000D01*
G01*
G37*
G36*
G01*
X360484000Y-180399500D02*
X360484000Y-179899500D01*
G75*
G02*
X360709000Y-179674500I225000J0D01*
G01*
X361159000Y-179674500D01*
G75*
G02*
X361384000Y-179899500I0J-225000D01*
G01*
X361384000Y-180399500D01*
G75*
G02*
X361159000Y-180624500I-225000J0D01*
G01*
X360709000Y-180624500D01*
G75*
G02*
X360484000Y-180399500I0J225000D01*
G01*
G37*
%TD*%
%TO.C,C92*%
G36*
G01*
X141371500Y-142363000D02*
X141371500Y-141863000D01*
G75*
G02*
X141596500Y-141638000I225000J0D01*
G01*
X142046500Y-141638000D01*
G75*
G02*
X142271500Y-141863000I0J-225000D01*
G01*
X142271500Y-142363000D01*
G75*
G02*
X142046500Y-142588000I-225000J0D01*
G01*
X141596500Y-142588000D01*
G75*
G02*
X141371500Y-142363000I0J225000D01*
G01*
G37*
G36*
G01*
X139821500Y-142363000D02*
X139821500Y-141863000D01*
G75*
G02*
X140046500Y-141638000I225000J0D01*
G01*
X140496500Y-141638000D01*
G75*
G02*
X140721500Y-141863000I0J-225000D01*
G01*
X140721500Y-142363000D01*
G75*
G02*
X140496500Y-142588000I-225000J0D01*
G01*
X140046500Y-142588000D01*
G75*
G02*
X139821500Y-142363000I0J225000D01*
G01*
G37*
%TD*%
%TO.C,C93*%
G36*
G01*
X249140800Y-160608200D02*
X249140800Y-161108200D01*
G75*
G02*
X248915800Y-161333200I-225000J0D01*
G01*
X248465800Y-161333200D01*
G75*
G02*
X248240800Y-161108200I0J225000D01*
G01*
X248240800Y-160608200D01*
G75*
G02*
X248465800Y-160383200I225000J0D01*
G01*
X248915800Y-160383200D01*
G75*
G02*
X249140800Y-160608200I0J-225000D01*
G01*
G37*
G36*
G01*
X250690800Y-160608200D02*
X250690800Y-161108200D01*
G75*
G02*
X250465800Y-161333200I-225000J0D01*
G01*
X250015800Y-161333200D01*
G75*
G02*
X249790800Y-161108200I0J225000D01*
G01*
X249790800Y-160608200D01*
G75*
G02*
X250015800Y-160383200I225000J0D01*
G01*
X250465800Y-160383200D01*
G75*
G02*
X250690800Y-160608200I0J-225000D01*
G01*
G37*
%TD*%
%TO.C,C94*%
G36*
G01*
X301541000Y-81487200D02*
X301541000Y-81987200D01*
G75*
G02*
X301316000Y-82212200I-225000J0D01*
G01*
X300866000Y-82212200D01*
G75*
G02*
X300641000Y-81987200I0J225000D01*
G01*
X300641000Y-81487200D01*
G75*
G02*
X300866000Y-81262200I225000J0D01*
G01*
X301316000Y-81262200D01*
G75*
G02*
X301541000Y-81487200I0J-225000D01*
G01*
G37*
G36*
G01*
X303091000Y-81487200D02*
X303091000Y-81987200D01*
G75*
G02*
X302866000Y-82212200I-225000J0D01*
G01*
X302416000Y-82212200D01*
G75*
G02*
X302191000Y-81987200I0J225000D01*
G01*
X302191000Y-81487200D01*
G75*
G02*
X302416000Y-81262200I225000J0D01*
G01*
X302866000Y-81262200D01*
G75*
G02*
X303091000Y-81487200I0J-225000D01*
G01*
G37*
%TD*%
%TO.C,C95*%
G36*
G01*
X120591400Y-81563400D02*
X120591400Y-82063400D01*
G75*
G02*
X120366400Y-82288400I-225000J0D01*
G01*
X119916400Y-82288400D01*
G75*
G02*
X119691400Y-82063400I0J225000D01*
G01*
X119691400Y-81563400D01*
G75*
G02*
X119916400Y-81338400I225000J0D01*
G01*
X120366400Y-81338400D01*
G75*
G02*
X120591400Y-81563400I0J-225000D01*
G01*
G37*
G36*
G01*
X122141400Y-81563400D02*
X122141400Y-82063400D01*
G75*
G02*
X121916400Y-82288400I-225000J0D01*
G01*
X121466400Y-82288400D01*
G75*
G02*
X121241400Y-82063400I0J225000D01*
G01*
X121241400Y-81563400D01*
G75*
G02*
X121466400Y-81338400I225000J0D01*
G01*
X121916400Y-81338400D01*
G75*
G02*
X122141400Y-81563400I0J-225000D01*
G01*
G37*
%TD*%
%TO.C,C96*%
G36*
G01*
X198366800Y-122152600D02*
X198366800Y-122652600D01*
G75*
G02*
X198141800Y-122877600I-225000J0D01*
G01*
X197691800Y-122877600D01*
G75*
G02*
X197466800Y-122652600I0J225000D01*
G01*
X197466800Y-122152600D01*
G75*
G02*
X197691800Y-121927600I225000J0D01*
G01*
X198141800Y-121927600D01*
G75*
G02*
X198366800Y-122152600I0J-225000D01*
G01*
G37*
G36*
G01*
X196816800Y-122152600D02*
X196816800Y-122652600D01*
G75*
G02*
X196591800Y-122877600I-225000J0D01*
G01*
X196141800Y-122877600D01*
G75*
G02*
X195916800Y-122652600I0J225000D01*
G01*
X195916800Y-122152600D01*
G75*
G02*
X196141800Y-121927600I225000J0D01*
G01*
X196591800Y-121927600D01*
G75*
G02*
X196816800Y-122152600I0J-225000D01*
G01*
G37*
%TD*%
%TO.C,C97*%
G36*
G01*
X174516200Y-160405000D02*
X174516200Y-160905000D01*
G75*
G02*
X174291200Y-161130000I-225000J0D01*
G01*
X173841200Y-161130000D01*
G75*
G02*
X173616200Y-160905000I0J225000D01*
G01*
X173616200Y-160405000D01*
G75*
G02*
X173841200Y-160180000I225000J0D01*
G01*
X174291200Y-160180000D01*
G75*
G02*
X174516200Y-160405000I0J-225000D01*
G01*
G37*
G36*
G01*
X172966200Y-160405000D02*
X172966200Y-160905000D01*
G75*
G02*
X172741200Y-161130000I-225000J0D01*
G01*
X172291200Y-161130000D01*
G75*
G02*
X172066200Y-160905000I0J225000D01*
G01*
X172066200Y-160405000D01*
G75*
G02*
X172291200Y-160180000I225000J0D01*
G01*
X172741200Y-160180000D01*
G75*
G02*
X172966200Y-160405000I0J-225000D01*
G01*
G37*
%TD*%
%TO.C,C98*%
G36*
G01*
X136441600Y-160354200D02*
X136441600Y-160854200D01*
G75*
G02*
X136216600Y-161079200I-225000J0D01*
G01*
X135766600Y-161079200D01*
G75*
G02*
X135541600Y-160854200I0J225000D01*
G01*
X135541600Y-160354200D01*
G75*
G02*
X135766600Y-160129200I225000J0D01*
G01*
X136216600Y-160129200D01*
G75*
G02*
X136441600Y-160354200I0J-225000D01*
G01*
G37*
G36*
G01*
X134891600Y-160354200D02*
X134891600Y-160854200D01*
G75*
G02*
X134666600Y-161079200I-225000J0D01*
G01*
X134216600Y-161079200D01*
G75*
G02*
X133991600Y-160854200I0J225000D01*
G01*
X133991600Y-160354200D01*
G75*
G02*
X134216600Y-160129200I225000J0D01*
G01*
X134666600Y-160129200D01*
G75*
G02*
X134891600Y-160354200I0J-225000D01*
G01*
G37*
%TD*%
%TO.C,C99*%
G36*
G01*
X64966000Y-81538000D02*
X64966000Y-82038000D01*
G75*
G02*
X64741000Y-82263000I-225000J0D01*
G01*
X64291000Y-82263000D01*
G75*
G02*
X64066000Y-82038000I0J225000D01*
G01*
X64066000Y-81538000D01*
G75*
G02*
X64291000Y-81313000I225000J0D01*
G01*
X64741000Y-81313000D01*
G75*
G02*
X64966000Y-81538000I0J-225000D01*
G01*
G37*
G36*
G01*
X63416000Y-81538000D02*
X63416000Y-82038000D01*
G75*
G02*
X63191000Y-82263000I-225000J0D01*
G01*
X62741000Y-82263000D01*
G75*
G02*
X62516000Y-82038000I0J225000D01*
G01*
X62516000Y-81538000D01*
G75*
G02*
X62741000Y-81313000I225000J0D01*
G01*
X63191000Y-81313000D01*
G75*
G02*
X63416000Y-81538000I0J-225000D01*
G01*
G37*
%TD*%
%TO.C,C100*%
G36*
G01*
X193553500Y-81512600D02*
X193553500Y-82012600D01*
G75*
G02*
X193328500Y-82237600I-225000J0D01*
G01*
X192878500Y-82237600D01*
G75*
G02*
X192653500Y-82012600I0J225000D01*
G01*
X192653500Y-81512600D01*
G75*
G02*
X192878500Y-81287600I225000J0D01*
G01*
X193328500Y-81287600D01*
G75*
G02*
X193553500Y-81512600I0J-225000D01*
G01*
G37*
G36*
G01*
X192003500Y-81512600D02*
X192003500Y-82012600D01*
G75*
G02*
X191778500Y-82237600I-225000J0D01*
G01*
X191328500Y-82237600D01*
G75*
G02*
X191103500Y-82012600I0J225000D01*
G01*
X191103500Y-81512600D01*
G75*
G02*
X191328500Y-81287600I225000J0D01*
G01*
X191778500Y-81287600D01*
G75*
G02*
X192003500Y-81512600I0J-225000D01*
G01*
G37*
%TD*%
%TO.C,C102*%
G36*
G01*
X65235000Y-142236000D02*
X65235000Y-141736000D01*
G75*
G02*
X65460000Y-141511000I225000J0D01*
G01*
X65910000Y-141511000D01*
G75*
G02*
X66135000Y-141736000I0J-225000D01*
G01*
X66135000Y-142236000D01*
G75*
G02*
X65910000Y-142461000I-225000J0D01*
G01*
X65460000Y-142461000D01*
G75*
G02*
X65235000Y-142236000I0J225000D01*
G01*
G37*
G36*
G01*
X63685000Y-142236000D02*
X63685000Y-141736000D01*
G75*
G02*
X63910000Y-141511000I225000J0D01*
G01*
X64360000Y-141511000D01*
G75*
G02*
X64585000Y-141736000I0J-225000D01*
G01*
X64585000Y-142236000D01*
G75*
G02*
X64360000Y-142461000I-225000J0D01*
G01*
X63910000Y-142461000D01*
G75*
G02*
X63685000Y-142236000I0J225000D01*
G01*
G37*
%TD*%
%TO.C,C103*%
G36*
G01*
X217327900Y-122089100D02*
X217327900Y-122589100D01*
G75*
G02*
X217102900Y-122814100I-225000J0D01*
G01*
X216652900Y-122814100D01*
G75*
G02*
X216427900Y-122589100I0J225000D01*
G01*
X216427900Y-122089100D01*
G75*
G02*
X216652900Y-121864100I225000J0D01*
G01*
X217102900Y-121864100D01*
G75*
G02*
X217327900Y-122089100I0J-225000D01*
G01*
G37*
G36*
G01*
X215777900Y-122089100D02*
X215777900Y-122589100D01*
G75*
G02*
X215552900Y-122814100I-225000J0D01*
G01*
X215102900Y-122814100D01*
G75*
G02*
X214877900Y-122589100I0J225000D01*
G01*
X214877900Y-122089100D01*
G75*
G02*
X215102900Y-121864100I225000J0D01*
G01*
X215552900Y-121864100D01*
G75*
G02*
X215777900Y-122089100I0J-225000D01*
G01*
G37*
%TD*%
%TO.C,C104*%
G36*
G01*
X284066400Y-81487200D02*
X284066400Y-81987200D01*
G75*
G02*
X283841400Y-82212200I-225000J0D01*
G01*
X283391400Y-82212200D01*
G75*
G02*
X283166400Y-81987200I0J225000D01*
G01*
X283166400Y-81487200D01*
G75*
G02*
X283391400Y-81262200I225000J0D01*
G01*
X283841400Y-81262200D01*
G75*
G02*
X284066400Y-81487200I0J-225000D01*
G01*
G37*
G36*
G01*
X282516400Y-81487200D02*
X282516400Y-81987200D01*
G75*
G02*
X282291400Y-82212200I-225000J0D01*
G01*
X281841400Y-82212200D01*
G75*
G02*
X281616400Y-81987200I0J225000D01*
G01*
X281616400Y-81487200D01*
G75*
G02*
X281841400Y-81262200I225000J0D01*
G01*
X282291400Y-81262200D01*
G75*
G02*
X282516400Y-81487200I0J-225000D01*
G01*
G37*
%TD*%
%TO.C,C105*%
G36*
G01*
X223171600Y-180437600D02*
X223171600Y-179937600D01*
G75*
G02*
X223396600Y-179712600I225000J0D01*
G01*
X223846600Y-179712600D01*
G75*
G02*
X224071600Y-179937600I0J-225000D01*
G01*
X224071600Y-180437600D01*
G75*
G02*
X223846600Y-180662600I-225000J0D01*
G01*
X223396600Y-180662600D01*
G75*
G02*
X223171600Y-180437600I0J225000D01*
G01*
G37*
G36*
G01*
X224721600Y-180437600D02*
X224721600Y-179937600D01*
G75*
G02*
X224946600Y-179712600I225000J0D01*
G01*
X225396600Y-179712600D01*
G75*
G02*
X225621600Y-179937600I0J-225000D01*
G01*
X225621600Y-180437600D01*
G75*
G02*
X225396600Y-180662600I-225000J0D01*
G01*
X224946600Y-180662600D01*
G75*
G02*
X224721600Y-180437600I0J225000D01*
G01*
G37*
%TD*%
%TO.C,C106*%
G36*
G01*
X88984000Y-104199500D02*
X88984000Y-103699500D01*
G75*
G02*
X89209000Y-103474500I225000J0D01*
G01*
X89659000Y-103474500D01*
G75*
G02*
X89884000Y-103699500I0J-225000D01*
G01*
X89884000Y-104199500D01*
G75*
G02*
X89659000Y-104424500I-225000J0D01*
G01*
X89209000Y-104424500D01*
G75*
G02*
X88984000Y-104199500I0J225000D01*
G01*
G37*
G36*
G01*
X87434000Y-104199500D02*
X87434000Y-103699500D01*
G75*
G02*
X87659000Y-103474500I225000J0D01*
G01*
X88109000Y-103474500D01*
G75*
G02*
X88334000Y-103699500I0J-225000D01*
G01*
X88334000Y-104199500D01*
G75*
G02*
X88109000Y-104424500I-225000J0D01*
G01*
X87659000Y-104424500D01*
G75*
G02*
X87434000Y-104199500I0J225000D01*
G01*
G37*
%TD*%
%TO.C,C107*%
G36*
G01*
X101541400Y-121873200D02*
X101541400Y-122373200D01*
G75*
G02*
X101316400Y-122598200I-225000J0D01*
G01*
X100866400Y-122598200D01*
G75*
G02*
X100641400Y-122373200I0J225000D01*
G01*
X100641400Y-121873200D01*
G75*
G02*
X100866400Y-121648200I225000J0D01*
G01*
X101316400Y-121648200D01*
G75*
G02*
X101541400Y-121873200I0J-225000D01*
G01*
G37*
G36*
G01*
X103091400Y-121873200D02*
X103091400Y-122373200D01*
G75*
G02*
X102866400Y-122598200I-225000J0D01*
G01*
X102416400Y-122598200D01*
G75*
G02*
X102191400Y-122373200I0J225000D01*
G01*
X102191400Y-121873200D01*
G75*
G02*
X102416400Y-121648200I225000J0D01*
G01*
X102866400Y-121648200D01*
G75*
G02*
X103091400Y-121873200I0J-225000D01*
G01*
G37*
%TD*%
%TO.C,C108*%
G36*
G01*
X217635000Y-142236000D02*
X217635000Y-141736000D01*
G75*
G02*
X217860000Y-141511000I225000J0D01*
G01*
X218310000Y-141511000D01*
G75*
G02*
X218535000Y-141736000I0J-225000D01*
G01*
X218535000Y-142236000D01*
G75*
G02*
X218310000Y-142461000I-225000J0D01*
G01*
X217860000Y-142461000D01*
G75*
G02*
X217635000Y-142236000I0J225000D01*
G01*
G37*
G36*
G01*
X216085000Y-142236000D02*
X216085000Y-141736000D01*
G75*
G02*
X216310000Y-141511000I225000J0D01*
G01*
X216760000Y-141511000D01*
G75*
G02*
X216985000Y-141736000I0J-225000D01*
G01*
X216985000Y-142236000D01*
G75*
G02*
X216760000Y-142461000I-225000J0D01*
G01*
X216310000Y-142461000D01*
G75*
G02*
X216085000Y-142236000I0J225000D01*
G01*
G37*
%TD*%
%TO.C,C109*%
G36*
G01*
X108034000Y-104263000D02*
X108034000Y-103763000D01*
G75*
G02*
X108259000Y-103538000I225000J0D01*
G01*
X108709000Y-103538000D01*
G75*
G02*
X108934000Y-103763000I0J-225000D01*
G01*
X108934000Y-104263000D01*
G75*
G02*
X108709000Y-104488000I-225000J0D01*
G01*
X108259000Y-104488000D01*
G75*
G02*
X108034000Y-104263000I0J225000D01*
G01*
G37*
G36*
G01*
X106484000Y-104263000D02*
X106484000Y-103763000D01*
G75*
G02*
X106709000Y-103538000I225000J0D01*
G01*
X107159000Y-103538000D01*
G75*
G02*
X107384000Y-103763000I0J-225000D01*
G01*
X107384000Y-104263000D01*
G75*
G02*
X107159000Y-104488000I-225000J0D01*
G01*
X106709000Y-104488000D01*
G75*
G02*
X106484000Y-104263000I0J225000D01*
G01*
G37*
%TD*%
%TO.C,C110*%
G36*
G01*
X179471500Y-142299500D02*
X179471500Y-141799500D01*
G75*
G02*
X179696500Y-141574500I225000J0D01*
G01*
X180146500Y-141574500D01*
G75*
G02*
X180371500Y-141799500I0J-225000D01*
G01*
X180371500Y-142299500D01*
G75*
G02*
X180146500Y-142524500I-225000J0D01*
G01*
X179696500Y-142524500D01*
G75*
G02*
X179471500Y-142299500I0J225000D01*
G01*
G37*
G36*
G01*
X177921500Y-142299500D02*
X177921500Y-141799500D01*
G75*
G02*
X178146500Y-141574500I225000J0D01*
G01*
X178596500Y-141574500D01*
G75*
G02*
X178821500Y-141799500I0J-225000D01*
G01*
X178821500Y-142299500D01*
G75*
G02*
X178596500Y-142524500I-225000J0D01*
G01*
X178146500Y-142524500D01*
G75*
G02*
X177921500Y-142299500I0J225000D01*
G01*
G37*
%TD*%
%TO.C,C111*%
G36*
G01*
X68384000Y-104263000D02*
X68384000Y-103763000D01*
G75*
G02*
X68609000Y-103538000I225000J0D01*
G01*
X69059000Y-103538000D01*
G75*
G02*
X69284000Y-103763000I0J-225000D01*
G01*
X69284000Y-104263000D01*
G75*
G02*
X69059000Y-104488000I-225000J0D01*
G01*
X68609000Y-104488000D01*
G75*
G02*
X68384000Y-104263000I0J225000D01*
G01*
G37*
G36*
G01*
X69934000Y-104263000D02*
X69934000Y-103763000D01*
G75*
G02*
X70159000Y-103538000I225000J0D01*
G01*
X70609000Y-103538000D01*
G75*
G02*
X70834000Y-103763000I0J-225000D01*
G01*
X70834000Y-104263000D01*
G75*
G02*
X70609000Y-104488000I-225000J0D01*
G01*
X70159000Y-104488000D01*
G75*
G02*
X69934000Y-104263000I0J225000D01*
G01*
G37*
%TD*%
%TO.C,C112*%
G36*
G01*
X212667000Y-81563400D02*
X212667000Y-82063400D01*
G75*
G02*
X212442000Y-82288400I-225000J0D01*
G01*
X211992000Y-82288400D01*
G75*
G02*
X211767000Y-82063400I0J225000D01*
G01*
X211767000Y-81563400D01*
G75*
G02*
X211992000Y-81338400I225000J0D01*
G01*
X212442000Y-81338400D01*
G75*
G02*
X212667000Y-81563400I0J-225000D01*
G01*
G37*
G36*
G01*
X211117000Y-81563400D02*
X211117000Y-82063400D01*
G75*
G02*
X210892000Y-82288400I-225000J0D01*
G01*
X210442000Y-82288400D01*
G75*
G02*
X210217000Y-82063400I0J225000D01*
G01*
X210217000Y-81563400D01*
G75*
G02*
X210442000Y-81338400I225000J0D01*
G01*
X210892000Y-81338400D01*
G75*
G02*
X211117000Y-81563400I0J-225000D01*
G01*
G37*
%TD*%
%TO.C,C113*%
G36*
G01*
X153296800Y-180463000D02*
X153296800Y-179963000D01*
G75*
G02*
X153521800Y-179738000I225000J0D01*
G01*
X153971800Y-179738000D01*
G75*
G02*
X154196800Y-179963000I0J-225000D01*
G01*
X154196800Y-180463000D01*
G75*
G02*
X153971800Y-180688000I-225000J0D01*
G01*
X153521800Y-180688000D01*
G75*
G02*
X153296800Y-180463000I0J225000D01*
G01*
G37*
G36*
G01*
X151746800Y-180463000D02*
X151746800Y-179963000D01*
G75*
G02*
X151971800Y-179738000I225000J0D01*
G01*
X152421800Y-179738000D01*
G75*
G02*
X152646800Y-179963000I0J-225000D01*
G01*
X152646800Y-180463000D01*
G75*
G02*
X152421800Y-180688000I-225000J0D01*
G01*
X151971800Y-180688000D01*
G75*
G02*
X151746800Y-180463000I0J225000D01*
G01*
G37*
%TD*%
%TO.C,C115*%
G36*
G01*
X253890600Y-122203400D02*
X253890600Y-122703400D01*
G75*
G02*
X253665600Y-122928400I-225000J0D01*
G01*
X253215600Y-122928400D01*
G75*
G02*
X252990600Y-122703400I0J225000D01*
G01*
X252990600Y-122203400D01*
G75*
G02*
X253215600Y-121978400I225000J0D01*
G01*
X253665600Y-121978400D01*
G75*
G02*
X253890600Y-122203400I0J-225000D01*
G01*
G37*
G36*
G01*
X255440600Y-122203400D02*
X255440600Y-122703400D01*
G75*
G02*
X255215600Y-122928400I-225000J0D01*
G01*
X254765600Y-122928400D01*
G75*
G02*
X254540600Y-122703400I0J225000D01*
G01*
X254540600Y-122203400D01*
G75*
G02*
X254765600Y-121978400I225000J0D01*
G01*
X255215600Y-121978400D01*
G75*
G02*
X255440600Y-122203400I0J-225000D01*
G01*
G37*
%TD*%
%TO.C,D32*%
X25146000Y-90424000D03*
X25146000Y-92824000D03*
%TD*%
%TO.C,D33*%
X25400000Y-111900000D03*
X25400000Y-114300000D03*
%TD*%
%TO.C,D34*%
X29972000Y-133350000D03*
X29972000Y-130950000D03*
%TD*%
%TO.C,D36*%
X37338000Y-169050000D03*
X37338000Y-171450000D03*
%TD*%
%TO.C,D37*%
X27686000Y-190500000D03*
X27686000Y-188100000D03*
%TD*%
%TO.C,D38*%
X53848000Y-92964000D03*
X53848000Y-90564000D03*
%TD*%
%TO.C,D39*%
X44450000Y-114300000D03*
X44450000Y-111900000D03*
%TD*%
%TO.C,D40*%
X53848000Y-130950000D03*
X53848000Y-133350000D03*
%TD*%
%TO.C,D41*%
X58674000Y-152400000D03*
X58674000Y-150000000D03*
%TD*%
%TO.C,D42*%
X51562000Y-190500000D03*
X51562000Y-188100000D03*
%TD*%
%TO.C,D43*%
X72898000Y-90564000D03*
X72898000Y-92964000D03*
%TD*%
%TO.C,D44*%
X63500000Y-111900000D03*
X63500000Y-114300000D03*
%TD*%
%TO.C,D45*%
X72898000Y-133350000D03*
X72898000Y-130950000D03*
%TD*%
%TO.C,D46*%
X77724000Y-150000000D03*
X77724000Y-152400000D03*
%TD*%
%TO.C,D47*%
X68072000Y-169050000D03*
X68072000Y-171450000D03*
%TD*%
%TO.C,D48*%
X75184000Y-188100000D03*
X75184000Y-190500000D03*
%TD*%
%TO.C,D49*%
X91948000Y-92964000D03*
X91948000Y-90564000D03*
%TD*%
%TO.C,D50*%
X82550000Y-114300000D03*
X82550000Y-111900000D03*
%TD*%
%TO.C,D51*%
X91948000Y-130950000D03*
X91948000Y-133350000D03*
%TD*%
%TO.C,D52*%
X96774000Y-150000000D03*
X96774000Y-152400000D03*
%TD*%
%TO.C,D53*%
X87122000Y-171450000D03*
X87122000Y-169050000D03*
%TD*%
%TO.C,D54*%
X110998000Y-90564000D03*
X110998000Y-92964000D03*
%TD*%
%TO.C,D55*%
X101600000Y-111900000D03*
X101600000Y-114300000D03*
%TD*%
%TO.C,D56*%
X110998000Y-133350000D03*
X110998000Y-130950000D03*
%TD*%
%TO.C,D57*%
X115824000Y-152400000D03*
X115824000Y-150000000D03*
%TD*%
%TO.C,D58*%
X106172000Y-171450000D03*
X106172000Y-169050000D03*
%TD*%
%TO.C,D59*%
X108458000Y-190500000D03*
X108458000Y-188100000D03*
%TD*%
%TO.C,D60*%
X144272000Y-92964000D03*
X144272000Y-90564000D03*
%TD*%
%TO.C,D61*%
X120650000Y-111900000D03*
X120650000Y-114300000D03*
%TD*%
%TO.C,D62*%
X130048000Y-130950000D03*
X130048000Y-133350000D03*
%TD*%
%TO.C,D63*%
X134874000Y-150000000D03*
X134874000Y-152400000D03*
%TD*%
%TO.C,D64*%
X125222000Y-169050000D03*
X125222000Y-171450000D03*
%TD*%
%TO.C,D65*%
X163322000Y-90564000D03*
X163322000Y-92964000D03*
%TD*%
%TO.C,D66*%
X139700000Y-114300000D03*
X139700000Y-111900000D03*
%TD*%
%TO.C,D67*%
X149098000Y-133350000D03*
X149098000Y-130950000D03*
%TD*%
%TO.C,D68*%
X153924000Y-152146000D03*
X153924000Y-149746000D03*
%TD*%
%TO.C,D69*%
X144272000Y-171450000D03*
X144272000Y-169050000D03*
%TD*%
%TO.C,D70*%
X146558000Y-188100000D03*
X146558000Y-190500000D03*
%TD*%
%TO.C,D71*%
X182372000Y-92964000D03*
X182372000Y-90564000D03*
%TD*%
%TO.C,D72*%
X158750000Y-111900000D03*
X158750000Y-114300000D03*
%TD*%
%TO.C,D73*%
X168148000Y-130950000D03*
X168148000Y-133350000D03*
%TD*%
%TO.C,D74*%
X172974000Y-150000000D03*
X172974000Y-152400000D03*
%TD*%
%TO.C,D75*%
X163322000Y-169050000D03*
X163322000Y-171450000D03*
%TD*%
%TO.C,D76*%
X201422000Y-92964000D03*
X201422000Y-90564000D03*
%TD*%
%TO.C,D77*%
X177800000Y-114300000D03*
X177800000Y-111900000D03*
%TD*%
%TO.C,D78*%
X187198000Y-133350000D03*
X187198000Y-130950000D03*
%TD*%
%TO.C,D79*%
X192024000Y-152400000D03*
X192024000Y-150000000D03*
%TD*%
%TO.C,D80*%
X182372000Y-171450000D03*
X182372000Y-169050000D03*
%TD*%
%TO.C,D81*%
X184658000Y-190500000D03*
X184658000Y-188100000D03*
%TD*%
%TO.C,D82*%
X234950000Y-92964000D03*
X234950000Y-90564000D03*
%TD*%
%TO.C,D83*%
X196850000Y-111900000D03*
X196850000Y-114300000D03*
%TD*%
%TO.C,D84*%
X206248000Y-130950000D03*
X206248000Y-133350000D03*
%TD*%
%TO.C,D85*%
X211074000Y-150000000D03*
X211074000Y-152400000D03*
%TD*%
%TO.C,D86*%
X201422000Y-169050000D03*
X201422000Y-171450000D03*
%TD*%
%TO.C,D87*%
X218186000Y-188100000D03*
X218186000Y-190500000D03*
%TD*%
%TO.C,D88*%
X254000000Y-90564000D03*
X254000000Y-92964000D03*
%TD*%
%TO.C,D89*%
X215900000Y-114300000D03*
X215900000Y-111900000D03*
%TD*%
%TO.C,D90*%
X225298000Y-133350000D03*
X225298000Y-130950000D03*
%TD*%
%TO.C,D91*%
X230124000Y-152400000D03*
X230124000Y-150000000D03*
%TD*%
%TO.C,D92*%
X220472000Y-171450000D03*
X220472000Y-169050000D03*
%TD*%
%TO.C,D93*%
X241808000Y-190500000D03*
X241808000Y-188100000D03*
%TD*%
%TO.C,D94*%
X273050000Y-92964000D03*
X273050000Y-90564000D03*
%TD*%
%TO.C,D95*%
X234950000Y-111900000D03*
X234950000Y-114300000D03*
%TD*%
%TO.C,D96*%
X244348000Y-130950000D03*
X244348000Y-133350000D03*
%TD*%
%TO.C,D97*%
X249174000Y-152400000D03*
X249174000Y-150000000D03*
%TD*%
%TO.C,D98*%
X239522000Y-169050000D03*
X239522000Y-171450000D03*
%TD*%
%TO.C,D99*%
X265684000Y-188100000D03*
X265684000Y-190500000D03*
%TD*%
%TO.C,D100*%
X292100000Y-90564000D03*
X292100000Y-92964000D03*
%TD*%
%TO.C,D101*%
X254000000Y-114300000D03*
X254000000Y-111900000D03*
%TD*%
%TO.C,D102*%
X263398000Y-133350000D03*
X263398000Y-130950000D03*
%TD*%
%TO.C,D103*%
X280162000Y-150000000D03*
X280162000Y-152400000D03*
%TD*%
%TO.C,D104*%
X275336000Y-171450000D03*
X275336000Y-169050000D03*
%TD*%
%TO.C,D105*%
X289560000Y-188100000D03*
X289560000Y-190500000D03*
%TD*%
%TO.C,D106*%
X317500000Y-92964000D03*
X317500000Y-90564000D03*
%TD*%
%TO.C,D107*%
X282448000Y-111900000D03*
X282448000Y-114300000D03*
%TD*%
%TO.C,D108*%
X287274000Y-130950000D03*
X287274000Y-133350000D03*
%TD*%
%TO.C,D109*%
X317500000Y-114300000D03*
X317500000Y-111900000D03*
%TD*%
%TO.C,D110*%
X317246000Y-188100000D03*
X317246000Y-190500000D03*
%TD*%
%TO.C,D111*%
X336550000Y-90564000D03*
X336550000Y-92964000D03*
%TD*%
%TO.C,D112*%
X336550000Y-114300000D03*
X336550000Y-111900000D03*
%TD*%
%TO.C,D113*%
X336550000Y-133350000D03*
X336550000Y-130950000D03*
%TD*%
%TO.C,D114*%
X336550000Y-169050000D03*
X336550000Y-171450000D03*
%TD*%
%TO.C,D115*%
X336550000Y-190500000D03*
X336550000Y-188100000D03*
%TD*%
%TO.C,D116*%
X355600000Y-92964000D03*
X355600000Y-90564000D03*
%TD*%
%TO.C,D117*%
X355600000Y-111900000D03*
X355600000Y-114300000D03*
%TD*%
%TO.C,D118*%
X355600000Y-130950000D03*
X355600000Y-133350000D03*
%TD*%
%TO.C,D119*%
X355600000Y-188100000D03*
X355600000Y-190500000D03*
%TD*%
%TO.C,FB1*%
G36*
G01*
X214588450Y-55340500D02*
X214588450Y-54578000D01*
G75*
G02*
X214807200Y-54359250I218750J0D01*
G01*
X215244700Y-54359250D01*
G75*
G02*
X215463450Y-54578000I0J-218750D01*
G01*
X215463450Y-55340500D01*
G75*
G02*
X215244700Y-55559250I-218750J0D01*
G01*
X214807200Y-55559250D01*
G75*
G02*
X214588450Y-55340500I0J218750D01*
G01*
G37*
G36*
G01*
X216713450Y-55340500D02*
X216713450Y-54578000D01*
G75*
G02*
X216932200Y-54359250I218750J0D01*
G01*
X217369700Y-54359250D01*
G75*
G02*
X217588450Y-54578000I0J-218750D01*
G01*
X217588450Y-55340500D01*
G75*
G02*
X217369700Y-55559250I-218750J0D01*
G01*
X216932200Y-55559250D01*
G75*
G02*
X216713450Y-55340500I0J218750D01*
G01*
G37*
%TD*%
%TO.C,FB2*%
G36*
G01*
X224030900Y-69799450D02*
X224030900Y-69036950D01*
G75*
G02*
X224249650Y-68818200I218750J0D01*
G01*
X224687150Y-68818200D01*
G75*
G02*
X224905900Y-69036950I0J-218750D01*
G01*
X224905900Y-69799450D01*
G75*
G02*
X224687150Y-70018200I-218750J0D01*
G01*
X224249650Y-70018200D01*
G75*
G02*
X224030900Y-69799450I0J218750D01*
G01*
G37*
G36*
G01*
X226155900Y-69799450D02*
X226155900Y-69036950D01*
G75*
G02*
X226374650Y-68818200I218750J0D01*
G01*
X226812150Y-68818200D01*
G75*
G02*
X227030900Y-69036950I0J-218750D01*
G01*
X227030900Y-69799450D01*
G75*
G02*
X226812150Y-70018200I-218750J0D01*
G01*
X226374650Y-70018200D01*
G75*
G02*
X226155900Y-69799450I0J218750D01*
G01*
G37*
%TD*%
D12*
%TO.C,H1*%
X22225000Y-54768750D03*
%TD*%
%TO.C,H2*%
X374650000Y-54813200D03*
%TD*%
%TO.C,H3*%
X374650000Y-199231250D03*
%TD*%
%TO.C,H4*%
X22225000Y-199231250D03*
%TD*%
D18*
%TO.C,J1*%
X219208310Y-53336090D03*
X227858310Y-53336090D03*
D19*
X219208310Y-56716090D03*
X227858310Y-56716090D03*
D20*
X223108310Y-56346090D03*
X220558310Y-56346090D03*
X221408310Y-56346090D03*
X222258310Y-56346090D03*
X226508310Y-56346090D03*
X224808310Y-56346090D03*
X223958310Y-56346090D03*
X225658310Y-56346090D03*
X220558310Y-57696090D03*
X221408310Y-57696090D03*
X222258310Y-57696090D03*
X223108310Y-57696090D03*
X223958310Y-57696090D03*
X224808310Y-57696090D03*
X225658310Y-57696090D03*
X226508310Y-57696090D03*
%TD*%
%TO.C,J3*%
X122237500Y-57689750D03*
X121387500Y-57689750D03*
X120537500Y-57689750D03*
X119687500Y-57689750D03*
X118837500Y-57689750D03*
X117987500Y-57689750D03*
X117137500Y-57689750D03*
X116287500Y-57689750D03*
X121387500Y-56339750D03*
X119687500Y-56339750D03*
X120537500Y-56339750D03*
X122237500Y-56339750D03*
X117987500Y-56339750D03*
X117137500Y-56339750D03*
X116287500Y-56339750D03*
X118837500Y-56339750D03*
D19*
X123587500Y-56709750D03*
X114937500Y-56709750D03*
D18*
X123587500Y-53329750D03*
X114937500Y-53329750D03*
%TD*%
D20*
%TO.C,J4*%
X103187500Y-57689750D03*
X102337500Y-57689750D03*
X101487500Y-57689750D03*
X100637500Y-57689750D03*
X99787500Y-57689750D03*
X98937500Y-57689750D03*
X98087500Y-57689750D03*
X97237500Y-57689750D03*
X102337500Y-56339750D03*
X100637500Y-56339750D03*
X101487500Y-56339750D03*
X103187500Y-56339750D03*
X98937500Y-56339750D03*
X98087500Y-56339750D03*
X97237500Y-56339750D03*
X99787500Y-56339750D03*
D19*
X104537500Y-56709750D03*
X95887500Y-56709750D03*
D18*
X104537500Y-53329750D03*
X95887500Y-53329750D03*
%TD*%
%TO.C,R18*%
G36*
G01*
X198684940Y-74232849D02*
X199073849Y-73843940D01*
G75*
G02*
X199356691Y-73843940I141421J-141421D01*
G01*
X199639534Y-74126783D01*
G75*
G02*
X199639534Y-74409625I-141421J-141421D01*
G01*
X199250625Y-74798534D01*
G75*
G02*
X198967783Y-74798534I-141421J141421D01*
G01*
X198684940Y-74515691D01*
G75*
G02*
X198684940Y-74232849I141421J141421D01*
G01*
G37*
G36*
G01*
X199851666Y-75399575D02*
X200240575Y-75010666D01*
G75*
G02*
X200523417Y-75010666I141421J-141421D01*
G01*
X200806260Y-75293509D01*
G75*
G02*
X200806260Y-75576351I-141421J-141421D01*
G01*
X200417351Y-75965260D01*
G75*
G02*
X200134509Y-75965260I-141421J141421D01*
G01*
X199851666Y-75682417D01*
G75*
G02*
X199851666Y-75399575I141421J141421D01*
G01*
G37*
%TD*%
%TO.C,R19*%
G36*
G01*
X200943029Y-74281138D02*
X201331938Y-73892229D01*
G75*
G02*
X201614780Y-73892229I141421J-141421D01*
G01*
X201897623Y-74175072D01*
G75*
G02*
X201897623Y-74457914I-141421J-141421D01*
G01*
X201508714Y-74846823D01*
G75*
G02*
X201225872Y-74846823I-141421J141421D01*
G01*
X200943029Y-74563980D01*
G75*
G02*
X200943029Y-74281138I141421J141421D01*
G01*
G37*
G36*
G01*
X199776303Y-73114412D02*
X200165212Y-72725503D01*
G75*
G02*
X200448054Y-72725503I141421J-141421D01*
G01*
X200730897Y-73008346D01*
G75*
G02*
X200730897Y-73291188I-141421J-141421D01*
G01*
X200341988Y-73680097D01*
G75*
G02*
X200059146Y-73680097I-141421J141421D01*
G01*
X199776303Y-73397254D01*
G75*
G02*
X199776303Y-73114412I141421J141421D01*
G01*
G37*
%TD*%
%TO.C,R21*%
G36*
G01*
X30588000Y-183612200D02*
X30588000Y-183062200D01*
G75*
G02*
X30788000Y-182862200I200000J0D01*
G01*
X31188000Y-182862200D01*
G75*
G02*
X31388000Y-183062200I0J-200000D01*
G01*
X31388000Y-183612200D01*
G75*
G02*
X31188000Y-183812200I-200000J0D01*
G01*
X30788000Y-183812200D01*
G75*
G02*
X30588000Y-183612200I0J200000D01*
G01*
G37*
G36*
G01*
X28938000Y-183612200D02*
X28938000Y-183062200D01*
G75*
G02*
X29138000Y-182862200I200000J0D01*
G01*
X29538000Y-182862200D01*
G75*
G02*
X29738000Y-183062200I0J-200000D01*
G01*
X29738000Y-183612200D01*
G75*
G02*
X29538000Y-183812200I-200000J0D01*
G01*
X29138000Y-183812200D01*
G75*
G02*
X28938000Y-183612200I0J200000D01*
G01*
G37*
%TD*%
%TO.C,R33*%
G36*
G01*
X343915320Y-77198000D02*
X344465320Y-77198000D01*
G75*
G02*
X344665320Y-77398000I0J-200000D01*
G01*
X344665320Y-77798000D01*
G75*
G02*
X344465320Y-77998000I-200000J0D01*
G01*
X343915320Y-77998000D01*
G75*
G02*
X343715320Y-77798000I0J200000D01*
G01*
X343715320Y-77398000D01*
G75*
G02*
X343915320Y-77198000I200000J0D01*
G01*
G37*
G36*
G01*
X343915320Y-78848000D02*
X344465320Y-78848000D01*
G75*
G02*
X344665320Y-79048000I0J-200000D01*
G01*
X344665320Y-79448000D01*
G75*
G02*
X344465320Y-79648000I-200000J0D01*
G01*
X343915320Y-79648000D01*
G75*
G02*
X343715320Y-79448000I0J200000D01*
G01*
X343715320Y-79048000D01*
G75*
G02*
X343915320Y-78848000I200000J0D01*
G01*
G37*
%TD*%
%TO.C,R34*%
G36*
G01*
X362995800Y-77198000D02*
X363545800Y-77198000D01*
G75*
G02*
X363745800Y-77398000I0J-200000D01*
G01*
X363745800Y-77798000D01*
G75*
G02*
X363545800Y-77998000I-200000J0D01*
G01*
X362995800Y-77998000D01*
G75*
G02*
X362795800Y-77798000I0J200000D01*
G01*
X362795800Y-77398000D01*
G75*
G02*
X362995800Y-77198000I200000J0D01*
G01*
G37*
G36*
G01*
X362995800Y-78848000D02*
X363545800Y-78848000D01*
G75*
G02*
X363745800Y-79048000I0J-200000D01*
G01*
X363745800Y-79448000D01*
G75*
G02*
X363545800Y-79648000I-200000J0D01*
G01*
X362995800Y-79648000D01*
G75*
G02*
X362795800Y-79448000I0J200000D01*
G01*
X362795800Y-79048000D01*
G75*
G02*
X362995800Y-78848000I200000J0D01*
G01*
G37*
%TD*%
%TO.C,R36*%
G36*
G01*
X349000400Y-78848000D02*
X349550400Y-78848000D01*
G75*
G02*
X349750400Y-79048000I0J-200000D01*
G01*
X349750400Y-79448000D01*
G75*
G02*
X349550400Y-79648000I-200000J0D01*
G01*
X349000400Y-79648000D01*
G75*
G02*
X348800400Y-79448000I0J200000D01*
G01*
X348800400Y-79048000D01*
G75*
G02*
X349000400Y-78848000I200000J0D01*
G01*
G37*
G36*
G01*
X349000400Y-77198000D02*
X349550400Y-77198000D01*
G75*
G02*
X349750400Y-77398000I0J-200000D01*
G01*
X349750400Y-77798000D01*
G75*
G02*
X349550400Y-77998000I-200000J0D01*
G01*
X349000400Y-77998000D01*
G75*
G02*
X348800400Y-77798000I0J200000D01*
G01*
X348800400Y-77398000D01*
G75*
G02*
X349000400Y-77198000I200000J0D01*
G01*
G37*
%TD*%
%TO.C,R37*%
G36*
G01*
X368025000Y-78848000D02*
X368575000Y-78848000D01*
G75*
G02*
X368775000Y-79048000I0J-200000D01*
G01*
X368775000Y-79448000D01*
G75*
G02*
X368575000Y-79648000I-200000J0D01*
G01*
X368025000Y-79648000D01*
G75*
G02*
X367825000Y-79448000I0J200000D01*
G01*
X367825000Y-79048000D01*
G75*
G02*
X368025000Y-78848000I200000J0D01*
G01*
G37*
G36*
G01*
X368025000Y-77198000D02*
X368575000Y-77198000D01*
G75*
G02*
X368775000Y-77398000I0J-200000D01*
G01*
X368775000Y-77798000D01*
G75*
G02*
X368575000Y-77998000I-200000J0D01*
G01*
X368025000Y-77998000D01*
G75*
G02*
X367825000Y-77798000I0J200000D01*
G01*
X367825000Y-77398000D01*
G75*
G02*
X368025000Y-77198000I200000J0D01*
G01*
G37*
%TD*%
D24*
%TO.C,SW2*%
X33337500Y-90487500D03*
D23*
X38417500Y-90487500D03*
X28257500Y-90487500D03*
D22*
X37147500Y-93027500D03*
X30797500Y-95567500D03*
D21*
X40747500Y-93027500D03*
X27322500Y-95567500D03*
%TD*%
%TO.C,SW3*%
X27322500Y-116998750D03*
X40747500Y-114458750D03*
D22*
X30797500Y-116998750D03*
X37147500Y-114458750D03*
D23*
X28257500Y-111918750D03*
X38417500Y-111918750D03*
D24*
X33337500Y-111918750D03*
%TD*%
%TO.C,SW4*%
X38100000Y-130968750D03*
D23*
X43180000Y-130968750D03*
X33020000Y-130968750D03*
D22*
X41910000Y-133508750D03*
X35560000Y-136048750D03*
D21*
X45510000Y-133508750D03*
X32085000Y-136048750D03*
%TD*%
D24*
%TO.C,SW5*%
X40481250Y-150018750D03*
D23*
X45561250Y-150018750D03*
X35401250Y-150018750D03*
D22*
X44291250Y-152558750D03*
X37941250Y-155098750D03*
D21*
X47891250Y-152558750D03*
X34466250Y-155098750D03*
%TD*%
D24*
%TO.C,SW6*%
X45243750Y-169068750D03*
D23*
X50323750Y-169068750D03*
X40163750Y-169068750D03*
D22*
X49053750Y-171608750D03*
X42703750Y-174148750D03*
D21*
X52653750Y-171608750D03*
X39228750Y-174148750D03*
D25*
X57181750Y-176068750D03*
D24*
X57181750Y-160828750D03*
X33305750Y-160828750D03*
D25*
X33305750Y-176068750D03*
%TD*%
D21*
%TO.C,SW7*%
X29703750Y-193198750D03*
X43128750Y-190658750D03*
D22*
X33178750Y-193198750D03*
X39528750Y-190658750D03*
D23*
X30638750Y-188118750D03*
X40798750Y-188118750D03*
D24*
X35718750Y-188118750D03*
%TD*%
D21*
%TO.C,SW8*%
X55897500Y-95567500D03*
X69322500Y-93027500D03*
D22*
X59372500Y-95567500D03*
X65722500Y-93027500D03*
D23*
X56832500Y-90487500D03*
X66992500Y-90487500D03*
D24*
X61912500Y-90487500D03*
%TD*%
%TO.C,SW9*%
X52387500Y-111918750D03*
D23*
X57467500Y-111918750D03*
X47307500Y-111918750D03*
D22*
X56197500Y-114458750D03*
X49847500Y-116998750D03*
D21*
X59797500Y-114458750D03*
X46372500Y-116998750D03*
%TD*%
%TO.C,SW10*%
X55897500Y-136048750D03*
X69322500Y-133508750D03*
D22*
X59372500Y-136048750D03*
X65722500Y-133508750D03*
D23*
X56832500Y-130968750D03*
X66992500Y-130968750D03*
D24*
X61912500Y-130968750D03*
%TD*%
D21*
%TO.C,SW11*%
X60660000Y-155098750D03*
X74085000Y-152558750D03*
D22*
X64135000Y-155098750D03*
X70485000Y-152558750D03*
D23*
X61595000Y-150018750D03*
X71755000Y-150018750D03*
D24*
X66675000Y-150018750D03*
%TD*%
D21*
%TO.C,SW12*%
X53516250Y-193198750D03*
X66941250Y-190658750D03*
D22*
X56991250Y-193198750D03*
X63341250Y-190658750D03*
D23*
X54451250Y-188118750D03*
X64611250Y-188118750D03*
D24*
X59531250Y-188118750D03*
%TD*%
%TO.C,SW13*%
X80962500Y-90487500D03*
D23*
X86042500Y-90487500D03*
X75882500Y-90487500D03*
D22*
X84772500Y-93027500D03*
X78422500Y-95567500D03*
D21*
X88372500Y-93027500D03*
X74947500Y-95567500D03*
%TD*%
D24*
%TO.C,SW14*%
X71437500Y-111918750D03*
D23*
X76517500Y-111918750D03*
X66357500Y-111918750D03*
D22*
X75247500Y-114458750D03*
X68897500Y-116998750D03*
D21*
X78847500Y-114458750D03*
X65422500Y-116998750D03*
%TD*%
%TO.C,SW15*%
X74947500Y-136048750D03*
X88372500Y-133508750D03*
D22*
X78422500Y-136048750D03*
X84772500Y-133508750D03*
D23*
X75882500Y-130968750D03*
X86042500Y-130968750D03*
D24*
X80962500Y-130968750D03*
%TD*%
%TO.C,SW16*%
X85725000Y-150018750D03*
D23*
X90805000Y-150018750D03*
X80645000Y-150018750D03*
D22*
X89535000Y-152558750D03*
X83185000Y-155098750D03*
D21*
X93135000Y-152558750D03*
X79710000Y-155098750D03*
%TD*%
%TO.C,SW17*%
X70185000Y-174148750D03*
X83610000Y-171608750D03*
D22*
X73660000Y-174148750D03*
X80010000Y-171608750D03*
D23*
X71120000Y-169068750D03*
X81280000Y-169068750D03*
D24*
X76200000Y-169068750D03*
%TD*%
%TO.C,SW18*%
X83343750Y-188118750D03*
D23*
X88423750Y-188118750D03*
X78263750Y-188118750D03*
D22*
X87153750Y-190658750D03*
X80803750Y-193198750D03*
D21*
X90753750Y-190658750D03*
X77328750Y-193198750D03*
%TD*%
%TO.C,SW19*%
X93997500Y-95567500D03*
X107422500Y-93027500D03*
D22*
X97472500Y-95567500D03*
X103822500Y-93027500D03*
D23*
X94932500Y-90487500D03*
X105092500Y-90487500D03*
D24*
X100012500Y-90487500D03*
%TD*%
D21*
%TO.C,SW20*%
X84472500Y-116998750D03*
X97897500Y-114458750D03*
D22*
X87947500Y-116998750D03*
X94297500Y-114458750D03*
D23*
X85407500Y-111918750D03*
X95567500Y-111918750D03*
D24*
X90487500Y-111918750D03*
%TD*%
%TO.C,SW21*%
X100012500Y-130968750D03*
D23*
X105092500Y-130968750D03*
X94932500Y-130968750D03*
D22*
X103822500Y-133508750D03*
X97472500Y-136048750D03*
D21*
X107422500Y-133508750D03*
X93997500Y-136048750D03*
%TD*%
%TO.C,SW22*%
X98760000Y-155098750D03*
X112185000Y-152558750D03*
D22*
X102235000Y-155098750D03*
X108585000Y-152558750D03*
D23*
X99695000Y-150018750D03*
X109855000Y-150018750D03*
D24*
X104775000Y-150018750D03*
%TD*%
%TO.C,SW23*%
X95250000Y-169068750D03*
D23*
X100330000Y-169068750D03*
X90170000Y-169068750D03*
D22*
X99060000Y-171608750D03*
X92710000Y-174148750D03*
D21*
X102660000Y-171608750D03*
X89235000Y-174148750D03*
%TD*%
D24*
%TO.C,SW24*%
X119062500Y-90487500D03*
D23*
X124142500Y-90487500D03*
X113982500Y-90487500D03*
D22*
X122872500Y-93027500D03*
X116522500Y-95567500D03*
D21*
X126472500Y-93027500D03*
X113047500Y-95567500D03*
%TD*%
D24*
%TO.C,SW25*%
X109537500Y-111918750D03*
D23*
X114617500Y-111918750D03*
X104457500Y-111918750D03*
D22*
X113347500Y-114458750D03*
X106997500Y-116998750D03*
D21*
X116947500Y-114458750D03*
X103522500Y-116998750D03*
%TD*%
%TO.C,SW26*%
X113047500Y-136048750D03*
X126472500Y-133508750D03*
D22*
X116522500Y-136048750D03*
X122872500Y-133508750D03*
D23*
X113982500Y-130968750D03*
X124142500Y-130968750D03*
D24*
X119062500Y-130968750D03*
%TD*%
%TO.C,SW27*%
X123825000Y-150018750D03*
D23*
X128905000Y-150018750D03*
X118745000Y-150018750D03*
D22*
X127635000Y-152558750D03*
X121285000Y-155098750D03*
D21*
X131235000Y-152558750D03*
X117810000Y-155098750D03*
%TD*%
%TO.C,SW28*%
X108285000Y-174148750D03*
X121710000Y-171608750D03*
D22*
X111760000Y-174148750D03*
X118110000Y-171608750D03*
D23*
X109220000Y-169068750D03*
X119380000Y-169068750D03*
D24*
X114300000Y-169068750D03*
%TD*%
%TO.C,SW29*%
X116681250Y-188118750D03*
D23*
X121761250Y-188118750D03*
X111601250Y-188118750D03*
D22*
X120491250Y-190658750D03*
X114141250Y-193198750D03*
D21*
X124091250Y-190658750D03*
X110666250Y-193198750D03*
D25*
X128619250Y-195118750D03*
D24*
X128619250Y-179878750D03*
X104743250Y-179878750D03*
D25*
X104743250Y-195118750D03*
%TD*%
D21*
%TO.C,SW30*%
X146385000Y-95567500D03*
X159810000Y-93027500D03*
D22*
X149860000Y-95567500D03*
X156210000Y-93027500D03*
D23*
X147320000Y-90487500D03*
X157480000Y-90487500D03*
D24*
X152400000Y-90487500D03*
%TD*%
D21*
%TO.C,SW31*%
X122572500Y-116998750D03*
X135997500Y-114458750D03*
D22*
X126047500Y-116998750D03*
X132397500Y-114458750D03*
D23*
X123507500Y-111918750D03*
X133667500Y-111918750D03*
D24*
X128587500Y-111918750D03*
%TD*%
D21*
%TO.C,SW32*%
X132097500Y-136048750D03*
X145522500Y-133508750D03*
D22*
X135572500Y-136048750D03*
X141922500Y-133508750D03*
D23*
X133032500Y-130968750D03*
X143192500Y-130968750D03*
D24*
X138112500Y-130968750D03*
%TD*%
%TO.C,SW33*%
X142875000Y-150018750D03*
D23*
X147955000Y-150018750D03*
X137795000Y-150018750D03*
D22*
X146685000Y-152558750D03*
X140335000Y-155098750D03*
D21*
X150285000Y-152558750D03*
X136860000Y-155098750D03*
%TD*%
%TO.C,SW34*%
X127335000Y-174148750D03*
X140760000Y-171608750D03*
D22*
X130810000Y-174148750D03*
X137160000Y-171608750D03*
D23*
X128270000Y-169068750D03*
X138430000Y-169068750D03*
D24*
X133350000Y-169068750D03*
%TD*%
%TO.C,SW35*%
X171450000Y-90487500D03*
D23*
X176530000Y-90487500D03*
X166370000Y-90487500D03*
D22*
X175260000Y-93027500D03*
X168910000Y-95567500D03*
D21*
X178860000Y-93027500D03*
X165435000Y-95567500D03*
%TD*%
%TO.C,SW36*%
X141622500Y-116998750D03*
X155047500Y-114458750D03*
D22*
X145097500Y-116998750D03*
X151447500Y-114458750D03*
D23*
X142557500Y-111918750D03*
X152717500Y-111918750D03*
D24*
X147637500Y-111918750D03*
%TD*%
%TO.C,SW37*%
X157162500Y-130968750D03*
D23*
X162242500Y-130968750D03*
X152082500Y-130968750D03*
D22*
X160972500Y-133508750D03*
X154622500Y-136048750D03*
D21*
X164572500Y-133508750D03*
X151147500Y-136048750D03*
%TD*%
%TO.C,SW38*%
X155910000Y-155098750D03*
X169335000Y-152558750D03*
D22*
X159385000Y-155098750D03*
X165735000Y-152558750D03*
D23*
X156845000Y-150018750D03*
X167005000Y-150018750D03*
D24*
X161925000Y-150018750D03*
%TD*%
%TO.C,SW39*%
X152400000Y-169068750D03*
D23*
X157480000Y-169068750D03*
X147320000Y-169068750D03*
D22*
X156210000Y-171608750D03*
X149860000Y-174148750D03*
D21*
X159810000Y-171608750D03*
X146385000Y-174148750D03*
%TD*%
D24*
%TO.C,SW40*%
X154781250Y-188118750D03*
D23*
X159861250Y-188118750D03*
X149701250Y-188118750D03*
D22*
X158591250Y-190658750D03*
X152241250Y-193198750D03*
D21*
X162191250Y-190658750D03*
X148766250Y-193198750D03*
D25*
X204781250Y-195118750D03*
D24*
X204781250Y-179878750D03*
X104781250Y-179878750D03*
D25*
X104781250Y-195118750D03*
%TD*%
D21*
%TO.C,SW41*%
X184485000Y-95567500D03*
X197910000Y-93027500D03*
D22*
X187960000Y-95567500D03*
X194310000Y-93027500D03*
D23*
X185420000Y-90487500D03*
X195580000Y-90487500D03*
D24*
X190500000Y-90487500D03*
%TD*%
%TO.C,SW42*%
X166687500Y-111918750D03*
D23*
X171767500Y-111918750D03*
X161607500Y-111918750D03*
D22*
X170497500Y-114458750D03*
X164147500Y-116998750D03*
D21*
X174097500Y-114458750D03*
X160672500Y-116998750D03*
%TD*%
%TO.C,SW43*%
X170197500Y-136048750D03*
X183622500Y-133508750D03*
D22*
X173672500Y-136048750D03*
X180022500Y-133508750D03*
D23*
X171132500Y-130968750D03*
X181292500Y-130968750D03*
D24*
X176212500Y-130968750D03*
%TD*%
%TO.C,SW44*%
X180975000Y-150018750D03*
D23*
X186055000Y-150018750D03*
X175895000Y-150018750D03*
D22*
X184785000Y-152558750D03*
X178435000Y-155098750D03*
D21*
X188385000Y-152558750D03*
X174960000Y-155098750D03*
%TD*%
%TO.C,SW45*%
X165435000Y-174148750D03*
X178860000Y-171608750D03*
D22*
X168910000Y-174148750D03*
X175260000Y-171608750D03*
D23*
X166370000Y-169068750D03*
X176530000Y-169068750D03*
D24*
X171450000Y-169068750D03*
%TD*%
%TO.C,SW46*%
X209550000Y-90487500D03*
D23*
X214630000Y-90487500D03*
X204470000Y-90487500D03*
D22*
X213360000Y-93027500D03*
X207010000Y-95567500D03*
D21*
X216960000Y-93027500D03*
X203535000Y-95567500D03*
%TD*%
D24*
%TO.C,SW47*%
X185737500Y-111918750D03*
D23*
X190817500Y-111918750D03*
X180657500Y-111918750D03*
D22*
X189547500Y-114458750D03*
X183197500Y-116998750D03*
D21*
X193147500Y-114458750D03*
X179722500Y-116998750D03*
%TD*%
D24*
%TO.C,SW48*%
X195262500Y-130968750D03*
D23*
X200342500Y-130968750D03*
X190182500Y-130968750D03*
D22*
X199072500Y-133508750D03*
X192722500Y-136048750D03*
D21*
X202672500Y-133508750D03*
X189247500Y-136048750D03*
%TD*%
%TO.C,SW49*%
X194010000Y-155098750D03*
X207435000Y-152558750D03*
D22*
X197485000Y-155098750D03*
X203835000Y-152558750D03*
D23*
X194945000Y-150018750D03*
X205105000Y-150018750D03*
D24*
X200025000Y-150018750D03*
%TD*%
%TO.C,SW50*%
X190500000Y-169068750D03*
D23*
X195580000Y-169068750D03*
X185420000Y-169068750D03*
D22*
X194310000Y-171608750D03*
X187960000Y-174148750D03*
D21*
X197910000Y-171608750D03*
X184485000Y-174148750D03*
%TD*%
D25*
%TO.C,SW51*%
X180943250Y-195118750D03*
D24*
X180943250Y-179878750D03*
X204819250Y-179878750D03*
D25*
X204819250Y-195118750D03*
D21*
X186866250Y-193198750D03*
X200291250Y-190658750D03*
D22*
X190341250Y-193198750D03*
X196691250Y-190658750D03*
D23*
X187801250Y-188118750D03*
X197961250Y-188118750D03*
D24*
X192881250Y-188118750D03*
%TD*%
D21*
%TO.C,SW52*%
X236872500Y-95567500D03*
X250297500Y-93027500D03*
D22*
X240347500Y-95567500D03*
X246697500Y-93027500D03*
D23*
X237807500Y-90487500D03*
X247967500Y-90487500D03*
D24*
X242887500Y-90487500D03*
%TD*%
D21*
%TO.C,SW53*%
X198772500Y-116998750D03*
X212197500Y-114458750D03*
D22*
X202247500Y-116998750D03*
X208597500Y-114458750D03*
D23*
X199707500Y-111918750D03*
X209867500Y-111918750D03*
D24*
X204787500Y-111918750D03*
%TD*%
D21*
%TO.C,SW54*%
X208297500Y-136048750D03*
X221722500Y-133508750D03*
D22*
X211772500Y-136048750D03*
X218122500Y-133508750D03*
D23*
X209232500Y-130968750D03*
X219392500Y-130968750D03*
D24*
X214312500Y-130968750D03*
%TD*%
%TO.C,SW55*%
X219075000Y-150018750D03*
D23*
X224155000Y-150018750D03*
X213995000Y-150018750D03*
D22*
X222885000Y-152558750D03*
X216535000Y-155098750D03*
D21*
X226485000Y-152558750D03*
X213060000Y-155098750D03*
%TD*%
%TO.C,SW56*%
X203535000Y-174148750D03*
X216960000Y-171608750D03*
D22*
X207010000Y-174148750D03*
X213360000Y-171608750D03*
D23*
X204470000Y-169068750D03*
X214630000Y-169068750D03*
D24*
X209550000Y-169068750D03*
%TD*%
%TO.C,SW57*%
X226218750Y-188118750D03*
D23*
X231298750Y-188118750D03*
X221138750Y-188118750D03*
D22*
X230028750Y-190658750D03*
X223678750Y-193198750D03*
D21*
X233628750Y-190658750D03*
X220203750Y-193198750D03*
%TD*%
D24*
%TO.C,SW58*%
X261937500Y-90487500D03*
D23*
X267017500Y-90487500D03*
X256857500Y-90487500D03*
D22*
X265747500Y-93027500D03*
X259397500Y-95567500D03*
D21*
X269347500Y-93027500D03*
X255922500Y-95567500D03*
%TD*%
%TO.C,SW59*%
X217822500Y-116998750D03*
X231247500Y-114458750D03*
D22*
X221297500Y-116998750D03*
X227647500Y-114458750D03*
D23*
X218757500Y-111918750D03*
X228917500Y-111918750D03*
D24*
X223837500Y-111918750D03*
%TD*%
%TO.C,SW60*%
X233362500Y-130968750D03*
D23*
X238442500Y-130968750D03*
X228282500Y-130968750D03*
D22*
X237172500Y-133508750D03*
X230822500Y-136048750D03*
D21*
X240772500Y-133508750D03*
X227347500Y-136048750D03*
%TD*%
D24*
%TO.C,SW61*%
X238125000Y-150018750D03*
D23*
X243205000Y-150018750D03*
X233045000Y-150018750D03*
D22*
X241935000Y-152558750D03*
X235585000Y-155098750D03*
D21*
X245535000Y-152558750D03*
X232110000Y-155098750D03*
%TD*%
%TO.C,SW62*%
X222585000Y-174148750D03*
X236010000Y-171608750D03*
D22*
X226060000Y-174148750D03*
X232410000Y-171608750D03*
D23*
X223520000Y-169068750D03*
X233680000Y-169068750D03*
D24*
X228600000Y-169068750D03*
%TD*%
%TO.C,SW63*%
X250031250Y-188118750D03*
D23*
X255111250Y-188118750D03*
X244951250Y-188118750D03*
D22*
X253841250Y-190658750D03*
X247491250Y-193198750D03*
D21*
X257441250Y-190658750D03*
X244016250Y-193198750D03*
%TD*%
D24*
%TO.C,SW64*%
X280987500Y-90487500D03*
D23*
X286067500Y-90487500D03*
X275907500Y-90487500D03*
D22*
X284797500Y-93027500D03*
X278447500Y-95567500D03*
D21*
X288397500Y-93027500D03*
X274972500Y-95567500D03*
%TD*%
%TO.C,SW65*%
X236872500Y-116998750D03*
X250297500Y-114458750D03*
D22*
X240347500Y-116998750D03*
X246697500Y-114458750D03*
D23*
X237807500Y-111918750D03*
X247967500Y-111918750D03*
D24*
X242887500Y-111918750D03*
%TD*%
%TO.C,SW66*%
X252412500Y-130968750D03*
D23*
X257492500Y-130968750D03*
X247332500Y-130968750D03*
D22*
X256222500Y-133508750D03*
X249872500Y-136048750D03*
D21*
X259822500Y-133508750D03*
X246397500Y-136048750D03*
%TD*%
%TO.C,SW67*%
X251160000Y-155098750D03*
X264585000Y-152558750D03*
D22*
X254635000Y-155098750D03*
X260985000Y-152558750D03*
D23*
X252095000Y-150018750D03*
X262255000Y-150018750D03*
D24*
X257175000Y-150018750D03*
%TD*%
%TO.C,SW68*%
X247650000Y-169068750D03*
D23*
X252730000Y-169068750D03*
X242570000Y-169068750D03*
D22*
X251460000Y-171608750D03*
X245110000Y-174148750D03*
D21*
X255060000Y-171608750D03*
X241635000Y-174148750D03*
%TD*%
%TO.C,SW69*%
X267828750Y-193198750D03*
X281253750Y-190658750D03*
D22*
X271303750Y-193198750D03*
X277653750Y-190658750D03*
D23*
X268763750Y-188118750D03*
X278923750Y-188118750D03*
D24*
X273843750Y-188118750D03*
%TD*%
D21*
%TO.C,SW70*%
X294022500Y-95567500D03*
X307447500Y-93027500D03*
D22*
X297497500Y-95567500D03*
X303847500Y-93027500D03*
D23*
X294957500Y-90487500D03*
X305117500Y-90487500D03*
D24*
X300037500Y-90487500D03*
%TD*%
D21*
%TO.C,SW71*%
X255922500Y-116998750D03*
X269347500Y-114458750D03*
D22*
X259397500Y-116998750D03*
X265747500Y-114458750D03*
D23*
X256857500Y-111918750D03*
X267017500Y-111918750D03*
D24*
X261937500Y-111918750D03*
%TD*%
%TO.C,SW72*%
X271462500Y-130968750D03*
D23*
X276542500Y-130968750D03*
X266382500Y-130968750D03*
D22*
X275272500Y-133508750D03*
X268922500Y-136048750D03*
D21*
X278872500Y-133508750D03*
X265447500Y-136048750D03*
%TD*%
D25*
%TO.C,SW73*%
X276193250Y-157018750D03*
D24*
X276193250Y-141778750D03*
X300069250Y-141778750D03*
D25*
X300069250Y-157018750D03*
D21*
X282116250Y-155098750D03*
X295541250Y-152558750D03*
D22*
X285591250Y-155098750D03*
X291941250Y-152558750D03*
D23*
X283051250Y-150018750D03*
X293211250Y-150018750D03*
D24*
X288131250Y-150018750D03*
%TD*%
%TO.C,SW75*%
X297656250Y-188118750D03*
D23*
X302736250Y-188118750D03*
X292576250Y-188118750D03*
D22*
X301466250Y-190658750D03*
X295116250Y-193198750D03*
D21*
X305066250Y-190658750D03*
X291641250Y-193198750D03*
%TD*%
D24*
%TO.C,SW76*%
X325437500Y-90487500D03*
D23*
X330517500Y-90487500D03*
X320357500Y-90487500D03*
D22*
X329247500Y-93027500D03*
X322897500Y-95567500D03*
D21*
X332847500Y-93027500D03*
X319422500Y-95567500D03*
%TD*%
D24*
%TO.C,SW77*%
X290512500Y-111918750D03*
D23*
X295592500Y-111918750D03*
X285432500Y-111918750D03*
D22*
X294322500Y-114458750D03*
X287972500Y-116998750D03*
D21*
X297922500Y-114458750D03*
X284497500Y-116998750D03*
D25*
X302450500Y-118918750D03*
D24*
X302450500Y-103678750D03*
X278574500Y-103678750D03*
D25*
X278574500Y-118918750D03*
%TD*%
D21*
%TO.C,SW78*%
X289260000Y-136048750D03*
X302685000Y-133508750D03*
D22*
X292735000Y-136048750D03*
X299085000Y-133508750D03*
D23*
X290195000Y-130968750D03*
X300355000Y-130968750D03*
D24*
X295275000Y-130968750D03*
%TD*%
D21*
%TO.C,SW79*%
X319422500Y-116998750D03*
X332847500Y-114458750D03*
D22*
X322897500Y-116998750D03*
X329247500Y-114458750D03*
D23*
X320357500Y-111918750D03*
X330517500Y-111918750D03*
D24*
X325437500Y-111918750D03*
%TD*%
%TO.C,SW80*%
X325437500Y-188118750D03*
D23*
X330517500Y-188118750D03*
X320357500Y-188118750D03*
D22*
X329247500Y-190658750D03*
X322897500Y-193198750D03*
D21*
X332847500Y-190658750D03*
X319422500Y-193198750D03*
%TD*%
%TO.C,SW81*%
X338472500Y-95567500D03*
X351897500Y-93027500D03*
D22*
X341947500Y-95567500D03*
X348297500Y-93027500D03*
D23*
X339407500Y-90487500D03*
X349567500Y-90487500D03*
D24*
X344487500Y-90487500D03*
%TD*%
%TO.C,SW82*%
X344487500Y-111918750D03*
D23*
X349567500Y-111918750D03*
X339407500Y-111918750D03*
D22*
X348297500Y-114458750D03*
X341947500Y-116998750D03*
D21*
X351897500Y-114458750D03*
X338472500Y-116998750D03*
%TD*%
%TO.C,SW83*%
X338472500Y-136048750D03*
X351897500Y-133508750D03*
D22*
X341947500Y-136048750D03*
X348297500Y-133508750D03*
D23*
X339407500Y-130968750D03*
X349567500Y-130968750D03*
D24*
X344487500Y-130968750D03*
%TD*%
%TO.C,SW84*%
X344487500Y-169068750D03*
D23*
X349567500Y-169068750D03*
X339407500Y-169068750D03*
D22*
X348297500Y-171608750D03*
X341947500Y-174148750D03*
D21*
X351897500Y-171608750D03*
X338472500Y-174148750D03*
%TD*%
D24*
%TO.C,SW85*%
X344487500Y-188118750D03*
D23*
X349567500Y-188118750D03*
X339407500Y-188118750D03*
D22*
X348297500Y-190658750D03*
X341947500Y-193198750D03*
D21*
X351897500Y-190658750D03*
X338472500Y-193198750D03*
%TD*%
D24*
%TO.C,SW86*%
X363537500Y-90487500D03*
D23*
X368617500Y-90487500D03*
X358457500Y-90487500D03*
D22*
X367347500Y-93027500D03*
X360997500Y-95567500D03*
D21*
X370947500Y-93027500D03*
X357522500Y-95567500D03*
%TD*%
D24*
%TO.C,SW87*%
X363537500Y-111918750D03*
D23*
X368617500Y-111918750D03*
X358457500Y-111918750D03*
D22*
X367347500Y-114458750D03*
X360997500Y-116998750D03*
D21*
X370947500Y-114458750D03*
X357522500Y-116998750D03*
%TD*%
%TO.C,SW88*%
X357522500Y-136048750D03*
X370947500Y-133508750D03*
D22*
X360997500Y-136048750D03*
X367347500Y-133508750D03*
D23*
X358457500Y-130968750D03*
X368617500Y-130968750D03*
D24*
X363537500Y-130968750D03*
%TD*%
%TO.C,SW89*%
X363537500Y-188118750D03*
D23*
X368617500Y-188118750D03*
X358457500Y-188118750D03*
D22*
X367347500Y-190658750D03*
X360997500Y-193198750D03*
D21*
X370947500Y-190658750D03*
X357522500Y-193198750D03*
%TD*%
D26*
%TO.C,SW91*%
X344250000Y-96256250D03*
X349250000Y-96256250D03*
D27*
X341150000Y-89256250D03*
X352350000Y-89256250D03*
D26*
X344250000Y-81756250D03*
X346750000Y-81756250D03*
D28*
X349250000Y-81756250D03*
%TD*%
%TO.C,SW92*%
X368300000Y-81756250D03*
D26*
X365800000Y-81756250D03*
X363300000Y-81756250D03*
D27*
X371400000Y-89256250D03*
X360200000Y-89256250D03*
D26*
X368300000Y-96256250D03*
X363300000Y-96256250D03*
%TD*%
D29*
%TO.C,TP1*%
X39674800Y-63804800D03*
%TD*%
D30*
%TO.C,U6*%
G36*
X200026685Y-71061106D02*
G01*
X199637777Y-71450014D01*
X198577117Y-70389354D01*
X198966025Y-70000446D01*
X200026685Y-71061106D01*
G37*
G36*
X199460999Y-71626791D02*
G01*
X199072091Y-72015699D01*
X198011431Y-70955039D01*
X198400339Y-70566131D01*
X199460999Y-71626791D01*
G37*
G36*
X198895314Y-72192476D02*
G01*
X198506406Y-72581384D01*
X197445746Y-71520724D01*
X197834654Y-71131816D01*
X198895314Y-72192476D01*
G37*
G36*
X198329629Y-72758162D02*
G01*
X197940721Y-73147070D01*
X196880061Y-72086410D01*
X197268969Y-71697502D01*
X198329629Y-72758162D01*
G37*
G36*
X197763943Y-73323847D02*
G01*
X197375035Y-73712755D01*
X196314375Y-72652095D01*
X196703283Y-72263187D01*
X197763943Y-73323847D01*
G37*
G36*
X197198258Y-73889533D02*
G01*
X196809350Y-74278441D01*
X195748690Y-73217781D01*
X196137598Y-72828873D01*
X197198258Y-73889533D01*
G37*
G36*
X196632572Y-74455218D02*
G01*
X196243664Y-74844126D01*
X195183004Y-73783466D01*
X195571912Y-73394558D01*
X196632572Y-74455218D01*
G37*
G36*
X196066887Y-75020904D02*
G01*
X195677979Y-75409812D01*
X194617319Y-74349152D01*
X195006227Y-73960244D01*
X196066887Y-75020904D01*
G37*
G36*
X195501201Y-75586589D02*
G01*
X195112293Y-75975497D01*
X194051633Y-74914837D01*
X194440541Y-74525929D01*
X195501201Y-75586589D01*
G37*
G36*
X194935516Y-76152274D02*
G01*
X194546608Y-76541182D01*
X193485948Y-75480522D01*
X193874856Y-75091614D01*
X194935516Y-76152274D01*
G37*
G36*
X194369831Y-76717960D02*
G01*
X193980923Y-77106868D01*
X192920263Y-76046208D01*
X193309171Y-75657300D01*
X194369831Y-76717960D01*
G37*
G36*
X190905007Y-77106868D02*
G01*
X190516099Y-76717960D01*
X191576759Y-75657300D01*
X191965667Y-76046208D01*
X190905007Y-77106868D01*
G37*
G36*
X190339322Y-76541182D02*
G01*
X189950414Y-76152274D01*
X191011074Y-75091614D01*
X191399982Y-75480522D01*
X190339322Y-76541182D01*
G37*
G36*
X189773637Y-75975497D02*
G01*
X189384729Y-75586589D01*
X190445389Y-74525929D01*
X190834297Y-74914837D01*
X189773637Y-75975497D01*
G37*
G36*
X189207951Y-75409812D02*
G01*
X188819043Y-75020904D01*
X189879703Y-73960244D01*
X190268611Y-74349152D01*
X189207951Y-75409812D01*
G37*
G36*
X188642266Y-74844126D02*
G01*
X188253358Y-74455218D01*
X189314018Y-73394558D01*
X189702926Y-73783466D01*
X188642266Y-74844126D01*
G37*
G36*
X188076580Y-74278441D02*
G01*
X187687672Y-73889533D01*
X188748332Y-72828873D01*
X189137240Y-73217781D01*
X188076580Y-74278441D01*
G37*
G36*
X187510895Y-73712755D02*
G01*
X187121987Y-73323847D01*
X188182647Y-72263187D01*
X188571555Y-72652095D01*
X187510895Y-73712755D01*
G37*
G36*
X186945209Y-73147070D02*
G01*
X186556301Y-72758162D01*
X187616961Y-71697502D01*
X188005869Y-72086410D01*
X186945209Y-73147070D01*
G37*
G36*
X186379524Y-72581384D02*
G01*
X185990616Y-72192476D01*
X187051276Y-71131816D01*
X187440184Y-71520724D01*
X186379524Y-72581384D01*
G37*
G36*
X185813839Y-72015699D02*
G01*
X185424931Y-71626791D01*
X186485591Y-70566131D01*
X186874499Y-70955039D01*
X185813839Y-72015699D01*
G37*
G36*
X185248153Y-71450014D02*
G01*
X184859245Y-71061106D01*
X185919905Y-70000446D01*
X186308813Y-70389354D01*
X185248153Y-71450014D01*
G37*
G36*
X186308813Y-68656942D02*
G01*
X185919905Y-69045850D01*
X184859245Y-67985190D01*
X185248153Y-67596282D01*
X186308813Y-68656942D01*
G37*
G36*
X186874499Y-68091257D02*
G01*
X186485591Y-68480165D01*
X185424931Y-67419505D01*
X185813839Y-67030597D01*
X186874499Y-68091257D01*
G37*
G36*
X187440184Y-67525572D02*
G01*
X187051276Y-67914480D01*
X185990616Y-66853820D01*
X186379524Y-66464912D01*
X187440184Y-67525572D01*
G37*
G36*
X188005869Y-66959886D02*
G01*
X187616961Y-67348794D01*
X186556301Y-66288134D01*
X186945209Y-65899226D01*
X188005869Y-66959886D01*
G37*
G36*
X188571555Y-66394201D02*
G01*
X188182647Y-66783109D01*
X187121987Y-65722449D01*
X187510895Y-65333541D01*
X188571555Y-66394201D01*
G37*
G36*
X189137240Y-65828515D02*
G01*
X188748332Y-66217423D01*
X187687672Y-65156763D01*
X188076580Y-64767855D01*
X189137240Y-65828515D01*
G37*
G36*
X189702926Y-65262830D02*
G01*
X189314018Y-65651738D01*
X188253358Y-64591078D01*
X188642266Y-64202170D01*
X189702926Y-65262830D01*
G37*
G36*
X190268611Y-64697144D02*
G01*
X189879703Y-65086052D01*
X188819043Y-64025392D01*
X189207951Y-63636484D01*
X190268611Y-64697144D01*
G37*
G36*
X190834297Y-64131459D02*
G01*
X190445389Y-64520367D01*
X189384729Y-63459707D01*
X189773637Y-63070799D01*
X190834297Y-64131459D01*
G37*
G36*
X191399982Y-63565774D02*
G01*
X191011074Y-63954682D01*
X189950414Y-62894022D01*
X190339322Y-62505114D01*
X191399982Y-63565774D01*
G37*
G36*
X191965667Y-63000088D02*
G01*
X191576759Y-63388996D01*
X190516099Y-62328336D01*
X190905007Y-61939428D01*
X191965667Y-63000088D01*
G37*
G36*
X193309171Y-63388996D02*
G01*
X192920263Y-63000088D01*
X193980923Y-61939428D01*
X194369831Y-62328336D01*
X193309171Y-63388996D01*
G37*
G36*
X193874856Y-63954682D02*
G01*
X193485948Y-63565774D01*
X194546608Y-62505114D01*
X194935516Y-62894022D01*
X193874856Y-63954682D01*
G37*
G36*
X194440541Y-64520367D02*
G01*
X194051633Y-64131459D01*
X195112293Y-63070799D01*
X195501201Y-63459707D01*
X194440541Y-64520367D01*
G37*
G36*
X195006227Y-65086052D02*
G01*
X194617319Y-64697144D01*
X195677979Y-63636484D01*
X196066887Y-64025392D01*
X195006227Y-65086052D01*
G37*
G36*
X195571912Y-65651738D02*
G01*
X195183004Y-65262830D01*
X196243664Y-64202170D01*
X196632572Y-64591078D01*
X195571912Y-65651738D01*
G37*
G36*
X196137598Y-66217423D02*
G01*
X195748690Y-65828515D01*
X196809350Y-64767855D01*
X197198258Y-65156763D01*
X196137598Y-66217423D01*
G37*
G36*
X196703283Y-66783109D02*
G01*
X196314375Y-66394201D01*
X197375035Y-65333541D01*
X197763943Y-65722449D01*
X196703283Y-66783109D01*
G37*
G36*
X197268969Y-67348794D02*
G01*
X196880061Y-66959886D01*
X197940721Y-65899226D01*
X198329629Y-66288134D01*
X197268969Y-67348794D01*
G37*
G36*
X197834654Y-67914480D02*
G01*
X197445746Y-67525572D01*
X198506406Y-66464912D01*
X198895314Y-66853820D01*
X197834654Y-67914480D01*
G37*
G36*
X198400339Y-68480165D02*
G01*
X198011431Y-68091257D01*
X199072091Y-67030597D01*
X199460999Y-67419505D01*
X198400339Y-68480165D01*
G37*
G36*
X198966025Y-69045850D02*
G01*
X198577117Y-68656942D01*
X199637777Y-67596282D01*
X200026685Y-67985190D01*
X198966025Y-69045850D01*
G37*
%TD*%
M02*
